solid ascii
  facet normal -9.701425e-001 -2.425356e-001 0.000000e+000
    outer loop
      vertex   1.351191e+002 -6.633367e+001 5.000000e+001
      vertex   1.382441e+002 -7.883367e+001 0.000000e+000
      vertex   1.382441e+002 -7.883367e+001 1.000000e+002
    endloop
  endfacet
  facet normal -1.000000e+000 0.000000e+000 0.000000e+000
    outer loop
      vertex   1.194941e+002 1.211663e+002 5.000000e+001
      vertex   1.194941e+002 1.086663e+002 0.000000e+000
      vertex   1.194941e+002 1.086663e+002 1.000000e+002
    endloop
  endfacet
  facet normal -2.425356e-001 -9.701425e-001 0.000000e+000
    outer loop
      vertex   6.949406e+001 1.867913e+002 5.000000e+001
      vertex   8.199406e+001 1.836663e+002 0.000000e+000
      vertex   8.199406e+001 1.836663e+002 1.000000e+002
    endloop
  endfacet
  facet normal -1.000000e+000 0.000000e+000 -0.000000e+000
    outer loop
      vertex   1.194941e+002 1.211663e+002 5.000000e+001
      vertex   1.194941e+002 1.336663e+002 1.000000e+002
      vertex   1.194941e+002 1.336663e+002 0.000000e+000
    endloop
  endfacet
  facet normal 0.000000e+000 1.000000e+000 0.000000e+000
    outer loop
      vertex   -2.425592e+001 5.241634e+001 5.000000e+001
      vertex   5.699408e+001 5.241634e+001 0.000000e+000
      vertex   -1.055059e+002 5.241634e+001 0.000000e+000
    endloop
  endfacet
  facet normal 0.000000e+000 1.000000e+000 0.000000e+000
    outer loop
      vertex   -2.425592e+001 5.241634e+001 5.000000e+001
      vertex   -1.055059e+002 5.241634e+001 0.000000e+000
      vertex   -1.055059e+002 5.241634e+001 1.000000e+002
    endloop
  endfacet
  facet normal -2.425359e-001 -9.701424e-001 -0.000000e+000
    outer loop
      vertex   6.949406e+001 1.867913e+002 5.000000e+001
      vertex   5.699408e+001 1.899163e+002 1.000000e+002
      vertex   5.699408e+001 1.899163e+002 0.000000e+000
    endloop
  endfacet
  facet normal 0.000000e+000 1.000000e+000 0.000000e+000
    outer loop
      vertex   -2.425592e+001 5.241634e+001 5.000000e+001
      vertex   5.699408e+001 5.241634e+001 1.000000e+002
      vertex   5.699408e+001 5.241634e+001 0.000000e+000
    endloop
  endfacet
  facet normal 6.246951e-001 7.808688e-001 0.000000e+000
    outer loop
      vertex   1.601191e+002 1.491634e+001 5.000000e+001
      vertex   1.757441e+002 2.416343e+000 0.000000e+000
      vertex   1.444941e+002 2.741634e+001 0.000000e+000
    endloop
  endfacet
  facet normal 6.246951e-001 7.808688e-001 -0.000000e+000
    outer loop
      vertex   1.601191e+002 1.491634e+001 5.000000e+001
      vertex   1.444941e+002 2.741634e+001 0.000000e+000
      vertex   1.444941e+002 2.741634e+001 1.000000e+002
    endloop
  endfacet
  facet normal -1.961161e-001 -9.805807e-001 0.000000e+000
    outer loop
      vertex   7.261906e+001 -6.958656e+000 5.000000e+001
      vertex   8.824406e+001 -1.008366e+001 0.000000e+000
      vertex   8.824406e+001 -1.008366e+001 1.000000e+002
    endloop
  endfacet
  facet normal 6.246951e-001 7.808688e-001 0.000000e+000
    outer loop
      vertex   1.601191e+002 1.491634e+001 5.000000e+001
      vertex   1.757441e+002 2.416343e+000 1.000000e+002
      vertex   1.757441e+002 2.416343e+000 0.000000e+000
    endloop
  endfacet
  facet normal 2.425357e-001 -9.701424e-001 3.552769e-008
    outer loop
      vertex   8.824406e+001 -2.413337e+002 5.000000e+001
      vertex   6.324408e+001 -2.475837e+002 0.000000e+000
      vertex   1.132441e+002 -2.350837e+002 0.000000e+000
    endloop
  endfacet
  facet normal 2.425356e-001 -9.701425e-001 0.000000e+000
    outer loop
      vertex   8.824406e+001 -2.413337e+002 5.000000e+001
      vertex   1.132441e+002 -2.350837e+002 0.000000e+000
      vertex   1.132441e+002 -2.350837e+002 1.000000e+002
    endloop
  endfacet
  facet normal -1.961163e-001 -9.805806e-001 -0.000000e+000
    outer loop
      vertex   7.261906e+001 -6.958656e+000 5.000000e+001
      vertex   5.699408e+001 -3.833657e+000 1.000000e+002
      vertex   5.699408e+001 -3.833657e+000 0.000000e+000
    endloop
  endfacet
  facet normal 2.425358e-001 -9.701425e-001 0.000000e+000
    outer loop
      vertex   8.824406e+001 -2.413337e+002 5.000000e+001
      vertex   6.324408e+001 -2.475837e+002 1.000000e+002
      vertex   6.324408e+001 -2.475837e+002 0.000000e+000
    endloop
  endfacet
  facet normal 0.000000e+000 1.000000e+000 0.000000e+000
    outer loop
      vertex   -2.425592e+001 -1.788337e+002 5.000000e+001
      vertex   5.699408e+001 -1.788337e+002 0.000000e+000
      vertex   -1.055059e+002 -1.788337e+002 0.000000e+000
    endloop
  endfacet
  facet normal 0.000000e+000 1.000000e+000 0.000000e+000
    outer loop
      vertex   -2.425592e+001 -1.788337e+002 5.000000e+001
      vertex   -1.055059e+002 -1.788337e+002 0.000000e+000
      vertex   -1.055059e+002 -1.788337e+002 1.000000e+002
    endloop
  endfacet
  facet normal -9.701425e-001 2.425355e-001 0.000000e+000
    outer loop
      vertex   1.351191e+002 -1.163337e+002 5.000000e+001
      vertex   1.319941e+002 -1.288337e+002 0.000000e+000
      vertex   1.319941e+002 -1.288337e+002 1.000000e+002
    endloop
  endfacet
  facet normal 0.000000e+000 1.000000e+000 0.000000e+000
    outer loop
      vertex   -2.425592e+001 -1.788337e+002 5.000000e+001
      vertex   5.699408e+001 -1.788337e+002 1.000000e+002
      vertex   5.699408e+001 -1.788337e+002 0.000000e+000
    endloop
  endfacet
  facet normal 9.805807e-001 1.961161e-001 0.000000e+000
    outer loop
      vertex   1.851191e+002 1.492913e+002 5.000000e+001
      vertex   1.882441e+002 1.336663e+002 0.000000e+000
      vertex   1.819941e+002 1.649163e+002 0.000000e+000
    endloop
  endfacet
  facet normal 9.805807e-001 1.961161e-001 -0.000000e+000
    outer loop
      vertex   1.851191e+002 1.492913e+002 5.000000e+001
      vertex   1.819941e+002 1.649163e+002 0.000000e+000
      vertex   1.819941e+002 1.649163e+002 1.000000e+002
    endloop
  endfacet
  facet normal -9.701425e-001 2.425356e-001 0.000000e+000
    outer loop
      vertex   1.351191e+002 -1.163337e+002 5.000000e+001
      vertex   1.382441e+002 -1.038337e+002 1.000000e+002
      vertex   1.382441e+002 -1.038337e+002 0.000000e+000
    endloop
  endfacet
  facet normal 9.805807e-001 1.961161e-001 0.000000e+000
    outer loop
      vertex   1.851191e+002 1.492913e+002 5.000000e+001
      vertex   1.882441e+002 1.336663e+002 1.000000e+002
      vertex   1.882441e+002 1.336663e+002 0.000000e+000
    endloop
  endfacet
  facet normal -1.000000e+000 0.000000e+000 0.000000e+000
    outer loop
      vertex   -1.742559e+002 2.416343e+000 5.000000e+001
      vertex   -1.742559e+002 2.524163e+002 0.000000e+000
      vertex   -1.742559e+002 -2.475837e+002 0.000000e+000
    endloop
  endfacet
  facet normal -1.000000e+000 0.000000e+000 0.000000e+000
    outer loop
      vertex   -1.742559e+002 2.416343e+000 5.000000e+001
      vertex   -1.742559e+002 -2.475837e+002 0.000000e+000
      vertex   -1.742559e+002 -2.475837e+002 1.000000e+002
    endloop
  endfacet
  facet normal 0.000000e+000 1.000000e+000 0.000000e+000
    outer loop
      vertex   -5.550592e+001 2.524163e+002 5.000000e+001
      vertex   -1.742559e+002 2.524163e+002 0.000000e+000
      vertex   -1.742559e+002 2.524163e+002 1.000000e+002
    endloop
  endfacet
  facet normal -1.000000e+000 0.000000e+000 -0.000000e+000
    outer loop
      vertex   -1.742559e+002 2.416343e+000 5.000000e+001
      vertex   -1.742559e+002 2.524163e+002 1.000000e+002
      vertex   -1.742559e+002 2.524163e+002 0.000000e+000
    endloop
  endfacet
  facet normal -2.425358e-001 9.701425e-001 -3.552770e-008
    outer loop
      vertex   6.949406e+001 5.554134e+001 5.000000e+001
      vertex   8.199406e+001 5.866634e+001 0.000000e+000
      vertex   5.699408e+001 5.241634e+001 0.000000e+000
    endloop
  endfacet
  facet normal -2.425359e-001 9.701424e-001 0.000000e+000
    outer loop
      vertex   6.949406e+001 5.554134e+001 5.000000e+001
      vertex   5.699408e+001 5.241634e+001 0.000000e+000
      vertex   5.699408e+001 5.241634e+001 1.000000e+002
    endloop
  endfacet
  facet normal 0.000000e+000 1.000000e+000 0.000000e+000
    outer loop
      vertex   -5.550592e+001 2.524163e+002 5.000000e+001
      vertex   6.324408e+001 2.524163e+002 1.000000e+002
      vertex   6.324408e+001 2.524163e+002 0.000000e+000
    endloop
  endfacet
  facet normal -2.425356e-001 9.701425e-001 0.000000e+000
    outer loop
      vertex   6.949406e+001 5.554134e+001 5.000000e+001
      vertex   8.199406e+001 5.866634e+001 1.000000e+002
      vertex   8.199406e+001 5.866634e+001 0.000000e+000
    endloop
  endfacet
  facet normal -1.961162e-001 9.805807e-001 -2.872796e-008
    outer loop
      vertex   7.261906e+001 -1.757087e+002 5.000000e+001
      vertex   8.824406e+001 -1.725837e+002 0.000000e+000
      vertex   5.699408e+001 -1.788337e+002 0.000000e+000
    endloop
  endfacet
  facet normal -1.961163e-001 9.805806e-001 0.000000e+000
    outer loop
      vertex   7.261906e+001 -1.757087e+002 5.000000e+001
      vertex   5.699408e+001 -1.788337e+002 0.000000e+000
      vertex   5.699408e+001 -1.788337e+002 1.000000e+002
    endloop
  endfacet
  facet normal 0.000000e+000 -1.000000e+000 0.000000e+000
    outer loop
      vertex   -2.425592e+001 1.899163e+002 5.000000e+001
      vertex   5.699408e+001 1.899163e+002 0.000000e+000
      vertex   5.699408e+001 1.899163e+002 1.000000e+002
    endloop
  endfacet
  facet normal -1.961161e-001 9.805807e-001 0.000000e+000
    outer loop
      vertex   7.261906e+001 -1.757087e+002 5.000000e+001
      vertex   8.824406e+001 -1.725837e+002 1.000000e+002
      vertex   8.824406e+001 -1.725837e+002 0.000000e+000
    endloop
  endfacet
  facet normal 9.805807e-001 -1.961161e-001 0.000000e+000
    outer loop
      vertex   1.851191e+002 9.304134e+001 5.000000e+001
      vertex   1.819941e+002 7.741634e+001 0.000000e+000
      vertex   1.882441e+002 1.086663e+002 0.000000e+000
    endloop
  endfacet
  facet normal 9.805807e-001 -1.961161e-001 0.000000e+000
    outer loop
      vertex   1.851191e+002 9.304134e+001 5.000000e+001
      vertex   1.882441e+002 1.086663e+002 0.000000e+000
      vertex   1.882441e+002 1.086663e+002 1.000000e+002
    endloop
  endfacet
  facet normal 0.000000e+000 -1.000000e+000 0.000000e+000
    outer loop
      vertex   -2.425592e+001 1.899163e+002 5.000000e+001
      vertex   -1.055059e+002 1.899163e+002 1.000000e+002
      vertex   -1.055059e+002 1.899163e+002 0.000000e+000
    endloop
  endfacet
  facet normal 9.805807e-001 -1.961161e-001 0.000000e+000
    outer loop
      vertex   1.851191e+002 9.304134e+001 5.000000e+001
      vertex   1.819941e+002 7.741634e+001 1.000000e+002
      vertex   1.819941e+002 7.741634e+001 0.000000e+000
    endloop
  endfacet
  facet normal -8.320503e-001 -5.547002e-001 0.000000e+000
    outer loop
      vertex   1.069941e+002 1.617913e+002 5.000000e+001
      vertex   1.007441e+002 1.711663e+002 0.000000e+000
      vertex   1.132441e+002 1.524163e+002 0.000000e+000
    endloop
  endfacet
  facet normal -8.320503e-001 -5.547002e-001 0.000000e+000
    outer loop
      vertex   1.069941e+002 1.617913e+002 5.000000e+001
      vertex   1.132441e+002 1.524163e+002 0.000000e+000
      vertex   1.132441e+002 1.524163e+002 1.000000e+002
    endloop
  endfacet
  facet normal 1.000000e+000 0.000000e+000 -0.000000e+000
    outer loop
      vertex   1.882441e+002 1.211663e+002 5.000000e+001
      vertex   1.882441e+002 1.336663e+002 0.000000e+000
      vertex   1.882441e+002 1.336663e+002 1.000000e+002
    endloop
  endfacet
  facet normal -8.320503e-001 -5.547002e-001 -0.000000e+000
    outer loop
      vertex   1.069941e+002 1.617913e+002 5.000000e+001
      vertex   1.007441e+002 1.711663e+002 1.000000e+002
      vertex   1.007441e+002 1.711663e+002 0.000000e+000
    endloop
  endfacet
  facet normal -6.000000e-001 -8.000000e-001 0.000000e+000
    outer loop
      vertex   1.007441e+002 -1.945866e+001 5.000000e+001
      vertex   8.824406e+001 -1.008366e+001 0.000000e+000
      vertex   1.132441e+002 -2.883366e+001 0.000000e+000
    endloop
  endfacet
  facet normal -6.000000e-001 -8.000000e-001 0.000000e+000
    outer loop
      vertex   1.007441e+002 -1.945866e+001 5.000000e+001
      vertex   1.132441e+002 -2.883366e+001 0.000000e+000
      vertex   1.132441e+002 -2.883366e+001 1.000000e+002
    endloop
  endfacet
  facet normal 1.000000e+000 0.000000e+000 0.000000e+000
    outer loop
      vertex   1.882441e+002 1.211663e+002 5.000000e+001
      vertex   1.882441e+002 1.086663e+002 1.000000e+002
      vertex   1.882441e+002 1.086663e+002 0.000000e+000
    endloop
  endfacet
  facet normal -6.000000e-001 -8.000000e-001 -0.000000e+000
    outer loop
      vertex   1.007441e+002 -1.945866e+001 5.000000e+001
      vertex   8.824406e+001 -1.008366e+001 1.000000e+002
      vertex   8.824406e+001 -1.008366e+001 0.000000e+000
    endloop
  endfacet
  facet normal -5.547002e-001 8.320503e-001 0.000000e+000
    outer loop
      vertex   9.136906e+001 6.491634e+001 5.000000e+001
      vertex   1.007441e+002 7.116634e+001 0.000000e+000
      vertex   8.199406e+001 5.866634e+001 0.000000e+000
    endloop
  endfacet
  facet normal -5.547002e-001 8.320503e-001 0.000000e+000
    outer loop
      vertex   9.136906e+001 6.491634e+001 5.000000e+001
      vertex   8.199406e+001 5.866634e+001 0.000000e+000
      vertex   8.199406e+001 5.866634e+001 1.000000e+002
    endloop
  endfacet
  facet normal -1.000000e+000 0.000000e+000 0.000000e+000
    outer loop
      vertex   1.194941e+002 1.211663e+002 5.000000e+001
      vertex   1.194941e+002 1.336663e+002 0.000000e+000
      vertex   1.194941e+002 1.086663e+002 0.000000e+000
    endloop
  endfacet
  facet normal -5.547002e-001 8.320503e-001 0.000000e+000
    outer loop
      vertex   9.136906e+001 6.491634e+001 5.000000e+001
      vertex   1.007441e+002 7.116634e+001 1.000000e+002
      vertex   1.007441e+002 7.116634e+001 0.000000e+000
    endloop
  endfacet
  facet normal -6.000000e-001 8.000000e-001 0.000000e+000
    outer loop
      vertex   1.007441e+002 -1.632087e+002 5.000000e+001
      vertex   1.132441e+002 -1.538337e+002 0.000000e+000
      vertex   8.824406e+001 -1.725837e+002 0.000000e+000
    endloop
  endfacet
  facet normal -6.000000e-001 8.000000e-001 0.000000e+000
    outer loop
      vertex   1.007441e+002 -1.632087e+002 5.000000e+001
      vertex   8.824406e+001 -1.725837e+002 0.000000e+000
      vertex   8.824406e+001 -1.725837e+002 1.000000e+002
    endloop
  endfacet
  facet normal -9.701425e-001 -2.425356e-001 -0.000000e+000
    outer loop
      vertex   1.351191e+002 -6.633367e+001 5.000000e+001
      vertex   1.319941e+002 -5.383367e+001 1.000000e+002
      vertex   1.319941e+002 -5.383367e+001 0.000000e+000
    endloop
  endfacet
  facet normal -6.000000e-001 8.000000e-001 0.000000e+000
    outer loop
      vertex   1.007441e+002 -1.632087e+002 5.000000e+001
      vertex   1.132441e+002 -1.538337e+002 1.000000e+002
      vertex   1.132441e+002 -1.538337e+002 0.000000e+000
    endloop
  endfacet
  facet normal -9.486833e-001 -3.162278e-001 0.000000e+000
    outer loop
      vertex   1.163691e+002 1.430413e+002 5.000000e+001
      vertex   1.132441e+002 1.524163e+002 0.000000e+000
      vertex   1.194941e+002 1.336663e+002 0.000000e+000
    endloop
  endfacet
  facet normal -9.486833e-001 -3.162278e-001 0.000000e+000
    outer loop
      vertex   1.163691e+002 1.430413e+002 5.000000e+001
      vertex   1.194941e+002 1.336663e+002 0.000000e+000
      vertex   1.194941e+002 1.336663e+002 1.000000e+002
    endloop
  endfacet
  facet normal 8.320503e-001 -5.547002e-001 0.000000e+000
    outer loop
      vertex   1.694941e+002 5.866634e+001 5.000000e+001
      vertex   1.819941e+002 7.741634e+001 0.000000e+000
      vertex   1.819941e+002 7.741634e+001 1.000000e+002
    endloop
  endfacet
  facet normal -9.486833e-001 -3.162278e-001 -0.000000e+000
    outer loop
      vertex   1.163691e+002 1.430413e+002 5.000000e+001
      vertex   1.132441e+002 1.524163e+002 1.000000e+002
      vertex   1.132441e+002 1.524163e+002 0.000000e+000
    endloop
  endfacet
  facet normal -8.000000e-001 6.000000e-001 0.000000e+000
    outer loop
      vertex   1.226191e+002 -1.413337e+002 5.000000e+001
      vertex   1.319941e+002 -1.288337e+002 0.000000e+000
      vertex   1.132441e+002 -1.538337e+002 0.000000e+000
    endloop
  endfacet
  facet normal -8.000000e-001 6.000000e-001 0.000000e+000
    outer loop
      vertex   1.226191e+002 -1.413337e+002 5.000000e+001
      vertex   1.132441e+002 -1.538337e+002 0.000000e+000
      vertex   1.132441e+002 -1.538337e+002 1.000000e+002
    endloop
  endfacet
  facet normal 8.320503e-001 -5.547002e-001 0.000000e+000
    outer loop
      vertex   1.694941e+002 5.866634e+001 5.000000e+001
      vertex   1.569941e+002 3.991634e+001 1.000000e+002
      vertex   1.569941e+002 3.991634e+001 0.000000e+000
    endloop
  endfacet
  facet normal -8.000000e-001 6.000000e-001 0.000000e+000
    outer loop
      vertex   1.226191e+002 -1.413337e+002 5.000000e+001
      vertex   1.319941e+002 -1.288337e+002 1.000000e+002
      vertex   1.319941e+002 -1.288337e+002 0.000000e+000
    endloop
  endfacet
  facet normal 9.615240e-001 -2.747211e-001 -2.682823e-008
    outer loop
      vertex   2.069941e+002 -1.319587e+002 5.000000e+001
      vertex   2.007441e+002 -1.538337e+002 0.000000e+000
      vertex   2.132441e+002 -1.100837e+002 0.000000e+000
    endloop
  endfacet
  facet normal 9.615240e-001 -2.747210e-001 0.000000e+000
    outer loop
      vertex   2.069941e+002 -1.319587e+002 5.000000e+001
      vertex   2.132441e+002 -1.100837e+002 0.000000e+000
      vertex   2.132441e+002 -1.100837e+002 1.000000e+002
    endloop
  endfacet
  facet normal -9.486833e-001 3.162278e-001 0.000000e+000
    outer loop
      vertex   1.163691e+002 9.929134e+001 5.000000e+001
      vertex   1.132441e+002 8.991634e+001 0.000000e+000
      vertex   1.132441e+002 8.991634e+001 1.000000e+002
    endloop
  endfacet
  facet normal 9.615240e-001 -2.747211e-001 0.000000e+000
    outer loop
      vertex   2.069941e+002 -1.319587e+002 5.000000e+001
      vertex   2.007441e+002 -1.538337e+002 1.000000e+002
      vertex   2.007441e+002 -1.538337e+002 0.000000e+000
    endloop
  endfacet
  facet normal -5.547002e-001 -8.320503e-001 0.000000e+000
    outer loop
      vertex   9.136906e+001 1.774163e+002 5.000000e+001
      vertex   8.199406e+001 1.836663e+002 0.000000e+000
      vertex   1.007441e+002 1.711663e+002 0.000000e+000
    endloop
  endfacet
  facet normal -5.547002e-001 -8.320503e-001 0.000000e+000
    outer loop
      vertex   9.136906e+001 1.774163e+002 5.000000e+001
      vertex   1.007441e+002 1.711663e+002 0.000000e+000
      vertex   1.007441e+002 1.711663e+002 1.000000e+002
    endloop
  endfacet
  facet normal -9.486833e-001 3.162278e-001 0.000000e+000
    outer loop
      vertex   1.163691e+002 9.929134e+001 5.000000e+001
      vertex   1.194941e+002 1.086663e+002 1.000000e+002
      vertex   1.194941e+002 1.086663e+002 0.000000e+000
    endloop
  endfacet
  facet normal -5.547002e-001 -8.320503e-001 -0.000000e+000
    outer loop
      vertex   9.136906e+001 1.774163e+002 5.000000e+001
      vertex   8.199406e+001 1.836663e+002 1.000000e+002
      vertex   8.199406e+001 1.836663e+002 0.000000e+000
    endloop
  endfacet
  facet normal -8.000001e-001 -5.999998e-001 8.789059e-008
    outer loop
      vertex   1.226191e+002 -4.133366e+001 5.000000e+001
      vertex   1.132441e+002 -2.883366e+001 0.000000e+000
      vertex   1.319941e+002 -5.383367e+001 0.000000e+000
    endloop
  endfacet
  facet normal -8.000003e-001 -5.999995e-001 0.000000e+000
    outer loop
      vertex   1.226191e+002 -4.133366e+001 5.000000e+001
      vertex   1.319941e+002 -5.383367e+001 0.000000e+000
      vertex   1.319941e+002 -5.383367e+001 1.000000e+002
    endloop
  endfacet
  facet normal 1.000000e+000 0.000000e+000 -0.000000e+000
    outer loop
      vertex   -1.055059e+002 1.211663e+002 5.000000e+001
      vertex   -1.055059e+002 1.899163e+002 0.000000e+000
      vertex   -1.055059e+002 1.899163e+002 1.000000e+002
    endloop
  endfacet
  facet normal -8.000000e-001 -6.000000e-001 -0.000000e+000
    outer loop
      vertex   1.226191e+002 -4.133366e+001 5.000000e+001
      vertex   1.132441e+002 -2.883366e+001 1.000000e+002
      vertex   1.132441e+002 -2.883366e+001 0.000000e+000
    endloop
  endfacet
  facet normal 8.574929e-001 -5.144957e-001 0.000000e+000
    outer loop
      vertex   1.913691e+002 -1.694587e+002 5.000000e+001
      vertex   1.819941e+002 -1.850837e+002 0.000000e+000
      vertex   2.007441e+002 -1.538337e+002 0.000000e+000
    endloop
  endfacet
  facet normal 8.574929e-001 -5.144957e-001 0.000000e+000
    outer loop
      vertex   1.913691e+002 -1.694587e+002 5.000000e+001
      vertex   2.007441e+002 -1.538337e+002 0.000000e+000
      vertex   2.007441e+002 -1.538337e+002 1.000000e+002
    endloop
  endfacet
  facet normal 1.000000e+000 0.000000e+000 0.000000e+000
    outer loop
      vertex   -1.055059e+002 1.211663e+002 5.000000e+001
      vertex   -1.055059e+002 5.241634e+001 1.000000e+002
      vertex   -1.055059e+002 5.241634e+001 0.000000e+000
    endloop
  endfacet
  facet normal 8.574929e-001 -5.144957e-001 0.000000e+000
    outer loop
      vertex   1.913691e+002 -1.694587e+002 5.000000e+001
      vertex   1.819941e+002 -1.850837e+002 1.000000e+002
      vertex   1.819941e+002 -1.850837e+002 0.000000e+000
    endloop
  endfacet
  facet normal 1.961162e-001 9.805807e-001 2.872796e-008
    outer loop
      vertex   7.886906e+001 2.492913e+002 5.000000e+001
      vertex   9.449406e+001 2.461663e+002 0.000000e+000
      vertex   6.324408e+001 2.524163e+002 0.000000e+000
    endloop
  endfacet
  facet normal 1.961163e-001 9.805806e-001 -0.000000e+000
    outer loop
      vertex   7.886906e+001 2.492913e+002 5.000000e+001
      vertex   6.324408e+001 2.524163e+002 0.000000e+000
      vertex   6.324408e+001 2.524163e+002 1.000000e+002
    endloop
  endfacet
  facet normal 8.320503e-001 5.547002e-001 -0.000000e+000
    outer loop
      vertex   1.882441e+002 -1.633366e+001 5.000000e+001
      vertex   1.757441e+002 2.416343e+000 0.000000e+000
      vertex   1.757441e+002 2.416343e+000 1.000000e+002
    endloop
  endfacet
  facet normal 1.961161e-001 9.805807e-001 0.000000e+000
    outer loop
      vertex   7.886906e+001 2.492913e+002 5.000000e+001
      vertex   9.449406e+001 2.461663e+002 1.000000e+002
      vertex   9.449406e+001 2.461663e+002 0.000000e+000
    endloop
  endfacet
  facet normal 7.071068e-001 -7.071068e-001 0.000000e+000
    outer loop
      vertex   1.663691e+002 -2.007087e+002 5.000000e+001
      vertex   1.507441e+002 -2.163337e+002 0.000000e+000
      vertex   1.819941e+002 -1.850837e+002 0.000000e+000
    endloop
  endfacet
  facet normal 7.071068e-001 -7.071068e-001 0.000000e+000
    outer loop
      vertex   1.663691e+002 -2.007087e+002 5.000000e+001
      vertex   1.819941e+002 -1.850837e+002 0.000000e+000
      vertex   1.819941e+002 -1.850837e+002 1.000000e+002
    endloop
  endfacet
  facet normal 8.320503e-001 5.547002e-001 0.000000e+000
    outer loop
      vertex   1.882441e+002 -1.633366e+001 5.000000e+001
      vertex   2.007441e+002 -3.508366e+001 1.000000e+002
      vertex   2.007441e+002 -3.508366e+001 0.000000e+000
    endloop
  endfacet
  facet normal 7.071068e-001 -7.071068e-001 0.000000e+000
    outer loop
      vertex   1.663691e+002 -2.007087e+002 5.000000e+001
      vertex   1.507441e+002 -2.163337e+002 1.000000e+002
      vertex   1.507441e+002 -2.163337e+002 0.000000e+000
    endloop
  endfacet
  facet normal 0.000000e+000 -1.000000e+000 0.000000e+000
    outer loop
      vertex   -2.425592e+001 -3.833657e+000 5.000000e+001
      vertex   -1.055059e+002 -3.833657e+000 0.000000e+000
      vertex   5.699408e+001 -3.833657e+000 0.000000e+000
    endloop
  endfacet
  facet normal 0.000000e+000 -1.000000e+000 0.000000e+000
    outer loop
      vertex   -2.425592e+001 -3.833657e+000 5.000000e+001
      vertex   5.699408e+001 -3.833657e+000 0.000000e+000
      vertex   5.699408e+001 -3.833657e+000 1.000000e+002
    endloop
  endfacet
  facet normal 9.615241e-001 2.747210e-001 -0.000000e+000
    outer loop
      vertex   2.069941e+002 -5.695867e+001 5.000000e+001
      vertex   2.007441e+002 -3.508366e+001 0.000000e+000
      vertex   2.007441e+002 -3.508366e+001 1.000000e+002
    endloop
  endfacet
  facet normal 0.000000e+000 -1.000000e+000 0.000000e+000
    outer loop
      vertex   -2.425592e+001 -3.833657e+000 5.000000e+001
      vertex   -1.055059e+002 -3.833657e+000 1.000000e+002
      vertex   -1.055059e+002 -3.833657e+000 0.000000e+000
    endloop
  endfacet
  facet normal 4.472136e-001 -8.944272e-001 0.000000e+000
    outer loop
      vertex   1.319941e+002 -2.257087e+002 5.000000e+001
      vertex   1.132441e+002 -2.350837e+002 0.000000e+000
      vertex   1.507441e+002 -2.163337e+002 0.000000e+000
    endloop
  endfacet
  facet normal 4.472136e-001 -8.944272e-001 0.000000e+000
    outer loop
      vertex   1.319941e+002 -2.257087e+002 5.000000e+001
      vertex   1.507441e+002 -2.163337e+002 0.000000e+000
      vertex   1.507441e+002 -2.163337e+002 1.000000e+002
    endloop
  endfacet
  facet normal 9.615240e-001 2.747211e-001 0.000000e+000
    outer loop
      vertex   2.069941e+002 -5.695867e+001 5.000000e+001
      vertex   2.132441e+002 -7.883367e+001 1.000000e+002
      vertex   2.132441e+002 -7.883367e+001 0.000000e+000
    endloop
  endfacet
  facet normal 4.472136e-001 -8.944272e-001 0.000000e+000
    outer loop
      vertex   1.319941e+002 -2.257087e+002 5.000000e+001
      vertex   1.132441e+002 -2.350837e+002 1.000000e+002
      vertex   1.132441e+002 -2.350837e+002 0.000000e+000
    endloop
  endfacet
  facet normal 4.472136e-001 8.944272e-001 0.000000e+000
    outer loop
      vertex   1.132441e+002 2.367913e+002 5.000000e+001
      vertex   1.319941e+002 2.274163e+002 0.000000e+000
      vertex   9.449406e+001 2.461663e+002 0.000000e+000
    endloop
  endfacet
  facet normal 4.472136e-001 8.944272e-001 -0.000000e+000
    outer loop
      vertex   1.132441e+002 2.367913e+002 5.000000e+001
      vertex   9.449406e+001 2.461663e+002 0.000000e+000
      vertex   9.449406e+001 2.461663e+002 1.000000e+002
    endloop
  endfacet
  facet normal -1.000000e+000 0.000000e+000 0.000000e+000
    outer loop
      vertex   1.382441e+002 -9.133367e+001 5.000000e+001
      vertex   1.382441e+002 -1.038337e+002 0.000000e+000
      vertex   1.382441e+002 -1.038337e+002 1.000000e+002
    endloop
  endfacet
  facet normal 4.472136e-001 8.944272e-001 0.000000e+000
    outer loop
      vertex   1.132441e+002 2.367913e+002 5.000000e+001
      vertex   1.319941e+002 2.274163e+002 1.000000e+002
      vertex   1.319941e+002 2.274163e+002 0.000000e+000
    endloop
  endfacet
  facet normal 0.000000e+000 -1.000000e+000 0.000000e+000
    outer loop
      vertex   -5.550592e+001 -2.475837e+002 5.000000e+001
      vertex   -1.742559e+002 -2.475837e+002 0.000000e+000
      vertex   6.324408e+001 -2.475837e+002 0.000000e+000
    endloop
  endfacet
  facet normal 0.000000e+000 -1.000000e+000 0.000000e+000
    outer loop
      vertex   -5.550592e+001 -2.475837e+002 5.000000e+001
      vertex   6.324408e+001 -2.475837e+002 0.000000e+000
      vertex   6.324408e+001 -2.475837e+002 1.000000e+002
    endloop
  endfacet
  facet normal -1.000000e+000 0.000000e+000 -0.000000e+000
    outer loop
      vertex   1.382441e+002 -9.133367e+001 5.000000e+001
      vertex   1.382441e+002 -7.883367e+001 1.000000e+002
      vertex   1.382441e+002 -7.883367e+001 0.000000e+000
    endloop
  endfacet
  facet normal 0.000000e+000 -1.000000e+000 0.000000e+000
    outer loop
      vertex   -5.550592e+001 -2.475837e+002 5.000000e+001
      vertex   -1.742559e+002 -2.475837e+002 1.000000e+002
      vertex   -1.742559e+002 -2.475837e+002 0.000000e+000
    endloop
  endfacet
  facet normal -8.320503e-001 5.547002e-001 0.000000e+000
    outer loop
      vertex   1.069941e+002 8.054134e+001 5.000000e+001
      vertex   1.132441e+002 8.991634e+001 0.000000e+000
      vertex   1.007441e+002 7.116634e+001 0.000000e+000
    endloop
  endfacet
  facet normal -8.320503e-001 5.547002e-001 0.000000e+000
    outer loop
      vertex   1.069941e+002 8.054134e+001 5.000000e+001
      vertex   1.007441e+002 7.116634e+001 0.000000e+000
      vertex   1.007441e+002 7.116634e+001 1.000000e+002
    endloop
  endfacet
  facet normal 8.320503e-001 5.547002e-001 -0.000000e+000
    outer loop
      vertex   1.694941e+002 1.836663e+002 5.000000e+001
      vertex   1.569941e+002 2.024163e+002 0.000000e+000
      vertex   1.569941e+002 2.024163e+002 1.000000e+002
    endloop
  endfacet
  facet normal -8.320503e-001 5.547002e-001 0.000000e+000
    outer loop
      vertex   1.069941e+002 8.054134e+001 5.000000e+001
      vertex   1.132441e+002 8.991634e+001 1.000000e+002
      vertex   1.132441e+002 8.991634e+001 0.000000e+000
    endloop
  endfacet
  facet normal 7.071064e-001 7.071072e-001 2.244237e-007
    outer loop
      vertex   1.444941e+002 2.149163e+002 5.000000e+001
      vertex   1.569941e+002 2.024163e+002 0.000000e+000
      vertex   1.319941e+002 2.274163e+002 0.000000e+000
    endloop
  endfacet
  facet normal 7.071068e-001 7.071068e-001 -0.000000e+000
    outer loop
      vertex   1.444941e+002 2.149163e+002 5.000000e+001
      vertex   1.319941e+002 2.274163e+002 0.000000e+000
      vertex   1.319941e+002 2.274163e+002 1.000000e+002
    endloop
  endfacet
  facet normal 8.320503e-001 5.547002e-001 0.000000e+000
    outer loop
      vertex   1.694941e+002 1.836663e+002 5.000000e+001
      vertex   1.819941e+002 1.649163e+002 1.000000e+002
      vertex   1.819941e+002 1.649163e+002 0.000000e+000
    endloop
  endfacet
  facet normal 7.071059e-001 7.071076e-001 0.000000e+000
    outer loop
      vertex   1.444941e+002 2.149163e+002 5.000000e+001
      vertex   1.569941e+002 2.024163e+002 1.000000e+002
      vertex   1.569941e+002 2.024163e+002 0.000000e+000
    endloop
  endfacet
  facet normal -2.425358e-001 -9.701425e-001 -3.552770e-008
    outer loop
      vertex   6.949406e+001 1.867913e+002 5.000000e+001
      vertex   5.699408e+001 1.899163e+002 0.000000e+000
      vertex   8.199406e+001 1.836663e+002 0.000000e+000
    endloop
  endfacet
  facet normal 0.000000e+000 0.000000e+000 -1.000000e+000
    outer loop
      vertex   1.132441e+002 -2.350837e+002 0.000000e+000
      vertex   6.324408e+001 -2.475837e+002 0.000000e+000
      vertex   -1.055059e+002 -1.788337e+002 0.000000e+000
    endloop
  endfacet
  facet normal 0.000000e+000 0.000000e+000 -1.000000e+000
    outer loop
      vertex   6.324408e+001 -2.475837e+002 0.000000e+000
      vertex   -1.742559e+002 -2.475837e+002 0.000000e+000
      vertex   -1.055059e+002 -1.788337e+002 0.000000e+000
    endloop
  endfacet
  facet normal 1.000000e+000 0.000000e+000 -0.000000e+000
    outer loop
      vertex   2.132441e+002 -9.445867e+001 5.000000e+001
      vertex   2.132441e+002 -7.883367e+001 0.000000e+000
      vertex   2.132441e+002 -7.883367e+001 1.000000e+002
    endloop
  endfacet
  facet normal -1.961162e-001 -9.805807e-001 -2.393997e-008
    outer loop
      vertex   7.261906e+001 -6.958656e+000 5.000000e+001
      vertex   5.699408e+001 -3.833657e+000 0.000000e+000
      vertex   8.824406e+001 -1.008366e+001 0.000000e+000
    endloop
  endfacet
  facet normal 0.000000e+000 0.000000e+000 -1.000000e+000
    outer loop
      vertex   5.699408e+001 -1.788337e+002 0.000000e+000
      vertex   1.132441e+002 -2.350837e+002 0.000000e+000
      vertex   -1.055059e+002 -1.788337e+002 0.000000e+000
    endloop
  endfacet
  facet normal 0.000000e+000 0.000000e+000 -1.000000e+000
    outer loop
      vertex   8.824406e+001 -1.725837e+002 0.000000e+000
      vertex   1.132441e+002 -2.350837e+002 0.000000e+000
      vertex   5.699408e+001 -1.788337e+002 0.000000e+000
    endloop
  endfacet
  facet normal 0.000000e+000 0.000000e+000 -1.000000e+000
    outer loop
      vertex   1.507441e+002 -2.163337e+002 0.000000e+000
      vertex   1.132441e+002 -2.350837e+002 0.000000e+000
      vertex   8.824406e+001 -1.725837e+002 0.000000e+000
    endloop
  endfacet
  facet normal -9.701425e-001 2.425356e-001 -1.776383e-008
    outer loop
      vertex   1.351191e+002 -1.163337e+002 5.000000e+001
      vertex   1.382441e+002 -1.038337e+002 0.000000e+000
      vertex   1.319941e+002 -1.288337e+002 0.000000e+000
    endloop
  endfacet
  facet normal -0.000000e+000 0.000000e+000 -1.000000e+000
    outer loop
      vertex   -1.055059e+002 -3.833657e+000 0.000000e+000
      vertex   -1.055059e+002 -1.788337e+002 0.000000e+000
      vertex   -1.742559e+002 -2.475837e+002 0.000000e+000
    endloop
  endfacet
  facet normal 1.000000e+000 0.000000e+000 0.000000e+000
    outer loop
      vertex   2.132441e+002 -9.445867e+001 5.000000e+001
      vertex   2.132441e+002 -1.100837e+002 1.000000e+002
      vertex   2.132441e+002 -1.100837e+002 0.000000e+000
    endloop
  endfacet
  facet normal 0.000000e+000 0.000000e+000 -1.000000e+000
    outer loop
      vertex   1.319941e+002 -1.288337e+002 0.000000e+000
      vertex   1.819941e+002 -1.850837e+002 0.000000e+000
      vertex   1.132441e+002 -1.538337e+002 0.000000e+000
    endloop
  endfacet
  facet normal 0.000000e+000 1.000000e+000 0.000000e+000
    outer loop
      vertex   -5.550592e+001 2.524163e+002 5.000000e+001
      vertex   6.324408e+001 2.524163e+002 0.000000e+000
      vertex   -1.742559e+002 2.524163e+002 0.000000e+000
    endloop
  endfacet
  facet normal 0.000000e+000 0.000000e+000 -1.000000e+000
    outer loop
      vertex   1.819941e+002 -1.850837e+002 0.000000e+000
      vertex   1.507441e+002 -2.163337e+002 0.000000e+000
      vertex   1.132441e+002 -1.538337e+002 0.000000e+000
    endloop
  endfacet
  facet normal -0.000000e+000 0.000000e+000 -1.000000e+000
    outer loop
      vertex   -1.055059e+002 5.241634e+001 0.000000e+000
      vertex   -1.055059e+002 -3.833657e+000 0.000000e+000
      vertex   -1.742559e+002 -2.475837e+002 0.000000e+000
    endloop
  endfacet
  facet normal 0.000000e+000 0.000000e+000 -1.000000e+000
    outer loop
      vertex   2.007441e+002 -1.538337e+002 0.000000e+000
      vertex   1.819941e+002 -1.850837e+002 0.000000e+000
      vertex   1.319941e+002 -1.288337e+002 0.000000e+000
    endloop
  endfacet
  facet normal 0.000000e+000 -1.000000e+000 0.000000e+000
    outer loop
      vertex   -2.425592e+001 1.899163e+002 5.000000e+001
      vertex   -1.055059e+002 1.899163e+002 0.000000e+000
      vertex   5.699408e+001 1.899163e+002 0.000000e+000
    endloop
  endfacet
  facet normal 1.000000e+000 0.000000e+000 0.000000e+000
    outer loop
      vertex   -1.055059e+002 -9.133367e+001 5.000000e+001
      vertex   -1.055059e+002 -1.788337e+002 0.000000e+000
      vertex   -1.055059e+002 -3.833657e+000 0.000000e+000
    endloop
  endfacet
  facet normal 0.000000e+000 0.000000e+000 -1.000000e+000
    outer loop
      vertex   5.699408e+001 -3.833657e+000 0.000000e+000
      vertex   -1.055059e+002 -3.833657e+000 0.000000e+000
      vertex   -1.055059e+002 5.241634e+001 0.000000e+000
    endloop
  endfacet
  facet normal 0.000000e+000 0.000000e+000 -1.000000e+000
    outer loop
      vertex   1.319941e+002 -5.383367e+001 0.000000e+000
      vertex   2.007441e+002 -1.538337e+002 0.000000e+000
      vertex   1.382441e+002 -7.883367e+001 0.000000e+000
    endloop
  endfacet
  facet normal 1.000000e+000 0.000000e+000 0.000000e+000
    outer loop
      vertex   1.882441e+002 1.211663e+002 5.000000e+001
      vertex   1.882441e+002 1.086663e+002 0.000000e+000
      vertex   1.882441e+002 1.336663e+002 0.000000e+000
    endloop
  endfacet
  facet normal 0.000000e+000 0.000000e+000 -1.000000e+000
    outer loop
      vertex   1.382441e+002 -7.883367e+001 0.000000e+000
      vertex   2.007441e+002 -1.538337e+002 0.000000e+000
      vertex   1.382441e+002 -1.038337e+002 0.000000e+000
    endloop
  endfacet
  facet normal 1.000000e+000 0.000000e+000 -0.000000e+000
    outer loop
      vertex   -1.055059e+002 -9.133367e+001 5.000000e+001
      vertex   -1.055059e+002 -3.833657e+000 0.000000e+000
      vertex   -1.055059e+002 -3.833657e+000 1.000000e+002
    endloop
  endfacet
  facet normal 0.000000e+000 0.000000e+000 -1.000000e+000
    outer loop
      vertex   8.824406e+001 -1.008366e+001 0.000000e+000
      vertex   5.699408e+001 -3.833657e+000 0.000000e+000
      vertex   -1.055059e+002 5.241634e+001 0.000000e+000
    endloop
  endfacet
  facet normal -9.701425e-001 -2.425356e-001 0.000000e+000
    outer loop
      vertex   1.351191e+002 -6.633367e+001 5.000000e+001
      vertex   1.319941e+002 -5.383367e+001 0.000000e+000
      vertex   1.382441e+002 -7.883367e+001 0.000000e+000
    endloop
  endfacet
  facet normal 0.000000e+000 0.000000e+000 -1.000000e+000
    outer loop
      vertex   2.132441e+002 -1.100837e+002 0.000000e+000
      vertex   2.007441e+002 -1.538337e+002 0.000000e+000
      vertex   1.319941e+002 -5.383367e+001 0.000000e+000
    endloop
  endfacet
  facet normal 0.000000e+000 0.000000e+000 -1.000000e+000
    outer loop
      vertex   1.132441e+002 -2.883366e+001 0.000000e+000
      vertex   2.132441e+002 -1.100837e+002 0.000000e+000
      vertex   1.319941e+002 -5.383367e+001 0.000000e+000
    endloop
  endfacet
  facet normal 0.000000e+000 0.000000e+000 -1.000000e+000
    outer loop
      vertex   2.132441e+002 -7.883367e+001 0.000000e+000
      vertex   1.132441e+002 -2.883366e+001 0.000000e+000
      vertex   8.824406e+001 -1.008366e+001 0.000000e+000
    endloop
  endfacet
  facet normal 8.320503e-001 -5.547002e-001 0.000000e+000
    outer loop
      vertex   1.694941e+002 5.866634e+001 5.000000e+001
      vertex   1.569941e+002 3.991634e+001 0.000000e+000
      vertex   1.819941e+002 7.741634e+001 0.000000e+000
    endloop
  endfacet
  facet normal 0.000000e+000 0.000000e+000 -1.000000e+000
    outer loop
      vertex   5.699408e+001 5.241634e+001 0.000000e+000
      vertex   2.132441e+002 -7.883367e+001 0.000000e+000
      vertex   8.824406e+001 -1.008366e+001 0.000000e+000
    endloop
  endfacet
  facet normal 0.000000e+000 0.000000e+000 -1.000000e+000
    outer loop
      vertex   5.699408e+001 5.241634e+001 0.000000e+000
      vertex   8.824406e+001 -1.008366e+001 0.000000e+000
      vertex   -1.055059e+002 5.241634e+001 0.000000e+000
    endloop
  endfacet
  facet normal -0.000000e+000 0.000000e+000 -1.000000e+000
    outer loop
      vertex   -1.055059e+002 1.899163e+002 0.000000e+000
      vertex   -1.055059e+002 5.241634e+001 0.000000e+000
      vertex   -1.742559e+002 -2.475837e+002 0.000000e+000
    endloop
  endfacet
  facet normal -9.486833e-001 3.162278e-001 0.000000e+000
    outer loop
      vertex   1.163691e+002 9.929134e+001 5.000000e+001
      vertex   1.194941e+002 1.086663e+002 0.000000e+000
      vertex   1.132441e+002 8.991634e+001 0.000000e+000
    endloop
  endfacet
  facet normal 0.000000e+000 0.000000e+000 -1.000000e+000
    outer loop
      vertex   2.007441e+002 -3.508366e+001 0.000000e+000
      vertex   2.132441e+002 -7.883367e+001 0.000000e+000
      vertex   5.699408e+001 5.241634e+001 0.000000e+000
    endloop
  endfacet
  facet normal 0.000000e+000 0.000000e+000 -1.000000e+000
    outer loop
      vertex   8.199406e+001 5.866634e+001 0.000000e+000
      vertex   2.007441e+002 -3.508366e+001 0.000000e+000
      vertex   5.699408e+001 5.241634e+001 0.000000e+000
    endloop
  endfacet
  facet normal -0.000000e+000 0.000000e+000 -1.000000e+000
    outer loop
      vertex   -1.742559e+002 2.524163e+002 0.000000e+000
      vertex   -1.055059e+002 1.899163e+002 0.000000e+000
      vertex   -1.742559e+002 -2.475837e+002 0.000000e+000
    endloop
  endfacet
  facet normal 1.000000e+000 0.000000e+000 0.000000e+000
    outer loop
      vertex   -1.055059e+002 1.211663e+002 5.000000e+001
      vertex   -1.055059e+002 5.241634e+001 0.000000e+000
      vertex   -1.055059e+002 1.899163e+002 0.000000e+000
    endloop
  endfacet
  facet normal 0.000000e+000 0.000000e+000 -1.000000e+000
    outer loop
      vertex   1.757441e+002 2.416343e+000 0.000000e+000
      vertex   2.007441e+002 -3.508366e+001 0.000000e+000
      vertex   8.199406e+001 5.866634e+001 0.000000e+000
    endloop
  endfacet
  facet normal 0.000000e+000 0.000000e+000 -1.000000e+000
    outer loop
      vertex   1.444941e+002 2.741634e+001 0.000000e+000
      vertex   1.757441e+002 2.416343e+000 0.000000e+000
      vertex   8.199406e+001 5.866634e+001 0.000000e+000
    endloop
  endfacet
  facet normal 0.000000e+000 0.000000e+000 -1.000000e+000
    outer loop
      vertex   1.007441e+002 7.116634e+001 0.000000e+000
      vertex   1.444941e+002 2.741634e+001 0.000000e+000
      vertex   8.199406e+001 5.866634e+001 0.000000e+000
    endloop
  endfacet
  facet normal 8.320503e-001 5.547002e-001 0.000000e+000
    outer loop
      vertex   1.882441e+002 -1.633366e+001 5.000000e+001
      vertex   2.007441e+002 -3.508366e+001 0.000000e+000
      vertex   1.757441e+002 2.416343e+000 0.000000e+000
    endloop
  endfacet
  facet normal 0.000000e+000 0.000000e+000 -1.000000e+000
    outer loop
      vertex   1.569941e+002 3.991634e+001 0.000000e+000
      vertex   1.444941e+002 2.741634e+001 0.000000e+000
      vertex   1.007441e+002 7.116634e+001 0.000000e+000
    endloop
  endfacet
  facet normal 1.000000e+000 0.000000e+000 0.000000e+000
    outer loop
      vertex   -1.055059e+002 -9.133367e+001 5.000000e+001
      vertex   -1.055059e+002 -1.788337e+002 1.000000e+002
      vertex   -1.055059e+002 -1.788337e+002 0.000000e+000
    endloop
  endfacet
  facet normal 0.000000e+000 0.000000e+000 -1.000000e+000
    outer loop
      vertex   1.819941e+002 7.741634e+001 0.000000e+000
      vertex   1.569941e+002 3.991634e+001 0.000000e+000
      vertex   1.194941e+002 1.086663e+002 0.000000e+000
    endloop
  endfacet
  facet normal 9.615240e-001 2.747210e-001 4.024234e-008
    outer loop
      vertex   2.069941e+002 -5.695867e+001 5.000000e+001
      vertex   2.132441e+002 -7.883367e+001 0.000000e+000
      vertex   2.007441e+002 -3.508366e+001 0.000000e+000
    endloop
  endfacet
  facet normal 0.000000e+000 0.000000e+000 -1.000000e+000
    outer loop
      vertex   1.194941e+002 1.086663e+002 0.000000e+000
      vertex   1.569941e+002 3.991634e+001 0.000000e+000
      vertex   1.132441e+002 8.991634e+001 0.000000e+000
    endloop
  endfacet
  facet normal 0.000000e+000 0.000000e+000 -1.000000e+000
    outer loop
      vertex   1.194941e+002 1.336663e+002 0.000000e+000
      vertex   1.819941e+002 7.741634e+001 0.000000e+000
      vertex   1.194941e+002 1.086663e+002 0.000000e+000
    endloop
  endfacet
  facet normal 0.000000e+000 0.000000e+000 -1.000000e+000
    outer loop
      vertex   5.699408e+001 1.899163e+002 0.000000e+000
      vertex   -1.055059e+002 1.899163e+002 0.000000e+000
      vertex   -1.742559e+002 2.524163e+002 0.000000e+000
    endloop
  endfacet
  facet normal -1.000000e+000 0.000000e+000 0.000000e+000
    outer loop
      vertex   1.382441e+002 -9.133367e+001 5.000000e+001
      vertex   1.382441e+002 -7.883367e+001 0.000000e+000
      vertex   1.382441e+002 -1.038337e+002 0.000000e+000
    endloop
  endfacet
  facet normal 7.071068e-001 -7.071068e-001 0.000000e+000
    outer loop
      vertex   1.507441e+002 3.366634e+001 5.000000e+001
      vertex   1.444941e+002 2.741634e+001 0.000000e+000
      vertex   1.569941e+002 3.991634e+001 0.000000e+000
    endloop
  endfacet
  facet normal 0.000000e+000 0.000000e+000 -1.000000e+000
    outer loop
      vertex   1.007441e+002 1.711663e+002 0.000000e+000
      vertex   1.819941e+002 7.741634e+001 0.000000e+000
      vertex   1.132441e+002 1.524163e+002 0.000000e+000
    endloop
  endfacet
  facet normal 0.000000e+000 0.000000e+000 -1.000000e+000
    outer loop
      vertex   1.882441e+002 1.086663e+002 0.000000e+000
      vertex   1.819941e+002 7.741634e+001 0.000000e+000
      vertex   1.007441e+002 1.711663e+002 0.000000e+000
    endloop
  endfacet
  facet normal 8.320503e-001 5.547002e-001 0.000000e+000
    outer loop
      vertex   1.694941e+002 1.836663e+002 5.000000e+001
      vertex   1.819941e+002 1.649163e+002 0.000000e+000
      vertex   1.569941e+002 2.024163e+002 0.000000e+000
    endloop
  endfacet
  facet normal 0.000000e+000 0.000000e+000 -1.000000e+000
    outer loop
      vertex   8.199406e+001 1.836663e+002 0.000000e+000
      vertex   5.699408e+001 1.899163e+002 0.000000e+000
      vertex   -1.742559e+002 2.524163e+002 0.000000e+000
    endloop
  endfacet
  facet normal 7.071068e-001 -7.071068e-001 0.000000e+000
    outer loop
      vertex   1.507441e+002 3.366634e+001 5.000000e+001
      vertex   1.569941e+002 3.991634e+001 0.000000e+000
      vertex   1.569941e+002 3.991634e+001 1.000000e+002
    endloop
  endfacet
  facet normal 0.000000e+000 0.000000e+000 -1.000000e+000
    outer loop
      vertex   1.882441e+002 1.336663e+002 0.000000e+000
      vertex   1.007441e+002 1.711663e+002 0.000000e+000
      vertex   8.199406e+001 1.836663e+002 0.000000e+000
    endloop
  endfacet
  facet normal 1.000000e+000 0.000000e+000 0.000000e+000
    outer loop
      vertex   2.132441e+002 -9.445867e+001 5.000000e+001
      vertex   2.132441e+002 -1.100837e+002 0.000000e+000
      vertex   2.132441e+002 -7.883367e+001 0.000000e+000
    endloop
  endfacet
  facet normal 0.000000e+000 0.000000e+000 -1.000000e+000
    outer loop
      vertex   1.132441e+002 -1.538337e+002 0.000000e+000
      vertex   1.507441e+002 -2.163337e+002 0.000000e+000
      vertex   8.824406e+001 -1.725837e+002 0.000000e+000
    endloop
  endfacet
  facet normal 0.000000e+000 0.000000e+000 -1.000000e+000
    outer loop
      vertex   1.382441e+002 -1.038337e+002 0.000000e+000
      vertex   2.007441e+002 -1.538337e+002 0.000000e+000
      vertex   1.319941e+002 -1.288337e+002 0.000000e+000
    endloop
  endfacet
  facet normal 0.000000e+000 0.000000e+000 -1.000000e+000
    outer loop
      vertex   1.882441e+002 1.336663e+002 0.000000e+000
      vertex   1.882441e+002 1.086663e+002 0.000000e+000
      vertex   1.007441e+002 1.711663e+002 0.000000e+000
    endloop
  endfacet
  facet normal 0.000000e+000 0.000000e+000 -1.000000e+000
    outer loop
      vertex   2.132441e+002 -7.883367e+001 0.000000e+000
      vertex   2.132441e+002 -1.100837e+002 0.000000e+000
      vertex   1.132441e+002 -2.883366e+001 0.000000e+000
    endloop
  endfacet
  facet normal 0.000000e+000 0.000000e+000 -1.000000e+000
    outer loop
      vertex   1.132441e+002 8.991634e+001 0.000000e+000
      vertex   1.569941e+002 3.991634e+001 0.000000e+000
      vertex   1.007441e+002 7.116634e+001 0.000000e+000
    endloop
  endfacet
  facet normal 0.000000e+000 0.000000e+000 -1.000000e+000
    outer loop
      vertex   1.132441e+002 1.524163e+002 0.000000e+000
      vertex   1.819941e+002 7.741634e+001 0.000000e+000
      vertex   1.194941e+002 1.336663e+002 0.000000e+000
    endloop
  endfacet
  facet normal 7.071068e-001 -7.071068e-001 0.000000e+000
    outer loop
      vertex   1.507441e+002 3.366634e+001 5.000000e+001
      vertex   1.444941e+002 2.741634e+001 1.000000e+002
      vertex   1.444941e+002 2.741634e+001 0.000000e+000
    endloop
  endfacet
  facet normal 0.000000e+000 0.000000e+000 -1.000000e+000
    outer loop
      vertex   6.324408e+001 2.524163e+002 0.000000e+000
      vertex   1.882441e+002 1.336663e+002 0.000000e+000
      vertex   8.199406e+001 1.836663e+002 0.000000e+000
    endloop
  endfacet
  facet normal 0.000000e+000 0.000000e+000 -1.000000e+000
    outer loop
      vertex   6.324408e+001 2.524163e+002 0.000000e+000
      vertex   8.199406e+001 1.836663e+002 0.000000e+000
      vertex   -1.742559e+002 2.524163e+002 0.000000e+000
    endloop
  endfacet
  facet normal 0.000000e+000 0.000000e+000 -1.000000e+000
    outer loop
      vertex   9.449406e+001 2.461663e+002 0.000000e+000
      vertex   1.819941e+002 1.649163e+002 0.000000e+000
      vertex   6.324408e+001 2.524163e+002 0.000000e+000
    endloop
  endfacet
  facet normal 0.000000e+000 0.000000e+000 -1.000000e+000
    outer loop
      vertex   1.319941e+002 2.274163e+002 0.000000e+000
      vertex   1.569941e+002 2.024163e+002 0.000000e+000
      vertex   9.449406e+001 2.461663e+002 0.000000e+000
    endloop
  endfacet
  facet normal 0.000000e+000 0.000000e+000 -1.000000e+000
    outer loop
      vertex   1.569941e+002 2.024163e+002 0.000000e+000
      vertex   1.819941e+002 1.649163e+002 0.000000e+000
      vertex   9.449406e+001 2.461663e+002 0.000000e+000
    endloop
  endfacet
  facet normal 0.000000e+000 0.000000e+000 -1.000000e+000
    outer loop
      vertex   1.819941e+002 1.649163e+002 0.000000e+000
      vertex   1.882441e+002 1.336663e+002 0.000000e+000
      vertex   6.324408e+001 2.524163e+002 0.000000e+000
    endloop
  endfacet
  facet normal -0.000000e+000 -1.000000e+000 0.000000e+000
    outer loop
      vertex   -5.550592e+001 -2.475837e+002 5.000000e+001
      vertex   6.324408e+001 -2.475837e+002 1.000000e+002
      vertex   -1.742559e+002 -2.475837e+002 1.000000e+002
    endloop
  endfacet
  facet normal 9.805807e-001 -1.961161e-001 0.000000e+000
    outer loop
      vertex   1.851191e+002 9.304134e+001 5.000000e+001
      vertex   1.882441e+002 1.086663e+002 1.000000e+002
      vertex   1.819941e+002 7.741634e+001 1.000000e+002
    endloop
  endfacet
  facet normal 7.071068e-001 -7.071068e-001 0.000000e+000
    outer loop
      vertex   1.507441e+002 3.366634e+001 5.000000e+001
      vertex   1.569941e+002 3.991634e+001 1.000000e+002
      vertex   1.444941e+002 2.741634e+001 1.000000e+002
    endloop
  endfacet
  facet normal -8.320503e-001 5.547002e-001 0.000000e+000
    outer loop
      vertex   1.069941e+002 8.054134e+001 5.000000e+001
      vertex   1.007441e+002 7.116634e+001 1.000000e+002
      vertex   1.132441e+002 8.991634e+001 1.000000e+002
    endloop
  endfacet
  facet normal 7.071064e-001 7.071072e-001 -2.071603e-007
    outer loop
      vertex   1.444941e+002 2.149163e+002 5.000000e+001
      vertex   1.319941e+002 2.274163e+002 1.000000e+002
      vertex   1.569941e+002 2.024163e+002 1.000000e+002
    endloop
  endfacet
  facet normal 8.320503e-001 5.547002e-001 0.000000e+000
    outer loop
      vertex   1.694941e+002 1.836663e+002 5.000000e+001
      vertex   1.569941e+002 2.024163e+002 1.000000e+002
      vertex   1.819941e+002 1.649163e+002 1.000000e+002
    endloop
  endfacet
  facet normal 4.472136e-001 -8.944272e-001 0.000000e+000
    outer loop
      vertex   1.319941e+002 -2.257087e+002 5.000000e+001
      vertex   1.507441e+002 -2.163337e+002 1.000000e+002
      vertex   1.132441e+002 -2.350837e+002 1.000000e+002
    endloop
  endfacet
  facet normal -1.000000e+000 0.000000e+000 0.000000e+000
    outer loop
      vertex   1.382441e+002 -9.133367e+001 5.000000e+001
      vertex   1.382441e+002 -1.038337e+002 1.000000e+002
      vertex   1.382441e+002 -7.883367e+001 1.000000e+002
    endloop
  endfacet
  facet normal 4.472136e-001 8.944272e-001 0.000000e+000
    outer loop
      vertex   1.132441e+002 2.367913e+002 5.000000e+001
      vertex   9.449406e+001 2.461663e+002 1.000000e+002
      vertex   1.319941e+002 2.274163e+002 1.000000e+002
    endloop
  endfacet
  facet normal 9.615240e-001 2.747210e-001 -4.024234e-008
    outer loop
      vertex   2.069941e+002 -5.695867e+001 5.000000e+001
      vertex   2.007441e+002 -3.508366e+001 1.000000e+002
      vertex   2.132441e+002 -7.883367e+001 1.000000e+002
    endloop
  endfacet
  facet normal -0.000000e+000 -1.000000e+000 0.000000e+000
    outer loop
      vertex   -2.425592e+001 -3.833657e+000 5.000000e+001
      vertex   5.699408e+001 -3.833657e+000 1.000000e+002
      vertex   -1.055059e+002 -3.833657e+000 1.000000e+002
    endloop
  endfacet
  facet normal 1.961162e-001 9.805807e-001 -2.872796e-008
    outer loop
      vertex   7.886906e+001 2.492913e+002 5.000000e+001
      vertex   6.324408e+001 2.524163e+002 1.000000e+002
      vertex   9.449406e+001 2.461663e+002 1.000000e+002
    endloop
  endfacet
  facet normal 7.071068e-001 -7.071068e-001 0.000000e+000
    outer loop
      vertex   1.663691e+002 -2.007087e+002 5.000000e+001
      vertex   1.819941e+002 -1.850837e+002 1.000000e+002
      vertex   1.507441e+002 -2.163337e+002 1.000000e+002
    endloop
  endfacet
  facet normal 8.320503e-001 5.547002e-001 0.000000e+000
    outer loop
      vertex   1.882441e+002 -1.633366e+001 5.000000e+001
      vertex   1.757441e+002 2.416343e+000 1.000000e+002
      vertex   2.007441e+002 -3.508366e+001 1.000000e+002
    endloop
  endfacet
  facet normal 8.574929e-001 -5.144957e-001 0.000000e+000
    outer loop
      vertex   1.913691e+002 -1.694587e+002 5.000000e+001
      vertex   2.007441e+002 -1.538337e+002 1.000000e+002
      vertex   1.819941e+002 -1.850837e+002 1.000000e+002
    endloop
  endfacet
  facet normal 1.000000e+000 0.000000e+000 0.000000e+000
    outer loop
      vertex   -1.055059e+002 1.211663e+002 5.000000e+001
      vertex   -1.055059e+002 1.899163e+002 1.000000e+002
      vertex   -1.055059e+002 5.241634e+001 1.000000e+002
    endloop
  endfacet
  facet normal -8.000001e-001 -5.999998e-001 -9.765621e-008
    outer loop
      vertex   1.226191e+002 -4.133366e+001 5.000000e+001
      vertex   1.319941e+002 -5.383367e+001 1.000000e+002
      vertex   1.132441e+002 -2.883366e+001 1.000000e+002
    endloop
  endfacet
  facet normal -5.547002e-001 -8.320503e-001 0.000000e+000
    outer loop
      vertex   9.136906e+001 1.774163e+002 5.000000e+001
      vertex   1.007441e+002 1.711663e+002 1.000000e+002
      vertex   8.199406e+001 1.836663e+002 1.000000e+002
    endloop
  endfacet
  facet normal -9.486833e-001 3.162278e-001 0.000000e+000
    outer loop
      vertex   1.163691e+002 9.929134e+001 5.000000e+001
      vertex   1.132441e+002 8.991634e+001 1.000000e+002
      vertex   1.194941e+002 1.086663e+002 1.000000e+002
    endloop
  endfacet
  facet normal 9.615240e-001 -2.747211e-001 1.341411e-008
    outer loop
      vertex   2.069941e+002 -1.319587e+002 5.000000e+001
      vertex   2.132441e+002 -1.100837e+002 1.000000e+002
      vertex   2.007441e+002 -1.538337e+002 1.000000e+002
    endloop
  endfacet
  facet normal -8.000000e-001 6.000000e-001 0.000000e+000
    outer loop
      vertex   1.226191e+002 -1.413337e+002 5.000000e+001
      vertex   1.132441e+002 -1.538337e+002 1.000000e+002
      vertex   1.319941e+002 -1.288337e+002 1.000000e+002
    endloop
  endfacet
  facet normal 8.320503e-001 -5.547002e-001 0.000000e+000
    outer loop
      vertex   1.694941e+002 5.866634e+001 5.000000e+001
      vertex   1.819941e+002 7.741634e+001 1.000000e+002
      vertex   1.569941e+002 3.991634e+001 1.000000e+002
    endloop
  endfacet
  facet normal -9.486833e-001 -3.162278e-001 0.000000e+000
    outer loop
      vertex   1.163691e+002 1.430413e+002 5.000000e+001
      vertex   1.194941e+002 1.336663e+002 1.000000e+002
      vertex   1.132441e+002 1.524163e+002 1.000000e+002
    endloop
  endfacet
  facet normal -6.000000e-001 8.000000e-001 0.000000e+000
    outer loop
      vertex   1.007441e+002 -1.632087e+002 5.000000e+001
      vertex   8.824406e+001 -1.725837e+002 1.000000e+002
      vertex   1.132441e+002 -1.538337e+002 1.000000e+002
    endloop
  endfacet
  facet normal 1.000000e+000 0.000000e+000 0.000000e+000
    outer loop
      vertex   -1.055059e+002 -9.133367e+001 5.000000e+001
      vertex   -1.055059e+002 -3.833657e+000 1.000000e+002
      vertex   -1.055059e+002 -1.788337e+002 1.000000e+002
    endloop
  endfacet
  facet normal -1.000000e+000 0.000000e+000 0.000000e+000
    outer loop
      vertex   1.194941e+002 1.211663e+002 5.000000e+001
      vertex   1.194941e+002 1.086663e+002 1.000000e+002
      vertex   1.194941e+002 1.336663e+002 1.000000e+002
    endloop
  endfacet
  facet normal -5.547002e-001 8.320503e-001 0.000000e+000
    outer loop
      vertex   9.136906e+001 6.491634e+001 5.000000e+001
      vertex   8.199406e+001 5.866634e+001 1.000000e+002
      vertex   1.007441e+002 7.116634e+001 1.000000e+002
    endloop
  endfacet
  facet normal -8.320503e-001 -5.547002e-001 0.000000e+000
    outer loop
      vertex   1.069941e+002 1.617913e+002 5.000000e+001
      vertex   1.132441e+002 1.524163e+002 1.000000e+002
      vertex   1.007441e+002 1.711663e+002 1.000000e+002
    endloop
  endfacet
  facet normal -6.000000e-001 -8.000000e-001 0.000000e+000
    outer loop
      vertex   1.007441e+002 -1.945866e+001 5.000000e+001
      vertex   1.132441e+002 -2.883366e+001 1.000000e+002
      vertex   8.824406e+001 -1.008366e+001 1.000000e+002
    endloop
  endfacet
  facet normal 1.000000e+000 0.000000e+000 0.000000e+000
    outer loop
      vertex   1.882441e+002 1.211663e+002 5.000000e+001
      vertex   1.882441e+002 1.336663e+002 1.000000e+002
      vertex   1.882441e+002 1.086663e+002 1.000000e+002
    endloop
  endfacet
  facet normal -2.425358e-001 9.701425e-001 3.552770e-008
    outer loop
      vertex   6.949406e+001 5.554134e+001 5.000000e+001
      vertex   5.699408e+001 5.241634e+001 1.000000e+002
      vertex   8.199406e+001 5.866634e+001 1.000000e+002
    endloop
  endfacet
  facet normal -0.000000e+000 -1.000000e+000 0.000000e+000
    outer loop
      vertex   -2.425592e+001 1.899163e+002 5.000000e+001
      vertex   5.699408e+001 1.899163e+002 1.000000e+002
      vertex   -1.055059e+002 1.899163e+002 1.000000e+002
    endloop
  endfacet
  facet normal -1.961162e-001 9.805807e-001 2.872796e-008
    outer loop
      vertex   7.261906e+001 -1.757087e+002 5.000000e+001
      vertex   5.699408e+001 -1.788337e+002 1.000000e+002
      vertex   8.824406e+001 -1.725837e+002 1.000000e+002
    endloop
  endfacet
  facet normal -0.000000e+000 1.000000e+000 0.000000e+000
    outer loop
      vertex   -5.550592e+001 2.524163e+002 5.000000e+001
      vertex   -1.742559e+002 2.524163e+002 1.000000e+002
      vertex   6.324408e+001 2.524163e+002 1.000000e+002
    endloop
  endfacet
  facet normal -1.000000e+000 0.000000e+000 0.000000e+000
    outer loop
      vertex   -1.742559e+002 2.416343e+000 5.000000e+001
      vertex   -1.742559e+002 -2.475837e+002 1.000000e+002
      vertex   -1.742559e+002 2.524163e+002 1.000000e+002
    endloop
  endfacet
  facet normal -0.000000e+000 1.000000e+000 0.000000e+000
    outer loop
      vertex   -2.425592e+001 -1.788337e+002 5.000000e+001
      vertex   -1.055059e+002 -1.788337e+002 1.000000e+002
      vertex   5.699408e+001 -1.788337e+002 1.000000e+002
    endloop
  endfacet
  facet normal 9.805807e-001 1.961161e-001 0.000000e+000
    outer loop
      vertex   1.851191e+002 1.492913e+002 5.000000e+001
      vertex   1.819941e+002 1.649163e+002 1.000000e+002
      vertex   1.882441e+002 1.336663e+002 1.000000e+002
    endloop
  endfacet
  facet normal -9.701425e-001 2.425356e-001 1.776383e-008
    outer loop
      vertex   1.351191e+002 -1.163337e+002 5.000000e+001
      vertex   1.319941e+002 -1.288337e+002 1.000000e+002
      vertex   1.382441e+002 -1.038337e+002 1.000000e+002
    endloop
  endfacet
  facet normal 2.425357e-001 -9.701424e-001 -3.552769e-008
    outer loop
      vertex   8.824406e+001 -2.413337e+002 5.000000e+001
      vertex   1.132441e+002 -2.350837e+002 1.000000e+002
      vertex   6.324408e+001 -2.475837e+002 1.000000e+002
    endloop
  endfacet
  facet normal -1.961162e-001 -9.805807e-001 2.872796e-008
    outer loop
      vertex   7.261906e+001 -6.958656e+000 5.000000e+001
      vertex   8.824406e+001 -1.008366e+001 1.000000e+002
      vertex   5.699408e+001 -3.833657e+000 1.000000e+002
    endloop
  endfacet
  facet normal 6.246951e-001 7.808688e-001 0.000000e+000
    outer loop
      vertex   1.601191e+002 1.491634e+001 5.000000e+001
      vertex   1.444941e+002 2.741634e+001 1.000000e+002
      vertex   1.757441e+002 2.416343e+000 1.000000e+002
    endloop
  endfacet
  facet normal -0.000000e+000 1.000000e+000 0.000000e+000
    outer loop
      vertex   -2.425592e+001 5.241634e+001 5.000000e+001
      vertex   -1.055059e+002 5.241634e+001 1.000000e+002
      vertex   5.699408e+001 5.241634e+001 1.000000e+002
    endloop
  endfacet
  facet normal 1.000000e+000 0.000000e+000 0.000000e+000
    outer loop
      vertex   2.132441e+002 -9.445867e+001 5.000000e+001
      vertex   2.132441e+002 -7.883367e+001 1.000000e+002
      vertex   2.132441e+002 -1.100837e+002 1.000000e+002
    endloop
  endfacet
  facet normal -2.425358e-001 -9.701425e-001 3.552770e-008
    outer loop
      vertex   6.949406e+001 1.867913e+002 5.000000e+001
      vertex   8.199406e+001 1.836663e+002 1.000000e+002
      vertex   5.699408e+001 1.899163e+002 1.000000e+002
    endloop
  endfacet
  facet normal -9.701425e-001 -2.425356e-001 0.000000e+000
    outer loop
      vertex   1.351191e+002 -6.633367e+001 5.000000e+001
      vertex   1.382441e+002 -7.883367e+001 1.000000e+002
      vertex   1.319941e+002 -5.383367e+001 1.000000e+002
    endloop
  endfacet
  facet normal 0.000000e+000 0.000000e+000 1.000000e+000
    outer loop
      vertex   2.007441e+002 -3.508366e+001 1.000000e+002
      vertex   5.699408e+001 5.241634e+001 1.000000e+002
      vertex   2.132441e+002 -7.883367e+001 1.000000e+002
    endloop
  endfacet
  facet normal 0.000000e+000 0.000000e+000 1.000000e+000
    outer loop
      vertex   1.569941e+002 2.024163e+002 1.000000e+002
      vertex   9.449406e+001 2.461663e+002 1.000000e+002
      vertex   1.819941e+002 1.649163e+002 1.000000e+002
    endloop
  endfacet
  facet normal 0.000000e+000 0.000000e+000 1.000000e+000
    outer loop
      vertex   9.449406e+001 2.461663e+002 1.000000e+002
      vertex   6.324408e+001 2.524163e+002 1.000000e+002
      vertex   1.819941e+002 1.649163e+002 1.000000e+002
    endloop
  endfacet
  facet normal 0.000000e+000 0.000000e+000 1.000000e+000
    outer loop
      vertex   1.819941e+002 1.649163e+002 1.000000e+002
      vertex   6.324408e+001 2.524163e+002 1.000000e+002
      vertex   1.882441e+002 1.336663e+002 1.000000e+002
    endloop
  endfacet
  facet normal -0.000000e+000 0.000000e+000 1.000000e+000
    outer loop
      vertex   6.324408e+001 2.524163e+002 1.000000e+002
      vertex   -1.742559e+002 2.524163e+002 1.000000e+002
      vertex   8.199406e+001 1.836663e+002 1.000000e+002
    endloop
  endfacet
  facet normal -0.000000e+000 -0.000000e+000 1.000000e+000
    outer loop
      vertex   6.324408e+001 2.524163e+002 1.000000e+002
      vertex   8.199406e+001 1.836663e+002 1.000000e+002
      vertex   1.882441e+002 1.336663e+002 1.000000e+002
    endloop
  endfacet
  facet normal 0.000000e+000 0.000000e+000 1.000000e+000
    outer loop
      vertex   1.882441e+002 1.336663e+002 1.000000e+002
      vertex   8.199406e+001 1.836663e+002 1.000000e+002
      vertex   1.007441e+002 1.711663e+002 1.000000e+002
    endloop
  endfacet
  facet normal 0.000000e+000 0.000000e+000 1.000000e+000
    outer loop
      vertex   1.882441e+002 1.336663e+002 1.000000e+002
      vertex   1.007441e+002 1.711663e+002 1.000000e+002
      vertex   1.882441e+002 1.086663e+002 1.000000e+002
    endloop
  endfacet
  facet normal 0.000000e+000 0.000000e+000 1.000000e+000
    outer loop
      vertex   1.882441e+002 1.086663e+002 1.000000e+002
      vertex   1.007441e+002 1.711663e+002 1.000000e+002
      vertex   1.819941e+002 7.741634e+001 1.000000e+002
    endloop
  endfacet
  facet normal -0.000000e+000 -0.000000e+000 1.000000e+000
    outer loop
      vertex   1.007441e+002 1.711663e+002 1.000000e+002
      vertex   1.132441e+002 1.524163e+002 1.000000e+002
      vertex   1.819941e+002 7.741634e+001 1.000000e+002
    endloop
  endfacet
  facet normal 0.000000e+000 0.000000e+000 1.000000e+000
    outer loop
      vertex   8.199406e+001 1.836663e+002 1.000000e+002
      vertex   -1.742559e+002 2.524163e+002 1.000000e+002
      vertex   5.699408e+001 1.899163e+002 1.000000e+002
    endloop
  endfacet
  facet normal -0.000000e+000 -0.000000e+000 1.000000e+000
    outer loop
      vertex   1.132441e+002 1.524163e+002 1.000000e+002
      vertex   1.194941e+002 1.336663e+002 1.000000e+002
      vertex   1.819941e+002 7.741634e+001 1.000000e+002
    endloop
  endfacet
  facet normal 0.000000e+000 0.000000e+000 1.000000e+000
    outer loop
      vertex   5.699408e+001 1.899163e+002 1.000000e+002
      vertex   -1.742559e+002 2.524163e+002 1.000000e+002
      vertex   -1.055059e+002 1.899163e+002 1.000000e+002
    endloop
  endfacet
  facet normal -0.000000e+000 0.000000e+000 1.000000e+000
    outer loop
      vertex   1.194941e+002 1.336663e+002 1.000000e+002
      vertex   1.194941e+002 1.086663e+002 1.000000e+002
      vertex   1.819941e+002 7.741634e+001 1.000000e+002
    endloop
  endfacet
  facet normal 0.000000e+000 0.000000e+000 1.000000e+000
    outer loop
      vertex   1.819941e+002 7.741634e+001 1.000000e+002
      vertex   1.194941e+002 1.086663e+002 1.000000e+002
      vertex   1.569941e+002 3.991634e+001 1.000000e+002
    endloop
  endfacet
  facet normal -0.000000e+000 0.000000e+000 1.000000e+000
    outer loop
      vertex   1.194941e+002 1.086663e+002 1.000000e+002
      vertex   1.132441e+002 8.991634e+001 1.000000e+002
      vertex   1.569941e+002 3.991634e+001 1.000000e+002
    endloop
  endfacet
  facet normal -0.000000e+000 0.000000e+000 1.000000e+000
    outer loop
      vertex   1.132441e+002 8.991634e+001 1.000000e+002
      vertex   1.007441e+002 7.116634e+001 1.000000e+002
      vertex   1.569941e+002 3.991634e+001 1.000000e+002
    endloop
  endfacet
  facet normal 0.000000e+000 0.000000e+000 1.000000e+000
    outer loop
      vertex   1.569941e+002 3.991634e+001 1.000000e+002
      vertex   1.007441e+002 7.116634e+001 1.000000e+002
      vertex   1.444941e+002 2.741634e+001 1.000000e+002
    endloop
  endfacet
  facet normal -0.000000e+000 0.000000e+000 1.000000e+000
    outer loop
      vertex   1.007441e+002 7.116634e+001 1.000000e+002
      vertex   8.199406e+001 5.866634e+001 1.000000e+002
      vertex   1.444941e+002 2.741634e+001 1.000000e+002
    endloop
  endfacet
  facet normal 0.000000e+000 0.000000e+000 1.000000e+000
    outer loop
      vertex   1.444941e+002 2.741634e+001 1.000000e+002
      vertex   8.199406e+001 5.866634e+001 1.000000e+002
      vertex   1.757441e+002 2.416343e+000 1.000000e+002
    endloop
  endfacet
  facet normal 0.000000e+000 0.000000e+000 1.000000e+000
    outer loop
      vertex   1.757441e+002 2.416343e+000 1.000000e+002
      vertex   8.199406e+001 5.866634e+001 1.000000e+002
      vertex   2.007441e+002 -3.508366e+001 1.000000e+002
    endloop
  endfacet
  facet normal 0.000000e+000 0.000000e+000 1.000000e+000
    outer loop
      vertex   -1.742559e+002 2.524163e+002 1.000000e+002
      vertex   -1.742559e+002 -2.475837e+002 1.000000e+002
      vertex   -1.055059e+002 1.899163e+002 1.000000e+002
    endloop
  endfacet
  facet normal -0.000000e+000 0.000000e+000 1.000000e+000
    outer loop
      vertex   8.199406e+001 5.866634e+001 1.000000e+002
      vertex   5.699408e+001 5.241634e+001 1.000000e+002
      vertex   2.007441e+002 -3.508366e+001 1.000000e+002
    endloop
  endfacet
  facet normal 0.000000e+000 0.000000e+000 1.000000e+000
    outer loop
      vertex   1.319941e+002 2.274163e+002 1.000000e+002
      vertex   9.449406e+001 2.461663e+002 1.000000e+002
      vertex   1.569941e+002 2.024163e+002 1.000000e+002
    endloop
  endfacet
  facet normal 0.000000e+000 0.000000e+000 1.000000e+000
    outer loop
      vertex   -1.055059e+002 1.899163e+002 1.000000e+002
      vertex   -1.742559e+002 -2.475837e+002 1.000000e+002
      vertex   -1.055059e+002 5.241634e+001 1.000000e+002
    endloop
  endfacet
  facet normal -0.000000e+000 0.000000e+000 1.000000e+000
    outer loop
      vertex   5.699408e+001 5.241634e+001 1.000000e+002
      vertex   -1.055059e+002 5.241634e+001 1.000000e+002
      vertex   8.824406e+001 -1.008366e+001 1.000000e+002
    endloop
  endfacet
  facet normal -0.000000e+000 -0.000000e+000 1.000000e+000
    outer loop
      vertex   5.699408e+001 5.241634e+001 1.000000e+002
      vertex   8.824406e+001 -1.008366e+001 1.000000e+002
      vertex   2.132441e+002 -7.883367e+001 1.000000e+002
    endloop
  endfacet
  facet normal 0.000000e+000 0.000000e+000 1.000000e+000
    outer loop
      vertex   2.132441e+002 -7.883367e+001 1.000000e+002
      vertex   1.132441e+002 -2.883366e+001 1.000000e+002
      vertex   2.132441e+002 -1.100837e+002 1.000000e+002
    endloop
  endfacet
  facet normal 0.000000e+000 0.000000e+000 1.000000e+000
    outer loop
      vertex   2.132441e+002 -7.883367e+001 1.000000e+002
      vertex   8.824406e+001 -1.008366e+001 1.000000e+002
      vertex   1.132441e+002 -2.883366e+001 1.000000e+002
    endloop
  endfacet
  facet normal -0.000000e+000 -0.000000e+000 1.000000e+000
    outer loop
      vertex   1.132441e+002 -2.883366e+001 1.000000e+002
      vertex   1.319941e+002 -5.383367e+001 1.000000e+002
      vertex   2.132441e+002 -1.100837e+002 1.000000e+002
    endloop
  endfacet
  facet normal 0.000000e+000 0.000000e+000 1.000000e+000
    outer loop
      vertex   8.824406e+001 -1.008366e+001 1.000000e+002
      vertex   -1.055059e+002 5.241634e+001 1.000000e+002
      vertex   5.699408e+001 -3.833657e+000 1.000000e+002
    endloop
  endfacet
  facet normal 0.000000e+000 0.000000e+000 1.000000e+000
    outer loop
      vertex   2.132441e+002 -1.100837e+002 1.000000e+002
      vertex   1.319941e+002 -5.383367e+001 1.000000e+002
      vertex   2.007441e+002 -1.538337e+002 1.000000e+002
    endloop
  endfacet
  facet normal -0.000000e+000 -0.000000e+000 1.000000e+000
    outer loop
      vertex   1.319941e+002 -5.383367e+001 1.000000e+002
      vertex   1.382441e+002 -7.883367e+001 1.000000e+002
      vertex   2.007441e+002 -1.538337e+002 1.000000e+002
    endloop
  endfacet
  facet normal 0.000000e+000 0.000000e+000 1.000000e+000
    outer loop
      vertex   5.699408e+001 -3.833657e+000 1.000000e+002
      vertex   -1.055059e+002 5.241634e+001 1.000000e+002
      vertex   -1.055059e+002 -3.833657e+000 1.000000e+002
    endloop
  endfacet
  facet normal -0.000000e+000 0.000000e+000 1.000000e+000
    outer loop
      vertex   1.382441e+002 -7.883367e+001 1.000000e+002
      vertex   1.382441e+002 -1.038337e+002 1.000000e+002
      vertex   2.007441e+002 -1.538337e+002 1.000000e+002
    endloop
  endfacet
  facet normal -0.000000e+000 0.000000e+000 1.000000e+000
    outer loop
      vertex   1.382441e+002 -1.038337e+002 1.000000e+002
      vertex   1.319941e+002 -1.288337e+002 1.000000e+002
      vertex   2.007441e+002 -1.538337e+002 1.000000e+002
    endloop
  endfacet
  facet normal 0.000000e+000 0.000000e+000 1.000000e+000
    outer loop
      vertex   2.007441e+002 -1.538337e+002 1.000000e+002
      vertex   1.319941e+002 -1.288337e+002 1.000000e+002
      vertex   1.819941e+002 -1.850837e+002 1.000000e+002
    endloop
  endfacet
  facet normal 0.000000e+000 0.000000e+000 1.000000e+000
    outer loop
      vertex   -1.055059e+002 5.241634e+001 1.000000e+002
      vertex   -1.742559e+002 -2.475837e+002 1.000000e+002
      vertex   -1.055059e+002 -3.833657e+000 1.000000e+002
    endloop
  endfacet
  facet normal -0.000000e+000 0.000000e+000 1.000000e+000
    outer loop
      vertex   1.319941e+002 -1.288337e+002 1.000000e+002
      vertex   1.132441e+002 -1.538337e+002 1.000000e+002
      vertex   1.819941e+002 -1.850837e+002 1.000000e+002
    endloop
  endfacet
  facet normal 0.000000e+000 0.000000e+000 1.000000e+000
    outer loop
      vertex   1.819941e+002 -1.850837e+002 1.000000e+002
      vertex   1.132441e+002 -1.538337e+002 1.000000e+002
      vertex   1.507441e+002 -2.163337e+002 1.000000e+002
    endloop
  endfacet
  facet normal -0.000000e+000 0.000000e+000 1.000000e+000
    outer loop
      vertex   1.132441e+002 -1.538337e+002 1.000000e+002
      vertex   8.824406e+001 -1.725837e+002 1.000000e+002
      vertex   1.507441e+002 -2.163337e+002 1.000000e+002
    endloop
  endfacet
  facet normal 0.000000e+000 0.000000e+000 1.000000e+000
    outer loop
      vertex   -1.055059e+002 -3.833657e+000 1.000000e+002
      vertex   -1.742559e+002 -2.475837e+002 1.000000e+002
      vertex   -1.055059e+002 -1.788337e+002 1.000000e+002
    endloop
  endfacet
  facet normal 0.000000e+000 0.000000e+000 1.000000e+000
    outer loop
      vertex   1.507441e+002 -2.163337e+002 1.000000e+002
      vertex   8.824406e+001 -1.725837e+002 1.000000e+002
      vertex   1.132441e+002 -2.350837e+002 1.000000e+002
    endloop
  endfacet
  facet normal -0.000000e+000 0.000000e+000 1.000000e+000
    outer loop
      vertex   8.824406e+001 -1.725837e+002 1.000000e+002
      vertex   5.699408e+001 -1.788337e+002 1.000000e+002
      vertex   1.132441e+002 -2.350837e+002 1.000000e+002
    endloop
  endfacet
  facet normal -0.000000e+000 0.000000e+000 1.000000e+000
    outer loop
      vertex   5.699408e+001 -1.788337e+002 1.000000e+002
      vertex   -1.055059e+002 -1.788337e+002 1.000000e+002
      vertex   1.132441e+002 -2.350837e+002 1.000000e+002
    endloop
  endfacet
  facet normal 0.000000e+000 0.000000e+000 1.000000e+000
    outer loop
      vertex   1.132441e+002 -2.350837e+002 1.000000e+002
      vertex   -1.055059e+002 -1.788337e+002 1.000000e+002
      vertex   6.324408e+001 -2.475837e+002 1.000000e+002
    endloop
  endfacet
  facet normal 0.000000e+000 0.000000e+000 1.000000e+000
    outer loop
      vertex   6.324408e+001 -2.475837e+002 1.000000e+002
      vertex   -1.055059e+002 -1.788337e+002 1.000000e+002
      vertex   -1.742559e+002 -2.475837e+002 1.000000e+002
    endloop
  endfacet
endsolid
