solid ascii
  facet normal 4.472135e-001 8.944272e-001 -2.911547e-008
    outer loop
      vertex   1.419003e+002 2.229579e+002 5.000000e+001
      vertex   1.606503e+002 2.135829e+002 0.000000e+000
      vertex   1.231503e+002 2.323329e+002 0.000000e+000
    endloop
  endfacet
  facet normal -2.747211e-001 9.615240e-001 0.000000e+000
    outer loop
      vertex   -5.497466e+001 2.385829e+002 5.000000e+001
      vertex   -7.684966e+001 2.323329e+002 0.000000e+000
      vertex   -7.684966e+001 2.323329e+002 1.000000e+002
    endloop
  endfacet
  facet normal 4.472134e-001 8.944272e-001 -0.000000e+000
    outer loop
      vertex   1.419003e+002 2.229579e+002 5.000000e+001
      vertex   1.231503e+002 2.323329e+002 0.000000e+000
      vertex   1.231503e+002 2.323329e+002 1.000000e+002
    endloop
  endfacet
  facet normal -2.747211e-001 9.615240e-001 0.000000e+000
    outer loop
      vertex   -5.497466e+001 2.385829e+002 5.000000e+001
      vertex   -3.309966e+001 2.448329e+002 1.000000e+002
      vertex   -3.309966e+001 2.448329e+002 0.000000e+000
    endloop
  endfacet
  facet normal 9.363292e-001 3.511234e-001 0.000000e+000
    outer loop
      vertex   2.325253e+002 1.135829e+002 5.000000e+001
      vertex   2.419003e+002 8.858287e+001 0.000000e+000
      vertex   2.231503e+002 1.385829e+002 0.000000e+000
    endloop
  endfacet
  facet normal 9.363292e-001 3.511234e-001 -0.000000e+000
    outer loop
      vertex   2.325253e+002 1.135829e+002 5.000000e+001
      vertex   2.231503e+002 1.385829e+002 0.000000e+000
      vertex   2.231503e+002 1.385829e+002 1.000000e+002
    endloop
  endfacet
  facet normal 4.472136e-001 8.944272e-001 0.000000e+000
    outer loop
      vertex   1.419003e+002 2.229579e+002 5.000000e+001
      vertex   1.606503e+002 2.135829e+002 1.000000e+002
      vertex   1.606503e+002 2.135829e+002 0.000000e+000
    endloop
  endfacet
  facet normal 9.363292e-001 3.511234e-001 0.000000e+000
    outer loop
      vertex   2.325253e+002 1.135829e+002 5.000000e+001
      vertex   2.419003e+002 8.858287e+001 1.000000e+002
      vertex   2.419003e+002 8.858287e+001 0.000000e+000
    endloop
  endfacet
  facet normal -9.701425e-001 2.425356e-001 3.552767e-008
    outer loop
      vertex   1.794003e+002 -7.391714e+001 5.000000e+001
      vertex   1.856503e+002 -4.891713e+001 0.000000e+000
      vertex   1.731503e+002 -9.891714e+001 0.000000e+000
    endloop
  endfacet
  facet normal -9.701425e-001 2.425356e-001 0.000000e+000
    outer loop
      vertex   1.794003e+002 -7.391714e+001 5.000000e+001
      vertex   1.731503e+002 -9.891714e+001 0.000000e+000
      vertex   1.731503e+002 -9.891714e+001 1.000000e+002
    endloop
  endfacet
  facet normal 3.162278e-001 -9.486833e-001 0.000000e+000
    outer loop
      vertex   -5.184966e+001 1.698329e+002 5.000000e+001
      vertex   -3.309966e+001 1.760829e+002 0.000000e+000
      vertex   -3.309966e+001 1.760829e+002 1.000000e+002
    endloop
  endfacet
  facet normal -9.701425e-001 2.425355e-001 0.000000e+000
    outer loop
      vertex   1.794003e+002 -7.391714e+001 5.000000e+001
      vertex   1.856503e+002 -4.891713e+001 1.000000e+002
      vertex   1.856503e+002 -4.891713e+001 0.000000e+000
    endloop
  endfacet
  facet normal 0.000000e+000 1.000000e+000 0.000000e+000
    outer loop
      vertex   2.315034e+001 2.510829e+002 5.000000e+001
      vertex   4.190034e+001 2.510829e+002 0.000000e+000
      vertex   4.400339e+000 2.510829e+002 0.000000e+000
    endloop
  endfacet
  facet normal 0.000000e+000 1.000000e+000 0.000000e+000
    outer loop
      vertex   2.315034e+001 2.510829e+002 5.000000e+001
      vertex   4.400339e+000 2.510829e+002 0.000000e+000
      vertex   4.400339e+000 2.510829e+002 1.000000e+002
    endloop
  endfacet
  facet normal 3.162278e-001 -9.486833e-001 0.000000e+000
    outer loop
      vertex   -5.184966e+001 1.698329e+002 5.000000e+001
      vertex   -7.059966e+001 1.635829e+002 1.000000e+002
      vertex   -7.059966e+001 1.635829e+002 0.000000e+000
    endloop
  endfacet
  facet normal 0.000000e+000 1.000000e+000 0.000000e+000
    outer loop
      vertex   2.315034e+001 2.510829e+002 5.000000e+001
      vertex   4.190034e+001 2.510829e+002 1.000000e+002
      vertex   4.190034e+001 2.510829e+002 0.000000e+000
    endloop
  endfacet
  facet normal -9.191451e-001 -3.939193e-001 0.000000e+000
    outer loop
      vertex   1.700253e+002 9.795787e+001 5.000000e+001
      vertex   1.606503e+002 1.198329e+002 0.000000e+000
      vertex   1.794003e+002 7.608287e+001 0.000000e+000
    endloop
  endfacet
  facet normal -9.191451e-001 -3.939193e-001 0.000000e+000
    outer loop
      vertex   1.700253e+002 9.795787e+001 5.000000e+001
      vertex   1.794003e+002 7.608287e+001 0.000000e+000
      vertex   1.794003e+002 7.608287e+001 1.000000e+002
    endloop
  endfacet
  facet normal 1.643990e-001 9.863939e-001 -0.000000e+000
    outer loop
      vertex   -1.434966e+001 -1.770421e+002 5.000000e+001
      vertex   -3.309966e+001 -1.739171e+002 0.000000e+000
      vertex   -3.309966e+001 -1.739171e+002 1.000000e+002
    endloop
  endfacet
  facet normal -9.191451e-001 -3.939193e-001 -0.000000e+000
    outer loop
      vertex   1.700253e+002 9.795787e+001 5.000000e+001
      vertex   1.606503e+002 1.198329e+002 1.000000e+002
      vertex   1.606503e+002 1.198329e+002 0.000000e+000
    endloop
  endfacet
  facet normal 0.000000e+000 -1.000000e+000 0.000000e+000
    outer loop
      vertex   2.315034e+001 -2.489171e+002 5.000000e+001
      vertex   4.400339e+000 -2.489171e+002 0.000000e+000
      vertex   4.190034e+001 -2.489171e+002 0.000000e+000
    endloop
  endfacet
  facet normal 0.000000e+000 -1.000000e+000 0.000000e+000
    outer loop
      vertex   2.315034e+001 -2.489171e+002 5.000000e+001
      vertex   4.190034e+001 -2.489171e+002 0.000000e+000
      vertex   4.190034e+001 -2.489171e+002 1.000000e+002
    endloop
  endfacet
  facet normal 1.643990e-001 9.863939e-001 0.000000e+000
    outer loop
      vertex   -1.434966e+001 -1.770421e+002 5.000000e+001
      vertex   4.400339e+000 -1.801671e+002 1.000000e+002
      vertex   4.400339e+000 -1.801671e+002 0.000000e+000
    endloop
  endfacet
  facet normal 0.000000e+000 -1.000000e+000 0.000000e+000
    outer loop
      vertex   2.315034e+001 -2.489171e+002 5.000000e+001
      vertex   4.400339e+000 -2.489171e+002 1.000000e+002
      vertex   4.400339e+000 -2.489171e+002 0.000000e+000
    endloop
  endfacet
  facet normal -8.000000e-001 -6.000000e-001 0.000000e+000
    outer loop
      vertex   1.512753e+002 1.323329e+002 5.000000e+001
      vertex   1.419003e+002 1.448329e+002 0.000000e+000
      vertex   1.606503e+002 1.198329e+002 0.000000e+000
    endloop
  endfacet
  facet normal -8.000000e-001 -6.000000e-001 0.000000e+000
    outer loop
      vertex   1.512753e+002 1.323329e+002 5.000000e+001
      vertex   1.606503e+002 1.198329e+002 0.000000e+000
      vertex   1.606503e+002 1.198329e+002 1.000000e+002
    endloop
  endfacet
  facet normal 1.643990e-001 -9.863939e-001 0.000000e+000
    outer loop
      vertex   6.065034e+001 -2.457921e+002 5.000000e+001
      vertex   7.940034e+001 -2.426671e+002 0.000000e+000
      vertex   7.940034e+001 -2.426671e+002 1.000000e+002
    endloop
  endfacet
  facet normal -8.000000e-001 -6.000000e-001 -0.000000e+000
    outer loop
      vertex   1.512753e+002 1.323329e+002 5.000000e+001
      vertex   1.419003e+002 1.448329e+002 1.000000e+002
      vertex   1.419003e+002 1.448329e+002 0.000000e+000
    endloop
  endfacet
  facet normal 8.574929e-001 5.144957e-001 0.000000e+000
    outer loop
      vertex   -1.174747e+002 -1.145421e+002 5.000000e+001
      vertex   -1.080997e+002 -1.301671e+002 0.000000e+000
      vertex   -1.268497e+002 -9.891714e+001 0.000000e+000
    endloop
  endfacet
  facet normal 8.574929e-001 5.144957e-001 -0.000000e+000
    outer loop
      vertex   -1.174747e+002 -1.145421e+002 5.000000e+001
      vertex   -1.268497e+002 -9.891714e+001 0.000000e+000
      vertex   -1.268497e+002 -9.891714e+001 1.000000e+002
    endloop
  endfacet
  facet normal 1.643990e-001 -9.863939e-001 0.000000e+000
    outer loop
      vertex   6.065034e+001 -2.457921e+002 5.000000e+001
      vertex   4.190034e+001 -2.489171e+002 1.000000e+002
      vertex   4.190034e+001 -2.489171e+002 0.000000e+000
    endloop
  endfacet
  facet normal 8.574929e-001 5.144957e-001 0.000000e+000
    outer loop
      vertex   -1.174747e+002 -1.145421e+002 5.000000e+001
      vertex   -1.080997e+002 -1.301671e+002 1.000000e+002
      vertex   -1.080997e+002 -1.301671e+002 0.000000e+000
    endloop
  endfacet
  facet normal -9.899496e-001 -1.414214e-001 0.000000e+000
    outer loop
      vertex   -2.112247e+002 -3.954213e+001 5.000000e+001
      vertex   -2.143497e+002 -1.766713e+001 0.000000e+000
      vertex   -2.080997e+002 -6.141713e+001 0.000000e+000
    endloop
  endfacet
  facet normal -9.899496e-001 -1.414214e-001 0.000000e+000
    outer loop
      vertex   -2.112247e+002 -3.954213e+001 5.000000e+001
      vertex   -2.080997e+002 -6.141713e+001 0.000000e+000
      vertex   -2.080997e+002 -6.141713e+001 1.000000e+002
    endloop
  endfacet
  facet normal -9.899496e-001 1.414214e-001 0.000000e+000
    outer loop
      vertex   -2.112247e+002 4.170787e+001 5.000000e+001
      vertex   -2.143497e+002 1.983287e+001 0.000000e+000
      vertex   -2.143497e+002 1.983287e+001 1.000000e+002
    endloop
  endfacet
  facet normal -9.899496e-001 -1.414214e-001 -0.000000e+000
    outer loop
      vertex   -2.112247e+002 -3.954213e+001 5.000000e+001
      vertex   -2.143497e+002 -1.766713e+001 1.000000e+002
      vertex   -2.143497e+002 -1.766713e+001 0.000000e+000
    endloop
  endfacet
  facet normal -7.808688e-001 6.246951e-001 0.000000e+000
    outer loop
      vertex   -1.518497e+002 1.729579e+002 5.000000e+001
      vertex   -1.393497e+002 1.885829e+002 0.000000e+000
      vertex   -1.643497e+002 1.573329e+002 0.000000e+000
    endloop
  endfacet
  facet normal -7.808688e-001 6.246951e-001 0.000000e+000
    outer loop
      vertex   -1.518497e+002 1.729579e+002 5.000000e+001
      vertex   -1.643497e+002 1.573329e+002 0.000000e+000
      vertex   -1.643497e+002 1.573329e+002 1.000000e+002
    endloop
  endfacet
  facet normal -9.899496e-001 1.414214e-001 0.000000e+000
    outer loop
      vertex   -2.112247e+002 4.170787e+001 5.000000e+001
      vertex   -2.080997e+002 6.358287e+001 1.000000e+002
      vertex   -2.080997e+002 6.358287e+001 0.000000e+000
    endloop
  endfacet
  facet normal -7.808688e-001 6.246951e-001 0.000000e+000
    outer loop
      vertex   -1.518497e+002 1.729579e+002 5.000000e+001
      vertex   -1.393497e+002 1.885829e+002 1.000000e+002
      vertex   -1.393497e+002 1.885829e+002 0.000000e+000
    endloop
  endfacet
  facet normal -1.643990e-001 -9.863939e-001 0.000000e+000
    outer loop
      vertex   6.065034e+001 1.792079e+002 5.000000e+001
      vertex   4.190034e+001 1.823329e+002 0.000000e+000
      vertex   7.940034e+001 1.760829e+002 0.000000e+000
    endloop
  endfacet
  facet normal -1.643990e-001 -9.863939e-001 0.000000e+000
    outer loop
      vertex   6.065034e+001 1.792079e+002 5.000000e+001
      vertex   7.940034e+001 1.760829e+002 0.000000e+000
      vertex   7.940034e+001 1.760829e+002 1.000000e+002
    endloop
  endfacet
  facet normal 7.071068e-001 -7.071068e-001 0.000000e+000
    outer loop
      vertex   -9.872466e+001 1.417079e+002 5.000000e+001
      vertex   -8.934966e+001 1.510829e+002 0.000000e+000
      vertex   -8.934966e+001 1.510829e+002 1.000000e+002
    endloop
  endfacet
  facet normal -1.643990e-001 -9.863939e-001 -0.000000e+000
    outer loop
      vertex   6.065034e+001 1.792079e+002 5.000000e+001
      vertex   4.190034e+001 1.823329e+002 1.000000e+002
      vertex   4.190034e+001 1.823329e+002 0.000000e+000
    endloop
  endfacet
  facet normal 5.547002e-001 8.320503e-001 0.000000e+000
    outer loop
      vertex   -7.997466e+001 -1.551671e+002 5.000000e+001
      vertex   -7.059966e+001 -1.614171e+002 0.000000e+000
      vertex   -8.934966e+001 -1.489171e+002 0.000000e+000
    endloop
  endfacet
  facet normal 5.547002e-001 8.320503e-001 -0.000000e+000
    outer loop
      vertex   -7.997466e+001 -1.551671e+002 5.000000e+001
      vertex   -8.934966e+001 -1.489171e+002 0.000000e+000
      vertex   -8.934966e+001 -1.489171e+002 1.000000e+002
    endloop
  endfacet
  facet normal 7.071068e-001 -7.071068e-001 0.000000e+000
    outer loop
      vertex   -9.872466e+001 1.417079e+002 5.000000e+001
      vertex   -1.080997e+002 1.323329e+002 1.000000e+002
      vertex   -1.080997e+002 1.323329e+002 0.000000e+000
    endloop
  endfacet
  facet normal 5.547002e-001 8.320503e-001 0.000000e+000
    outer loop
      vertex   -7.997466e+001 -1.551671e+002 5.000000e+001
      vertex   -7.059966e+001 -1.614171e+002 1.000000e+002
      vertex   -7.059966e+001 -1.614171e+002 0.000000e+000
    endloop
  endfacet
  facet normal -6.401845e-001 7.682212e-001 -5.001441e-008
    outer loop
      vertex   -1.205997e+002 2.042079e+002 5.000000e+001
      vertex   -1.018497e+002 2.198329e+002 0.000000e+000
      vertex   -1.393497e+002 1.885829e+002 0.000000e+000
    endloop
  endfacet
  facet normal -6.401846e-001 7.682212e-001 0.000000e+000
    outer loop
      vertex   -1.205997e+002 2.042079e+002 5.000000e+001
      vertex   -1.393497e+002 1.885829e+002 0.000000e+000
      vertex   -1.393497e+002 1.885829e+002 1.000000e+002
    endloop
  endfacet
  facet normal 9.486834e-001 3.162276e-001 -0.000000e+000
    outer loop
      vertex   -1.330997e+002 -8.016714e+001 5.000000e+001
      vertex   -1.393497e+002 -6.141713e+001 0.000000e+000
      vertex   -1.393497e+002 -6.141713e+001 1.000000e+002
    endloop
  endfacet
  facet normal -6.401845e-001 7.682213e-001 0.000000e+000
    outer loop
      vertex   -1.205997e+002 2.042079e+002 5.000000e+001
      vertex   -1.018497e+002 2.198329e+002 1.000000e+002
      vertex   -1.018497e+002 2.198329e+002 0.000000e+000
    endloop
  endfacet
  facet normal 1.643990e-001 -9.863939e-001 -8.027294e-009
    outer loop
      vertex   -1.434966e+001 1.792079e+002 5.000000e+001
      vertex   -3.309966e+001 1.760829e+002 0.000000e+000
      vertex   4.400339e+000 1.823329e+002 0.000000e+000
    endloop
  endfacet
  facet normal 1.643990e-001 -9.863939e-001 0.000000e+000
    outer loop
      vertex   -1.434966e+001 1.792079e+002 5.000000e+001
      vertex   4.400339e+000 1.823329e+002 0.000000e+000
      vertex   4.400339e+000 1.823329e+002 1.000000e+002
    endloop
  endfacet
  facet normal 9.486834e-001 3.162274e-001 0.000000e+000
    outer loop
      vertex   -1.330997e+002 -8.016714e+001 5.000000e+001
      vertex   -1.268497e+002 -9.891714e+001 1.000000e+002
      vertex   -1.268497e+002 -9.891714e+001 0.000000e+000
    endloop
  endfacet
  facet normal 1.643990e-001 -9.863939e-001 0.000000e+000
    outer loop
      vertex   -1.434966e+001 1.792079e+002 5.000000e+001
      vertex   -3.309966e+001 1.760829e+002 1.000000e+002
      vertex   -3.309966e+001 1.760829e+002 0.000000e+000
    endloop
  endfacet
  facet normal 8.944272e-001 -4.472136e-001 0.000000e+000
    outer loop
      vertex   2.262753e+002 -1.301671e+002 5.000000e+001
      vertex   2.169003e+002 -1.489171e+002 0.000000e+000
      vertex   2.356503e+002 -1.114171e+002 0.000000e+000
    endloop
  endfacet
  facet normal 8.944272e-001 -4.472136e-001 0.000000e+000
    outer loop
      vertex   2.262753e+002 -1.301671e+002 5.000000e+001
      vertex   2.356503e+002 -1.114171e+002 0.000000e+000
      vertex   2.356503e+002 -1.114171e+002 1.000000e+002
    endloop
  endfacet
  facet normal -9.486833e-001 -3.162278e-001 0.000000e+000
    outer loop
      vertex   -1.987247e+002 -8.954214e+001 5.000000e+001
      vertex   -1.893497e+002 -1.176671e+002 0.000000e+000
      vertex   -1.893497e+002 -1.176671e+002 1.000000e+002
    endloop
  endfacet
  facet normal 8.944272e-001 -4.472136e-001 0.000000e+000
    outer loop
      vertex   2.262753e+002 -1.301671e+002 5.000000e+001
      vertex   2.169003e+002 -1.489171e+002 1.000000e+002
      vertex   2.169003e+002 -1.489171e+002 0.000000e+000
    endloop
  endfacet
  facet normal -2.747211e-001 -9.615240e-001 0.000000e+000
    outer loop
      vertex   -5.497466e+001 -2.364171e+002 5.000000e+001
      vertex   -7.684966e+001 -2.301671e+002 0.000000e+000
      vertex   -3.309966e+001 -2.426671e+002 0.000000e+000
    endloop
  endfacet
  facet normal -2.747211e-001 -9.615240e-001 0.000000e+000
    outer loop
      vertex   -5.497466e+001 -2.364171e+002 5.000000e+001
      vertex   -3.309966e+001 -2.426671e+002 0.000000e+000
      vertex   -3.309966e+001 -2.426671e+002 1.000000e+002
    endloop
  endfacet
  facet normal -9.486833e-001 -3.162276e-001 -0.000000e+000
    outer loop
      vertex   -1.987247e+002 -8.954214e+001 5.000000e+001
      vertex   -2.080997e+002 -6.141713e+001 1.000000e+002
      vertex   -2.080997e+002 -6.141713e+001 0.000000e+000
    endloop
  endfacet
  facet normal -2.747211e-001 -9.615240e-001 -0.000000e+000
    outer loop
      vertex   -5.497466e+001 -2.364171e+002 5.000000e+001
      vertex   -7.684966e+001 -2.301671e+002 1.000000e+002
      vertex   -7.684966e+001 -2.301671e+002 0.000000e+000
    endloop
  endfacet
  facet normal 2.747211e-001 9.615240e-001 0.000000e+000
    outer loop
      vertex   1.012753e+002 2.385829e+002 5.000000e+001
      vertex   1.231503e+002 2.323329e+002 0.000000e+000
      vertex   7.940034e+001 2.448329e+002 0.000000e+000
    endloop
  endfacet
  facet normal 2.747211e-001 9.615240e-001 -0.000000e+000
    outer loop
      vertex   1.012753e+002 2.385829e+002 5.000000e+001
      vertex   7.940034e+001 2.448329e+002 0.000000e+000
      vertex   7.940034e+001 2.448329e+002 1.000000e+002
    endloop
  endfacet
  facet normal -9.486833e-001 3.162278e-001 0.000000e+000
    outer loop
      vertex   -1.987247e+002 9.170787e+001 5.000000e+001
      vertex   -2.080997e+002 6.358287e+001 0.000000e+000
      vertex   -2.080997e+002 6.358287e+001 1.000000e+002
    endloop
  endfacet
  facet normal 2.747211e-001 9.615240e-001 0.000000e+000
    outer loop
      vertex   1.012753e+002 2.385829e+002 5.000000e+001
      vertex   1.231503e+002 2.323329e+002 1.000000e+002
      vertex   1.231503e+002 2.323329e+002 0.000000e+000
    endloop
  endfacet
  facet normal 5.547002e-001 -8.320503e-001 0.000000e+000
    outer loop
      vertex   -7.997466e+001 1.573329e+002 5.000000e+001
      vertex   -8.934966e+001 1.510829e+002 0.000000e+000
      vertex   -7.059966e+001 1.635829e+002 0.000000e+000
    endloop
  endfacet
  facet normal 5.547002e-001 -8.320503e-001 0.000000e+000
    outer loop
      vertex   -7.997466e+001 1.573329e+002 5.000000e+001
      vertex   -7.059966e+001 1.635829e+002 0.000000e+000
      vertex   -7.059966e+001 1.635829e+002 1.000000e+002
    endloop
  endfacet
  facet normal -9.486833e-001 3.162278e-001 0.000000e+000
    outer loop
      vertex   -1.987247e+002 9.170787e+001 5.000000e+001
      vertex   -1.893497e+002 1.198329e+002 1.000000e+002
      vertex   -1.893497e+002 1.198329e+002 0.000000e+000
    endloop
  endfacet
  facet normal 5.547002e-001 -8.320503e-001 0.000000e+000
    outer loop
      vertex   -7.997466e+001 1.573329e+002 5.000000e+001
      vertex   -8.934966e+001 1.510829e+002 1.000000e+002
      vertex   -8.934966e+001 1.510829e+002 0.000000e+000
    endloop
  endfacet
  facet normal 3.162278e-001 9.486833e-001 0.000000e+000
    outer loop
      vertex   -5.184966e+001 -1.676671e+002 5.000000e+001
      vertex   -3.309966e+001 -1.739171e+002 0.000000e+000
      vertex   -7.059966e+001 -1.614171e+002 0.000000e+000
    endloop
  endfacet
  facet normal 3.162278e-001 9.486833e-001 -0.000000e+000
    outer loop
      vertex   -5.184966e+001 -1.676671e+002 5.000000e+001
      vertex   -7.059966e+001 -1.614171e+002 0.000000e+000
      vertex   -7.059966e+001 -1.614171e+002 1.000000e+002
    endloop
  endfacet
  facet normal 0.000000e+000 -1.000000e+000 0.000000e+000
    outer loop
      vertex   2.315034e+001 1.823329e+002 5.000000e+001
      vertex   4.190034e+001 1.823329e+002 0.000000e+000
      vertex   4.190034e+001 1.823329e+002 1.000000e+002
    endloop
  endfacet
  facet normal 3.162278e-001 9.486833e-001 0.000000e+000
    outer loop
      vertex   -5.184966e+001 -1.676671e+002 5.000000e+001
      vertex   -3.309966e+001 -1.739171e+002 1.000000e+002
      vertex   -3.309966e+001 -1.739171e+002 0.000000e+000
    endloop
  endfacet
  facet normal -4.472136e-001 -8.944272e-001 0.000000e+000
    outer loop
      vertex   -8.934966e+001 -2.239171e+002 5.000000e+001
      vertex   -1.018497e+002 -2.176671e+002 0.000000e+000
      vertex   -7.684966e+001 -2.301671e+002 0.000000e+000
    endloop
  endfacet
  facet normal -4.472136e-001 -8.944272e-001 0.000000e+000
    outer loop
      vertex   -8.934966e+001 -2.239171e+002 5.000000e+001
      vertex   -7.684966e+001 -2.301671e+002 0.000000e+000
      vertex   -7.684966e+001 -2.301671e+002 1.000000e+002
    endloop
  endfacet
  facet normal 0.000000e+000 -1.000000e+000 0.000000e+000
    outer loop
      vertex   2.315034e+001 1.823329e+002 5.000000e+001
      vertex   4.400339e+000 1.823329e+002 1.000000e+002
      vertex   4.400339e+000 1.823329e+002 0.000000e+000
    endloop
  endfacet
  facet normal -4.472136e-001 -8.944272e-001 -0.000000e+000
    outer loop
      vertex   -8.934966e+001 -2.239171e+002 5.000000e+001
      vertex   -1.018497e+002 -2.176671e+002 1.000000e+002
      vertex   -1.018497e+002 -2.176671e+002 0.000000e+000
    endloop
  endfacet
  facet normal -4.472136e-001 8.944272e-001 0.000000e+000
    outer loop
      vertex   -8.934966e+001 2.260829e+002 5.000000e+001
      vertex   -7.684966e+001 2.323329e+002 0.000000e+000
      vertex   -1.018497e+002 2.198329e+002 0.000000e+000
    endloop
  endfacet
  facet normal -4.472136e-001 8.944272e-001 0.000000e+000
    outer loop
      vertex   -8.934966e+001 2.260829e+002 5.000000e+001
      vertex   -1.018497e+002 2.198329e+002 0.000000e+000
      vertex   -1.018497e+002 2.198329e+002 1.000000e+002
    endloop
  endfacet
  facet normal -1.643990e-001 9.863939e-001 0.000000e+000
    outer loop
      vertex   -1.434966e+001 2.479579e+002 5.000000e+001
      vertex   -3.309966e+001 2.448329e+002 0.000000e+000
      vertex   -3.309966e+001 2.448329e+002 1.000000e+002
    endloop
  endfacet
  facet normal -4.472136e-001 8.944272e-001 0.000000e+000
    outer loop
      vertex   -8.934966e+001 2.260829e+002 5.000000e+001
      vertex   -7.684966e+001 2.323329e+002 1.000000e+002
      vertex   -7.684966e+001 2.323329e+002 0.000000e+000
    endloop
  endfacet
  facet normal 8.574929e-001 -5.144957e-001 0.000000e+000
    outer loop
      vertex   -1.174747e+002 1.167079e+002 5.000000e+001
      vertex   -1.268497e+002 1.010829e+002 0.000000e+000
      vertex   -1.080997e+002 1.323329e+002 0.000000e+000
    endloop
  endfacet
  facet normal 8.574929e-001 -5.144957e-001 0.000000e+000
    outer loop
      vertex   -1.174747e+002 1.167079e+002 5.000000e+001
      vertex   -1.080997e+002 1.323329e+002 0.000000e+000
      vertex   -1.080997e+002 1.323329e+002 1.000000e+002
    endloop
  endfacet
  facet normal -1.643990e-001 9.863939e-001 0.000000e+000
    outer loop
      vertex   -1.434966e+001 2.479579e+002 5.000000e+001
      vertex   4.400339e+000 2.510829e+002 1.000000e+002
      vertex   4.400339e+000 2.510829e+002 0.000000e+000
    endloop
  endfacet
  facet normal 8.574929e-001 -5.144957e-001 0.000000e+000
    outer loop
      vertex   -1.174747e+002 1.167079e+002 5.000000e+001
      vertex   -1.268497e+002 1.010829e+002 1.000000e+002
      vertex   -1.268497e+002 1.010829e+002 0.000000e+000
    endloop
  endfacet
  facet normal 0.000000e+000 1.000000e+000 0.000000e+000
    outer loop
      vertex   2.315034e+001 -1.801671e+002 5.000000e+001
      vertex   4.190034e+001 -1.801671e+002 0.000000e+000
      vertex   4.400339e+000 -1.801671e+002 0.000000e+000
    endloop
  endfacet
  facet normal 0.000000e+000 1.000000e+000 0.000000e+000
    outer loop
      vertex   2.315034e+001 -1.801671e+002 5.000000e+001
      vertex   4.400339e+000 -1.801671e+002 0.000000e+000
      vertex   4.400339e+000 -1.801671e+002 1.000000e+002
    endloop
  endfacet
  facet normal 1.961161e-001 -9.805807e-001 0.000000e+000
    outer loop
      vertex   2.106503e+002 8.233287e+001 5.000000e+001
      vertex   2.419003e+002 8.858287e+001 0.000000e+000
      vertex   2.419003e+002 8.858287e+001 1.000000e+002
    endloop
  endfacet
  facet normal 0.000000e+000 1.000000e+000 0.000000e+000
    outer loop
      vertex   2.315034e+001 -1.801671e+002 5.000000e+001
      vertex   4.190034e+001 -1.801671e+002 1.000000e+002
      vertex   4.190034e+001 -1.801671e+002 0.000000e+000
    endloop
  endfacet
  facet normal -8.320501e-001 -5.547004e-001 -1.218824e-007
    outer loop
      vertex   -1.768497e+002 -1.364171e+002 5.000000e+001
      vertex   -1.893497e+002 -1.176671e+002 0.000000e+000
      vertex   -1.643497e+002 -1.551671e+002 0.000000e+000
    endloop
  endfacet
  facet normal -8.320500e-001 -5.547007e-001 0.000000e+000
    outer loop
      vertex   -1.768497e+002 -1.364171e+002 5.000000e+001
      vertex   -1.643497e+002 -1.551671e+002 0.000000e+000
      vertex   -1.643497e+002 -1.551671e+002 1.000000e+002
    endloop
  endfacet
  facet normal 1.961161e-001 -9.805807e-001 0.000000e+000
    outer loop
      vertex   2.106503e+002 8.233287e+001 5.000000e+001
      vertex   1.794003e+002 7.608287e+001 1.000000e+002
      vertex   1.794003e+002 7.608287e+001 0.000000e+000
    endloop
  endfacet
  facet normal -8.320503e-001 -5.547002e-001 -0.000000e+000
    outer loop
      vertex   -1.768497e+002 -1.364171e+002 5.000000e+001
      vertex   -1.893497e+002 -1.176671e+002 1.000000e+002
      vertex   -1.893497e+002 -1.176671e+002 0.000000e+000
    endloop
  endfacet
  facet normal 9.486833e-001 -3.162276e-001 -6.948364e-008
    outer loop
      vertex   -1.330997e+002 8.233287e+001 5.000000e+001
      vertex   -1.393497e+002 6.358287e+001 0.000000e+000
      vertex   -1.268497e+002 1.010829e+002 0.000000e+000
    endloop
  endfacet
  facet normal 9.486834e-001 -3.162274e-001 0.000000e+000
    outer loop
      vertex   -1.330997e+002 8.233287e+001 5.000000e+001
      vertex   -1.268497e+002 1.010829e+002 0.000000e+000
      vertex   -1.268497e+002 1.010829e+002 1.000000e+002
    endloop
  endfacet
  facet normal 7.071068e-001 7.071068e-001 -0.000000e+000
    outer loop
      vertex   -9.872466e+001 -1.395421e+002 5.000000e+001
      vertex   -1.080997e+002 -1.301671e+002 0.000000e+000
      vertex   -1.080997e+002 -1.301671e+002 1.000000e+002
    endloop
  endfacet
  facet normal 9.486833e-001 -3.162278e-001 0.000000e+000
    outer loop
      vertex   -1.330997e+002 8.233287e+001 5.000000e+001
      vertex   -1.393497e+002 6.358287e+001 1.000000e+002
      vertex   -1.393497e+002 6.358287e+001 0.000000e+000
    endloop
  endfacet
  facet normal -3.162278e-001 9.486833e-001 0.000000e+000
    outer loop
      vertex   9.815034e+001 -1.676671e+002 5.000000e+001
      vertex   1.169003e+002 -1.614171e+002 0.000000e+000
      vertex   7.940034e+001 -1.739171e+002 0.000000e+000
    endloop
  endfacet
  facet normal -3.162278e-001 9.486833e-001 0.000000e+000
    outer loop
      vertex   9.815034e+001 -1.676671e+002 5.000000e+001
      vertex   7.940034e+001 -1.739171e+002 0.000000e+000
      vertex   7.940034e+001 -1.739171e+002 1.000000e+002
    endloop
  endfacet
  facet normal 7.071068e-001 7.071068e-001 0.000000e+000
    outer loop
      vertex   -9.872466e+001 -1.395421e+002 5.000000e+001
      vertex   -8.934966e+001 -1.489171e+002 1.000000e+002
      vertex   -8.934966e+001 -1.489171e+002 0.000000e+000
    endloop
  endfacet
  facet normal -3.162278e-001 9.486833e-001 0.000000e+000
    outer loop
      vertex   9.815034e+001 -1.676671e+002 5.000000e+001
      vertex   1.169003e+002 -1.614171e+002 1.000000e+002
      vertex   1.169003e+002 -1.614171e+002 0.000000e+000
    endloop
  endfacet
  facet normal -1.000000e+000 0.000000e+000 0.000000e+000
    outer loop
      vertex   -2.143497e+002 1.082871e+000 5.000000e+001
      vertex   -2.143497e+002 1.983287e+001 0.000000e+000
      vertex   -2.143497e+002 -1.766713e+001 0.000000e+000
    endloop
  endfacet
  facet normal -1.000000e+000 0.000000e+000 0.000000e+000
    outer loop
      vertex   -2.143497e+002 1.082871e+000 5.000000e+001
      vertex   -2.143497e+002 -1.766713e+001 0.000000e+000
      vertex   -2.143497e+002 -1.766713e+001 1.000000e+002
    endloop
  endfacet
  facet normal 1.643990e-001 9.863939e-001 -0.000000e+000
    outer loop
      vertex   6.065034e+001 2.479579e+002 5.000000e+001
      vertex   4.190034e+001 2.510829e+002 0.000000e+000
      vertex   4.190034e+001 2.510829e+002 1.000000e+002
    endloop
  endfacet
  facet normal -1.000000e+000 0.000000e+000 -0.000000e+000
    outer loop
      vertex   -2.143497e+002 1.082871e+000 5.000000e+001
      vertex   -2.143497e+002 1.983287e+001 1.000000e+002
      vertex   -2.143497e+002 1.983287e+001 0.000000e+000
    endloop
  endfacet
  facet normal 9.899496e-001 -1.414214e-001 0.000000e+000
    outer loop
      vertex   -1.424747e+002 4.170787e+001 5.000000e+001
      vertex   -1.455997e+002 1.983287e+001 0.000000e+000
      vertex   -1.393497e+002 6.358287e+001 0.000000e+000
    endloop
  endfacet
  facet normal 9.899496e-001 -1.414214e-001 0.000000e+000
    outer loop
      vertex   -1.424747e+002 4.170787e+001 5.000000e+001
      vertex   -1.393497e+002 6.358287e+001 0.000000e+000
      vertex   -1.393497e+002 6.358287e+001 1.000000e+002
    endloop
  endfacet
  facet normal 1.643990e-001 9.863939e-001 0.000000e+000
    outer loop
      vertex   6.065034e+001 2.479579e+002 5.000000e+001
      vertex   7.940034e+001 2.448329e+002 1.000000e+002
      vertex   7.940034e+001 2.448329e+002 0.000000e+000
    endloop
  endfacet
  facet normal 9.899496e-001 -1.414214e-001 0.000000e+000
    outer loop
      vertex   -1.424747e+002 4.170787e+001 5.000000e+001
      vertex   -1.455997e+002 1.983287e+001 1.000000e+002
      vertex   -1.455997e+002 1.983287e+001 0.000000e+000
    endloop
  endfacet
  facet normal 7.682213e-001 -6.401845e-001 0.000000e+000
    outer loop
      vertex   2.012753e+002 -1.676671e+002 5.000000e+001
      vertex   1.856503e+002 -1.864171e+002 0.000000e+000
      vertex   2.169003e+002 -1.489171e+002 0.000000e+000
    endloop
  endfacet
  facet normal 7.682213e-001 -6.401845e-001 0.000000e+000
    outer loop
      vertex   2.012753e+002 -1.676671e+002 5.000000e+001
      vertex   2.169003e+002 -1.489171e+002 0.000000e+000
      vertex   2.169003e+002 -1.489171e+002 1.000000e+002
    endloop
  endfacet
  facet normal -6.000000e-001 -8.000000e-001 0.000000e+000
    outer loop
      vertex   1.294003e+002 1.542079e+002 5.000000e+001
      vertex   1.419003e+002 1.448329e+002 0.000000e+000
      vertex   1.419003e+002 1.448329e+002 1.000000e+002
    endloop
  endfacet
  facet normal 7.682213e-001 -6.401845e-001 0.000000e+000
    outer loop
      vertex   2.012753e+002 -1.676671e+002 5.000000e+001
      vertex   1.856503e+002 -1.864171e+002 1.000000e+002
      vertex   1.856503e+002 -1.864171e+002 0.000000e+000
    endloop
  endfacet
  facet normal -1.643990e-001 -9.863939e-001 8.027294e-009
    outer loop
      vertex   -1.434966e+001 -2.457921e+002 5.000000e+001
      vertex   -3.309966e+001 -2.426671e+002 0.000000e+000
      vertex   4.400339e+000 -2.489171e+002 0.000000e+000
    endloop
  endfacet
  facet normal -1.643990e-001 -9.863939e-001 0.000000e+000
    outer loop
      vertex   -1.434966e+001 -2.457921e+002 5.000000e+001
      vertex   4.400339e+000 -2.489171e+002 0.000000e+000
      vertex   4.400339e+000 -2.489171e+002 1.000000e+002
    endloop
  endfacet
  facet normal -5.999998e-001 -8.000001e-001 -0.000000e+000
    outer loop
      vertex   1.294003e+002 1.542079e+002 5.000000e+001
      vertex   1.169003e+002 1.635829e+002 1.000000e+002
      vertex   1.169003e+002 1.635829e+002 0.000000e+000
    endloop
  endfacet
  facet normal -1.643990e-001 -9.863939e-001 -0.000000e+000
    outer loop
      vertex   -1.434966e+001 -2.457921e+002 5.000000e+001
      vertex   -3.309966e+001 -2.426671e+002 1.000000e+002
      vertex   -3.309966e+001 -2.426671e+002 0.000000e+000
    endloop
  endfacet
  facet normal -8.320501e-001 5.547004e-001 -1.354248e-007
    outer loop
      vertex   -1.768497e+002 1.385829e+002 5.000000e+001
      vertex   -1.643497e+002 1.573329e+002 0.000000e+000
      vertex   -1.893497e+002 1.198329e+002 0.000000e+000
    endloop
  endfacet
  facet normal -8.320503e-001 5.547002e-001 0.000000e+000
    outer loop
      vertex   -1.768497e+002 1.385829e+002 5.000000e+001
      vertex   -1.893497e+002 1.198329e+002 0.000000e+000
      vertex   -1.893497e+002 1.198329e+002 1.000000e+002
    endloop
  endfacet
  facet normal -1.643990e-001 9.863939e-001 0.000000e+000
    outer loop
      vertex   6.065034e+001 -1.770421e+002 5.000000e+001
      vertex   4.190034e+001 -1.801671e+002 0.000000e+000
      vertex   4.190034e+001 -1.801671e+002 1.000000e+002
    endloop
  endfacet
  facet normal -8.320500e-001 5.547007e-001 0.000000e+000
    outer loop
      vertex   -1.768497e+002 1.385829e+002 5.000000e+001
      vertex   -1.643497e+002 1.573329e+002 1.000000e+002
      vertex   -1.643497e+002 1.573329e+002 0.000000e+000
    endloop
  endfacet
  facet normal 1.000000e+000 0.000000e+000 0.000000e+000
    outer loop
      vertex   -1.455997e+002 1.082871e+000 5.000000e+001
      vertex   -1.455997e+002 -1.766713e+001 0.000000e+000
      vertex   -1.455997e+002 1.983287e+001 0.000000e+000
    endloop
  endfacet
  facet normal 1.000000e+000 0.000000e+000 -0.000000e+000
    outer loop
      vertex   -1.455997e+002 1.082871e+000 5.000000e+001
      vertex   -1.455997e+002 1.983287e+001 0.000000e+000
      vertex   -1.455997e+002 1.983287e+001 1.000000e+002
    endloop
  endfacet
  facet normal -1.643990e-001 9.863939e-001 0.000000e+000
    outer loop
      vertex   6.065034e+001 -1.770421e+002 5.000000e+001
      vertex   7.940034e+001 -1.739171e+002 1.000000e+002
      vertex   7.940034e+001 -1.739171e+002 0.000000e+000
    endloop
  endfacet
  facet normal 1.000000e+000 0.000000e+000 0.000000e+000
    outer loop
      vertex   -1.455997e+002 1.082871e+000 5.000000e+001
      vertex   -1.455997e+002 -1.766713e+001 1.000000e+002
      vertex   -1.455997e+002 -1.766713e+001 0.000000e+000
    endloop
  endfacet
  facet normal -5.547000e-001 8.320504e-001 -4.062744e-008
    outer loop
      vertex   1.262753e+002 -1.551671e+002 5.000000e+001
      vertex   1.356503e+002 -1.489171e+002 0.000000e+000
      vertex   1.169003e+002 -1.614171e+002 0.000000e+000
    endloop
  endfacet
  facet normal -5.547002e-001 8.320503e-001 0.000000e+000
    outer loop
      vertex   1.262753e+002 -1.551671e+002 5.000000e+001
      vertex   1.169003e+002 -1.614171e+002 0.000000e+000
      vertex   1.169003e+002 -1.614171e+002 1.000000e+002
    endloop
  endfacet
  facet normal 0.000000e+000 0.000000e+000 -1.000000e+000
    outer loop
      vertex   1.919003e+002 1.885829e+002 0.000000e+000
      vertex   2.231503e+002 1.385829e+002 0.000000e+000
      vertex   1.606503e+002 2.135829e+002 0.000000e+000
    endloop
  endfacet
  facet normal -5.546999e-001 8.320505e-001 0.000000e+000
    outer loop
      vertex   1.262753e+002 -1.551671e+002 5.000000e+001
      vertex   1.356503e+002 -1.489171e+002 1.000000e+002
      vertex   1.356503e+002 -1.489171e+002 0.000000e+000
    endloop
  endfacet
  facet normal 6.401845e-001 -7.682213e-001 0.000000e+000
    outer loop
      vertex   1.669003e+002 -2.020421e+002 5.000000e+001
      vertex   1.481503e+002 -2.176671e+002 0.000000e+000
      vertex   1.856503e+002 -1.864171e+002 0.000000e+000
    endloop
  endfacet
  facet normal 6.401845e-001 -7.682213e-001 0.000000e+000
    outer loop
      vertex   1.669003e+002 -2.020421e+002 5.000000e+001
      vertex   1.856503e+002 -1.864171e+002 0.000000e+000
      vertex   1.856503e+002 -1.864171e+002 1.000000e+002
    endloop
  endfacet
  facet normal 0.000000e+000 -1.000000e+000 0.000000e+000
    outer loop
      vertex   2.315034e+001 1.823329e+002 5.000000e+001
      vertex   4.400339e+000 1.823329e+002 0.000000e+000
      vertex   4.190034e+001 1.823329e+002 0.000000e+000
    endloop
  endfacet
  facet normal 6.401845e-001 -7.682213e-001 0.000000e+000
    outer loop
      vertex   1.669003e+002 -2.020421e+002 5.000000e+001
      vertex   1.481503e+002 -2.176671e+002 1.000000e+002
      vertex   1.481503e+002 -2.176671e+002 0.000000e+000
    endloop
  endfacet
  facet normal 9.899496e-001 1.414214e-001 0.000000e+000
    outer loop
      vertex   -1.424747e+002 -3.954213e+001 5.000000e+001
      vertex   -1.393497e+002 -6.141713e+001 0.000000e+000
      vertex   -1.455997e+002 -1.766713e+001 0.000000e+000
    endloop
  endfacet
  facet normal 9.899496e-001 1.414214e-001 -0.000000e+000
    outer loop
      vertex   -1.424747e+002 -3.954213e+001 5.000000e+001
      vertex   -1.455997e+002 -1.766713e+001 0.000000e+000
      vertex   -1.455997e+002 -1.766713e+001 1.000000e+002
    endloop
  endfacet
  facet normal 0.000000e+000 0.000000e+000 -1.000000e+000
    outer loop
      vertex   -7.684966e+001 -2.301671e+002 0.000000e+000
      vertex   -1.018497e+002 -2.176671e+002 0.000000e+000
      vertex   -1.893497e+002 -1.176671e+002 0.000000e+000
    endloop
  endfacet
  facet normal 9.899496e-001 1.414214e-001 0.000000e+000
    outer loop
      vertex   -1.424747e+002 -3.954213e+001 5.000000e+001
      vertex   -1.393497e+002 -6.141713e+001 1.000000e+002
      vertex   -1.393497e+002 -6.141713e+001 0.000000e+000
    endloop
  endfacet
  facet normal -8.574929e-001 5.144957e-001 0.000000e+000
    outer loop
      vertex   1.637753e+002 -1.145421e+002 5.000000e+001
      vertex   1.731503e+002 -9.891714e+001 0.000000e+000
      vertex   1.544003e+002 -1.301671e+002 0.000000e+000
    endloop
  endfacet
  facet normal -8.574929e-001 5.144957e-001 0.000000e+000
    outer loop
      vertex   1.637753e+002 -1.145421e+002 5.000000e+001
      vertex   1.544003e+002 -1.301671e+002 0.000000e+000
      vertex   1.544003e+002 -1.301671e+002 1.000000e+002
    endloop
  endfacet
  facet normal 0.000000e+000 0.000000e+000 -1.000000e+000
    outer loop
      vertex   -1.018497e+002 -2.176671e+002 0.000000e+000
      vertex   -1.393497e+002 -1.864171e+002 0.000000e+000
      vertex   -1.893497e+002 -1.176671e+002 0.000000e+000
    endloop
  endfacet
  facet normal -8.574929e-001 5.144957e-001 0.000000e+000
    outer loop
      vertex   1.637753e+002 -1.145421e+002 5.000000e+001
      vertex   1.731503e+002 -9.891714e+001 1.000000e+002
      vertex   1.731503e+002 -9.891714e+001 0.000000e+000
    endloop
  endfacet
  facet normal -7.808688e-001 -6.246951e-001 0.000000e+000
    outer loop
      vertex   -1.518497e+002 -1.707921e+002 5.000000e+001
      vertex   -1.643497e+002 -1.551671e+002 0.000000e+000
      vertex   -1.393497e+002 -1.864171e+002 0.000000e+000
    endloop
  endfacet
  facet normal -7.808688e-001 -6.246951e-001 0.000000e+000
    outer loop
      vertex   -1.518497e+002 -1.707921e+002 5.000000e+001
      vertex   -1.393497e+002 -1.864171e+002 0.000000e+000
      vertex   -1.393497e+002 -1.864171e+002 1.000000e+002
    endloop
  endfacet
  facet normal -1.643990e-001 9.863939e-001 0.000000e+000
    outer loop
      vertex   -1.434966e+001 2.479579e+002 5.000000e+001
      vertex   4.400339e+000 2.510829e+002 0.000000e+000
      vertex   -3.309966e+001 2.448329e+002 0.000000e+000
    endloop
  endfacet
  facet normal -7.808688e-001 -6.246951e-001 -0.000000e+000
    outer loop
      vertex   -1.518497e+002 -1.707921e+002 5.000000e+001
      vertex   -1.643497e+002 -1.551671e+002 1.000000e+002
      vertex   -1.643497e+002 -1.551671e+002 0.000000e+000
    endloop
  endfacet
  facet normal 6.246951e-001 7.808688e-001 0.000000e+000
    outer loop
      vertex   1.762753e+002 2.010829e+002 5.000000e+001
      vertex   1.919003e+002 1.885829e+002 0.000000e+000
      vertex   1.606503e+002 2.135829e+002 0.000000e+000
    endloop
  endfacet
  facet normal 6.246951e-001 7.808688e-001 -0.000000e+000
    outer loop
      vertex   1.762753e+002 2.010829e+002 5.000000e+001
      vertex   1.606503e+002 2.135829e+002 0.000000e+000
      vertex   1.606503e+002 2.135829e+002 1.000000e+002
    endloop
  endfacet
  facet normal 0.000000e+000 0.000000e+000 -1.000000e+000
    outer loop
      vertex   -1.080997e+002 -1.301671e+002 0.000000e+000
      vertex   -3.309966e+001 -2.426671e+002 0.000000e+000
      vertex   -2.143497e+002 -1.766713e+001 0.000000e+000
    endloop
  endfacet
  facet normal 6.246951e-001 7.808688e-001 0.000000e+000
    outer loop
      vertex   1.762753e+002 2.010829e+002 5.000000e+001
      vertex   1.919003e+002 1.885829e+002 1.000000e+002
      vertex   1.919003e+002 1.885829e+002 0.000000e+000
    endloop
  endfacet
  facet normal 9.578263e-001 -2.873478e-001 -3.741508e-008
    outer loop
      vertex   2.450253e+002 -8.016714e+001 5.000000e+001
      vertex   2.356503e+002 -1.114171e+002 0.000000e+000
      vertex   2.544003e+002 -4.891713e+001 0.000000e+000
    endloop
  endfacet
  facet normal 9.578263e-001 -2.873478e-001 0.000000e+000
    outer loop
      vertex   2.450253e+002 -8.016714e+001 5.000000e+001
      vertex   2.544003e+002 -4.891713e+001 0.000000e+000
      vertex   2.544003e+002 -4.891713e+001 1.000000e+002
    endloop
  endfacet
  facet normal 0.000000e+000 0.000000e+000 -1.000000e+000
    outer loop
      vertex   -3.309966e+001 -2.426671e+002 0.000000e+000
      vertex   -7.684966e+001 -2.301671e+002 0.000000e+000
      vertex   -2.143497e+002 -1.766713e+001 0.000000e+000
    endloop
  endfacet
  facet normal 9.578263e-001 -2.873479e-001 0.000000e+000
    outer loop
      vertex   2.450253e+002 -8.016714e+001 5.000000e+001
      vertex   2.356503e+002 -1.114171e+002 1.000000e+002
      vertex   2.356503e+002 -1.114171e+002 0.000000e+000
    endloop
  endfacet
  facet normal -6.401845e-001 -7.682212e-001 -5.001441e-008
    outer loop
      vertex   -1.205997e+002 -2.020421e+002 5.000000e+001
      vertex   -1.393497e+002 -1.864171e+002 0.000000e+000
      vertex   -1.018497e+002 -2.176671e+002 0.000000e+000
    endloop
  endfacet
  facet normal -6.401845e-001 -7.682213e-001 0.000000e+000
    outer loop
      vertex   -1.205997e+002 -2.020421e+002 5.000000e+001
      vertex   -1.018497e+002 -2.176671e+002 0.000000e+000
      vertex   -1.018497e+002 -2.176671e+002 1.000000e+002
    endloop
  endfacet
  facet normal 1.961161e-001 -9.805807e-001 0.000000e+000
    outer loop
      vertex   2.106503e+002 8.233287e+001 5.000000e+001
      vertex   1.794003e+002 7.608287e+001 0.000000e+000
      vertex   2.419003e+002 8.858287e+001 0.000000e+000
    endloop
  endfacet
  facet normal -6.401846e-001 -7.682212e-001 -0.000000e+000
    outer loop
      vertex   -1.205997e+002 -2.020421e+002 5.000000e+001
      vertex   -1.393497e+002 -1.864171e+002 1.000000e+002
      vertex   -1.393497e+002 -1.864171e+002 0.000000e+000
    endloop
  endfacet
  facet normal 8.479983e-001 5.299990e-001 0.000000e+000
    outer loop
      vertex   2.075253e+002 1.635829e+002 5.000000e+001
      vertex   2.231503e+002 1.385829e+002 0.000000e+000
      vertex   1.919003e+002 1.885829e+002 0.000000e+000
    endloop
  endfacet
  facet normal 8.479983e-001 5.299990e-001 -0.000000e+000
    outer loop
      vertex   2.075253e+002 1.635829e+002 5.000000e+001
      vertex   1.919003e+002 1.885829e+002 0.000000e+000
      vertex   1.919003e+002 1.885829e+002 1.000000e+002
    endloop
  endfacet
  facet normal 0.000000e+000 0.000000e+000 -1.000000e+000
    outer loop
      vertex   -2.143497e+002 1.983287e+001 0.000000e+000
      vertex   -1.268497e+002 -9.891714e+001 0.000000e+000
      vertex   -2.143497e+002 -1.766713e+001 0.000000e+000
    endloop
  endfacet
  facet normal 8.479983e-001 5.299990e-001 0.000000e+000
    outer loop
      vertex   2.075253e+002 1.635829e+002 5.000000e+001
      vertex   2.231503e+002 1.385829e+002 1.000000e+002
      vertex   2.231503e+002 1.385829e+002 0.000000e+000
    endloop
  endfacet
  facet normal -7.071068e-001 7.071068e-001 0.000000e+000
    outer loop
      vertex   1.450253e+002 -1.395421e+002 5.000000e+001
      vertex   1.544003e+002 -1.301671e+002 0.000000e+000
      vertex   1.356503e+002 -1.489171e+002 0.000000e+000
    endloop
  endfacet
  facet normal -7.071068e-001 7.071068e-001 0.000000e+000
    outer loop
      vertex   1.450253e+002 -1.395421e+002 5.000000e+001
      vertex   1.356503e+002 -1.489171e+002 0.000000e+000
      vertex   1.356503e+002 -1.489171e+002 1.000000e+002
    endloop
  endfacet
  facet normal 0.000000e+000 0.000000e+000 -1.000000e+000
    outer loop
      vertex   -7.059966e+001 -1.614171e+002 0.000000e+000
      vertex   -3.309966e+001 -2.426671e+002 0.000000e+000
      vertex   -8.934966e+001 -1.489171e+002 0.000000e+000
    endloop
  endfacet
  facet normal -7.071068e-001 7.071068e-001 0.000000e+000
    outer loop
      vertex   1.450253e+002 -1.395421e+002 5.000000e+001
      vertex   1.544003e+002 -1.301671e+002 1.000000e+002
      vertex   1.544003e+002 -1.301671e+002 0.000000e+000
    endloop
  endfacet
  facet normal 4.472135e-001 -8.944272e-001 -3.275489e-008
    outer loop
      vertex   1.356503e+002 -2.239171e+002 5.000000e+001
      vertex   1.231503e+002 -2.301671e+002 0.000000e+000
      vertex   1.481503e+002 -2.176671e+002 0.000000e+000
    endloop
  endfacet
  facet normal 4.472136e-001 -8.944272e-001 0.000000e+000
    outer loop
      vertex   1.356503e+002 -2.239171e+002 5.000000e+001
      vertex   1.481503e+002 -2.176671e+002 0.000000e+000
      vertex   1.481503e+002 -2.176671e+002 1.000000e+002
    endloop
  endfacet
  facet normal 7.071068e-001 7.071068e-001 0.000000e+000
    outer loop
      vertex   -9.872466e+001 -1.395421e+002 5.000000e+001
      vertex   -8.934966e+001 -1.489171e+002 0.000000e+000
      vertex   -1.080997e+002 -1.301671e+002 0.000000e+000
    endloop
  endfacet
  facet normal 4.472134e-001 -8.944272e-001 0.000000e+000
    outer loop
      vertex   1.356503e+002 -2.239171e+002 5.000000e+001
      vertex   1.231503e+002 -2.301671e+002 1.000000e+002
      vertex   1.231503e+002 -2.301671e+002 0.000000e+000
    endloop
  endfacet
  facet normal -3.162278e-001 -9.486833e-001 0.000000e+000
    outer loop
      vertex   9.815034e+001 1.698329e+002 5.000000e+001
      vertex   7.940034e+001 1.760829e+002 0.000000e+000
      vertex   1.169003e+002 1.635829e+002 0.000000e+000
    endloop
  endfacet
  facet normal -3.162278e-001 -9.486833e-001 0.000000e+000
    outer loop
      vertex   9.815034e+001 1.698329e+002 5.000000e+001
      vertex   1.169003e+002 1.635829e+002 0.000000e+000
      vertex   1.169003e+002 1.635829e+002 1.000000e+002
    endloop
  endfacet
  facet normal 0.000000e+000 0.000000e+000 -1.000000e+000
    outer loop
      vertex   -1.455997e+002 -1.766713e+001 0.000000e+000
      vertex   -1.393497e+002 -6.141713e+001 0.000000e+000
      vertex   -2.143497e+002 1.983287e+001 0.000000e+000
    endloop
  endfacet
  facet normal -3.162278e-001 -9.486833e-001 -0.000000e+000
    outer loop
      vertex   9.815034e+001 1.698329e+002 5.000000e+001
      vertex   7.940034e+001 1.760829e+002 1.000000e+002
      vertex   7.940034e+001 1.760829e+002 0.000000e+000
    endloop
  endfacet
  facet normal 0.000000e+000 1.000000e+000 0.000000e+000
    outer loop
      vertex   2.200253e+002 -4.891713e+001 5.000000e+001
      vertex   2.544003e+002 -4.891713e+001 0.000000e+000
      vertex   1.856503e+002 -4.891713e+001 0.000000e+000
    endloop
  endfacet
  facet normal 0.000000e+000 1.000000e+000 0.000000e+000
    outer loop
      vertex   2.200253e+002 -4.891713e+001 5.000000e+001
      vertex   1.856503e+002 -4.891713e+001 0.000000e+000
      vertex   1.856503e+002 -4.891713e+001 1.000000e+002
    endloop
  endfacet
  facet normal 0.000000e+000 0.000000e+000 -1.000000e+000
    outer loop
      vertex   -3.309966e+001 -1.739171e+002 0.000000e+000
      vertex   4.400339e+000 -2.489171e+002 0.000000e+000
      vertex   -7.059966e+001 -1.614171e+002 0.000000e+000
    endloop
  endfacet
  facet normal 0.000000e+000 1.000000e+000 0.000000e+000
    outer loop
      vertex   2.200253e+002 -4.891713e+001 5.000000e+001
      vertex   2.544003e+002 -4.891713e+001 1.000000e+002
      vertex   2.544003e+002 -4.891713e+001 0.000000e+000
    endloop
  endfacet
  facet normal 2.747211e-001 -9.615240e-001 0.000000e+000
    outer loop
      vertex   1.012753e+002 -2.364171e+002 5.000000e+001
      vertex   7.940034e+001 -2.426671e+002 0.000000e+000
      vertex   1.231503e+002 -2.301671e+002 0.000000e+000
    endloop
  endfacet
  facet normal 2.747211e-001 -9.615240e-001 0.000000e+000
    outer loop
      vertex   1.012753e+002 -2.364171e+002 5.000000e+001
      vertex   1.231503e+002 -2.301671e+002 0.000000e+000
      vertex   1.231503e+002 -2.301671e+002 1.000000e+002
    endloop
  endfacet
  facet normal 1.643990e-001 9.863939e-001 0.000000e+000
    outer loop
      vertex   6.065034e+001 2.479579e+002 5.000000e+001
      vertex   7.940034e+001 2.448329e+002 0.000000e+000
      vertex   4.190034e+001 2.510829e+002 0.000000e+000
    endloop
  endfacet
  facet normal 2.747211e-001 -9.615240e-001 0.000000e+000
    outer loop
      vertex   1.012753e+002 -2.364171e+002 5.000000e+001
      vertex   7.940034e+001 -2.426671e+002 1.000000e+002
      vertex   7.940034e+001 -2.426671e+002 0.000000e+000
    endloop
  endfacet
  facet normal -2.747211e-001 9.615240e-001 0.000000e+000
    outer loop
      vertex   -5.497466e+001 2.385829e+002 5.000000e+001
      vertex   -3.309966e+001 2.448329e+002 0.000000e+000
      vertex   -7.684966e+001 2.323329e+002 0.000000e+000
    endloop
  endfacet
  facet normal 0.000000e+000 0.000000e+000 -1.000000e+000
    outer loop
      vertex   4.400339e+000 -1.801671e+002 0.000000e+000
      vertex   4.190034e+001 -2.489171e+002 0.000000e+000
      vertex   -3.309966e+001 -1.739171e+002 0.000000e+000
    endloop
  endfacet
  facet normal 0.000000e+000 0.000000e+000 -1.000000e+000
    outer loop
      vertex   -1.455997e+002 1.983287e+001 0.000000e+000
      vertex   -1.455997e+002 -1.766713e+001 0.000000e+000
      vertex   -2.080997e+002 6.358287e+001 0.000000e+000
    endloop
  endfacet
  facet normal 0.000000e+000 0.000000e+000 -1.000000e+000
    outer loop
      vertex   7.940034e+001 -2.426671e+002 0.000000e+000
      vertex   4.190034e+001 -2.489171e+002 0.000000e+000
      vertex   4.400339e+000 -1.801671e+002 0.000000e+000
    endloop
  endfacet
  facet normal 3.162278e-001 -9.486833e-001 0.000000e+000
    outer loop
      vertex   -5.184966e+001 1.698329e+002 5.000000e+001
      vertex   -7.059966e+001 1.635829e+002 0.000000e+000
      vertex   -3.309966e+001 1.760829e+002 0.000000e+000
    endloop
  endfacet
  facet normal 0.000000e+000 0.000000e+000 -1.000000e+000
    outer loop
      vertex   4.190034e+001 -1.801671e+002 0.000000e+000
      vertex   7.940034e+001 -2.426671e+002 0.000000e+000
      vertex   4.400339e+000 -1.801671e+002 0.000000e+000
    endloop
  endfacet
  facet normal 0.000000e+000 0.000000e+000 -1.000000e+000
    outer loop
      vertex   -1.893497e+002 1.198329e+002 0.000000e+000
      vertex   -1.455997e+002 1.983287e+001 0.000000e+000
      vertex   -2.080997e+002 6.358287e+001 0.000000e+000
    endloop
  endfacet
  facet normal 0.000000e+000 0.000000e+000 -1.000000e+000
    outer loop
      vertex   -1.393497e+002 6.358287e+001 0.000000e+000
      vertex   -1.455997e+002 1.983287e+001 0.000000e+000
      vertex   -1.893497e+002 1.198329e+002 0.000000e+000
    endloop
  endfacet
  facet normal 1.643990e-001 9.863939e-001 0.000000e+000
    outer loop
      vertex   -1.434966e+001 -1.770421e+002 5.000000e+001
      vertex   4.400339e+000 -1.801671e+002 0.000000e+000
      vertex   -3.309966e+001 -1.739171e+002 0.000000e+000
    endloop
  endfacet
  facet normal 0.000000e+000 0.000000e+000 -1.000000e+000
    outer loop
      vertex   1.231503e+002 -2.301671e+002 0.000000e+000
      vertex   7.940034e+001 -2.426671e+002 0.000000e+000
      vertex   4.190034e+001 -1.801671e+002 0.000000e+000
    endloop
  endfacet
  facet normal 0.000000e+000 0.000000e+000 -1.000000e+000
    outer loop
      vertex   7.940034e+001 -1.739171e+002 0.000000e+000
      vertex   1.231503e+002 -2.301671e+002 0.000000e+000
      vertex   4.190034e+001 -1.801671e+002 0.000000e+000
    endloop
  endfacet
  facet normal 0.000000e+000 0.000000e+000 -1.000000e+000
    outer loop
      vertex   -1.268497e+002 1.010829e+002 0.000000e+000
      vertex   -1.393497e+002 6.358287e+001 0.000000e+000
      vertex   -1.893497e+002 1.198329e+002 0.000000e+000
    endloop
  endfacet
  facet normal 1.643990e-001 -9.863939e-001 0.000000e+000
    outer loop
      vertex   6.065034e+001 -2.457921e+002 5.000000e+001
      vertex   4.190034e+001 -2.489171e+002 0.000000e+000
      vertex   7.940034e+001 -2.426671e+002 0.000000e+000
    endloop
  endfacet
  facet normal 0.000000e+000 0.000000e+000 -1.000000e+000
    outer loop
      vertex   -1.643497e+002 1.573329e+002 0.000000e+000
      vertex   -1.268497e+002 1.010829e+002 0.000000e+000
      vertex   -1.893497e+002 1.198329e+002 0.000000e+000
    endloop
  endfacet
  facet normal 0.000000e+000 0.000000e+000 -1.000000e+000
    outer loop
      vertex   1.169003e+002 -1.614171e+002 0.000000e+000
      vertex   1.481503e+002 -2.176671e+002 0.000000e+000
      vertex   7.940034e+001 -1.739171e+002 0.000000e+000
    endloop
  endfacet
  facet normal 0.000000e+000 0.000000e+000 -1.000000e+000
    outer loop
      vertex   -1.080997e+002 1.323329e+002 0.000000e+000
      vertex   -1.268497e+002 1.010829e+002 0.000000e+000
      vertex   -1.643497e+002 1.573329e+002 0.000000e+000
    endloop
  endfacet
  facet normal -9.899496e-001 1.414214e-001 0.000000e+000
    outer loop
      vertex   -2.112247e+002 4.170787e+001 5.000000e+001
      vertex   -2.080997e+002 6.358287e+001 0.000000e+000
      vertex   -2.143497e+002 1.983287e+001 0.000000e+000
    endloop
  endfacet
  facet normal 0.000000e+000 0.000000e+000 -1.000000e+000
    outer loop
      vertex   1.356503e+002 -1.489171e+002 0.000000e+000
      vertex   1.481503e+002 -2.176671e+002 0.000000e+000
      vertex   1.169003e+002 -1.614171e+002 0.000000e+000
    endloop
  endfacet
  facet normal 0.000000e+000 0.000000e+000 -1.000000e+000
    outer loop
      vertex   -8.934966e+001 1.510829e+002 0.000000e+000
      vertex   -1.080997e+002 1.323329e+002 0.000000e+000
      vertex   -1.393497e+002 1.885829e+002 0.000000e+000
    endloop
  endfacet
  facet normal 0.000000e+000 0.000000e+000 -1.000000e+000
    outer loop
      vertex   -1.393497e+002 1.885829e+002 0.000000e+000
      vertex   -1.080997e+002 1.323329e+002 0.000000e+000
      vertex   -1.643497e+002 1.573329e+002 0.000000e+000
    endloop
  endfacet
  facet normal 7.071068e-001 -7.071068e-001 0.000000e+000
    outer loop
      vertex   -9.872466e+001 1.417079e+002 5.000000e+001
      vertex   -1.080997e+002 1.323329e+002 0.000000e+000
      vertex   -8.934966e+001 1.510829e+002 0.000000e+000
    endloop
  endfacet
  facet normal -5.999999e-001 -8.000001e-001 3.906250e-008
    outer loop
      vertex   1.294003e+002 1.542079e+002 5.000000e+001
      vertex   1.169003e+002 1.635829e+002 0.000000e+000
      vertex   1.419003e+002 1.448329e+002 0.000000e+000
    endloop
  endfacet
  facet normal 0.000000e+000 0.000000e+000 -1.000000e+000
    outer loop
      vertex   1.544003e+002 -1.301671e+002 0.000000e+000
      vertex   1.856503e+002 -1.864171e+002 0.000000e+000
      vertex   1.356503e+002 -1.489171e+002 0.000000e+000
    endloop
  endfacet
  facet normal 0.000000e+000 0.000000e+000 -1.000000e+000
    outer loop
      vertex   -7.059966e+001 1.635829e+002 0.000000e+000
      vertex   -8.934966e+001 1.510829e+002 0.000000e+000
      vertex   -1.393497e+002 1.885829e+002 0.000000e+000
    endloop
  endfacet
  facet normal 9.486834e-001 3.162275e-001 -3.088161e-008
    outer loop
      vertex   -1.330997e+002 -8.016714e+001 5.000000e+001
      vertex   -1.268497e+002 -9.891714e+001 0.000000e+000
      vertex   -1.393497e+002 -6.141713e+001 0.000000e+000
    endloop
  endfacet
  facet normal 0.000000e+000 0.000000e+000 -1.000000e+000
    outer loop
      vertex   1.856503e+002 -1.864171e+002 0.000000e+000
      vertex   1.481503e+002 -2.176671e+002 0.000000e+000
      vertex   1.356503e+002 -1.489171e+002 0.000000e+000
    endloop
  endfacet
  facet normal 0.000000e+000 0.000000e+000 -1.000000e+000
    outer loop
      vertex   -1.018497e+002 2.198329e+002 0.000000e+000
      vertex   -7.059966e+001 1.635829e+002 0.000000e+000
      vertex   -1.393497e+002 1.885829e+002 0.000000e+000
    endloop
  endfacet
  facet normal 0.000000e+000 0.000000e+000 -1.000000e+000
    outer loop
      vertex   1.731503e+002 -9.891714e+001 0.000000e+000
      vertex   1.856503e+002 -1.864171e+002 0.000000e+000
      vertex   1.544003e+002 -1.301671e+002 0.000000e+000
    endloop
  endfacet
  facet normal -9.486833e-001 -3.162277e-001 -6.176322e-008
    outer loop
      vertex   -1.987247e+002 -8.954214e+001 5.000000e+001
      vertex   -2.080997e+002 -6.141713e+001 0.000000e+000
      vertex   -1.893497e+002 -1.176671e+002 0.000000e+000
    endloop
  endfacet
  facet normal 0.000000e+000 0.000000e+000 -1.000000e+000
    outer loop
      vertex   -3.309966e+001 1.760829e+002 0.000000e+000
      vertex   -7.059966e+001 1.635829e+002 0.000000e+000
      vertex   -1.018497e+002 2.198329e+002 0.000000e+000
    endloop
  endfacet
  facet normal 0.000000e+000 0.000000e+000 -1.000000e+000
    outer loop
      vertex   -7.684966e+001 2.323329e+002 0.000000e+000
      vertex   -3.309966e+001 1.760829e+002 0.000000e+000
      vertex   -1.018497e+002 2.198329e+002 0.000000e+000
    endloop
  endfacet
  facet normal 0.000000e+000 0.000000e+000 -1.000000e+000
    outer loop
      vertex   2.169003e+002 -1.489171e+002 0.000000e+000
      vertex   1.856503e+002 -1.864171e+002 0.000000e+000
      vertex   1.731503e+002 -9.891714e+001 0.000000e+000
    endloop
  endfacet
  facet normal -9.486833e-001 3.162278e-001 0.000000e+000
    outer loop
      vertex   -1.987247e+002 9.170787e+001 5.000000e+001
      vertex   -1.893497e+002 1.198329e+002 0.000000e+000
      vertex   -2.080997e+002 6.358287e+001 0.000000e+000
    endloop
  endfacet
  facet normal 0.000000e+000 0.000000e+000 -1.000000e+000
    outer loop
      vertex   2.356503e+002 -1.114171e+002 0.000000e+000
      vertex   2.169003e+002 -1.489171e+002 0.000000e+000
      vertex   1.731503e+002 -9.891714e+001 0.000000e+000
    endloop
  endfacet
  facet normal 0.000000e+000 0.000000e+000 -1.000000e+000
    outer loop
      vertex   1.856503e+002 -4.891713e+001 0.000000e+000
      vertex   2.356503e+002 -1.114171e+002 0.000000e+000
      vertex   1.731503e+002 -9.891714e+001 0.000000e+000
    endloop
  endfacet
  facet normal 0.000000e+000 0.000000e+000 -1.000000e+000
    outer loop
      vertex   4.400339e+000 1.823329e+002 0.000000e+000
      vertex   -3.309966e+001 1.760829e+002 0.000000e+000
      vertex   -7.684966e+001 2.323329e+002 0.000000e+000
    endloop
  endfacet
  facet normal 0.000000e+000 0.000000e+000 -1.000000e+000
    outer loop
      vertex   -1.893497e+002 -1.176671e+002 0.000000e+000
      vertex   -1.393497e+002 -1.864171e+002 0.000000e+000
      vertex   -1.643497e+002 -1.551671e+002 0.000000e+000
    endloop
  endfacet
  facet normal 0.000000e+000 0.000000e+000 -1.000000e+000
    outer loop
      vertex   -2.080997e+002 -6.141713e+001 0.000000e+000
      vertex   -7.684966e+001 -2.301671e+002 0.000000e+000
      vertex   -1.893497e+002 -1.176671e+002 0.000000e+000
    endloop
  endfacet
  facet normal 0.000000e+000 0.000000e+000 -1.000000e+000
    outer loop
      vertex   -2.143497e+002 -1.766713e+001 0.000000e+000
      vertex   -7.684966e+001 -2.301671e+002 0.000000e+000
      vertex   -2.080997e+002 -6.141713e+001 0.000000e+000
    endloop
  endfacet
  facet normal 0.000000e+000 0.000000e+000 -1.000000e+000
    outer loop
      vertex   4.190034e+001 1.823329e+002 0.000000e+000
      vertex   4.400339e+000 1.823329e+002 0.000000e+000
      vertex   -3.309966e+001 2.448329e+002 0.000000e+000
    endloop
  endfacet
  facet normal 0.000000e+000 0.000000e+000 -1.000000e+000
    outer loop
      vertex   4.400339e+000 2.510829e+002 0.000000e+000
      vertex   4.190034e+001 1.823329e+002 0.000000e+000
      vertex   -3.309966e+001 2.448329e+002 0.000000e+000
    endloop
  endfacet
  facet normal 0.000000e+000 0.000000e+000 -1.000000e+000
    outer loop
      vertex   -8.934966e+001 -1.489171e+002 0.000000e+000
      vertex   -3.309966e+001 -2.426671e+002 0.000000e+000
      vertex   -1.080997e+002 -1.301671e+002 0.000000e+000
    endloop
  endfacet
  facet normal 0.000000e+000 0.000000e+000 -1.000000e+000
    outer loop
      vertex   -1.268497e+002 -9.891714e+001 0.000000e+000
      vertex   -1.080997e+002 -1.301671e+002 0.000000e+000
      vertex   -2.143497e+002 -1.766713e+001 0.000000e+000
    endloop
  endfacet
  facet normal -1.643990e-001 9.863939e-001 0.000000e+000
    outer loop
      vertex   6.065034e+001 -1.770421e+002 5.000000e+001
      vertex   7.940034e+001 -1.739171e+002 0.000000e+000
      vertex   4.190034e+001 -1.801671e+002 0.000000e+000
    endloop
  endfacet
  facet normal 0.000000e+000 0.000000e+000 -1.000000e+000
    outer loop
      vertex   7.940034e+001 1.760829e+002 0.000000e+000
      vertex   4.190034e+001 1.823329e+002 0.000000e+000
      vertex   4.400339e+000 2.510829e+002 0.000000e+000
    endloop
  endfacet
  facet normal 0.000000e+000 0.000000e+000 -1.000000e+000
    outer loop
      vertex   4.400339e+000 -2.489171e+002 0.000000e+000
      vertex   -3.309966e+001 -2.426671e+002 0.000000e+000
      vertex   -7.059966e+001 -1.614171e+002 0.000000e+000
    endloop
  endfacet
  facet normal 0.000000e+000 0.000000e+000 -1.000000e+000
    outer loop
      vertex   -1.393497e+002 -6.141713e+001 0.000000e+000
      vertex   -1.268497e+002 -9.891714e+001 0.000000e+000
      vertex   -2.143497e+002 1.983287e+001 0.000000e+000
    endloop
  endfacet
  facet normal 0.000000e+000 0.000000e+000 -1.000000e+000
    outer loop
      vertex   2.544003e+002 -4.891713e+001 0.000000e+000
      vertex   2.356503e+002 -1.114171e+002 0.000000e+000
      vertex   1.856503e+002 -4.891713e+001 0.000000e+000
    endloop
  endfacet
  facet normal 0.000000e+000 0.000000e+000 -1.000000e+000
    outer loop
      vertex   1.169003e+002 1.635829e+002 0.000000e+000
      vertex   7.940034e+001 1.760829e+002 0.000000e+000
      vertex   4.190034e+001 2.510829e+002 0.000000e+000
    endloop
  endfacet
  facet normal 0.000000e+000 0.000000e+000 -1.000000e+000
    outer loop
      vertex   4.190034e+001 -2.489171e+002 0.000000e+000
      vertex   4.400339e+000 -2.489171e+002 0.000000e+000
      vertex   -3.309966e+001 -1.739171e+002 0.000000e+000
    endloop
  endfacet
  facet normal 0.000000e+000 0.000000e+000 -1.000000e+000
    outer loop
      vertex   -2.080997e+002 6.358287e+001 0.000000e+000
      vertex   -1.455997e+002 -1.766713e+001 0.000000e+000
      vertex   -2.143497e+002 1.983287e+001 0.000000e+000
    endloop
  endfacet
  facet normal 0.000000e+000 0.000000e+000 -1.000000e+000
    outer loop
      vertex   1.419003e+002 1.448329e+002 0.000000e+000
      vertex   1.169003e+002 1.635829e+002 0.000000e+000
      vertex   4.190034e+001 2.510829e+002 0.000000e+000
    endloop
  endfacet
  facet normal 0.000000e+000 0.000000e+000 -1.000000e+000
    outer loop
      vertex   7.940034e+001 2.448329e+002 0.000000e+000
      vertex   1.606503e+002 1.198329e+002 0.000000e+000
      vertex   1.419003e+002 1.448329e+002 0.000000e+000
    endloop
  endfacet
  facet normal 0.000000e+000 0.000000e+000 -1.000000e+000
    outer loop
      vertex   1.481503e+002 -2.176671e+002 0.000000e+000
      vertex   1.231503e+002 -2.301671e+002 0.000000e+000
      vertex   7.940034e+001 -1.739171e+002 0.000000e+000
    endloop
  endfacet
  facet normal 0.000000e+000 0.000000e+000 -1.000000e+000
    outer loop
      vertex   1.231503e+002 2.323329e+002 0.000000e+000
      vertex   1.606503e+002 1.198329e+002 0.000000e+000
      vertex   7.940034e+001 2.448329e+002 0.000000e+000
    endloop
  endfacet
  facet normal 0.000000e+000 0.000000e+000 -1.000000e+000
    outer loop
      vertex   1.231503e+002 2.323329e+002 0.000000e+000
      vertex   1.794003e+002 7.608287e+001 0.000000e+000
      vertex   1.606503e+002 1.198329e+002 0.000000e+000
    endloop
  endfacet
  facet normal 0.000000e+000 0.000000e+000 -1.000000e+000
    outer loop
      vertex   7.940034e+001 2.448329e+002 0.000000e+000
      vertex   1.419003e+002 1.448329e+002 0.000000e+000
      vertex   4.190034e+001 2.510829e+002 0.000000e+000
    endloop
  endfacet
  facet normal 0.000000e+000 0.000000e+000 -1.000000e+000
    outer loop
      vertex   -3.309966e+001 2.448329e+002 0.000000e+000
      vertex   4.400339e+000 1.823329e+002 0.000000e+000
      vertex   -7.684966e+001 2.323329e+002 0.000000e+000
    endloop
  endfacet
  facet normal 0.000000e+000 0.000000e+000 -1.000000e+000
    outer loop
      vertex   4.190034e+001 2.510829e+002 0.000000e+000
      vertex   7.940034e+001 1.760829e+002 0.000000e+000
      vertex   4.400339e+000 2.510829e+002 0.000000e+000
    endloop
  endfacet
  facet normal 0.000000e+000 0.000000e+000 -1.000000e+000
    outer loop
      vertex   1.606503e+002 2.135829e+002 0.000000e+000
      vertex   2.419003e+002 8.858287e+001 0.000000e+000
      vertex   1.231503e+002 2.323329e+002 0.000000e+000
    endloop
  endfacet
  facet normal 0.000000e+000 0.000000e+000 -1.000000e+000
    outer loop
      vertex   2.419003e+002 8.858287e+001 0.000000e+000
      vertex   1.794003e+002 7.608287e+001 0.000000e+000
      vertex   1.231503e+002 2.323329e+002 0.000000e+000
    endloop
  endfacet
  facet normal 0.000000e+000 0.000000e+000 -1.000000e+000
    outer loop
      vertex   2.231503e+002 1.385829e+002 0.000000e+000
      vertex   2.419003e+002 8.858287e+001 0.000000e+000
      vertex   1.606503e+002 2.135829e+002 0.000000e+000
    endloop
  endfacet
  facet normal 1.000000e+000 0.000000e+000 0.000000e+000
    outer loop
      vertex   -1.455997e+002 1.082871e+000 5.000000e+001
      vertex   -1.455997e+002 1.983287e+001 1.000000e+002
      vertex   -1.455997e+002 -1.766713e+001 1.000000e+002
    endloop
  endfacet
  facet normal -9.486833e-001 -3.162277e-001 4.117548e-008
    outer loop
      vertex   -1.987247e+002 -8.954214e+001 5.000000e+001
      vertex   -1.893497e+002 -1.176671e+002 1.000000e+002
      vertex   -2.080997e+002 -6.141713e+001 1.000000e+002
    endloop
  endfacet
  facet normal -7.808688e-001 -6.246951e-001 0.000000e+000
    outer loop
      vertex   -1.518497e+002 -1.707921e+002 5.000000e+001
      vertex   -1.393497e+002 -1.864171e+002 1.000000e+002
      vertex   -1.643497e+002 -1.551671e+002 1.000000e+002
    endloop
  endfacet
  facet normal 5.547002e-001 8.320503e-001 0.000000e+000
    outer loop
      vertex   -7.997466e+001 -1.551671e+002 5.000000e+001
      vertex   -8.934966e+001 -1.489171e+002 1.000000e+002
      vertex   -7.059966e+001 -1.614171e+002 1.000000e+002
    endloop
  endfacet
  facet normal 6.401845e-001 -7.682213e-001 0.000000e+000
    outer loop
      vertex   1.669003e+002 -2.020421e+002 5.000000e+001
      vertex   1.856503e+002 -1.864171e+002 1.000000e+002
      vertex   1.481503e+002 -2.176671e+002 1.000000e+002
    endloop
  endfacet
  facet normal -9.899496e-001 1.414214e-001 0.000000e+000
    outer loop
      vertex   -2.112247e+002 4.170787e+001 5.000000e+001
      vertex   -2.143497e+002 1.983287e+001 1.000000e+002
      vertex   -2.080997e+002 6.358287e+001 1.000000e+002
    endloop
  endfacet
  facet normal 2.747211e-001 -9.615240e-001 0.000000e+000
    outer loop
      vertex   1.012753e+002 -2.364171e+002 5.000000e+001
      vertex   1.231503e+002 -2.301671e+002 1.000000e+002
      vertex   7.940034e+001 -2.426671e+002 1.000000e+002
    endloop
  endfacet
  facet normal -1.643990e-001 9.863939e-001 0.000000e+000
    outer loop
      vertex   6.065034e+001 -1.770421e+002 5.000000e+001
      vertex   4.190034e+001 -1.801671e+002 1.000000e+002
      vertex   7.940034e+001 -1.739171e+002 1.000000e+002
    endloop
  endfacet
  facet normal -0.000000e+000 1.000000e+000 0.000000e+000
    outer loop
      vertex   2.200253e+002 -4.891713e+001 5.000000e+001
      vertex   1.856503e+002 -4.891713e+001 1.000000e+002
      vertex   2.544003e+002 -4.891713e+001 1.000000e+002
    endloop
  endfacet
  facet normal 4.472135e-001 -8.944272e-001 3.275489e-008
    outer loop
      vertex   1.356503e+002 -2.239171e+002 5.000000e+001
      vertex   1.481503e+002 -2.176671e+002 1.000000e+002
      vertex   1.231503e+002 -2.301671e+002 1.000000e+002
    endloop
  endfacet
  facet normal -7.071068e-001 7.071068e-001 0.000000e+000
    outer loop
      vertex   1.450253e+002 -1.395421e+002 5.000000e+001
      vertex   1.356503e+002 -1.489171e+002 1.000000e+002
      vertex   1.544003e+002 -1.301671e+002 1.000000e+002
    endloop
  endfacet
  facet normal -8.320501e-001 5.547004e-001 1.218824e-007
    outer loop
      vertex   -1.768497e+002 1.385829e+002 5.000000e+001
      vertex   -1.893497e+002 1.198329e+002 1.000000e+002
      vertex   -1.643497e+002 1.573329e+002 1.000000e+002
    endloop
  endfacet
  facet normal -8.574929e-001 5.144957e-001 0.000000e+000
    outer loop
      vertex   1.637753e+002 -1.145421e+002 5.000000e+001
      vertex   1.544003e+002 -1.301671e+002 1.000000e+002
      vertex   1.731503e+002 -9.891714e+001 1.000000e+002
    endloop
  endfacet
  facet normal -6.401845e-001 -7.682212e-001 5.001441e-008
    outer loop
      vertex   -1.205997e+002 -2.020421e+002 5.000000e+001
      vertex   -1.018497e+002 -2.176671e+002 1.000000e+002
      vertex   -1.393497e+002 -1.864171e+002 1.000000e+002
    endloop
  endfacet
  facet normal 9.578263e-001 -2.873478e-001 5.612262e-008
    outer loop
      vertex   2.450253e+002 -8.016714e+001 5.000000e+001
      vertex   2.544003e+002 -4.891713e+001 1.000000e+002
      vertex   2.356503e+002 -1.114171e+002 1.000000e+002
    endloop
  endfacet
  facet normal 5.547002e-001 -8.320503e-001 0.000000e+000
    outer loop
      vertex   -7.997466e+001 1.573329e+002 5.000000e+001
      vertex   -7.059966e+001 1.635829e+002 1.000000e+002
      vertex   -8.934966e+001 1.510829e+002 1.000000e+002
    endloop
  endfacet
  facet normal -1.643990e-001 -9.863939e-001 0.000000e+000
    outer loop
      vertex   -1.434966e+001 -2.457921e+002 5.000000e+001
      vertex   4.400339e+000 -2.489171e+002 1.000000e+002
      vertex   -3.309966e+001 -2.426671e+002 1.000000e+002
    endloop
  endfacet
  facet normal -9.486833e-001 3.162278e-001 0.000000e+000
    outer loop
      vertex   -1.987247e+002 9.170787e+001 5.000000e+001
      vertex   -2.080997e+002 6.358287e+001 1.000000e+002
      vertex   -1.893497e+002 1.198329e+002 1.000000e+002
    endloop
  endfacet
  facet normal 2.747211e-001 9.615240e-001 0.000000e+000
    outer loop
      vertex   1.012753e+002 2.385829e+002 5.000000e+001
      vertex   7.940034e+001 2.448329e+002 1.000000e+002
      vertex   1.231503e+002 2.323329e+002 1.000000e+002
    endloop
  endfacet
  facet normal -2.747211e-001 -9.615240e-001 0.000000e+000
    outer loop
      vertex   -5.497466e+001 -2.364171e+002 5.000000e+001
      vertex   -3.309966e+001 -2.426671e+002 1.000000e+002
      vertex   -7.684966e+001 -2.301671e+002 1.000000e+002
    endloop
  endfacet
  facet normal -5.999999e-001 -8.000001e-001 -4.882812e-008
    outer loop
      vertex   1.294003e+002 1.542079e+002 5.000000e+001
      vertex   1.419003e+002 1.448329e+002 1.000000e+002
      vertex   1.169003e+002 1.635829e+002 1.000000e+002
    endloop
  endfacet
  facet normal 1.643990e-001 -9.863939e-001 0.000000e+000
    outer loop
      vertex   -1.434966e+001 1.792079e+002 5.000000e+001
      vertex   4.400339e+000 1.823329e+002 1.000000e+002
      vertex   -3.309966e+001 1.760829e+002 1.000000e+002
    endloop
  endfacet
  facet normal 8.944272e-001 -4.472136e-001 0.000000e+000
    outer loop
      vertex   2.262753e+002 -1.301671e+002 5.000000e+001
      vertex   2.356503e+002 -1.114171e+002 1.000000e+002
      vertex   2.169003e+002 -1.489171e+002 1.000000e+002
    endloop
  endfacet
  facet normal 9.486834e-001 3.162275e-001 2.316121e-008
    outer loop
      vertex   -1.330997e+002 -8.016714e+001 5.000000e+001
      vertex   -1.393497e+002 -6.141713e+001 1.000000e+002
      vertex   -1.268497e+002 -9.891714e+001 1.000000e+002
    endloop
  endfacet
  facet normal -6.401845e-001 7.682212e-001 5.001441e-008
    outer loop
      vertex   -1.205997e+002 2.042079e+002 5.000000e+001
      vertex   -1.393497e+002 1.885829e+002 1.000000e+002
      vertex   -1.018497e+002 2.198329e+002 1.000000e+002
    endloop
  endfacet
  facet normal 7.682213e-001 -6.401845e-001 0.000000e+000
    outer loop
      vertex   2.012753e+002 -1.676671e+002 5.000000e+001
      vertex   2.169003e+002 -1.489171e+002 1.000000e+002
      vertex   1.856503e+002 -1.864171e+002 1.000000e+002
    endloop
  endfacet
  facet normal -7.808688e-001 6.246951e-001 0.000000e+000
    outer loop
      vertex   -1.518497e+002 1.729579e+002 5.000000e+001
      vertex   -1.643497e+002 1.573329e+002 1.000000e+002
      vertex   -1.393497e+002 1.885829e+002 1.000000e+002
    endloop
  endfacet
  facet normal 7.071068e-001 -7.071068e-001 0.000000e+000
    outer loop
      vertex   -9.872466e+001 1.417079e+002 5.000000e+001
      vertex   -8.934966e+001 1.510829e+002 1.000000e+002
      vertex   -1.080997e+002 1.323329e+002 1.000000e+002
    endloop
  endfacet
  facet normal -1.643990e-001 -9.863939e-001 0.000000e+000
    outer loop
      vertex   6.065034e+001 1.792079e+002 5.000000e+001
      vertex   7.940034e+001 1.760829e+002 1.000000e+002
      vertex   4.190034e+001 1.823329e+002 1.000000e+002
    endloop
  endfacet
  facet normal 8.574929e-001 5.144957e-001 0.000000e+000
    outer loop
      vertex   -1.174747e+002 -1.145421e+002 5.000000e+001
      vertex   -1.268497e+002 -9.891714e+001 1.000000e+002
      vertex   -1.080997e+002 -1.301671e+002 1.000000e+002
    endloop
  endfacet
  facet normal -9.899496e-001 -1.414214e-001 0.000000e+000
    outer loop
      vertex   -2.112247e+002 -3.954213e+001 5.000000e+001
      vertex   -2.080997e+002 -6.141713e+001 1.000000e+002
      vertex   -2.143497e+002 -1.766713e+001 1.000000e+002
    endloop
  endfacet
  facet normal 1.643990e-001 -9.863939e-001 0.000000e+000
    outer loop
      vertex   6.065034e+001 -2.457921e+002 5.000000e+001
      vertex   7.940034e+001 -2.426671e+002 1.000000e+002
      vertex   4.190034e+001 -2.489171e+002 1.000000e+002
    endloop
  endfacet
  facet normal -8.000000e-001 -6.000000e-001 0.000000e+000
    outer loop
      vertex   1.512753e+002 1.323329e+002 5.000000e+001
      vertex   1.606503e+002 1.198329e+002 1.000000e+002
      vertex   1.419003e+002 1.448329e+002 1.000000e+002
    endloop
  endfacet
  facet normal 9.899496e-001 -1.414214e-001 0.000000e+000
    outer loop
      vertex   -1.424747e+002 4.170787e+001 5.000000e+001
      vertex   -1.393497e+002 6.358287e+001 1.000000e+002
      vertex   -1.455997e+002 1.983287e+001 1.000000e+002
    endloop
  endfacet
  facet normal -0.000000e+000 -1.000000e+000 0.000000e+000
    outer loop
      vertex   2.315034e+001 -2.489171e+002 5.000000e+001
      vertex   4.190034e+001 -2.489171e+002 1.000000e+002
      vertex   4.400339e+000 -2.489171e+002 1.000000e+002
    endloop
  endfacet
  facet normal 1.643990e-001 9.863939e-001 8.027294e-009
    outer loop
      vertex   -1.434966e+001 -1.770421e+002 5.000000e+001
      vertex   -3.309966e+001 -1.739171e+002 1.000000e+002
      vertex   4.400339e+000 -1.801671e+002 1.000000e+002
    endloop
  endfacet
  facet normal -9.191451e-001 -3.939193e-001 0.000000e+000
    outer loop
      vertex   1.700253e+002 9.795787e+001 5.000000e+001
      vertex   1.794003e+002 7.608287e+001 1.000000e+002
      vertex   1.606503e+002 1.198329e+002 1.000000e+002
    endloop
  endfacet
  facet normal -0.000000e+000 1.000000e+000 0.000000e+000
    outer loop
      vertex   2.315034e+001 2.510829e+002 5.000000e+001
      vertex   4.400339e+000 2.510829e+002 1.000000e+002
      vertex   4.190034e+001 2.510829e+002 1.000000e+002
    endloop
  endfacet
  facet normal 3.162278e-001 -9.486833e-001 0.000000e+000
    outer loop
      vertex   -5.184966e+001 1.698329e+002 5.000000e+001
      vertex   -3.309966e+001 1.760829e+002 1.000000e+002
      vertex   -7.059966e+001 1.635829e+002 1.000000e+002
    endloop
  endfacet
  facet normal -9.701425e-001 2.425356e-001 -3.552767e-008
    outer loop
      vertex   1.794003e+002 -7.391714e+001 5.000000e+001
      vertex   1.731503e+002 -9.891714e+001 1.000000e+002
      vertex   1.856503e+002 -4.891713e+001 1.000000e+002
    endloop
  endfacet
  facet normal 9.363292e-001 3.511234e-001 0.000000e+000
    outer loop
      vertex   2.325253e+002 1.135829e+002 5.000000e+001
      vertex   2.231503e+002 1.385829e+002 1.000000e+002
      vertex   2.419003e+002 8.858287e+001 1.000000e+002
    endloop
  endfacet
  facet normal 4.472135e-001 8.944272e-001 4.367320e-008
    outer loop
      vertex   1.419003e+002 2.229579e+002 5.000000e+001
      vertex   1.231503e+002 2.323329e+002 1.000000e+002
      vertex   1.606503e+002 2.135829e+002 1.000000e+002
    endloop
  endfacet
  facet normal -2.747211e-001 9.615240e-001 0.000000e+000
    outer loop
      vertex   -5.497466e+001 2.385829e+002 5.000000e+001
      vertex   -7.684966e+001 2.323329e+002 1.000000e+002
      vertex   -3.309966e+001 2.448329e+002 1.000000e+002
    endloop
  endfacet
  facet normal -1.000000e+000 0.000000e+000 0.000000e+000
    outer loop
      vertex   -2.143497e+002 1.082871e+000 5.000000e+001
      vertex   -2.143497e+002 -1.766713e+001 1.000000e+002
      vertex   -2.143497e+002 1.983287e+001 1.000000e+002
    endloop
  endfacet
  facet normal 1.643990e-001 9.863939e-001 0.000000e+000
    outer loop
      vertex   6.065034e+001 2.479579e+002 5.000000e+001
      vertex   4.190034e+001 2.510829e+002 1.000000e+002
      vertex   7.940034e+001 2.448329e+002 1.000000e+002
    endloop
  endfacet
  facet normal -3.162278e-001 9.486833e-001 0.000000e+000
    outer loop
      vertex   9.815034e+001 -1.676671e+002 5.000000e+001
      vertex   7.940034e+001 -1.739171e+002 1.000000e+002
      vertex   1.169003e+002 -1.614171e+002 1.000000e+002
    endloop
  endfacet
  facet normal 9.486833e-001 -3.162276e-001 7.720405e-008
    outer loop
      vertex   -1.330997e+002 8.233287e+001 5.000000e+001
      vertex   -1.268497e+002 1.010829e+002 1.000000e+002
      vertex   -1.393497e+002 6.358287e+001 1.000000e+002
    endloop
  endfacet
  facet normal -3.162278e-001 -9.486833e-001 0.000000e+000
    outer loop
      vertex   9.815034e+001 1.698329e+002 5.000000e+001
      vertex   1.169003e+002 1.635829e+002 1.000000e+002
      vertex   7.940034e+001 1.760829e+002 1.000000e+002
    endloop
  endfacet
  facet normal 7.071068e-001 7.071068e-001 0.000000e+000
    outer loop
      vertex   -9.872466e+001 -1.395421e+002 5.000000e+001
      vertex   -1.080997e+002 -1.301671e+002 1.000000e+002
      vertex   -8.934966e+001 -1.489171e+002 1.000000e+002
    endloop
  endfacet
  facet normal -8.320501e-001 -5.547004e-001 1.354248e-007
    outer loop
      vertex   -1.768497e+002 -1.364171e+002 5.000000e+001
      vertex   -1.643497e+002 -1.551671e+002 1.000000e+002
      vertex   -1.893497e+002 -1.176671e+002 1.000000e+002
    endloop
  endfacet
  facet normal -0.000000e+000 1.000000e+000 0.000000e+000
    outer loop
      vertex   2.315034e+001 -1.801671e+002 5.000000e+001
      vertex   4.400339e+000 -1.801671e+002 1.000000e+002
      vertex   4.190034e+001 -1.801671e+002 1.000000e+002
    endloop
  endfacet
  facet normal 8.479983e-001 5.299990e-001 0.000000e+000
    outer loop
      vertex   2.075253e+002 1.635829e+002 5.000000e+001
      vertex   1.919003e+002 1.885829e+002 1.000000e+002
      vertex   2.231503e+002 1.385829e+002 1.000000e+002
    endloop
  endfacet
  facet normal 1.961161e-001 -9.805807e-001 0.000000e+000
    outer loop
      vertex   2.106503e+002 8.233287e+001 5.000000e+001
      vertex   2.419003e+002 8.858287e+001 1.000000e+002
      vertex   1.794003e+002 7.608287e+001 1.000000e+002
    endloop
  endfacet
  facet normal 8.574929e-001 -5.144957e-001 0.000000e+000
    outer loop
      vertex   -1.174747e+002 1.167079e+002 5.000000e+001
      vertex   -1.080997e+002 1.323329e+002 1.000000e+002
      vertex   -1.268497e+002 1.010829e+002 1.000000e+002
    endloop
  endfacet
  facet normal -4.472136e-001 8.944272e-001 0.000000e+000
    outer loop
      vertex   -8.934966e+001 2.260829e+002 5.000000e+001
      vertex   -1.018497e+002 2.198329e+002 1.000000e+002
      vertex   -7.684966e+001 2.323329e+002 1.000000e+002
    endloop
  endfacet
  facet normal 6.246951e-001 7.808688e-001 0.000000e+000
    outer loop
      vertex   1.762753e+002 2.010829e+002 5.000000e+001
      vertex   1.606503e+002 2.135829e+002 1.000000e+002
      vertex   1.919003e+002 1.885829e+002 1.000000e+002
    endloop
  endfacet
  facet normal -1.643990e-001 9.863939e-001 -8.027294e-009
    outer loop
      vertex   -1.434966e+001 2.479579e+002 5.000000e+001
      vertex   -3.309966e+001 2.448329e+002 1.000000e+002
      vertex   4.400339e+000 2.510829e+002 1.000000e+002
    endloop
  endfacet
  facet normal -4.472136e-001 -8.944272e-001 0.000000e+000
    outer loop
      vertex   -8.934966e+001 -2.239171e+002 5.000000e+001
      vertex   -7.684966e+001 -2.301671e+002 1.000000e+002
      vertex   -1.018497e+002 -2.176671e+002 1.000000e+002
    endloop
  endfacet
  facet normal 3.162278e-001 9.486833e-001 0.000000e+000
    outer loop
      vertex   -5.184966e+001 -1.676671e+002 5.000000e+001
      vertex   -7.059966e+001 -1.614171e+002 1.000000e+002
      vertex   -3.309966e+001 -1.739171e+002 1.000000e+002
    endloop
  endfacet
  facet normal 9.899496e-001 1.414214e-001 0.000000e+000
    outer loop
      vertex   -1.424747e+002 -3.954213e+001 5.000000e+001
      vertex   -1.455997e+002 -1.766713e+001 1.000000e+002
      vertex   -1.393497e+002 -6.141713e+001 1.000000e+002
    endloop
  endfacet
  facet normal -0.000000e+000 -1.000000e+000 0.000000e+000
    outer loop
      vertex   2.315034e+001 1.823329e+002 5.000000e+001
      vertex   4.190034e+001 1.823329e+002 1.000000e+002
      vertex   4.400339e+000 1.823329e+002 1.000000e+002
    endloop
  endfacet
  facet normal -5.547000e-001 8.320504e-001 4.062744e-008
    outer loop
      vertex   1.262753e+002 -1.551671e+002 5.000000e+001
      vertex   1.169003e+002 -1.614171e+002 1.000000e+002
      vertex   1.356503e+002 -1.489171e+002 1.000000e+002
    endloop
  endfacet
  facet normal -0.000000e+000 0.000000e+000 1.000000e+000
    outer loop
      vertex   1.356503e+002 -1.489171e+002 1.000000e+002
      vertex   1.169003e+002 -1.614171e+002 1.000000e+002
      vertex   1.481503e+002 -2.176671e+002 1.000000e+002
    endloop
  endfacet
  facet normal 0.000000e+000 0.000000e+000 1.000000e+000
    outer loop
      vertex   2.231503e+002 1.385829e+002 1.000000e+002
      vertex   1.606503e+002 2.135829e+002 1.000000e+002
      vertex   2.419003e+002 8.858287e+001 1.000000e+002
    endloop
  endfacet
  facet normal 0.000000e+000 0.000000e+000 1.000000e+000
    outer loop
      vertex   1.606503e+002 2.135829e+002 1.000000e+002
      vertex   1.231503e+002 2.323329e+002 1.000000e+002
      vertex   2.419003e+002 8.858287e+001 1.000000e+002
    endloop
  endfacet
  facet normal 0.000000e+000 0.000000e+000 1.000000e+000
    outer loop
      vertex   2.419003e+002 8.858287e+001 1.000000e+002
      vertex   1.231503e+002 2.323329e+002 1.000000e+002
      vertex   1.794003e+002 7.608287e+001 1.000000e+002
    endloop
  endfacet
  facet normal -0.000000e+000 -0.000000e+000 1.000000e+000
    outer loop
      vertex   1.231503e+002 2.323329e+002 1.000000e+002
      vertex   1.606503e+002 1.198329e+002 1.000000e+002
      vertex   1.794003e+002 7.608287e+001 1.000000e+002
    endloop
  endfacet
  facet normal 0.000000e+000 0.000000e+000 1.000000e+000
    outer loop
      vertex   1.231503e+002 2.323329e+002 1.000000e+002
      vertex   7.940034e+001 2.448329e+002 1.000000e+002
      vertex   1.606503e+002 1.198329e+002 1.000000e+002
    endloop
  endfacet
  facet normal 0.000000e+000 0.000000e+000 1.000000e+000
    outer loop
      vertex   7.940034e+001 2.448329e+002 1.000000e+002
      vertex   4.190034e+001 2.510829e+002 1.000000e+002
      vertex   1.419003e+002 1.448329e+002 1.000000e+002
    endloop
  endfacet
  facet normal -0.000000e+000 -0.000000e+000 1.000000e+000
    outer loop
      vertex   7.940034e+001 2.448329e+002 1.000000e+002
      vertex   1.419003e+002 1.448329e+002 1.000000e+002
      vertex   1.606503e+002 1.198329e+002 1.000000e+002
    endloop
  endfacet
  facet normal 0.000000e+000 0.000000e+000 1.000000e+000
    outer loop
      vertex   1.419003e+002 1.448329e+002 1.000000e+002
      vertex   4.190034e+001 2.510829e+002 1.000000e+002
      vertex   1.169003e+002 1.635829e+002 1.000000e+002
    endloop
  endfacet
  facet normal 0.000000e+000 0.000000e+000 1.000000e+000
    outer loop
      vertex   1.169003e+002 1.635829e+002 1.000000e+002
      vertex   4.190034e+001 2.510829e+002 1.000000e+002
      vertex   7.940034e+001 1.760829e+002 1.000000e+002
    endloop
  endfacet
  facet normal -0.000000e+000 0.000000e+000 1.000000e+000
    outer loop
      vertex   4.190034e+001 2.510829e+002 1.000000e+002
      vertex   4.400339e+000 2.510829e+002 1.000000e+002
      vertex   7.940034e+001 1.760829e+002 1.000000e+002
    endloop
  endfacet
  facet normal 0.000000e+000 0.000000e+000 1.000000e+000
    outer loop
      vertex   7.940034e+001 1.760829e+002 1.000000e+002
      vertex   4.400339e+000 2.510829e+002 1.000000e+002
      vertex   4.190034e+001 1.823329e+002 1.000000e+002
    endloop
  endfacet
  facet normal -0.000000e+000 0.000000e+000 1.000000e+000
    outer loop
      vertex   2.544003e+002 -4.891713e+001 1.000000e+002
      vertex   1.856503e+002 -4.891713e+001 1.000000e+002
      vertex   2.356503e+002 -1.114171e+002 1.000000e+002
    endloop
  endfacet
  facet normal -0.000000e+000 0.000000e+000 1.000000e+000
    outer loop
      vertex   4.400339e+000 2.510829e+002 1.000000e+002
      vertex   -3.309966e+001 2.448329e+002 1.000000e+002
      vertex   4.190034e+001 1.823329e+002 1.000000e+002
    endloop
  endfacet
  facet normal 0.000000e+000 0.000000e+000 1.000000e+000
    outer loop
      vertex   4.190034e+001 1.823329e+002 1.000000e+002
      vertex   -3.309966e+001 2.448329e+002 1.000000e+002
      vertex   4.400339e+000 1.823329e+002 1.000000e+002
    endloop
  endfacet
  facet normal -0.000000e+000 0.000000e+000 1.000000e+000
    outer loop
      vertex   -3.309966e+001 2.448329e+002 1.000000e+002
      vertex   -7.684966e+001 2.323329e+002 1.000000e+002
      vertex   4.400339e+000 1.823329e+002 1.000000e+002
    endloop
  endfacet
  facet normal 0.000000e+000 0.000000e+000 1.000000e+000
    outer loop
      vertex   4.400339e+000 1.823329e+002 1.000000e+002
      vertex   -7.684966e+001 2.323329e+002 1.000000e+002
      vertex   -3.309966e+001 1.760829e+002 1.000000e+002
    endloop
  endfacet
  facet normal -0.000000e+000 0.000000e+000 1.000000e+000
    outer loop
      vertex   1.856503e+002 -4.891713e+001 1.000000e+002
      vertex   1.731503e+002 -9.891714e+001 1.000000e+002
      vertex   2.356503e+002 -1.114171e+002 1.000000e+002
    endloop
  endfacet
  facet normal 0.000000e+000 0.000000e+000 1.000000e+000
    outer loop
      vertex   2.356503e+002 -1.114171e+002 1.000000e+002
      vertex   1.731503e+002 -9.891714e+001 1.000000e+002
      vertex   2.169003e+002 -1.489171e+002 1.000000e+002
    endloop
  endfacet
  facet normal -0.000000e+000 0.000000e+000 1.000000e+000
    outer loop
      vertex   -7.684966e+001 2.323329e+002 1.000000e+002
      vertex   -1.018497e+002 2.198329e+002 1.000000e+002
      vertex   -3.309966e+001 1.760829e+002 1.000000e+002
    endloop
  endfacet
  facet normal 0.000000e+000 0.000000e+000 1.000000e+000
    outer loop
      vertex   -3.309966e+001 1.760829e+002 1.000000e+002
      vertex   -1.018497e+002 2.198329e+002 1.000000e+002
      vertex   -7.059966e+001 1.635829e+002 1.000000e+002
    endloop
  endfacet
  facet normal 0.000000e+000 0.000000e+000 1.000000e+000
    outer loop
      vertex   2.169003e+002 -1.489171e+002 1.000000e+002
      vertex   1.731503e+002 -9.891714e+001 1.000000e+002
      vertex   1.856503e+002 -1.864171e+002 1.000000e+002
    endloop
  endfacet
  facet normal -0.000000e+000 0.000000e+000 1.000000e+000
    outer loop
      vertex   1.731503e+002 -9.891714e+001 1.000000e+002
      vertex   1.544003e+002 -1.301671e+002 1.000000e+002
      vertex   1.856503e+002 -1.864171e+002 1.000000e+002
    endloop
  endfacet
  facet normal -0.000000e+000 0.000000e+000 1.000000e+000
    outer loop
      vertex   -1.018497e+002 2.198329e+002 1.000000e+002
      vertex   -1.393497e+002 1.885829e+002 1.000000e+002
      vertex   -7.059966e+001 1.635829e+002 1.000000e+002
    endloop
  endfacet
  facet normal 0.000000e+000 0.000000e+000 1.000000e+000
    outer loop
      vertex   -7.059966e+001 1.635829e+002 1.000000e+002
      vertex   -1.393497e+002 1.885829e+002 1.000000e+002
      vertex   -8.934966e+001 1.510829e+002 1.000000e+002
    endloop
  endfacet
  facet normal -0.000000e+000 0.000000e+000 1.000000e+000
    outer loop
      vertex   1.544003e+002 -1.301671e+002 1.000000e+002
      vertex   1.356503e+002 -1.489171e+002 1.000000e+002
      vertex   1.856503e+002 -1.864171e+002 1.000000e+002
    endloop
  endfacet
  facet normal 0.000000e+000 0.000000e+000 1.000000e+000
    outer loop
      vertex   1.856503e+002 -1.864171e+002 1.000000e+002
      vertex   1.356503e+002 -1.489171e+002 1.000000e+002
      vertex   1.481503e+002 -2.176671e+002 1.000000e+002
    endloop
  endfacet
  facet normal 0.000000e+000 0.000000e+000 1.000000e+000
    outer loop
      vertex   -8.934966e+001 1.510829e+002 1.000000e+002
      vertex   -1.393497e+002 1.885829e+002 1.000000e+002
      vertex   -1.080997e+002 1.323329e+002 1.000000e+002
    endloop
  endfacet
  facet normal 0.000000e+000 0.000000e+000 1.000000e+000
    outer loop
      vertex   1.919003e+002 1.885829e+002 1.000000e+002
      vertex   1.606503e+002 2.135829e+002 1.000000e+002
      vertex   2.231503e+002 1.385829e+002 1.000000e+002
    endloop
  endfacet
  facet normal -0.000000e+000 0.000000e+000 1.000000e+000
    outer loop
      vertex   -1.393497e+002 1.885829e+002 1.000000e+002
      vertex   -1.643497e+002 1.573329e+002 1.000000e+002
      vertex   -1.080997e+002 1.323329e+002 1.000000e+002
    endloop
  endfacet
  facet normal 0.000000e+000 0.000000e+000 1.000000e+000
    outer loop
      vertex   -1.080997e+002 1.323329e+002 1.000000e+002
      vertex   -1.643497e+002 1.573329e+002 1.000000e+002
      vertex   -1.268497e+002 1.010829e+002 1.000000e+002
    endloop
  endfacet
  facet normal -0.000000e+000 0.000000e+000 1.000000e+000
    outer loop
      vertex   1.169003e+002 -1.614171e+002 1.000000e+002
      vertex   7.940034e+001 -1.739171e+002 1.000000e+002
      vertex   1.481503e+002 -2.176671e+002 1.000000e+002
    endloop
  endfacet
  facet normal 0.000000e+000 0.000000e+000 1.000000e+000
    outer loop
      vertex   1.481503e+002 -2.176671e+002 1.000000e+002
      vertex   7.940034e+001 -1.739171e+002 1.000000e+002
      vertex   1.231503e+002 -2.301671e+002 1.000000e+002
    endloop
  endfacet
  facet normal -0.000000e+000 0.000000e+000 1.000000e+000
    outer loop
      vertex   -1.643497e+002 1.573329e+002 1.000000e+002
      vertex   -1.893497e+002 1.198329e+002 1.000000e+002
      vertex   -1.268497e+002 1.010829e+002 1.000000e+002
    endloop
  endfacet
  facet normal 0.000000e+000 0.000000e+000 1.000000e+000
    outer loop
      vertex   -1.268497e+002 1.010829e+002 1.000000e+002
      vertex   -1.893497e+002 1.198329e+002 1.000000e+002
      vertex   -1.393497e+002 6.358287e+001 1.000000e+002
    endloop
  endfacet
  facet normal -0.000000e+000 0.000000e+000 1.000000e+000
    outer loop
      vertex   7.940034e+001 -1.739171e+002 1.000000e+002
      vertex   4.190034e+001 -1.801671e+002 1.000000e+002
      vertex   1.231503e+002 -2.301671e+002 1.000000e+002
    endloop
  endfacet
  facet normal 0.000000e+000 0.000000e+000 1.000000e+000
    outer loop
      vertex   1.231503e+002 -2.301671e+002 1.000000e+002
      vertex   4.190034e+001 -1.801671e+002 1.000000e+002
      vertex   7.940034e+001 -2.426671e+002 1.000000e+002
    endloop
  endfacet
  facet normal 0.000000e+000 0.000000e+000 1.000000e+000
    outer loop
      vertex   -1.393497e+002 6.358287e+001 1.000000e+002
      vertex   -1.893497e+002 1.198329e+002 1.000000e+002
      vertex   -1.455997e+002 1.983287e+001 1.000000e+002
    endloop
  endfacet
  facet normal -0.000000e+000 0.000000e+000 1.000000e+000
    outer loop
      vertex   -1.893497e+002 1.198329e+002 1.000000e+002
      vertex   -2.080997e+002 6.358287e+001 1.000000e+002
      vertex   -1.455997e+002 1.983287e+001 1.000000e+002
    endloop
  endfacet
  facet normal -0.000000e+000 0.000000e+000 1.000000e+000
    outer loop
      vertex   4.190034e+001 -1.801671e+002 1.000000e+002
      vertex   4.400339e+000 -1.801671e+002 1.000000e+002
      vertex   7.940034e+001 -2.426671e+002 1.000000e+002
    endloop
  endfacet
  facet normal 0.000000e+000 0.000000e+000 1.000000e+000
    outer loop
      vertex   7.940034e+001 -2.426671e+002 1.000000e+002
      vertex   4.400339e+000 -1.801671e+002 1.000000e+002
      vertex   4.190034e+001 -2.489171e+002 1.000000e+002
    endloop
  endfacet
  facet normal 0.000000e+000 0.000000e+000 1.000000e+000
    outer loop
      vertex   -1.455997e+002 1.983287e+001 1.000000e+002
      vertex   -2.080997e+002 6.358287e+001 1.000000e+002
      vertex   -1.455997e+002 -1.766713e+001 1.000000e+002
    endloop
  endfacet
  facet normal 0.000000e+000 0.000000e+000 1.000000e+000
    outer loop
      vertex   4.400339e+000 -1.801671e+002 1.000000e+002
      vertex   -3.309966e+001 -1.739171e+002 1.000000e+002
      vertex   4.190034e+001 -2.489171e+002 1.000000e+002
    endloop
  endfacet
  facet normal -0.000000e+000 0.000000e+000 1.000000e+000
    outer loop
      vertex   -2.080997e+002 6.358287e+001 1.000000e+002
      vertex   -2.143497e+002 1.983287e+001 1.000000e+002
      vertex   -1.455997e+002 -1.766713e+001 1.000000e+002
    endloop
  endfacet
  facet normal 0.000000e+000 0.000000e+000 1.000000e+000
    outer loop
      vertex   4.190034e+001 -2.489171e+002 1.000000e+002
      vertex   -3.309966e+001 -1.739171e+002 1.000000e+002
      vertex   4.400339e+000 -2.489171e+002 1.000000e+002
    endloop
  endfacet
  facet normal 0.000000e+000 0.000000e+000 1.000000e+000
    outer loop
      vertex   -1.455997e+002 -1.766713e+001 1.000000e+002
      vertex   -2.143497e+002 1.983287e+001 1.000000e+002
      vertex   -1.393497e+002 -6.141713e+001 1.000000e+002
    endloop
  endfacet
  facet normal 0.000000e+000 0.000000e+000 1.000000e+000
    outer loop
      vertex   -3.309966e+001 -1.739171e+002 1.000000e+002
      vertex   -7.059966e+001 -1.614171e+002 1.000000e+002
      vertex   4.400339e+000 -2.489171e+002 1.000000e+002
    endloop
  endfacet
  facet normal 0.000000e+000 0.000000e+000 1.000000e+000
    outer loop
      vertex   -1.393497e+002 -6.141713e+001 1.000000e+002
      vertex   -2.143497e+002 1.983287e+001 1.000000e+002
      vertex   -1.268497e+002 -9.891714e+001 1.000000e+002
    endloop
  endfacet
  facet normal 0.000000e+000 0.000000e+000 1.000000e+000
    outer loop
      vertex   4.400339e+000 -2.489171e+002 1.000000e+002
      vertex   -7.059966e+001 -1.614171e+002 1.000000e+002
      vertex   -3.309966e+001 -2.426671e+002 1.000000e+002
    endloop
  endfacet
  facet normal -0.000000e+000 0.000000e+000 1.000000e+000
    outer loop
      vertex   -2.143497e+002 1.983287e+001 1.000000e+002
      vertex   -2.143497e+002 -1.766713e+001 1.000000e+002
      vertex   -1.268497e+002 -9.891714e+001 1.000000e+002
    endloop
  endfacet
  facet normal 0.000000e+000 0.000000e+000 1.000000e+000
    outer loop
      vertex   -7.059966e+001 -1.614171e+002 1.000000e+002
      vertex   -8.934966e+001 -1.489171e+002 1.000000e+002
      vertex   -3.309966e+001 -2.426671e+002 1.000000e+002
    endloop
  endfacet
  facet normal 0.000000e+000 0.000000e+000 1.000000e+000
    outer loop
      vertex   -1.268497e+002 -9.891714e+001 1.000000e+002
      vertex   -2.143497e+002 -1.766713e+001 1.000000e+002
      vertex   -1.080997e+002 -1.301671e+002 1.000000e+002
    endloop
  endfacet
  facet normal 0.000000e+000 0.000000e+000 1.000000e+000
    outer loop
      vertex   -8.934966e+001 -1.489171e+002 1.000000e+002
      vertex   -1.080997e+002 -1.301671e+002 1.000000e+002
      vertex   -3.309966e+001 -2.426671e+002 1.000000e+002
    endloop
  endfacet
  facet normal 0.000000e+000 0.000000e+000 1.000000e+000
    outer loop
      vertex   -1.080997e+002 -1.301671e+002 1.000000e+002
      vertex   -2.143497e+002 -1.766713e+001 1.000000e+002
      vertex   -3.309966e+001 -2.426671e+002 1.000000e+002
    endloop
  endfacet
  facet normal 0.000000e+000 0.000000e+000 1.000000e+000
    outer loop
      vertex   -3.309966e+001 -2.426671e+002 1.000000e+002
      vertex   -2.143497e+002 -1.766713e+001 1.000000e+002
      vertex   -7.684966e+001 -2.301671e+002 1.000000e+002
    endloop
  endfacet
  facet normal -0.000000e+000 -0.000000e+000 1.000000e+000
    outer loop
      vertex   -2.143497e+002 -1.766713e+001 1.000000e+002
      vertex   -2.080997e+002 -6.141713e+001 1.000000e+002
      vertex   -7.684966e+001 -2.301671e+002 1.000000e+002
    endloop
  endfacet
  facet normal -0.000000e+000 -0.000000e+000 1.000000e+000
    outer loop
      vertex   -2.080997e+002 -6.141713e+001 1.000000e+002
      vertex   -1.893497e+002 -1.176671e+002 1.000000e+002
      vertex   -7.684966e+001 -2.301671e+002 1.000000e+002
    endloop
  endfacet
  facet normal 0.000000e+000 0.000000e+000 1.000000e+000
    outer loop
      vertex   -7.684966e+001 -2.301671e+002 1.000000e+002
      vertex   -1.893497e+002 -1.176671e+002 1.000000e+002
      vertex   -1.018497e+002 -2.176671e+002 1.000000e+002
    endloop
  endfacet
  facet normal -0.000000e+000 -0.000000e+000 1.000000e+000
    outer loop
      vertex   -1.893497e+002 -1.176671e+002 1.000000e+002
      vertex   -1.643497e+002 -1.551671e+002 1.000000e+002
      vertex   -1.393497e+002 -1.864171e+002 1.000000e+002
    endloop
  endfacet
  facet normal 0.000000e+000 0.000000e+000 1.000000e+000
    outer loop
      vertex   -1.018497e+002 -2.176671e+002 1.000000e+002
      vertex   -1.893497e+002 -1.176671e+002 1.000000e+002
      vertex   -1.393497e+002 -1.864171e+002 1.000000e+002
    endloop
  endfacet
endsolid
