solid ascii
  facet normal 0.000000e+000 0.000000e+000 -1.000000e+000
    outer loop
      vertex   8.983869e+000 -2.509549e+002 0.000000e+000
      vertex   -1.722661e+002 -2.509549e+002 0.000000e+000
      vertex   -1.035161e+002 -1.822049e+002 0.000000e+000
    endloop
  endfacet
  facet normal 0.000000e+000 1.000000e+000 0.000000e+000
    outer loop
      vertex   -4.726613e+001 -1.822049e+002 5.000000e+001
      vertex   -1.035161e+002 -1.822049e+002 0.000000e+000
      vertex   -1.035161e+002 -1.822049e+002 1.000000e+002
    endloop
  endfacet
  facet normal 6.401845e-001 -7.682213e-001 0.000000e+000
    outer loop
      vertex   1.339839e+002 -2.040799e+002 5.000000e+001
      vertex   1.152339e+002 -2.197049e+002 1.000000e+002
      vertex   1.152339e+002 -2.197049e+002 0.000000e+000
    endloop
  endfacet
  facet normal 0.000000e+000 1.000000e+000 0.000000e+000
    outer loop
      vertex   -4.726613e+001 -1.822049e+002 5.000000e+001
      vertex   8.983869e+000 -1.822049e+002 1.000000e+002
      vertex   8.983869e+000 -1.822049e+002 0.000000e+000
    endloop
  endfacet
  facet normal 1.414213e-001 9.899495e-001 2.071601e-008
    outer loop
      vertex   3.085887e+001 2.459201e+002 5.000000e+001
      vertex   5.273388e+001 2.427951e+002 0.000000e+000
      vertex   8.983869e+000 2.490451e+002 0.000000e+000
    endloop
  endfacet
  facet normal 1.414214e-001 9.899496e-001 -0.000000e+000
    outer loop
      vertex   3.085887e+001 2.459201e+002 5.000000e+001
      vertex   8.983869e+000 2.490451e+002 0.000000e+000
      vertex   8.983869e+000 2.490451e+002 1.000000e+002
    endloop
  endfacet
  facet normal 0.000000e+000 -1.000000e+000 0.000000e+000
    outer loop
      vertex   -8.164112e+001 -2.509549e+002 5.000000e+001
      vertex   8.983869e+000 -2.509549e+002 0.000000e+000
      vertex   8.983869e+000 -2.509549e+002 1.000000e+002
    endloop
  endfacet
  facet normal 1.414213e-001 9.899495e-001 0.000000e+000
    outer loop
      vertex   3.085887e+001 2.459201e+002 5.000000e+001
      vertex   5.273388e+001 2.427951e+002 1.000000e+002
      vertex   5.273388e+001 2.427951e+002 0.000000e+000
    endloop
  endfacet
  facet normal 8.320504e-001 -5.547001e-001 -4.062745e-008
    outer loop
      vertex   1.902339e+002 -1.384549e+002 5.000000e+001
      vertex   1.777339e+002 -1.572049e+002 0.000000e+000
      vertex   2.027339e+002 -1.197049e+002 0.000000e+000
    endloop
  endfacet
  facet normal 8.320504e-001 -5.547000e-001 0.000000e+000
    outer loop
      vertex   1.902339e+002 -1.384549e+002 5.000000e+001
      vertex   2.027339e+002 -1.197049e+002 0.000000e+000
      vertex   2.027339e+002 -1.197049e+002 1.000000e+002
    endloop
  endfacet
  facet normal 0.000000e+000 -1.000000e+000 0.000000e+000
    outer loop
      vertex   -8.164112e+001 -2.509549e+002 5.000000e+001
      vertex   -1.722661e+002 -2.509549e+002 1.000000e+002
      vertex   -1.722661e+002 -2.509549e+002 0.000000e+000
    endloop
  endfacet
  facet normal 8.320503e-001 -5.547002e-001 0.000000e+000
    outer loop
      vertex   1.902339e+002 -1.384549e+002 5.000000e+001
      vertex   1.777339e+002 -1.572049e+002 1.000000e+002
      vertex   1.777339e+002 -1.572049e+002 0.000000e+000
    endloop
  endfacet
  facet normal 1.414213e-001 -9.899495e-001 2.071601e-008
    outer loop
      vertex   3.085887e+001 -2.478299e+002 5.000000e+001
      vertex   8.983869e+000 -2.509549e+002 0.000000e+000
      vertex   5.273388e+001 -2.447049e+002 0.000000e+000
    endloop
  endfacet
  facet normal 1.414213e-001 -9.899495e-001 0.000000e+000
    outer loop
      vertex   3.085887e+001 -2.478299e+002 5.000000e+001
      vertex   5.273388e+001 -2.447049e+002 0.000000e+000
      vertex   5.273388e+001 -2.447049e+002 1.000000e+002
    endloop
  endfacet
  facet normal -9.486833e-001 -3.162278e-001 0.000000e+000
    outer loop
      vertex   1.464839e+002 8.029510e+001 5.000000e+001
      vertex   1.527339e+002 6.154510e+001 0.000000e+000
      vertex   1.527339e+002 6.154510e+001 1.000000e+002
    endloop
  endfacet
  facet normal 1.414214e-001 -9.899496e-001 0.000000e+000
    outer loop
      vertex   3.085887e+001 -2.478299e+002 5.000000e+001
      vertex   8.983869e+000 -2.509549e+002 1.000000e+002
      vertex   8.983869e+000 -2.509549e+002 0.000000e+000
    endloop
  endfacet
  facet normal 9.899496e-001 1.414214e-001 -6.905340e-009
    outer loop
      vertex   2.246089e+002 3.967010e+001 5.000000e+001
      vertex   2.277339e+002 1.779510e+001 0.000000e+000
      vertex   2.214839e+002 6.154510e+001 0.000000e+000
    endloop
  endfacet
  facet normal 9.899496e-001 1.414214e-001 -0.000000e+000
    outer loop
      vertex   2.246089e+002 3.967010e+001 5.000000e+001
      vertex   2.214839e+002 6.154510e+001 0.000000e+000
      vertex   2.214839e+002 6.154510e+001 1.000000e+002
    endloop
  endfacet
  facet normal -9.486833e-001 -3.162278e-001 -0.000000e+000
    outer loop
      vertex   1.464839e+002 8.029510e+001 5.000000e+001
      vertex   1.402339e+002 9.904510e+001 1.000000e+002
      vertex   1.402339e+002 9.904510e+001 0.000000e+000
    endloop
  endfacet
  facet normal 9.899495e-001 1.414213e-001 0.000000e+000
    outer loop
      vertex   2.246089e+002 3.967010e+001 5.000000e+001
      vertex   2.277339e+002 1.779510e+001 1.000000e+002
      vertex   2.277339e+002 1.779510e+001 0.000000e+000
    endloop
  endfacet
  facet normal 4.472136e-001 -8.944272e-001 0.000000e+000
    outer loop
      vertex   1.027339e+002 -2.259549e+002 5.000000e+001
      vertex   9.023389e+001 -2.322049e+002 0.000000e+000
      vertex   1.152339e+002 -2.197049e+002 0.000000e+000
    endloop
  endfacet
  facet normal 4.472136e-001 -8.944272e-001 0.000000e+000
    outer loop
      vertex   1.027339e+002 -2.259549e+002 5.000000e+001
      vertex   1.152339e+002 -2.197049e+002 0.000000e+000
      vertex   1.152339e+002 -2.197049e+002 1.000000e+002
    endloop
  endfacet
  facet normal 7.808688e-001 -6.246951e-001 0.000000e+000
    outer loop
      vertex   1.652339e+002 -1.728299e+002 5.000000e+001
      vertex   1.777339e+002 -1.572049e+002 0.000000e+000
      vertex   1.777339e+002 -1.572049e+002 1.000000e+002
    endloop
  endfacet
  facet normal 4.472136e-001 -8.944272e-001 0.000000e+000
    outer loop
      vertex   1.027339e+002 -2.259549e+002 5.000000e+001
      vertex   9.023389e+001 -2.322049e+002 1.000000e+002
      vertex   9.023389e+001 -2.322049e+002 0.000000e+000
    endloop
  endfacet
  facet normal 9.486833e-001 3.162278e-001 0.000000e+000
    outer loop
      vertex   2.121089e+002 8.967010e+001 5.000000e+001
      vertex   2.214839e+002 6.154510e+001 0.000000e+000
      vertex   2.027339e+002 1.177951e+002 0.000000e+000
    endloop
  endfacet
  facet normal 9.486833e-001 3.162278e-001 -0.000000e+000
    outer loop
      vertex   2.121089e+002 8.967010e+001 5.000000e+001
      vertex   2.027339e+002 1.177951e+002 0.000000e+000
      vertex   2.027339e+002 1.177951e+002 1.000000e+002
    endloop
  endfacet
  facet normal 7.808688e-001 -6.246951e-001 0.000000e+000
    outer loop
      vertex   1.652339e+002 -1.728299e+002 5.000000e+001
      vertex   1.527339e+002 -1.884549e+002 1.000000e+002
      vertex   1.527339e+002 -1.884549e+002 0.000000e+000
    endloop
  endfacet
  facet normal 9.486833e-001 3.162278e-001 0.000000e+000
    outer loop
      vertex   2.121089e+002 8.967010e+001 5.000000e+001
      vertex   2.214839e+002 6.154510e+001 1.000000e+002
      vertex   2.214839e+002 6.154510e+001 0.000000e+000
    endloop
  endfacet
  facet normal -3.713906e-001 9.284767e-001 1.813431e-008
    outer loop
      vertex   6.835889e+001 -1.697049e+002 5.000000e+001
      vertex   8.398389e+001 -1.634549e+002 0.000000e+000
      vertex   5.273388e+001 -1.759549e+002 0.000000e+000
    endloop
  endfacet
  facet normal -3.713906e-001 9.284767e-001 0.000000e+000
    outer loop
      vertex   6.835889e+001 -1.697049e+002 5.000000e+001
      vertex   5.273388e+001 -1.759549e+002 0.000000e+000
      vertex   5.273388e+001 -1.759549e+002 1.000000e+002
    endloop
  endfacet
  facet normal -1.414214e-001 9.899496e-001 0.000000e+000
    outer loop
      vertex   3.085887e+001 -1.790799e+002 5.000000e+001
      vertex   8.983869e+000 -1.822049e+002 0.000000e+000
      vertex   8.983869e+000 -1.822049e+002 1.000000e+002
    endloop
  endfacet
  facet normal -3.713907e-001 9.284767e-001 0.000000e+000
    outer loop
      vertex   6.835889e+001 -1.697049e+002 5.000000e+001
      vertex   8.398389e+001 -1.634549e+002 1.000000e+002
      vertex   8.398389e+001 -1.634549e+002 0.000000e+000
    endloop
  endfacet
  facet normal -8.574929e-001 -5.144958e-001 5.024373e-008
    outer loop
      vertex   1.308589e+002 1.146701e+002 5.000000e+001
      vertex   1.214839e+002 1.302951e+002 0.000000e+000
      vertex   1.402339e+002 9.904510e+001 0.000000e+000
    endloop
  endfacet
  facet normal -8.574929e-001 -5.144957e-001 0.000000e+000
    outer loop
      vertex   1.308589e+002 1.146701e+002 5.000000e+001
      vertex   1.402339e+002 9.904510e+001 0.000000e+000
      vertex   1.402339e+002 9.904510e+001 1.000000e+002
    endloop
  endfacet
  facet normal -1.414213e-001 9.899495e-001 0.000000e+000
    outer loop
      vertex   3.085887e+001 -1.790799e+002 5.000000e+001
      vertex   5.273388e+001 -1.759549e+002 1.000000e+002
      vertex   5.273388e+001 -1.759549e+002 0.000000e+000
    endloop
  endfacet
  facet normal -8.574928e-001 -5.144959e-001 -0.000000e+000
    outer loop
      vertex   1.308589e+002 1.146701e+002 5.000000e+001
      vertex   1.214839e+002 1.302951e+002 1.000000e+002
      vertex   1.214839e+002 1.302951e+002 0.000000e+000
    endloop
  endfacet
  facet normal -8.574929e-001 5.144957e-001 -3.349581e-008
    outer loop
      vertex   1.308589e+002 -1.165799e+002 5.000000e+001
      vertex   1.402339e+002 -1.009549e+002 0.000000e+000
      vertex   1.214839e+002 -1.322049e+002 0.000000e+000
    endloop
  endfacet
  facet normal -8.574930e-001 5.144956e-001 0.000000e+000
    outer loop
      vertex   1.308589e+002 -1.165799e+002 5.000000e+001
      vertex   1.214839e+002 -1.322049e+002 0.000000e+000
      vertex   1.214839e+002 -1.322049e+002 1.000000e+002
    endloop
  endfacet
  facet normal 3.713907e-001 9.284767e-001 -0.000000e+000
    outer loop
      vertex   1.058589e+002 2.240451e+002 5.000000e+001
      vertex   9.023389e+001 2.302951e+002 0.000000e+000
      vertex   9.023389e+001 2.302951e+002 1.000000e+002
    endloop
  endfacet
  facet normal -8.574929e-001 5.144957e-001 0.000000e+000
    outer loop
      vertex   1.308589e+002 -1.165799e+002 5.000000e+001
      vertex   1.402339e+002 -1.009549e+002 1.000000e+002
      vertex   1.402339e+002 -1.009549e+002 0.000000e+000
    endloop
  endfacet
  facet normal 6.246955e-001 7.808684e-001 -2.287700e-007
    outer loop
      vertex   1.371089e+002 2.052951e+002 5.000000e+001
      vertex   1.527339e+002 1.927951e+002 0.000000e+000
      vertex   1.214839e+002 2.177951e+002 0.000000e+000
    endloop
  endfacet
  facet normal 6.246951e-001 7.808688e-001 -0.000000e+000
    outer loop
      vertex   1.371089e+002 2.052951e+002 5.000000e+001
      vertex   1.214839e+002 2.177951e+002 0.000000e+000
      vertex   1.214839e+002 2.177951e+002 1.000000e+002
    endloop
  endfacet
  facet normal 3.713907e-001 9.284767e-001 0.000000e+000
    outer loop
      vertex   1.058589e+002 2.240451e+002 5.000000e+001
      vertex   1.214839e+002 2.177951e+002 1.000000e+002
      vertex   1.214839e+002 2.177951e+002 0.000000e+000
    endloop
  endfacet
  facet normal 6.246960e-001 7.808681e-001 0.000000e+000
    outer loop
      vertex   1.371089e+002 2.052951e+002 5.000000e+001
      vertex   1.527339e+002 1.927951e+002 1.000000e+002
      vertex   1.527339e+002 1.927951e+002 0.000000e+000
    endloop
  endfacet
  facet normal -1.000000e+000 0.000000e+000 0.000000e+000
    outer loop
      vertex   1.589839e+002 -9.549040e-001 5.000000e+001
      vertex   1.589839e+002 1.779510e+001 0.000000e+000
      vertex   1.589839e+002 -1.970490e+001 0.000000e+000
    endloop
  endfacet
  facet normal -1.000000e+000 0.000000e+000 0.000000e+000
    outer loop
      vertex   1.589839e+002 -9.549040e-001 5.000000e+001
      vertex   1.589839e+002 -1.970490e+001 0.000000e+000
      vertex   1.589839e+002 -1.970490e+001 1.000000e+002
    endloop
  endfacet
  facet normal -9.486833e-001 3.162278e-001 0.000000e+000
    outer loop
      vertex   1.464839e+002 -8.220490e+001 5.000000e+001
      vertex   1.402339e+002 -1.009549e+002 0.000000e+000
      vertex   1.402339e+002 -1.009549e+002 1.000000e+002
    endloop
  endfacet
  facet normal -1.000000e+000 0.000000e+000 -0.000000e+000
    outer loop
      vertex   1.589839e+002 -9.549040e-001 5.000000e+001
      vertex   1.589839e+002 1.779510e+001 1.000000e+002
      vertex   1.589839e+002 1.779510e+001 0.000000e+000
    endloop
  endfacet
  facet normal -7.071068e-001 -7.071068e-001 0.000000e+000
    outer loop
      vertex   1.121089e+002 1.396701e+002 5.000000e+001
      vertex   1.027339e+002 1.490451e+002 0.000000e+000
      vertex   1.214839e+002 1.302951e+002 0.000000e+000
    endloop
  endfacet
  facet normal -7.071068e-001 -7.071068e-001 0.000000e+000
    outer loop
      vertex   1.121089e+002 1.396701e+002 5.000000e+001
      vertex   1.214839e+002 1.302951e+002 0.000000e+000
      vertex   1.214839e+002 1.302951e+002 1.000000e+002
    endloop
  endfacet
  facet normal -9.486833e-001 3.162278e-001 0.000000e+000
    outer loop
      vertex   1.464839e+002 -8.220490e+001 5.000000e+001
      vertex   1.527339e+002 -6.345490e+001 1.000000e+002
      vertex   1.527339e+002 -6.345490e+001 0.000000e+000
    endloop
  endfacet
  facet normal -7.071068e-001 -7.071068e-001 -0.000000e+000
    outer loop
      vertex   1.121089e+002 1.396701e+002 5.000000e+001
      vertex   1.027339e+002 1.490451e+002 1.000000e+002
      vertex   1.027339e+002 1.490451e+002 0.000000e+000
    endloop
  endfacet
  facet normal -9.899496e-001 -1.414214e-001 0.000000e+000
    outer loop
      vertex   1.558589e+002 3.967010e+001 5.000000e+001
      vertex   1.527339e+002 6.154510e+001 0.000000e+000
      vertex   1.589839e+002 1.779510e+001 0.000000e+000
    endloop
  endfacet
  facet normal -9.899495e-001 -1.414213e-001 0.000000e+000
    outer loop
      vertex   1.558589e+002 3.967010e+001 5.000000e+001
      vertex   1.589839e+002 1.779510e+001 0.000000e+000
      vertex   1.589839e+002 1.779510e+001 1.000000e+002
    endloop
  endfacet
  facet normal -5.547002e-001 -8.320503e-001 0.000000e+000
    outer loop
      vertex   9.335889e+001 1.552951e+002 5.000000e+001
      vertex   1.027339e+002 1.490451e+002 0.000000e+000
      vertex   1.027339e+002 1.490451e+002 1.000000e+002
    endloop
  endfacet
  facet normal -9.899496e-001 -1.414214e-001 -0.000000e+000
    outer loop
      vertex   1.558589e+002 3.967010e+001 5.000000e+001
      vertex   1.527339e+002 6.154510e+001 1.000000e+002
      vertex   1.527339e+002 6.154510e+001 0.000000e+000
    endloop
  endfacet
  facet normal 3.162277e-001 9.486833e-001 -1.544081e-008
    outer loop
      vertex   7.148389e+001 2.365451e+002 5.000000e+001
      vertex   9.023389e+001 2.302951e+002 0.000000e+000
      vertex   5.273388e+001 2.427951e+002 0.000000e+000
    endloop
  endfacet
  facet normal 3.162277e-001 9.486833e-001 -0.000000e+000
    outer loop
      vertex   7.148389e+001 2.365451e+002 5.000000e+001
      vertex   5.273388e+001 2.427951e+002 0.000000e+000
      vertex   5.273388e+001 2.427951e+002 1.000000e+002
    endloop
  endfacet
  facet normal -5.547002e-001 -8.320503e-001 -0.000000e+000
    outer loop
      vertex   9.335889e+001 1.552951e+002 5.000000e+001
      vertex   8.398389e+001 1.615451e+002 1.000000e+002
      vertex   8.398389e+001 1.615451e+002 0.000000e+000
    endloop
  endfacet
  facet normal 3.162278e-001 9.486833e-001 0.000000e+000
    outer loop
      vertex   7.148389e+001 2.365451e+002 5.000000e+001
      vertex   9.023389e+001 2.302951e+002 1.000000e+002
      vertex   9.023389e+001 2.302951e+002 0.000000e+000
    endloop
  endfacet
  facet normal -1.414213e-001 -9.899495e-001 -2.071601e-008
    outer loop
      vertex   3.085887e+001 1.771701e+002 5.000000e+001
      vertex   8.983869e+000 1.802951e+002 0.000000e+000
      vertex   5.273388e+001 1.740451e+002 0.000000e+000
    endloop
  endfacet
  facet normal -1.414213e-001 -9.899495e-001 0.000000e+000
    outer loop
      vertex   3.085887e+001 1.771701e+002 5.000000e+001
      vertex   5.273388e+001 1.740451e+002 0.000000e+000
      vertex   5.273388e+001 1.740451e+002 1.000000e+002
    endloop
  endfacet
  facet normal -1.000000e+000 0.000000e+000 0.000000e+000
    outer loop
      vertex   -1.722661e+002 -9.549040e-001 5.000000e+001
      vertex   -1.722661e+002 -2.509549e+002 0.000000e+000
      vertex   -1.722661e+002 -2.509549e+002 1.000000e+002
    endloop
  endfacet
  facet normal -1.414214e-001 -9.899496e-001 -0.000000e+000
    outer loop
      vertex   3.085887e+001 1.771701e+002 5.000000e+001
      vertex   8.983869e+000 1.802951e+002 1.000000e+002
      vertex   8.983869e+000 1.802951e+002 0.000000e+000
    endloop
  endfacet
  facet normal -7.071068e-001 7.071068e-001 0.000000e+000
    outer loop
      vertex   1.121089e+002 -1.415799e+002 5.000000e+001
      vertex   1.214839e+002 -1.322049e+002 0.000000e+000
      vertex   1.027339e+002 -1.509549e+002 0.000000e+000
    endloop
  endfacet
  facet normal -7.071068e-001 7.071068e-001 0.000000e+000
    outer loop
      vertex   1.121089e+002 -1.415799e+002 5.000000e+001
      vertex   1.027339e+002 -1.509549e+002 0.000000e+000
      vertex   1.027339e+002 -1.509549e+002 1.000000e+002
    endloop
  endfacet
  facet normal -1.000000e+000 0.000000e+000 -0.000000e+000
    outer loop
      vertex   -1.722661e+002 -9.549040e-001 5.000000e+001
      vertex   -1.722661e+002 2.490451e+002 1.000000e+002
      vertex   -1.722661e+002 2.490451e+002 0.000000e+000
    endloop
  endfacet
  facet normal -7.071068e-001 7.071068e-001 0.000000e+000
    outer loop
      vertex   1.121089e+002 -1.415799e+002 5.000000e+001
      vertex   1.214839e+002 -1.322049e+002 1.000000e+002
      vertex   1.214839e+002 -1.322049e+002 0.000000e+000
    endloop
  endfacet
  facet normal 1.000000e+000 0.000000e+000 0.000000e+000
    outer loop
      vertex   -1.035161e+002 -9.549040e-001 5.000000e+001
      vertex   -1.035161e+002 -1.822049e+002 0.000000e+000
      vertex   -1.035161e+002 1.802951e+002 0.000000e+000
    endloop
  endfacet
  facet normal 1.000000e+000 0.000000e+000 -0.000000e+000
    outer loop
      vertex   -1.035161e+002 -9.549040e-001 5.000000e+001
      vertex   -1.035161e+002 1.802951e+002 0.000000e+000
      vertex   -1.035161e+002 1.802951e+002 1.000000e+002
    endloop
  endfacet
  facet normal 7.808688e-001 6.246951e-001 -0.000000e+000
    outer loop
      vertex   1.652339e+002 1.771701e+002 5.000000e+001
      vertex   1.527339e+002 1.927951e+002 0.000000e+000
      vertex   1.527339e+002 1.927951e+002 1.000000e+002
    endloop
  endfacet
  facet normal 1.000000e+000 0.000000e+000 0.000000e+000
    outer loop
      vertex   -1.035161e+002 -9.549040e-001 5.000000e+001
      vertex   -1.035161e+002 -1.822049e+002 1.000000e+002
      vertex   -1.035161e+002 -1.822049e+002 0.000000e+000
    endloop
  endfacet
  facet normal 9.899496e-001 -1.414214e-001 0.000000e+000
    outer loop
      vertex   2.246089e+002 -4.157990e+001 5.000000e+001
      vertex   2.214839e+002 -6.345490e+001 0.000000e+000
      vertex   2.277339e+002 -1.970490e+001 0.000000e+000
    endloop
  endfacet
  facet normal 9.899496e-001 -1.414214e-001 0.000000e+000
    outer loop
      vertex   2.246089e+002 -4.157990e+001 5.000000e+001
      vertex   2.277339e+002 -1.970490e+001 0.000000e+000
      vertex   2.277339e+002 -1.970490e+001 1.000000e+002
    endloop
  endfacet
  facet normal 7.808688e-001 6.246951e-001 0.000000e+000
    outer loop
      vertex   1.652339e+002 1.771701e+002 5.000000e+001
      vertex   1.777339e+002 1.615451e+002 1.000000e+002
      vertex   1.777339e+002 1.615451e+002 0.000000e+000
    endloop
  endfacet
  facet normal 9.899496e-001 -1.414214e-001 0.000000e+000
    outer loop
      vertex   2.246089e+002 -4.157990e+001 5.000000e+001
      vertex   2.214839e+002 -6.345490e+001 1.000000e+002
      vertex   2.214839e+002 -6.345490e+001 0.000000e+000
    endloop
  endfacet
  facet normal -3.713906e-001 -9.284767e-001 9.067154e-009
    outer loop
      vertex   6.835889e+001 1.677951e+002 5.000000e+001
      vertex   5.273388e+001 1.740451e+002 0.000000e+000
      vertex   8.398389e+001 1.615451e+002 0.000000e+000
    endloop
  endfacet
  facet normal -3.713907e-001 -9.284767e-001 0.000000e+000
    outer loop
      vertex   6.835889e+001 1.677951e+002 5.000000e+001
      vertex   8.398389e+001 1.615451e+002 0.000000e+000
      vertex   8.398389e+001 1.615451e+002 1.000000e+002
    endloop
  endfacet
  facet normal 0.000000e+000 -1.000000e+000 0.000000e+000
    outer loop
      vertex   -4.726613e+001 1.802951e+002 5.000000e+001
      vertex   8.983869e+000 1.802951e+002 0.000000e+000
      vertex   8.983869e+000 1.802951e+002 1.000000e+002
    endloop
  endfacet
  facet normal -3.713906e-001 -9.284767e-001 -0.000000e+000
    outer loop
      vertex   6.835889e+001 1.677951e+002 5.000000e+001
      vertex   5.273388e+001 1.740451e+002 1.000000e+002
      vertex   5.273388e+001 1.740451e+002 0.000000e+000
    endloop
  endfacet
  facet normal 9.486833e-001 -3.162278e-001 0.000000e+000
    outer loop
      vertex   2.121089e+002 -9.157990e+001 5.000000e+001
      vertex   2.027339e+002 -1.197049e+002 0.000000e+000
      vertex   2.214839e+002 -6.345490e+001 0.000000e+000
    endloop
  endfacet
  facet normal 9.486833e-001 -3.162278e-001 0.000000e+000
    outer loop
      vertex   2.121089e+002 -9.157990e+001 5.000000e+001
      vertex   2.214839e+002 -6.345490e+001 0.000000e+000
      vertex   2.214839e+002 -6.345490e+001 1.000000e+002
    endloop
  endfacet
  facet normal 0.000000e+000 -1.000000e+000 0.000000e+000
    outer loop
      vertex   -4.726613e+001 1.802951e+002 5.000000e+001
      vertex   -1.035161e+002 1.802951e+002 1.000000e+002
      vertex   -1.035161e+002 1.802951e+002 0.000000e+000
    endloop
  endfacet
  facet normal 9.486833e-001 -3.162278e-001 0.000000e+000
    outer loop
      vertex   2.121089e+002 -9.157990e+001 5.000000e+001
      vertex   2.027339e+002 -1.197049e+002 1.000000e+002
      vertex   2.027339e+002 -1.197049e+002 0.000000e+000
    endloop
  endfacet
  facet normal -5.547002e-001 8.320503e-001 0.000000e+000
    outer loop
      vertex   9.335889e+001 -1.572049e+002 5.000000e+001
      vertex   1.027339e+002 -1.509549e+002 0.000000e+000
      vertex   8.398389e+001 -1.634549e+002 0.000000e+000
    endloop
  endfacet
  facet normal -5.547002e-001 8.320503e-001 0.000000e+000
    outer loop
      vertex   9.335889e+001 -1.572049e+002 5.000000e+001
      vertex   8.398389e+001 -1.634549e+002 0.000000e+000
      vertex   8.398389e+001 -1.634549e+002 1.000000e+002
    endloop
  endfacet
  facet normal -9.899496e-001 1.414214e-001 0.000000e+000
    outer loop
      vertex   1.558589e+002 -4.157990e+001 5.000000e+001
      vertex   1.527339e+002 -6.345490e+001 0.000000e+000
      vertex   1.527339e+002 -6.345490e+001 1.000000e+002
    endloop
  endfacet
  facet normal -5.547002e-001 8.320503e-001 0.000000e+000
    outer loop
      vertex   9.335889e+001 -1.572049e+002 5.000000e+001
      vertex   1.027339e+002 -1.509549e+002 1.000000e+002
      vertex   1.027339e+002 -1.509549e+002 0.000000e+000
    endloop
  endfacet
  facet normal 8.682431e-001 4.961390e-001 2.422554e-008
    outer loop
      vertex   1.902339e+002 1.396701e+002 5.000000e+001
      vertex   2.027339e+002 1.177951e+002 0.000000e+000
      vertex   1.777339e+002 1.615451e+002 0.000000e+000
    endloop
  endfacet
  facet normal 8.682432e-001 4.961389e-001 -0.000000e+000
    outer loop
      vertex   1.902339e+002 1.396701e+002 5.000000e+001
      vertex   1.777339e+002 1.615451e+002 0.000000e+000
      vertex   1.777339e+002 1.615451e+002 1.000000e+002
    endloop
  endfacet
  facet normal -9.899496e-001 1.414214e-001 0.000000e+000
    outer loop
      vertex   1.558589e+002 -4.157990e+001 5.000000e+001
      vertex   1.589839e+002 -1.970490e+001 1.000000e+002
      vertex   1.589839e+002 -1.970490e+001 0.000000e+000
    endloop
  endfacet
  facet normal 8.682431e-001 4.961391e-001 0.000000e+000
    outer loop
      vertex   1.902339e+002 1.396701e+002 5.000000e+001
      vertex   2.027339e+002 1.177951e+002 1.000000e+002
      vertex   2.027339e+002 1.177951e+002 0.000000e+000
    endloop
  endfacet
  facet normal 6.401842e-001 -7.682214e-001 1.250360e-007
    outer loop
      vertex   1.339839e+002 -2.040799e+002 5.000000e+001
      vertex   1.152339e+002 -2.197049e+002 0.000000e+000
      vertex   1.527339e+002 -1.884549e+002 0.000000e+000
    endloop
  endfacet
  facet normal 6.401840e-001 -7.682216e-001 0.000000e+000
    outer loop
      vertex   1.339839e+002 -2.040799e+002 5.000000e+001
      vertex   1.527339e+002 -1.884549e+002 0.000000e+000
      vertex   1.527339e+002 -1.884549e+002 1.000000e+002
    endloop
  endfacet
  facet normal 0.000000e+000 0.000000e+000 -1.000000e+000
    outer loop
      vertex   5.273388e+001 -2.447049e+002 0.000000e+000
      vertex   8.983869e+000 -2.509549e+002 0.000000e+000
      vertex   -1.035161e+002 -1.822049e+002 0.000000e+000
    endloop
  endfacet
  facet normal 0.000000e+000 1.000000e+000 0.000000e+000
    outer loop
      vertex   -8.164112e+001 2.490451e+002 5.000000e+001
      vertex   -1.722661e+002 2.490451e+002 0.000000e+000
      vertex   -1.722661e+002 2.490451e+002 1.000000e+002
    endloop
  endfacet
  facet normal 0.000000e+000 -1.000000e+000 0.000000e+000
    outer loop
      vertex   -8.164112e+001 -2.509549e+002 5.000000e+001
      vertex   -1.722661e+002 -2.509549e+002 0.000000e+000
      vertex   8.983869e+000 -2.509549e+002 0.000000e+000
    endloop
  endfacet
  facet normal 0.000000e+000 0.000000e+000 -1.000000e+000
    outer loop
      vertex   9.023389e+001 -2.322049e+002 0.000000e+000
      vertex   5.273388e+001 -2.447049e+002 0.000000e+000
      vertex   8.983869e+000 -1.822049e+002 0.000000e+000
    endloop
  endfacet
  facet normal 0.000000e+000 0.000000e+000 -1.000000e+000
    outer loop
      vertex   5.273388e+001 -1.759549e+002 0.000000e+000
      vertex   9.023389e+001 -2.322049e+002 0.000000e+000
      vertex   8.983869e+000 -1.822049e+002 0.000000e+000
    endloop
  endfacet
  facet normal 0.000000e+000 0.000000e+000 -1.000000e+000
    outer loop
      vertex   8.983869e+000 -1.822049e+002 0.000000e+000
      vertex   5.273388e+001 -2.447049e+002 0.000000e+000
      vertex   -1.035161e+002 -1.822049e+002 0.000000e+000
    endloop
  endfacet
  facet normal -9.486833e-001 -3.162278e-001 0.000000e+000
    outer loop
      vertex   1.464839e+002 8.029510e+001 5.000000e+001
      vertex   1.402339e+002 9.904510e+001 0.000000e+000
      vertex   1.527339e+002 6.154510e+001 0.000000e+000
    endloop
  endfacet
  facet normal 0.000000e+000 1.000000e+000 0.000000e+000
    outer loop
      vertex   -8.164112e+001 2.490451e+002 5.000000e+001
      vertex   8.983869e+000 2.490451e+002 1.000000e+002
      vertex   8.983869e+000 2.490451e+002 0.000000e+000
    endloop
  endfacet
  facet normal 0.000000e+000 0.000000e+000 -1.000000e+000
    outer loop
      vertex   8.398389e+001 -1.634549e+002 0.000000e+000
      vertex   1.152339e+002 -2.197049e+002 0.000000e+000
      vertex   5.273388e+001 -1.759549e+002 0.000000e+000
    endloop
  endfacet
  facet normal 0.000000e+000 0.000000e+000 -1.000000e+000
    outer loop
      vertex   1.027339e+002 -1.509549e+002 0.000000e+000
      vertex   1.152339e+002 -2.197049e+002 0.000000e+000
      vertex   8.398389e+001 -1.634549e+002 0.000000e+000
    endloop
  endfacet
  facet normal 7.808688e-001 -6.246951e-001 0.000000e+000
    outer loop
      vertex   1.652339e+002 -1.728299e+002 5.000000e+001
      vertex   1.527339e+002 -1.884549e+002 0.000000e+000
      vertex   1.777339e+002 -1.572049e+002 0.000000e+000
    endloop
  endfacet
  facet normal 0.000000e+000 0.000000e+000 -1.000000e+000
    outer loop
      vertex   1.152339e+002 -2.197049e+002 0.000000e+000
      vertex   9.023389e+001 -2.322049e+002 0.000000e+000
      vertex   5.273388e+001 -1.759549e+002 0.000000e+000
    endloop
  endfacet
  facet normal 1.000000e+000 0.000000e+000 0.000000e+000
    outer loop
      vertex   2.277339e+002 -9.549040e-001 5.000000e+001
      vertex   2.277339e+002 -1.970490e+001 0.000000e+000
      vertex   2.277339e+002 1.779510e+001 0.000000e+000
    endloop
  endfacet
  facet normal 0.000000e+000 0.000000e+000 -1.000000e+000
    outer loop
      vertex   1.214839e+002 -1.322049e+002 0.000000e+000
      vertex   1.527339e+002 -1.884549e+002 0.000000e+000
      vertex   1.027339e+002 -1.509549e+002 0.000000e+000
    endloop
  endfacet
  facet normal -1.414213e-001 9.899495e-001 -2.071601e-008
    outer loop
      vertex   3.085887e+001 -1.790799e+002 5.000000e+001
      vertex   5.273388e+001 -1.759549e+002 0.000000e+000
      vertex   8.983869e+000 -1.822049e+002 0.000000e+000
    endloop
  endfacet
  facet normal 0.000000e+000 0.000000e+000 -1.000000e+000
    outer loop
      vertex   1.527339e+002 -1.884549e+002 0.000000e+000
      vertex   1.152339e+002 -2.197049e+002 0.000000e+000
      vertex   1.027339e+002 -1.509549e+002 0.000000e+000
    endloop
  endfacet
  facet normal 0.000000e+000 0.000000e+000 -1.000000e+000
    outer loop
      vertex   1.777339e+002 -1.572049e+002 0.000000e+000
      vertex   1.527339e+002 -1.884549e+002 0.000000e+000
      vertex   1.214839e+002 -1.322049e+002 0.000000e+000
    endloop
  endfacet
  facet normal 0.000000e+000 0.000000e+000 -1.000000e+000
    outer loop
      vertex   1.402339e+002 -1.009549e+002 0.000000e+000
      vertex   1.777339e+002 -1.572049e+002 0.000000e+000
      vertex   1.214839e+002 -1.322049e+002 0.000000e+000
    endloop
  endfacet
  facet normal 3.713907e-001 9.284767e-001 0.000000e+000
    outer loop
      vertex   1.058589e+002 2.240451e+002 5.000000e+001
      vertex   1.214839e+002 2.177951e+002 0.000000e+000
      vertex   9.023389e+001 2.302951e+002 0.000000e+000
    endloop
  endfacet
  facet normal 1.000000e+000 0.000000e+000 -0.000000e+000
    outer loop
      vertex   2.277339e+002 -9.549040e-001 5.000000e+001
      vertex   2.277339e+002 1.779510e+001 0.000000e+000
      vertex   2.277339e+002 1.779510e+001 1.000000e+002
    endloop
  endfacet
  facet normal 0.000000e+000 1.000000e+000 0.000000e+000
    outer loop
      vertex   -4.726613e+001 -1.822049e+002 5.000000e+001
      vertex   8.983869e+000 -1.822049e+002 0.000000e+000
      vertex   -1.035161e+002 -1.822049e+002 0.000000e+000
    endloop
  endfacet
  facet normal 0.000000e+000 0.000000e+000 -1.000000e+000
    outer loop
      vertex   1.527339e+002 -6.345490e+001 0.000000e+000
      vertex   2.027339e+002 -1.197049e+002 0.000000e+000
      vertex   1.402339e+002 -1.009549e+002 0.000000e+000
    endloop
  endfacet
  facet normal -9.486833e-001 3.162278e-001 0.000000e+000
    outer loop
      vertex   1.464839e+002 -8.220490e+001 5.000000e+001
      vertex   1.527339e+002 -6.345490e+001 0.000000e+000
      vertex   1.402339e+002 -1.009549e+002 0.000000e+000
    endloop
  endfacet
  facet normal -0.000000e+000 0.000000e+000 -1.000000e+000
    outer loop
      vertex   -1.035161e+002 1.802951e+002 0.000000e+000
      vertex   -1.035161e+002 -1.822049e+002 0.000000e+000
      vertex   -1.722661e+002 -2.509549e+002 0.000000e+000
    endloop
  endfacet
  facet normal -0.000000e+000 0.000000e+000 -1.000000e+000
    outer loop
      vertex   -1.722661e+002 2.490451e+002 0.000000e+000
      vertex   -1.035161e+002 1.802951e+002 0.000000e+000
      vertex   -1.722661e+002 -2.509549e+002 0.000000e+000
    endloop
  endfacet
  facet normal 0.000000e+000 0.000000e+000 -1.000000e+000
    outer loop
      vertex   1.589839e+002 -1.970490e+001 0.000000e+000
      vertex   2.027339e+002 -1.197049e+002 0.000000e+000
      vertex   1.527339e+002 -6.345490e+001 0.000000e+000
    endloop
  endfacet
  facet normal -5.547002e-001 -8.320503e-001 0.000000e+000
    outer loop
      vertex   9.335889e+001 1.552951e+002 5.000000e+001
      vertex   8.398389e+001 1.615451e+002 0.000000e+000
      vertex   1.027339e+002 1.490451e+002 0.000000e+000
    endloop
  endfacet
  facet normal 0.000000e+000 0.000000e+000 -1.000000e+000
    outer loop
      vertex   2.214839e+002 -6.345490e+001 0.000000e+000
      vertex   2.027339e+002 -1.197049e+002 0.000000e+000
      vertex   1.589839e+002 -1.970490e+001 0.000000e+000
    endloop
  endfacet
  facet normal 0.000000e+000 0.000000e+000 -1.000000e+000
    outer loop
      vertex   1.589839e+002 1.779510e+001 0.000000e+000
      vertex   2.214839e+002 -6.345490e+001 0.000000e+000
      vertex   1.589839e+002 -1.970490e+001 0.000000e+000
    endloop
  endfacet
  facet normal 0.000000e+000 0.000000e+000 -1.000000e+000
    outer loop
      vertex   8.983869e+000 1.802951e+002 0.000000e+000
      vertex   -1.035161e+002 1.802951e+002 0.000000e+000
      vertex   -1.722661e+002 2.490451e+002 0.000000e+000
    endloop
  endfacet
  facet normal -1.000000e+000 0.000000e+000 0.000000e+000
    outer loop
      vertex   -1.722661e+002 -9.549040e-001 5.000000e+001
      vertex   -1.722661e+002 2.490451e+002 0.000000e+000
      vertex   -1.722661e+002 -2.509549e+002 0.000000e+000
    endloop
  endfacet
  facet normal 0.000000e+000 0.000000e+000 -1.000000e+000
    outer loop
      vertex   2.277339e+002 -1.970490e+001 0.000000e+000
      vertex   2.214839e+002 -6.345490e+001 0.000000e+000
      vertex   1.589839e+002 1.779510e+001 0.000000e+000
    endloop
  endfacet
  facet normal 1.000000e+000 0.000000e+000 0.000000e+000
    outer loop
      vertex   2.277339e+002 -9.549040e-001 5.000000e+001
      vertex   2.277339e+002 -1.970490e+001 1.000000e+002
      vertex   2.277339e+002 -1.970490e+001 0.000000e+000
    endloop
  endfacet
  facet normal 0.000000e+000 0.000000e+000 -1.000000e+000
    outer loop
      vertex   1.402339e+002 9.904510e+001 0.000000e+000
      vertex   2.277339e+002 -1.970490e+001 0.000000e+000
      vertex   1.527339e+002 6.154510e+001 0.000000e+000
    endloop
  endfacet
  facet normal 7.808688e-001 6.246951e-001 0.000000e+000
    outer loop
      vertex   1.652339e+002 1.771701e+002 5.000000e+001
      vertex   1.777339e+002 1.615451e+002 0.000000e+000
      vertex   1.527339e+002 1.927951e+002 0.000000e+000
    endloop
  endfacet
  facet normal 0.000000e+000 0.000000e+000 -1.000000e+000
    outer loop
      vertex   5.273388e+001 1.740451e+002 0.000000e+000
      vertex   8.983869e+000 1.802951e+002 0.000000e+000
      vertex   -1.722661e+002 2.490451e+002 0.000000e+000
    endloop
  endfacet
  facet normal 0.000000e+000 0.000000e+000 -1.000000e+000
    outer loop
      vertex   2.277339e+002 1.779510e+001 0.000000e+000
      vertex   2.277339e+002 -1.970490e+001 0.000000e+000
      vertex   1.402339e+002 9.904510e+001 0.000000e+000
    endloop
  endfacet
  facet normal 0.000000e+000 0.000000e+000 -1.000000e+000
    outer loop
      vertex   1.214839e+002 1.302951e+002 0.000000e+000
      vertex   2.277339e+002 1.779510e+001 0.000000e+000
      vertex   1.402339e+002 9.904510e+001 0.000000e+000
    endloop
  endfacet
  facet normal 0.000000e+000 -1.000000e+000 0.000000e+000
    outer loop
      vertex   -4.726613e+001 1.802951e+002 5.000000e+001
      vertex   -1.035161e+002 1.802951e+002 0.000000e+000
      vertex   8.983869e+000 1.802951e+002 0.000000e+000
    endloop
  endfacet
  facet normal 3.162277e-001 -9.486833e-001 -7.720403e-009
    outer loop
      vertex   7.148389e+001 -2.384549e+002 5.000000e+001
      vertex   5.273388e+001 -2.447049e+002 0.000000e+000
      vertex   9.023389e+001 -2.322049e+002 0.000000e+000
    endloop
  endfacet
  facet normal 0.000000e+000 0.000000e+000 -1.000000e+000
    outer loop
      vertex   8.983869e+000 2.490451e+002 0.000000e+000
      vertex   8.398389e+001 1.615451e+002 0.000000e+000
      vertex   5.273388e+001 1.740451e+002 0.000000e+000
    endloop
  endfacet
  facet normal 0.000000e+000 0.000000e+000 -1.000000e+000
    outer loop
      vertex   8.983869e+000 2.490451e+002 0.000000e+000
      vertex   5.273388e+001 1.740451e+002 0.000000e+000
      vertex   -1.722661e+002 2.490451e+002 0.000000e+000
    endloop
  endfacet
  facet normal -9.899496e-001 1.414214e-001 -6.905340e-009
    outer loop
      vertex   1.558589e+002 -4.157990e+001 5.000000e+001
      vertex   1.589839e+002 -1.970490e+001 0.000000e+000
      vertex   1.527339e+002 -6.345490e+001 0.000000e+000
    endloop
  endfacet
  facet normal 0.000000e+000 0.000000e+000 -1.000000e+000
    outer loop
      vertex   8.983869e+000 2.490451e+002 0.000000e+000
      vertex   1.027339e+002 1.490451e+002 0.000000e+000
      vertex   8.398389e+001 1.615451e+002 0.000000e+000
    endloop
  endfacet
  facet normal 3.162278e-001 -9.486833e-001 0.000000e+000
    outer loop
      vertex   7.148389e+001 -2.384549e+002 5.000000e+001
      vertex   9.023389e+001 -2.322049e+002 0.000000e+000
      vertex   9.023389e+001 -2.322049e+002 1.000000e+002
    endloop
  endfacet
  facet normal 0.000000e+000 0.000000e+000 -1.000000e+000
    outer loop
      vertex   2.214839e+002 6.154510e+001 0.000000e+000
      vertex   2.277339e+002 1.779510e+001 0.000000e+000
      vertex   1.214839e+002 1.302951e+002 0.000000e+000
    endloop
  endfacet
  facet normal 0.000000e+000 1.000000e+000 0.000000e+000
    outer loop
      vertex   -8.164112e+001 2.490451e+002 5.000000e+001
      vertex   8.983869e+000 2.490451e+002 0.000000e+000
      vertex   -1.722661e+002 2.490451e+002 0.000000e+000
    endloop
  endfacet
  facet normal 0.000000e+000 0.000000e+000 -1.000000e+000
    outer loop
      vertex   2.214839e+002 6.154510e+001 0.000000e+000
      vertex   1.214839e+002 1.302951e+002 0.000000e+000
      vertex   8.983869e+000 2.490451e+002 0.000000e+000
    endloop
  endfacet
  facet normal 0.000000e+000 0.000000e+000 -1.000000e+000
    outer loop
      vertex   5.273388e+001 2.427951e+002 0.000000e+000
      vertex   2.214839e+002 6.154510e+001 0.000000e+000
      vertex   8.983869e+000 2.490451e+002 0.000000e+000
    endloop
  endfacet
  facet normal 0.000000e+000 0.000000e+000 -1.000000e+000
    outer loop
      vertex   2.027339e+002 -1.197049e+002 0.000000e+000
      vertex   1.777339e+002 -1.572049e+002 0.000000e+000
      vertex   1.402339e+002 -1.009549e+002 0.000000e+000
    endloop
  endfacet
  facet normal 0.000000e+000 0.000000e+000 -1.000000e+000
    outer loop
      vertex   2.027339e+002 1.177951e+002 0.000000e+000
      vertex   2.214839e+002 6.154510e+001 0.000000e+000
      vertex   5.273388e+001 2.427951e+002 0.000000e+000
    endloop
  endfacet
  facet normal 0.000000e+000 0.000000e+000 -1.000000e+000
    outer loop
      vertex   1.527339e+002 6.154510e+001 0.000000e+000
      vertex   2.277339e+002 -1.970490e+001 0.000000e+000
      vertex   1.589839e+002 1.779510e+001 0.000000e+000
    endloop
  endfacet
  facet normal 0.000000e+000 0.000000e+000 -1.000000e+000
    outer loop
      vertex   8.983869e+000 2.490451e+002 0.000000e+000
      vertex   1.214839e+002 1.302951e+002 0.000000e+000
      vertex   1.027339e+002 1.490451e+002 0.000000e+000
    endloop
  endfacet
  facet normal 0.000000e+000 0.000000e+000 -1.000000e+000
    outer loop
      vertex   9.023389e+001 2.302951e+002 0.000000e+000
      vertex   2.027339e+002 1.177951e+002 0.000000e+000
      vertex   5.273388e+001 2.427951e+002 0.000000e+000
    endloop
  endfacet
  facet normal 0.000000e+000 0.000000e+000 -1.000000e+000
    outer loop
      vertex   1.214839e+002 2.177951e+002 0.000000e+000
      vertex   1.777339e+002 1.615451e+002 0.000000e+000
      vertex   9.023389e+001 2.302951e+002 0.000000e+000
    endloop
  endfacet
  facet normal 0.000000e+000 0.000000e+000 -1.000000e+000
    outer loop
      vertex   1.527339e+002 1.927951e+002 0.000000e+000
      vertex   1.777339e+002 1.615451e+002 0.000000e+000
      vertex   1.214839e+002 2.177951e+002 0.000000e+000
    endloop
  endfacet
  facet normal 3.162277e-001 -9.486833e-001 0.000000e+000
    outer loop
      vertex   7.148389e+001 -2.384549e+002 5.000000e+001
      vertex   5.273388e+001 -2.447049e+002 1.000000e+002
      vertex   5.273388e+001 -2.447049e+002 0.000000e+000
    endloop
  endfacet
  facet normal 0.000000e+000 0.000000e+000 -1.000000e+000
    outer loop
      vertex   1.777339e+002 1.615451e+002 0.000000e+000
      vertex   2.027339e+002 1.177951e+002 0.000000e+000
      vertex   9.023389e+001 2.302951e+002 0.000000e+000
    endloop
  endfacet
  facet normal 3.162277e-001 -9.486833e-001 1.544081e-008
    outer loop
      vertex   7.148389e+001 -2.384549e+002 5.000000e+001
      vertex   9.023389e+001 -2.322049e+002 1.000000e+002
      vertex   5.273388e+001 -2.447049e+002 1.000000e+002
    endloop
  endfacet
  facet normal -8.574929e-001 -5.144958e-001 -3.349582e-008
    outer loop
      vertex   1.308589e+002 1.146701e+002 5.000000e+001
      vertex   1.402339e+002 9.904510e+001 1.000000e+002
      vertex   1.214839e+002 1.302951e+002 1.000000e+002
    endloop
  endfacet
  facet normal 9.486833e-001 -3.162278e-001 0.000000e+000
    outer loop
      vertex   2.121089e+002 -9.157990e+001 5.000000e+001
      vertex   2.214839e+002 -6.345490e+001 1.000000e+002
      vertex   2.027339e+002 -1.197049e+002 1.000000e+002
    endloop
  endfacet
  facet normal 9.899496e-001 1.414214e-001 0.000000e+000
    outer loop
      vertex   2.246089e+002 3.967010e+001 5.000000e+001
      vertex   2.214839e+002 6.154510e+001 1.000000e+002
      vertex   2.277339e+002 1.779510e+001 1.000000e+002
    endloop
  endfacet
  facet normal -0.000000e+000 -1.000000e+000 0.000000e+000
    outer loop
      vertex   -8.164112e+001 -2.509549e+002 5.000000e+001
      vertex   8.983869e+000 -2.509549e+002 1.000000e+002
      vertex   -1.722661e+002 -2.509549e+002 1.000000e+002
    endloop
  endfacet
  facet normal -5.547002e-001 8.320503e-001 0.000000e+000
    outer loop
      vertex   9.335889e+001 -1.572049e+002 5.000000e+001
      vertex   8.398389e+001 -1.634549e+002 1.000000e+002
      vertex   1.027339e+002 -1.509549e+002 1.000000e+002
    endloop
  endfacet
  facet normal 8.682431e-001 4.961390e-001 -4.845108e-008
    outer loop
      vertex   1.902339e+002 1.396701e+002 5.000000e+001
      vertex   1.777339e+002 1.615451e+002 1.000000e+002
      vertex   2.027339e+002 1.177951e+002 1.000000e+002
    endloop
  endfacet
  facet normal -9.899496e-001 1.414214e-001 0.000000e+000
    outer loop
      vertex   1.558589e+002 -4.157990e+001 5.000000e+001
      vertex   1.527339e+002 -6.345490e+001 1.000000e+002
      vertex   1.589839e+002 -1.970490e+001 1.000000e+002
    endloop
  endfacet
  facet normal 9.899496e-001 -1.414214e-001 -6.905340e-009
    outer loop
      vertex   2.246089e+002 -4.157990e+001 5.000000e+001
      vertex   2.277339e+002 -1.970490e+001 1.000000e+002
      vertex   2.214839e+002 -6.345490e+001 1.000000e+002
    endloop
  endfacet
  facet normal -0.000000e+000 -1.000000e+000 0.000000e+000
    outer loop
      vertex   -4.726613e+001 1.802951e+002 5.000000e+001
      vertex   8.983869e+000 1.802951e+002 1.000000e+002
      vertex   -1.035161e+002 1.802951e+002 1.000000e+002
    endloop
  endfacet
  facet normal -3.713906e-001 -9.284767e-001 -1.813431e-008
    outer loop
      vertex   6.835889e+001 1.677951e+002 5.000000e+001
      vertex   8.398389e+001 1.615451e+002 1.000000e+002
      vertex   5.273388e+001 1.740451e+002 1.000000e+002
    endloop
  endfacet
  facet normal 7.808688e-001 6.246951e-001 0.000000e+000
    outer loop
      vertex   1.652339e+002 1.771701e+002 5.000000e+001
      vertex   1.527339e+002 1.927951e+002 1.000000e+002
      vertex   1.777339e+002 1.615451e+002 1.000000e+002
    endloop
  endfacet
  facet normal 1.000000e+000 0.000000e+000 0.000000e+000
    outer loop
      vertex   -1.035161e+002 -9.549040e-001 5.000000e+001
      vertex   -1.035161e+002 1.802951e+002 1.000000e+002
      vertex   -1.035161e+002 -1.822049e+002 1.000000e+002
    endloop
  endfacet
  facet normal -1.414213e-001 -9.899495e-001 2.071601e-008
    outer loop
      vertex   3.085887e+001 1.771701e+002 5.000000e+001
      vertex   5.273388e+001 1.740451e+002 1.000000e+002
      vertex   8.983869e+000 1.802951e+002 1.000000e+002
    endloop
  endfacet
  facet normal -7.071068e-001 7.071068e-001 0.000000e+000
    outer loop
      vertex   1.121089e+002 -1.415799e+002 5.000000e+001
      vertex   1.027339e+002 -1.509549e+002 1.000000e+002
      vertex   1.214839e+002 -1.322049e+002 1.000000e+002
    endloop
  endfacet
  facet normal -1.000000e+000 0.000000e+000 0.000000e+000
    outer loop
      vertex   -1.722661e+002 -9.549040e-001 5.000000e+001
      vertex   -1.722661e+002 -2.509549e+002 1.000000e+002
      vertex   -1.722661e+002 2.490451e+002 1.000000e+002
    endloop
  endfacet
  facet normal 3.162277e-001 9.486833e-001 7.720403e-009
    outer loop
      vertex   7.148389e+001 2.365451e+002 5.000000e+001
      vertex   5.273388e+001 2.427951e+002 1.000000e+002
      vertex   9.023389e+001 2.302951e+002 1.000000e+002
    endloop
  endfacet
  facet normal -5.547002e-001 -8.320503e-001 0.000000e+000
    outer loop
      vertex   9.335889e+001 1.552951e+002 5.000000e+001
      vertex   1.027339e+002 1.490451e+002 1.000000e+002
      vertex   8.398389e+001 1.615451e+002 1.000000e+002
    endloop
  endfacet
  facet normal -9.899496e-001 -1.414214e-001 -6.905340e-009
    outer loop
      vertex   1.558589e+002 3.967010e+001 5.000000e+001
      vertex   1.589839e+002 1.779510e+001 1.000000e+002
      vertex   1.527339e+002 6.154510e+001 1.000000e+002
    endloop
  endfacet
  facet normal -7.071068e-001 -7.071068e-001 0.000000e+000
    outer loop
      vertex   1.121089e+002 1.396701e+002 5.000000e+001
      vertex   1.214839e+002 1.302951e+002 1.000000e+002
      vertex   1.027339e+002 1.490451e+002 1.000000e+002
    endloop
  endfacet
  facet normal -9.486833e-001 3.162278e-001 0.000000e+000
    outer loop
      vertex   1.464839e+002 -8.220490e+001 5.000000e+001
      vertex   1.402339e+002 -1.009549e+002 1.000000e+002
      vertex   1.527339e+002 -6.345490e+001 1.000000e+002
    endloop
  endfacet
  facet normal -1.000000e+000 0.000000e+000 0.000000e+000
    outer loop
      vertex   1.589839e+002 -9.549040e-001 5.000000e+001
      vertex   1.589839e+002 -1.970490e+001 1.000000e+002
      vertex   1.589839e+002 1.779510e+001 1.000000e+002
    endloop
  endfacet
  facet normal 6.246955e-001 7.808684e-001 2.440214e-007
    outer loop
      vertex   1.371089e+002 2.052951e+002 5.000000e+001
      vertex   1.214839e+002 2.177951e+002 1.000000e+002
      vertex   1.527339e+002 1.927951e+002 1.000000e+002
    endloop
  endfacet
  facet normal -8.574929e-001 5.144957e-001 5.024372e-008
    outer loop
      vertex   1.308589e+002 -1.165799e+002 5.000000e+001
      vertex   1.214839e+002 -1.322049e+002 1.000000e+002
      vertex   1.402339e+002 -1.009549e+002 1.000000e+002
    endloop
  endfacet
  facet normal 1.000000e+000 0.000000e+000 0.000000e+000
    outer loop
      vertex   2.277339e+002 -9.549040e-001 5.000000e+001
      vertex   2.277339e+002 1.779510e+001 1.000000e+002
      vertex   2.277339e+002 -1.970490e+001 1.000000e+002
    endloop
  endfacet
  facet normal -1.414213e-001 9.899495e-001 2.071601e-008
    outer loop
      vertex   3.085887e+001 -1.790799e+002 5.000000e+001
      vertex   8.983869e+000 -1.822049e+002 1.000000e+002
      vertex   5.273388e+001 -1.759549e+002 1.000000e+002
    endloop
  endfacet
  facet normal -3.713906e-001 9.284767e-001 -9.067154e-009
    outer loop
      vertex   6.835889e+001 -1.697049e+002 5.000000e+001
      vertex   5.273388e+001 -1.759549e+002 1.000000e+002
      vertex   8.398389e+001 -1.634549e+002 1.000000e+002
    endloop
  endfacet
  facet normal 4.472136e-001 -8.944272e-001 0.000000e+000
    outer loop
      vertex   1.027339e+002 -2.259549e+002 5.000000e+001
      vertex   1.152339e+002 -2.197049e+002 1.000000e+002
      vertex   9.023389e+001 -2.322049e+002 1.000000e+002
    endloop
  endfacet
  facet normal 9.486833e-001 3.162278e-001 0.000000e+000
    outer loop
      vertex   2.121089e+002 8.967010e+001 5.000000e+001
      vertex   2.027339e+002 1.177951e+002 1.000000e+002
      vertex   2.214839e+002 6.154510e+001 1.000000e+002
    endloop
  endfacet
  facet normal 7.808688e-001 -6.246951e-001 0.000000e+000
    outer loop
      vertex   1.652339e+002 -1.728299e+002 5.000000e+001
      vertex   1.777339e+002 -1.572049e+002 1.000000e+002
      vertex   1.527339e+002 -1.884549e+002 1.000000e+002
    endloop
  endfacet
  facet normal 8.320504e-001 -5.547001e-001 4.062745e-008
    outer loop
      vertex   1.902339e+002 -1.384549e+002 5.000000e+001
      vertex   2.027339e+002 -1.197049e+002 1.000000e+002
      vertex   1.777339e+002 -1.572049e+002 1.000000e+002
    endloop
  endfacet
  facet normal -9.486833e-001 -3.162278e-001 0.000000e+000
    outer loop
      vertex   1.464839e+002 8.029510e+001 5.000000e+001
      vertex   1.527339e+002 6.154510e+001 1.000000e+002
      vertex   1.402339e+002 9.904510e+001 1.000000e+002
    endloop
  endfacet
  facet normal 1.414213e-001 -9.899495e-001 -2.071601e-008
    outer loop
      vertex   3.085887e+001 -2.478299e+002 5.000000e+001
      vertex   5.273388e+001 -2.447049e+002 1.000000e+002
      vertex   8.983869e+000 -2.509549e+002 1.000000e+002
    endloop
  endfacet
  facet normal -0.000000e+000 1.000000e+000 0.000000e+000
    outer loop
      vertex   -4.726613e+001 -1.822049e+002 5.000000e+001
      vertex   -1.035161e+002 -1.822049e+002 1.000000e+002
      vertex   8.983869e+000 -1.822049e+002 1.000000e+002
    endloop
  endfacet
  facet normal 1.414213e-001 9.899495e-001 -2.071601e-008
    outer loop
      vertex   3.085887e+001 2.459201e+002 5.000000e+001
      vertex   8.983869e+000 2.490451e+002 1.000000e+002
      vertex   5.273388e+001 2.427951e+002 1.000000e+002
    endloop
  endfacet
  facet normal -0.000000e+000 1.000000e+000 0.000000e+000
    outer loop
      vertex   -8.164112e+001 2.490451e+002 5.000000e+001
      vertex   -1.722661e+002 2.490451e+002 1.000000e+002
      vertex   8.983869e+000 2.490451e+002 1.000000e+002
    endloop
  endfacet
  facet normal 6.401842e-001 -7.682214e-001 -1.000288e-007
    outer loop
      vertex   1.339839e+002 -2.040799e+002 5.000000e+001
      vertex   1.527339e+002 -1.884549e+002 1.000000e+002
      vertex   1.152339e+002 -2.197049e+002 1.000000e+002
    endloop
  endfacet
  facet normal 3.713907e-001 9.284767e-001 0.000000e+000
    outer loop
      vertex   1.058589e+002 2.240451e+002 5.000000e+001
      vertex   9.023389e+001 2.302951e+002 1.000000e+002
      vertex   1.214839e+002 2.177951e+002 1.000000e+002
    endloop
  endfacet
  facet normal -0.000000e+000 0.000000e+000 1.000000e+000
    outer loop
      vertex   1.589839e+002 1.779510e+001 1.000000e+002
      vertex   1.589839e+002 -1.970490e+001 1.000000e+002
      vertex   2.214839e+002 -6.345490e+001 1.000000e+002
    endloop
  endfacet
  facet normal 0.000000e+000 0.000000e+000 1.000000e+000
    outer loop
      vertex   1.214839e+002 2.177951e+002 1.000000e+002
      vertex   9.023389e+001 2.302951e+002 1.000000e+002
      vertex   1.777339e+002 1.615451e+002 1.000000e+002
    endloop
  endfacet
  facet normal 0.000000e+000 0.000000e+000 1.000000e+000
    outer loop
      vertex   1.777339e+002 1.615451e+002 1.000000e+002
      vertex   9.023389e+001 2.302951e+002 1.000000e+002
      vertex   2.027339e+002 1.177951e+002 1.000000e+002
    endloop
  endfacet
  facet normal 0.000000e+000 0.000000e+000 1.000000e+000
    outer loop
      vertex   9.023389e+001 2.302951e+002 1.000000e+002
      vertex   5.273388e+001 2.427951e+002 1.000000e+002
      vertex   2.027339e+002 1.177951e+002 1.000000e+002
    endloop
  endfacet
  facet normal 0.000000e+000 0.000000e+000 1.000000e+000
    outer loop
      vertex   2.027339e+002 1.177951e+002 1.000000e+002
      vertex   5.273388e+001 2.427951e+002 1.000000e+002
      vertex   2.214839e+002 6.154510e+001 1.000000e+002
    endloop
  endfacet
  facet normal 0.000000e+000 0.000000e+000 1.000000e+000
    outer loop
      vertex   5.273388e+001 2.427951e+002 1.000000e+002
      vertex   8.983869e+000 2.490451e+002 1.000000e+002
      vertex   2.214839e+002 6.154510e+001 1.000000e+002
    endloop
  endfacet
  facet normal 0.000000e+000 0.000000e+000 1.000000e+000
    outer loop
      vertex   2.214839e+002 6.154510e+001 1.000000e+002
      vertex   1.214839e+002 1.302951e+002 1.000000e+002
      vertex   2.277339e+002 1.779510e+001 1.000000e+002
    endloop
  endfacet
  facet normal 0.000000e+000 0.000000e+000 1.000000e+000
    outer loop
      vertex   2.214839e+002 6.154510e+001 1.000000e+002
      vertex   8.983869e+000 2.490451e+002 1.000000e+002
      vertex   1.214839e+002 1.302951e+002 1.000000e+002
    endloop
  endfacet
  facet normal -0.000000e+000 0.000000e+000 1.000000e+000
    outer loop
      vertex   8.983869e+000 2.490451e+002 1.000000e+002
      vertex   -1.722661e+002 2.490451e+002 1.000000e+002
      vertex   5.273388e+001 1.740451e+002 1.000000e+002
    endloop
  endfacet
  facet normal -0.000000e+000 -0.000000e+000 1.000000e+000
    outer loop
      vertex   8.983869e+000 2.490451e+002 1.000000e+002
      vertex   5.273388e+001 1.740451e+002 1.000000e+002
      vertex   8.398389e+001 1.615451e+002 1.000000e+002
    endloop
  endfacet
  facet normal -0.000000e+000 -0.000000e+000 1.000000e+000
    outer loop
      vertex   8.983869e+000 2.490451e+002 1.000000e+002
      vertex   8.398389e+001 1.615451e+002 1.000000e+002
      vertex   1.027339e+002 1.490451e+002 1.000000e+002
    endloop
  endfacet
  facet normal -0.000000e+000 -0.000000e+000 1.000000e+000
    outer loop
      vertex   8.983869e+000 2.490451e+002 1.000000e+002
      vertex   1.027339e+002 1.490451e+002 1.000000e+002
      vertex   1.214839e+002 1.302951e+002 1.000000e+002
    endloop
  endfacet
  facet normal -0.000000e+000 -0.000000e+000 1.000000e+000
    outer loop
      vertex   1.214839e+002 1.302951e+002 1.000000e+002
      vertex   1.402339e+002 9.904510e+001 1.000000e+002
      vertex   2.277339e+002 1.779510e+001 1.000000e+002
    endloop
  endfacet
  facet normal 0.000000e+000 0.000000e+000 1.000000e+000
    outer loop
      vertex   2.277339e+002 1.779510e+001 1.000000e+002
      vertex   1.402339e+002 9.904510e+001 1.000000e+002
      vertex   2.277339e+002 -1.970490e+001 1.000000e+002
    endloop
  endfacet
  facet normal -0.000000e+000 -0.000000e+000 1.000000e+000
    outer loop
      vertex   1.402339e+002 9.904510e+001 1.000000e+002
      vertex   1.527339e+002 6.154510e+001 1.000000e+002
      vertex   2.277339e+002 -1.970490e+001 1.000000e+002
    endloop
  endfacet
  facet normal 0.000000e+000 0.000000e+000 1.000000e+000
    outer loop
      vertex   5.273388e+001 1.740451e+002 1.000000e+002
      vertex   -1.722661e+002 2.490451e+002 1.000000e+002
      vertex   8.983869e+000 1.802951e+002 1.000000e+002
    endloop
  endfacet
  facet normal -0.000000e+000 -0.000000e+000 1.000000e+000
    outer loop
      vertex   1.527339e+002 6.154510e+001 1.000000e+002
      vertex   1.589839e+002 1.779510e+001 1.000000e+002
      vertex   2.277339e+002 -1.970490e+001 1.000000e+002
    endloop
  endfacet
  facet normal 0.000000e+000 0.000000e+000 1.000000e+000
    outer loop
      vertex   2.277339e+002 -1.970490e+001 1.000000e+002
      vertex   1.589839e+002 1.779510e+001 1.000000e+002
      vertex   2.214839e+002 -6.345490e+001 1.000000e+002
    endloop
  endfacet
  facet normal 0.000000e+000 0.000000e+000 1.000000e+000
    outer loop
      vertex   8.983869e+000 1.802951e+002 1.000000e+002
      vertex   -1.722661e+002 2.490451e+002 1.000000e+002
      vertex   -1.035161e+002 1.802951e+002 1.000000e+002
    endloop
  endfacet
  facet normal 0.000000e+000 0.000000e+000 1.000000e+000
    outer loop
      vertex   1.527339e+002 1.927951e+002 1.000000e+002
      vertex   1.214839e+002 2.177951e+002 1.000000e+002
      vertex   1.777339e+002 1.615451e+002 1.000000e+002
    endloop
  endfacet
  facet normal 0.000000e+000 0.000000e+000 1.000000e+000
    outer loop
      vertex   2.214839e+002 -6.345490e+001 1.000000e+002
      vertex   1.589839e+002 -1.970490e+001 1.000000e+002
      vertex   2.027339e+002 -1.197049e+002 1.000000e+002
    endloop
  endfacet
  facet normal -0.000000e+000 0.000000e+000 1.000000e+000
    outer loop
      vertex   1.589839e+002 -1.970490e+001 1.000000e+002
      vertex   1.527339e+002 -6.345490e+001 1.000000e+002
      vertex   2.027339e+002 -1.197049e+002 1.000000e+002
    endloop
  endfacet
  facet normal 0.000000e+000 0.000000e+000 1.000000e+000
    outer loop
      vertex   -1.722661e+002 2.490451e+002 1.000000e+002
      vertex   -1.722661e+002 -2.509549e+002 1.000000e+002
      vertex   -1.035161e+002 1.802951e+002 1.000000e+002
    endloop
  endfacet
  facet normal 0.000000e+000 0.000000e+000 1.000000e+000
    outer loop
      vertex   -1.035161e+002 1.802951e+002 1.000000e+002
      vertex   -1.722661e+002 -2.509549e+002 1.000000e+002
      vertex   -1.035161e+002 -1.822049e+002 1.000000e+002
    endloop
  endfacet
  facet normal -0.000000e+000 0.000000e+000 1.000000e+000
    outer loop
      vertex   1.527339e+002 -6.345490e+001 1.000000e+002
      vertex   1.402339e+002 -1.009549e+002 1.000000e+002
      vertex   2.027339e+002 -1.197049e+002 1.000000e+002
    endloop
  endfacet
  facet normal 0.000000e+000 0.000000e+000 1.000000e+000
    outer loop
      vertex   2.027339e+002 -1.197049e+002 1.000000e+002
      vertex   1.402339e+002 -1.009549e+002 1.000000e+002
      vertex   1.777339e+002 -1.572049e+002 1.000000e+002
    endloop
  endfacet
  facet normal -0.000000e+000 0.000000e+000 1.000000e+000
    outer loop
      vertex   1.402339e+002 -1.009549e+002 1.000000e+002
      vertex   1.214839e+002 -1.322049e+002 1.000000e+002
      vertex   1.777339e+002 -1.572049e+002 1.000000e+002
    endloop
  endfacet
  facet normal 0.000000e+000 0.000000e+000 1.000000e+000
    outer loop
      vertex   1.777339e+002 -1.572049e+002 1.000000e+002
      vertex   1.214839e+002 -1.322049e+002 1.000000e+002
      vertex   1.527339e+002 -1.884549e+002 1.000000e+002
    endloop
  endfacet
  facet normal -0.000000e+000 0.000000e+000 1.000000e+000
    outer loop
      vertex   1.214839e+002 -1.322049e+002 1.000000e+002
      vertex   1.027339e+002 -1.509549e+002 1.000000e+002
      vertex   1.527339e+002 -1.884549e+002 1.000000e+002
    endloop
  endfacet
  facet normal 0.000000e+000 0.000000e+000 1.000000e+000
    outer loop
      vertex   1.527339e+002 -1.884549e+002 1.000000e+002
      vertex   1.027339e+002 -1.509549e+002 1.000000e+002
      vertex   1.152339e+002 -2.197049e+002 1.000000e+002
    endloop
  endfacet
  facet normal -0.000000e+000 0.000000e+000 1.000000e+000
    outer loop
      vertex   1.027339e+002 -1.509549e+002 1.000000e+002
      vertex   8.398389e+001 -1.634549e+002 1.000000e+002
      vertex   1.152339e+002 -2.197049e+002 1.000000e+002
    endloop
  endfacet
  facet normal -0.000000e+000 0.000000e+000 1.000000e+000
    outer loop
      vertex   8.398389e+001 -1.634549e+002 1.000000e+002
      vertex   5.273388e+001 -1.759549e+002 1.000000e+002
      vertex   1.152339e+002 -2.197049e+002 1.000000e+002
    endloop
  endfacet
  facet normal 0.000000e+000 0.000000e+000 1.000000e+000
    outer loop
      vertex   1.152339e+002 -2.197049e+002 1.000000e+002
      vertex   5.273388e+001 -1.759549e+002 1.000000e+002
      vertex   9.023389e+001 -2.322049e+002 1.000000e+002
    endloop
  endfacet
  facet normal -0.000000e+000 0.000000e+000 1.000000e+000
    outer loop
      vertex   5.273388e+001 -1.759549e+002 1.000000e+002
      vertex   8.983869e+000 -1.822049e+002 1.000000e+002
      vertex   9.023389e+001 -2.322049e+002 1.000000e+002
    endloop
  endfacet
  facet normal 0.000000e+000 0.000000e+000 1.000000e+000
    outer loop
      vertex   9.023389e+001 -2.322049e+002 1.000000e+002
      vertex   8.983869e+000 -1.822049e+002 1.000000e+002
      vertex   5.273388e+001 -2.447049e+002 1.000000e+002
    endloop
  endfacet
  facet normal -0.000000e+000 0.000000e+000 1.000000e+000
    outer loop
      vertex   8.983869e+000 -1.822049e+002 1.000000e+002
      vertex   -1.035161e+002 -1.822049e+002 1.000000e+002
      vertex   5.273388e+001 -2.447049e+002 1.000000e+002
    endloop
  endfacet
  facet normal 0.000000e+000 0.000000e+000 1.000000e+000
    outer loop
      vertex   5.273388e+001 -2.447049e+002 1.000000e+002
      vertex   -1.035161e+002 -1.822049e+002 1.000000e+002
      vertex   8.983869e+000 -2.509549e+002 1.000000e+002
    endloop
  endfacet
  facet normal 0.000000e+000 0.000000e+000 1.000000e+000
    outer loop
      vertex   8.983869e+000 -2.509549e+002 1.000000e+002
      vertex   -1.035161e+002 -1.822049e+002 1.000000e+002
      vertex   -1.722661e+002 -2.509549e+002 1.000000e+002
    endloop
  endfacet
endsolid
