solid ascii
  facet normal 0.000000e+000 1.000000e+000 0.000000e+000
    outer loop
      vertex   5.948711e+001 3.730381e+001 5.000000e+001
      vertex   1.907371e+002 3.730381e+001 0.000000e+000
      vertex   -7.176289e+001 3.730381e+001 0.000000e+000
    endloop
  endfacet
  facet normal -1.000000e+000 0.000000e+000 0.000000e+000
    outer loop
      vertex   -1.405129e+002 -1.961883e-001 5.000000e+001
      vertex   -1.405129e+002 -2.501962e+002 0.000000e+000
      vertex   -1.405129e+002 -2.501962e+002 1.000000e+002
    endloop
  endfacet
  facet normal 0.000000e+000 1.000000e+000 0.000000e+000
    outer loop
      vertex   5.948711e+001 3.730381e+001 5.000000e+001
      vertex   -7.176289e+001 3.730381e+001 0.000000e+000
      vertex   -7.176289e+001 3.730381e+001 1.000000e+002
    endloop
  endfacet
  facet normal -1.000000e+000 0.000000e+000 -0.000000e+000
    outer loop
      vertex   -1.405129e+002 -1.961883e-001 5.000000e+001
      vertex   -1.405129e+002 2.498038e+002 1.000000e+002
      vertex   -1.405129e+002 2.498038e+002 0.000000e+000
    endloop
  endfacet
  facet normal 1.000000e+000 0.000000e+000 0.000000e+000
    outer loop
      vertex   2.157371e+002 2.185538e+002 5.000000e+001
      vertex   2.157371e+002 1.873038e+002 0.000000e+000
      vertex   2.157371e+002 2.498038e+002 0.000000e+000
    endloop
  endfacet
  facet normal 1.000000e+000 0.000000e+000 -0.000000e+000
    outer loop
      vertex   2.157371e+002 2.185538e+002 5.000000e+001
      vertex   2.157371e+002 2.498038e+002 0.000000e+000
      vertex   2.157371e+002 2.498038e+002 1.000000e+002
    endloop
  endfacet
  facet normal 0.000000e+000 1.000000e+000 0.000000e+000
    outer loop
      vertex   5.948711e+001 3.730381e+001 5.000000e+001
      vertex   1.907371e+002 3.730381e+001 1.000000e+002
      vertex   1.907371e+002 3.730381e+001 0.000000e+000
    endloop
  endfacet
  facet normal 1.000000e+000 0.000000e+000 0.000000e+000
    outer loop
      vertex   2.157371e+002 2.185538e+002 5.000000e+001
      vertex   2.157371e+002 1.873038e+002 1.000000e+002
      vertex   2.157371e+002 1.873038e+002 0.000000e+000
    endloop
  endfacet
  facet normal 1.000000e+000 0.000000e+000 0.000000e+000
    outer loop
      vertex   -7.176289e+001 -1.064462e+002 5.000000e+001
      vertex   -7.176289e+001 -1.876962e+002 0.000000e+000
      vertex   -7.176289e+001 -2.519619e+001 0.000000e+000
    endloop
  endfacet
  facet normal 1.000000e+000 0.000000e+000 -0.000000e+000
    outer loop
      vertex   -7.176289e+001 -1.064462e+002 5.000000e+001
      vertex   -7.176289e+001 -2.519619e+001 0.000000e+000
      vertex   -7.176289e+001 -2.519619e+001 1.000000e+002
    endloop
  endfacet
  facet normal 1.000000e+000 0.000000e+000 -0.000000e+000
    outer loop
      vertex   1.907371e+002 6.053812e+000 5.000000e+001
      vertex   1.907371e+002 3.730381e+001 0.000000e+000
      vertex   1.907371e+002 3.730381e+001 1.000000e+002
    endloop
  endfacet
  facet normal 1.000000e+000 0.000000e+000 0.000000e+000
    outer loop
      vertex   -7.176289e+001 -1.064462e+002 5.000000e+001
      vertex   -7.176289e+001 -1.876962e+002 1.000000e+002
      vertex   -7.176289e+001 -1.876962e+002 0.000000e+000
    endloop
  endfacet
  facet normal 0.000000e+000 -1.000000e+000 0.000000e+000
    outer loop
      vertex   4.073711e+001 -2.501962e+002 5.000000e+001
      vertex   -1.405129e+002 -2.501962e+002 0.000000e+000
      vertex   2.219871e+002 -2.501962e+002 0.000000e+000
    endloop
  endfacet
  facet normal 0.000000e+000 -1.000000e+000 0.000000e+000
    outer loop
      vertex   4.073711e+001 -2.501962e+002 5.000000e+001
      vertex   2.219871e+002 -2.501962e+002 0.000000e+000
      vertex   2.219871e+002 -2.501962e+002 1.000000e+002
    endloop
  endfacet
  facet normal 1.000000e+000 0.000000e+000 0.000000e+000
    outer loop
      vertex   1.907371e+002 6.053812e+000 5.000000e+001
      vertex   1.907371e+002 -2.519619e+001 1.000000e+002
      vertex   1.907371e+002 -2.519619e+001 0.000000e+000
    endloop
  endfacet
  facet normal 0.000000e+000 -1.000000e+000 0.000000e+000
    outer loop
      vertex   4.073711e+001 -2.501962e+002 5.000000e+001
      vertex   -1.405129e+002 -2.501962e+002 1.000000e+002
      vertex   -1.405129e+002 -2.501962e+002 0.000000e+000
    endloop
  endfacet
  facet normal 1.000000e+000 0.000000e+000 0.000000e+000
    outer loop
      vertex   -7.176289e+001 1.123038e+002 5.000000e+001
      vertex   -7.176289e+001 3.730381e+001 0.000000e+000
      vertex   -7.176289e+001 1.873038e+002 0.000000e+000
    endloop
  endfacet
  facet normal 1.000000e+000 0.000000e+000 -0.000000e+000
    outer loop
      vertex   -7.176289e+001 1.123038e+002 5.000000e+001
      vertex   -7.176289e+001 1.873038e+002 0.000000e+000
      vertex   -7.176289e+001 1.873038e+002 1.000000e+002
    endloop
  endfacet
  facet normal 0.000000e+000 -1.000000e+000 0.000000e+000
    outer loop
      vertex   5.948711e+001 -2.519619e+001 5.000000e+001
      vertex   1.907371e+002 -2.519619e+001 0.000000e+000
      vertex   1.907371e+002 -2.519619e+001 1.000000e+002
    endloop
  endfacet
  facet normal 1.000000e+000 0.000000e+000 0.000000e+000
    outer loop
      vertex   -7.176289e+001 1.123038e+002 5.000000e+001
      vertex   -7.176289e+001 3.730381e+001 1.000000e+002
      vertex   -7.176289e+001 3.730381e+001 0.000000e+000
    endloop
  endfacet
  facet normal 0.000000e+000 1.000000e+000 0.000000e+000
    outer loop
      vertex   3.761211e+001 2.498038e+002 5.000000e+001
      vertex   2.157371e+002 2.498038e+002 0.000000e+000
      vertex   -1.405129e+002 2.498038e+002 0.000000e+000
    endloop
  endfacet
  facet normal 0.000000e+000 1.000000e+000 0.000000e+000
    outer loop
      vertex   3.761211e+001 2.498038e+002 5.000000e+001
      vertex   -1.405129e+002 2.498038e+002 0.000000e+000
      vertex   -1.405129e+002 2.498038e+002 1.000000e+002
    endloop
  endfacet
  facet normal 0.000000e+000 -1.000000e+000 0.000000e+000
    outer loop
      vertex   5.948711e+001 -2.519619e+001 5.000000e+001
      vertex   -7.176289e+001 -2.519619e+001 1.000000e+002
      vertex   -7.176289e+001 -2.519619e+001 0.000000e+000
    endloop
  endfacet
  facet normal 0.000000e+000 1.000000e+000 0.000000e+000
    outer loop
      vertex   3.761211e+001 2.498038e+002 5.000000e+001
      vertex   2.157371e+002 2.498038e+002 1.000000e+002
      vertex   2.157371e+002 2.498038e+002 0.000000e+000
    endloop
  endfacet
  facet normal 1.000000e+000 0.000000e+000 0.000000e+000
    outer loop
      vertex   2.219871e+002 -2.189462e+002 5.000000e+001
      vertex   2.219871e+002 -2.501962e+002 0.000000e+000
      vertex   2.219871e+002 -1.876962e+002 0.000000e+000
    endloop
  endfacet
  facet normal 1.000000e+000 0.000000e+000 -0.000000e+000
    outer loop
      vertex   2.219871e+002 -2.189462e+002 5.000000e+001
      vertex   2.219871e+002 -1.876962e+002 0.000000e+000
      vertex   2.219871e+002 -1.876962e+002 1.000000e+002
    endloop
  endfacet
  facet normal 0.000000e+000 -1.000000e+000 0.000000e+000
    outer loop
      vertex   7.198711e+001 1.873038e+002 5.000000e+001
      vertex   2.157371e+002 1.873038e+002 0.000000e+000
      vertex   2.157371e+002 1.873038e+002 1.000000e+002
    endloop
  endfacet
  facet normal 1.000000e+000 0.000000e+000 0.000000e+000
    outer loop
      vertex   2.219871e+002 -2.189462e+002 5.000000e+001
      vertex   2.219871e+002 -2.501962e+002 1.000000e+002
      vertex   2.219871e+002 -2.501962e+002 0.000000e+000
    endloop
  endfacet
  facet normal -0.000000e+000 0.000000e+000 -1.000000e+000
    outer loop
      vertex   -7.176289e+001 -2.519619e+001 0.000000e+000
      vertex   -7.176289e+001 -1.876962e+002 0.000000e+000
      vertex   -1.405129e+002 -2.501962e+002 0.000000e+000
    endloop
  endfacet
  facet normal 0.000000e+000 -1.000000e+000 0.000000e+000
    outer loop
      vertex   7.198711e+001 1.873038e+002 5.000000e+001
      vertex   -7.176289e+001 1.873038e+002 1.000000e+002
      vertex   -7.176289e+001 1.873038e+002 0.000000e+000
    endloop
  endfacet
  facet normal 0.000000e+000 0.000000e+000 -1.000000e+000
    outer loop
      vertex   2.219871e+002 -2.501962e+002 0.000000e+000
      vertex   -1.405129e+002 -2.501962e+002 0.000000e+000
      vertex   -7.176289e+001 -1.876962e+002 0.000000e+000
    endloop
  endfacet
  facet normal 0.000000e+000 0.000000e+000 -1.000000e+000
    outer loop
      vertex   2.219871e+002 -1.876962e+002 0.000000e+000
      vertex   2.219871e+002 -2.501962e+002 0.000000e+000
      vertex   -7.176289e+001 -1.876962e+002 0.000000e+000
    endloop
  endfacet
  facet normal 1.000000e+000 0.000000e+000 0.000000e+000
    outer loop
      vertex   1.907371e+002 6.053812e+000 5.000000e+001
      vertex   1.907371e+002 -2.519619e+001 0.000000e+000
      vertex   1.907371e+002 3.730381e+001 0.000000e+000
    endloop
  endfacet
  facet normal -0.000000e+000 0.000000e+000 -1.000000e+000
    outer loop
      vertex   -7.176289e+001 3.730381e+001 0.000000e+000
      vertex   -7.176289e+001 -2.519619e+001 0.000000e+000
      vertex   -1.405129e+002 -2.501962e+002 0.000000e+000
    endloop
  endfacet
  facet normal -1.000000e+000 0.000000e+000 0.000000e+000
    outer loop
      vertex   -1.405129e+002 -1.961883e-001 5.000000e+001
      vertex   -1.405129e+002 2.498038e+002 0.000000e+000
      vertex   -1.405129e+002 -2.501962e+002 0.000000e+000
    endloop
  endfacet
  facet normal 0.000000e+000 1.000000e+000 0.000000e+000
    outer loop
      vertex   7.511211e+001 -1.876962e+002 5.000000e+001
      vertex   2.219871e+002 -1.876962e+002 0.000000e+000
      vertex   -7.176289e+001 -1.876962e+002 0.000000e+000
    endloop
  endfacet
  facet normal 0.000000e+000 -1.000000e+000 0.000000e+000
    outer loop
      vertex   5.948711e+001 -2.519619e+001 5.000000e+001
      vertex   -7.176289e+001 -2.519619e+001 0.000000e+000
      vertex   1.907371e+002 -2.519619e+001 0.000000e+000
    endloop
  endfacet
  facet normal 0.000000e+000 1.000000e+000 0.000000e+000
    outer loop
      vertex   7.511211e+001 -1.876962e+002 5.000000e+001
      vertex   -7.176289e+001 -1.876962e+002 0.000000e+000
      vertex   -7.176289e+001 -1.876962e+002 1.000000e+002
    endloop
  endfacet
  facet normal -0.000000e+000 0.000000e+000 -1.000000e+000
    outer loop
      vertex   -1.405129e+002 2.498038e+002 0.000000e+000
      vertex   -7.176289e+001 3.730381e+001 0.000000e+000
      vertex   -1.405129e+002 -2.501962e+002 0.000000e+000
    endloop
  endfacet
  facet normal 0.000000e+000 0.000000e+000 -1.000000e+000
    outer loop
      vertex   -7.176289e+001 1.873038e+002 0.000000e+000
      vertex   -7.176289e+001 3.730381e+001 0.000000e+000
      vertex   -1.405129e+002 2.498038e+002 0.000000e+000
    endloop
  endfacet
  facet normal 0.000000e+000 -1.000000e+000 0.000000e+000
    outer loop
      vertex   7.198711e+001 1.873038e+002 5.000000e+001
      vertex   -7.176289e+001 1.873038e+002 0.000000e+000
      vertex   2.157371e+002 1.873038e+002 0.000000e+000
    endloop
  endfacet
  facet normal 0.000000e+000 0.000000e+000 -1.000000e+000
    outer loop
      vertex   2.157371e+002 2.498038e+002 0.000000e+000
      vertex   2.157371e+002 1.873038e+002 0.000000e+000
      vertex   -1.405129e+002 2.498038e+002 0.000000e+000
    endloop
  endfacet
  facet normal 0.000000e+000 1.000000e+000 0.000000e+000
    outer loop
      vertex   7.511211e+001 -1.876962e+002 5.000000e+001
      vertex   2.219871e+002 -1.876962e+002 1.000000e+002
      vertex   2.219871e+002 -1.876962e+002 0.000000e+000
    endloop
  endfacet
  facet normal 0.000000e+000 0.000000e+000 -1.000000e+000
    outer loop
      vertex   1.907371e+002 -2.519619e+001 0.000000e+000
      vertex   -7.176289e+001 -2.519619e+001 0.000000e+000
      vertex   -7.176289e+001 3.730381e+001 0.000000e+000
    endloop
  endfacet
  facet normal 0.000000e+000 0.000000e+000 -1.000000e+000
    outer loop
      vertex   1.907371e+002 3.730381e+001 0.000000e+000
      vertex   1.907371e+002 -2.519619e+001 0.000000e+000
      vertex   -7.176289e+001 3.730381e+001 0.000000e+000
    endloop
  endfacet
  facet normal 0.000000e+000 0.000000e+000 -1.000000e+000
    outer loop
      vertex   2.157371e+002 1.873038e+002 0.000000e+000
      vertex   -7.176289e+001 1.873038e+002 0.000000e+000
      vertex   -1.405129e+002 2.498038e+002 0.000000e+000
    endloop
  endfacet
  facet normal -0.000000e+000 -1.000000e+000 0.000000e+000
    outer loop
      vertex   4.073711e+001 -2.501962e+002 5.000000e+001
      vertex   2.219871e+002 -2.501962e+002 1.000000e+002
      vertex   -1.405129e+002 -2.501962e+002 1.000000e+002
    endloop
  endfacet
  facet normal 1.000000e+000 0.000000e+000 0.000000e+000
    outer loop
      vertex   -7.176289e+001 -1.064462e+002 5.000000e+001
      vertex   -7.176289e+001 -2.519619e+001 1.000000e+002
      vertex   -7.176289e+001 -1.876962e+002 1.000000e+002
    endloop
  endfacet
  facet normal 1.000000e+000 0.000000e+000 0.000000e+000
    outer loop
      vertex   2.157371e+002 2.185538e+002 5.000000e+001
      vertex   2.157371e+002 2.498038e+002 1.000000e+002
      vertex   2.157371e+002 1.873038e+002 1.000000e+002
    endloop
  endfacet
  facet normal -0.000000e+000 1.000000e+000 0.000000e+000
    outer loop
      vertex   3.761211e+001 2.498038e+002 5.000000e+001
      vertex   -1.405129e+002 2.498038e+002 1.000000e+002
      vertex   2.157371e+002 2.498038e+002 1.000000e+002
    endloop
  endfacet
  facet normal 1.000000e+000 0.000000e+000 0.000000e+000
    outer loop
      vertex   2.219871e+002 -2.189462e+002 5.000000e+001
      vertex   2.219871e+002 -1.876962e+002 1.000000e+002
      vertex   2.219871e+002 -2.501962e+002 1.000000e+002
    endloop
  endfacet
  facet normal -0.000000e+000 -1.000000e+000 0.000000e+000
    outer loop
      vertex   5.948711e+001 -2.519619e+001 5.000000e+001
      vertex   1.907371e+002 -2.519619e+001 1.000000e+002
      vertex   -7.176289e+001 -2.519619e+001 1.000000e+002
    endloop
  endfacet
  facet normal 1.000000e+000 0.000000e+000 0.000000e+000
    outer loop
      vertex   -7.176289e+001 1.123038e+002 5.000000e+001
      vertex   -7.176289e+001 1.873038e+002 1.000000e+002
      vertex   -7.176289e+001 3.730381e+001 1.000000e+002
    endloop
  endfacet
  facet normal -0.000000e+000 1.000000e+000 0.000000e+000
    outer loop
      vertex   7.511211e+001 -1.876962e+002 5.000000e+001
      vertex   -7.176289e+001 -1.876962e+002 1.000000e+002
      vertex   2.219871e+002 -1.876962e+002 1.000000e+002
    endloop
  endfacet
  facet normal -0.000000e+000 -1.000000e+000 0.000000e+000
    outer loop
      vertex   7.198711e+001 1.873038e+002 5.000000e+001
      vertex   2.157371e+002 1.873038e+002 1.000000e+002
      vertex   -7.176289e+001 1.873038e+002 1.000000e+002
    endloop
  endfacet
  facet normal -0.000000e+000 1.000000e+000 0.000000e+000
    outer loop
      vertex   5.948711e+001 3.730381e+001 5.000000e+001
      vertex   -7.176289e+001 3.730381e+001 1.000000e+002
      vertex   1.907371e+002 3.730381e+001 1.000000e+002
    endloop
  endfacet
  facet normal -1.000000e+000 0.000000e+000 0.000000e+000
    outer loop
      vertex   -1.405129e+002 -1.961883e-001 5.000000e+001
      vertex   -1.405129e+002 -2.501962e+002 1.000000e+002
      vertex   -1.405129e+002 2.498038e+002 1.000000e+002
    endloop
  endfacet
  facet normal 1.000000e+000 0.000000e+000 0.000000e+000
    outer loop
      vertex   1.907371e+002 6.053812e+000 5.000000e+001
      vertex   1.907371e+002 3.730381e+001 1.000000e+002
      vertex   1.907371e+002 -2.519619e+001 1.000000e+002
    endloop
  endfacet
  facet normal 0.000000e+000 0.000000e+000 1.000000e+000
    outer loop
      vertex   -1.405129e+002 2.498038e+002 1.000000e+002
      vertex   -1.405129e+002 -2.501962e+002 1.000000e+002
      vertex   -7.176289e+001 3.730381e+001 1.000000e+002
    endloop
  endfacet
  facet normal 0.000000e+000 0.000000e+000 1.000000e+000
    outer loop
      vertex   2.157371e+002 1.873038e+002 1.000000e+002
      vertex   -1.405129e+002 2.498038e+002 1.000000e+002
      vertex   -7.176289e+001 1.873038e+002 1.000000e+002
    endloop
  endfacet
  facet normal -0.000000e+000 0.000000e+000 1.000000e+000
    outer loop
      vertex   1.907371e+002 3.730381e+001 1.000000e+002
      vertex   -7.176289e+001 3.730381e+001 1.000000e+002
      vertex   1.907371e+002 -2.519619e+001 1.000000e+002
    endloop
  endfacet
  facet normal 0.000000e+000 0.000000e+000 1.000000e+000
    outer loop
      vertex   1.907371e+002 -2.519619e+001 1.000000e+002
      vertex   -7.176289e+001 3.730381e+001 1.000000e+002
      vertex   -7.176289e+001 -2.519619e+001 1.000000e+002
    endloop
  endfacet
  facet normal 0.000000e+000 0.000000e+000 1.000000e+000
    outer loop
      vertex   -7.176289e+001 1.873038e+002 1.000000e+002
      vertex   -1.405129e+002 2.498038e+002 1.000000e+002
      vertex   -7.176289e+001 3.730381e+001 1.000000e+002
    endloop
  endfacet
  facet normal -0.000000e+000 0.000000e+000 1.000000e+000
    outer loop
      vertex   2.157371e+002 2.498038e+002 1.000000e+002
      vertex   -1.405129e+002 2.498038e+002 1.000000e+002
      vertex   2.157371e+002 1.873038e+002 1.000000e+002
    endloop
  endfacet
  facet normal -0.000000e+000 0.000000e+000 1.000000e+000
    outer loop
      vertex   2.219871e+002 -1.876962e+002 1.000000e+002
      vertex   -7.176289e+001 -1.876962e+002 1.000000e+002
      vertex   2.219871e+002 -2.501962e+002 1.000000e+002
    endloop
  endfacet
  facet normal 0.000000e+000 0.000000e+000 1.000000e+000
    outer loop
      vertex   2.219871e+002 -2.501962e+002 1.000000e+002
      vertex   -7.176289e+001 -1.876962e+002 1.000000e+002
      vertex   -1.405129e+002 -2.501962e+002 1.000000e+002
    endloop
  endfacet
  facet normal 0.000000e+000 0.000000e+000 1.000000e+000
    outer loop
      vertex   -7.176289e+001 3.730381e+001 1.000000e+002
      vertex   -1.405129e+002 -2.501962e+002 1.000000e+002
      vertex   -7.176289e+001 -2.519619e+001 1.000000e+002
    endloop
  endfacet
  facet normal 0.000000e+000 0.000000e+000 1.000000e+000
    outer loop
      vertex   -7.176289e+001 -2.519619e+001 1.000000e+002
      vertex   -1.405129e+002 -2.501962e+002 1.000000e+002
      vertex   -7.176289e+001 -1.876962e+002 1.000000e+002
    endloop
  endfacet
endsolid
