solid ascii
  facet normal 1.000000e+000 0.000000e+000 0.000000e+000
    outer loop
      vertex   2.268973e+002 1.613839e+002 5.000000e+001
      vertex   2.268973e+002 1.301339e+002 0.000000e+000
      vertex   2.268973e+002 1.926339e+002 0.000000e+000
    endloop
  endfacet
  facet normal 1.000000e+000 0.000000e+000 -0.000000e+000
    outer loop
      vertex   -4.185268e+001 -1.948661e+002 5.000000e+001
      vertex   -4.185268e+001 -8.236606e+001 0.000000e+000
      vertex   -4.185268e+001 -8.236606e+001 1.000000e+002
    endloop
  endfacet
  facet normal 1.000000e+000 0.000000e+000 -0.000000e+000
    outer loop
      vertex   2.268973e+002 1.613839e+002 5.000000e+001
      vertex   2.268973e+002 1.926339e+002 0.000000e+000
      vertex   2.268973e+002 1.926339e+002 1.000000e+002
    endloop
  endfacet
  facet normal 1.000000e+000 0.000000e+000 0.000000e+000
    outer loop
      vertex   -4.185268e+001 -1.948661e+002 5.000000e+001
      vertex   -4.185268e+001 -3.073661e+002 1.000000e+002
      vertex   -4.185268e+001 -3.073661e+002 0.000000e+000
    endloop
  endfacet
  facet normal 0.000000e+000 -1.000000e+000 0.000000e+000
    outer loop
      vertex   9.252232e+001 1.301339e+002 5.000000e+001
      vertex   -4.185268e+001 1.301339e+002 0.000000e+000
      vertex   2.268973e+002 1.301339e+002 0.000000e+000
    endloop
  endfacet
  facet normal 0.000000e+000 -1.000000e+000 0.000000e+000
    outer loop
      vertex   9.252232e+001 1.301339e+002 5.000000e+001
      vertex   2.268973e+002 1.301339e+002 0.000000e+000
      vertex   2.268973e+002 1.301339e+002 1.000000e+002
    endloop
  endfacet
  facet normal 1.000000e+000 0.000000e+000 0.000000e+000
    outer loop
      vertex   2.268973e+002 1.613839e+002 5.000000e+001
      vertex   2.268973e+002 1.301339e+002 1.000000e+002
      vertex   2.268973e+002 1.301339e+002 0.000000e+000
    endloop
  endfacet
  facet normal 0.000000e+000 -1.000000e+000 0.000000e+000
    outer loop
      vertex   9.252232e+001 1.301339e+002 5.000000e+001
      vertex   -4.185268e+001 1.301339e+002 1.000000e+002
      vertex   -4.185268e+001 1.301339e+002 0.000000e+000
    endloop
  endfacet
  facet normal 0.000000e+000 1.000000e+000 0.000000e+000
    outer loop
      vertex   7.377232e+001 -1.986606e+001 5.000000e+001
      vertex   1.893973e+002 -1.986606e+001 0.000000e+000
      vertex   -4.185268e+001 -1.986606e+001 0.000000e+000
    endloop
  endfacet
  facet normal 0.000000e+000 1.000000e+000 0.000000e+000
    outer loop
      vertex   7.377232e+001 -1.986606e+001 5.000000e+001
      vertex   -4.185268e+001 -1.986606e+001 0.000000e+000
      vertex   -4.185268e+001 -1.986606e+001 1.000000e+002
    endloop
  endfacet
  facet normal -1.000000e+000 0.000000e+000 0.000000e+000
    outer loop
      vertex   -1.106027e+002 -5.736606e+001 5.000000e+001
      vertex   -1.106027e+002 -3.073661e+002 0.000000e+000
      vertex   -1.106027e+002 -3.073661e+002 1.000000e+002
    endloop
  endfacet
  facet normal 0.000000e+000 1.000000e+000 0.000000e+000
    outer loop
      vertex   7.377232e+001 -1.986606e+001 5.000000e+001
      vertex   1.893973e+002 -1.986606e+001 1.000000e+002
      vertex   1.893973e+002 -1.986606e+001 0.000000e+000
    endloop
  endfacet
  facet normal 0.000000e+000 -1.000000e+000 0.000000e+000
    outer loop
      vertex   7.377232e+001 -8.236606e+001 5.000000e+001
      vertex   -4.185268e+001 -8.236606e+001 0.000000e+000
      vertex   1.893973e+002 -8.236606e+001 0.000000e+000
    endloop
  endfacet
  facet normal 0.000000e+000 -1.000000e+000 0.000000e+000
    outer loop
      vertex   7.377232e+001 -8.236606e+001 5.000000e+001
      vertex   1.893973e+002 -8.236606e+001 0.000000e+000
      vertex   1.893973e+002 -8.236606e+001 1.000000e+002
    endloop
  endfacet
  facet normal -1.000000e+000 0.000000e+000 -0.000000e+000
    outer loop
      vertex   -1.106027e+002 -5.736606e+001 5.000000e+001
      vertex   -1.106027e+002 1.926339e+002 1.000000e+002
      vertex   -1.106027e+002 1.926339e+002 0.000000e+000
    endloop
  endfacet
  facet normal 0.000000e+000 -1.000000e+000 0.000000e+000
    outer loop
      vertex   7.377232e+001 -8.236606e+001 5.000000e+001
      vertex   -4.185268e+001 -8.236606e+001 1.000000e+002
      vertex   -4.185268e+001 -8.236606e+001 0.000000e+000
    endloop
  endfacet
  facet normal 1.000000e+000 0.000000e+000 0.000000e+000
    outer loop
      vertex   1.893973e+002 -5.111606e+001 5.000000e+001
      vertex   1.893973e+002 -8.236606e+001 0.000000e+000
      vertex   1.893973e+002 -1.986606e+001 0.000000e+000
    endloop
  endfacet
  facet normal 1.000000e+000 0.000000e+000 -0.000000e+000
    outer loop
      vertex   1.893973e+002 -5.111606e+001 5.000000e+001
      vertex   1.893973e+002 -1.986606e+001 0.000000e+000
      vertex   1.893973e+002 -1.986606e+001 1.000000e+002
    endloop
  endfacet
  facet normal 1.000000e+000 0.000000e+000 -0.000000e+000
    outer loop
      vertex   -4.185268e+001 5.513394e+001 5.000000e+001
      vertex   -4.185268e+001 1.301339e+002 0.000000e+000
      vertex   -4.185268e+001 1.301339e+002 1.000000e+002
    endloop
  endfacet
  facet normal 1.000000e+000 0.000000e+000 0.000000e+000
    outer loop
      vertex   1.893973e+002 -5.111606e+001 5.000000e+001
      vertex   1.893973e+002 -8.236606e+001 1.000000e+002
      vertex   1.893973e+002 -8.236606e+001 0.000000e+000
    endloop
  endfacet
  facet normal 0.000000e+000 -1.000000e+000 0.000000e+000
    outer loop
      vertex   -7.622768e+001 -3.073661e+002 5.000000e+001
      vertex   -1.106027e+002 -3.073661e+002 0.000000e+000
      vertex   -4.185268e+001 -3.073661e+002 0.000000e+000
    endloop
  endfacet
  facet normal 0.000000e+000 -1.000000e+000 0.000000e+000
    outer loop
      vertex   -7.622768e+001 -3.073661e+002 5.000000e+001
      vertex   -4.185268e+001 -3.073661e+002 0.000000e+000
      vertex   -4.185268e+001 -3.073661e+002 1.000000e+002
    endloop
  endfacet
  facet normal 1.000000e+000 0.000000e+000 0.000000e+000
    outer loop
      vertex   -4.185268e+001 5.513394e+001 5.000000e+001
      vertex   -4.185268e+001 -1.986606e+001 1.000000e+002
      vertex   -4.185268e+001 -1.986606e+001 0.000000e+000
    endloop
  endfacet
  facet normal 0.000000e+000 -1.000000e+000 0.000000e+000
    outer loop
      vertex   -7.622768e+001 -3.073661e+002 5.000000e+001
      vertex   -1.106027e+002 -3.073661e+002 1.000000e+002
      vertex   -1.106027e+002 -3.073661e+002 0.000000e+000
    endloop
  endfacet
  facet normal 0.000000e+000 1.000000e+000 0.000000e+000
    outer loop
      vertex   5.814732e+001 1.926339e+002 5.000000e+001
      vertex   2.268973e+002 1.926339e+002 0.000000e+000
      vertex   -1.106027e+002 1.926339e+002 0.000000e+000
    endloop
  endfacet
  facet normal 0.000000e+000 1.000000e+000 0.000000e+000
    outer loop
      vertex   5.814732e+001 1.926339e+002 5.000000e+001
      vertex   -1.106027e+002 1.926339e+002 0.000000e+000
      vertex   -1.106027e+002 1.926339e+002 1.000000e+002
    endloop
  endfacet
  facet normal 0.000000e+000 0.000000e+000 -1.000000e+000
    outer loop
      vertex   2.268973e+002 1.926339e+002 0.000000e+000
      vertex   2.268973e+002 1.301339e+002 0.000000e+000
      vertex   -1.106027e+002 1.926339e+002 0.000000e+000
    endloop
  endfacet
  facet normal 0.000000e+000 1.000000e+000 0.000000e+000
    outer loop
      vertex   5.814732e+001 1.926339e+002 5.000000e+001
      vertex   2.268973e+002 1.926339e+002 1.000000e+002
      vertex   2.268973e+002 1.926339e+002 0.000000e+000
    endloop
  endfacet
  facet normal 1.000000e+000 0.000000e+000 0.000000e+000
    outer loop
      vertex   -4.185268e+001 -1.948661e+002 5.000000e+001
      vertex   -4.185268e+001 -3.073661e+002 0.000000e+000
      vertex   -4.185268e+001 -8.236606e+001 0.000000e+000
    endloop
  endfacet
  facet normal -0.000000e+000 0.000000e+000 -1.000000e+000
    outer loop
      vertex   -4.185268e+001 -1.986606e+001 0.000000e+000
      vertex   -4.185268e+001 -8.236606e+001 0.000000e+000
      vertex   -1.106027e+002 -3.073661e+002 0.000000e+000
    endloop
  endfacet
  facet normal 0.000000e+000 0.000000e+000 -1.000000e+000
    outer loop
      vertex   1.893973e+002 -8.236606e+001 0.000000e+000
      vertex   -4.185268e+001 -8.236606e+001 0.000000e+000
      vertex   -4.185268e+001 -1.986606e+001 0.000000e+000
    endloop
  endfacet
  facet normal 0.000000e+000 0.000000e+000 -1.000000e+000
    outer loop
      vertex   -4.185268e+001 -8.236606e+001 0.000000e+000
      vertex   -4.185268e+001 -3.073661e+002 0.000000e+000
      vertex   -1.106027e+002 -3.073661e+002 0.000000e+000
    endloop
  endfacet
  facet normal -1.000000e+000 0.000000e+000 0.000000e+000
    outer loop
      vertex   -1.106027e+002 -5.736606e+001 5.000000e+001
      vertex   -1.106027e+002 1.926339e+002 0.000000e+000
      vertex   -1.106027e+002 -3.073661e+002 0.000000e+000
    endloop
  endfacet
  facet normal -0.000000e+000 0.000000e+000 -1.000000e+000
    outer loop
      vertex   -4.185268e+001 1.301339e+002 0.000000e+000
      vertex   -4.185268e+001 -1.986606e+001 0.000000e+000
      vertex   -1.106027e+002 -3.073661e+002 0.000000e+000
    endloop
  endfacet
  facet normal -0.000000e+000 0.000000e+000 -1.000000e+000
    outer loop
      vertex   -1.106027e+002 1.926339e+002 0.000000e+000
      vertex   -4.185268e+001 1.301339e+002 0.000000e+000
      vertex   -1.106027e+002 -3.073661e+002 0.000000e+000
    endloop
  endfacet
  facet normal 1.000000e+000 0.000000e+000 0.000000e+000
    outer loop
      vertex   -4.185268e+001 5.513394e+001 5.000000e+001
      vertex   -4.185268e+001 -1.986606e+001 0.000000e+000
      vertex   -4.185268e+001 1.301339e+002 0.000000e+000
    endloop
  endfacet
  facet normal 0.000000e+000 0.000000e+000 -1.000000e+000
    outer loop
      vertex   2.268973e+002 1.301339e+002 0.000000e+000
      vertex   -4.185268e+001 1.301339e+002 0.000000e+000
      vertex   -1.106027e+002 1.926339e+002 0.000000e+000
    endloop
  endfacet
  facet normal 0.000000e+000 0.000000e+000 -1.000000e+000
    outer loop
      vertex   1.893973e+002 -1.986606e+001 0.000000e+000
      vertex   1.893973e+002 -8.236606e+001 0.000000e+000
      vertex   -4.185268e+001 -1.986606e+001 0.000000e+000
    endloop
  endfacet
  facet normal -0.000000e+000 1.000000e+000 0.000000e+000
    outer loop
      vertex   7.377232e+001 -1.986606e+001 5.000000e+001
      vertex   -4.185268e+001 -1.986606e+001 1.000000e+002
      vertex   1.893973e+002 -1.986606e+001 1.000000e+002
    endloop
  endfacet
  facet normal -1.000000e+000 0.000000e+000 0.000000e+000
    outer loop
      vertex   -1.106027e+002 -5.736606e+001 5.000000e+001
      vertex   -1.106027e+002 -3.073661e+002 1.000000e+002
      vertex   -1.106027e+002 1.926339e+002 1.000000e+002
    endloop
  endfacet
  facet normal 1.000000e+000 0.000000e+000 0.000000e+000
    outer loop
      vertex   -4.185268e+001 -1.948661e+002 5.000000e+001
      vertex   -4.185268e+001 -8.236606e+001 1.000000e+002
      vertex   -4.185268e+001 -3.073661e+002 1.000000e+002
    endloop
  endfacet
  facet normal 1.000000e+000 0.000000e+000 0.000000e+000
    outer loop
      vertex   2.268973e+002 1.613839e+002 5.000000e+001
      vertex   2.268973e+002 1.926339e+002 1.000000e+002
      vertex   2.268973e+002 1.301339e+002 1.000000e+002
    endloop
  endfacet
  facet normal -0.000000e+000 -1.000000e+000 0.000000e+000
    outer loop
      vertex   7.377232e+001 -8.236606e+001 5.000000e+001
      vertex   1.893973e+002 -8.236606e+001 1.000000e+002
      vertex   -4.185268e+001 -8.236606e+001 1.000000e+002
    endloop
  endfacet
  facet normal -0.000000e+000 -1.000000e+000 0.000000e+000
    outer loop
      vertex   9.252232e+001 1.301339e+002 5.000000e+001
      vertex   2.268973e+002 1.301339e+002 1.000000e+002
      vertex   -4.185268e+001 1.301339e+002 1.000000e+002
    endloop
  endfacet
  facet normal -0.000000e+000 -1.000000e+000 0.000000e+000
    outer loop
      vertex   -7.622768e+001 -3.073661e+002 5.000000e+001
      vertex   -4.185268e+001 -3.073661e+002 1.000000e+002
      vertex   -1.106027e+002 -3.073661e+002 1.000000e+002
    endloop
  endfacet
  facet normal 1.000000e+000 0.000000e+000 0.000000e+000
    outer loop
      vertex   1.893973e+002 -5.111606e+001 5.000000e+001
      vertex   1.893973e+002 -1.986606e+001 1.000000e+002
      vertex   1.893973e+002 -8.236606e+001 1.000000e+002
    endloop
  endfacet
  facet normal 1.000000e+000 0.000000e+000 0.000000e+000
    outer loop
      vertex   -4.185268e+001 5.513394e+001 5.000000e+001
      vertex   -4.185268e+001 1.301339e+002 1.000000e+002
      vertex   -4.185268e+001 -1.986606e+001 1.000000e+002
    endloop
  endfacet
  facet normal -0.000000e+000 1.000000e+000 0.000000e+000
    outer loop
      vertex   5.814732e+001 1.926339e+002 5.000000e+001
      vertex   -1.106027e+002 1.926339e+002 1.000000e+002
      vertex   2.268973e+002 1.926339e+002 1.000000e+002
    endloop
  endfacet
  facet normal 0.000000e+000 0.000000e+000 1.000000e+000
    outer loop
      vertex   2.268973e+002 1.301339e+002 1.000000e+002
      vertex   -1.106027e+002 1.926339e+002 1.000000e+002
      vertex   -4.185268e+001 1.301339e+002 1.000000e+002
    endloop
  endfacet
  facet normal -0.000000e+000 0.000000e+000 1.000000e+000
    outer loop
      vertex   1.893973e+002 -1.986606e+001 1.000000e+002
      vertex   -4.185268e+001 -1.986606e+001 1.000000e+002
      vertex   1.893973e+002 -8.236606e+001 1.000000e+002
    endloop
  endfacet
  facet normal 0.000000e+000 0.000000e+000 1.000000e+000
    outer loop
      vertex   -1.106027e+002 1.926339e+002 1.000000e+002
      vertex   -1.106027e+002 -3.073661e+002 1.000000e+002
      vertex   -4.185268e+001 1.301339e+002 1.000000e+002
    endloop
  endfacet
  facet normal 0.000000e+000 0.000000e+000 1.000000e+000
    outer loop
      vertex   -4.185268e+001 1.301339e+002 1.000000e+002
      vertex   -1.106027e+002 -3.073661e+002 1.000000e+002
      vertex   -4.185268e+001 -1.986606e+001 1.000000e+002
    endloop
  endfacet
  facet normal 0.000000e+000 0.000000e+000 1.000000e+000
    outer loop
      vertex   1.893973e+002 -8.236606e+001 1.000000e+002
      vertex   -4.185268e+001 -1.986606e+001 1.000000e+002
      vertex   -4.185268e+001 -8.236606e+001 1.000000e+002
    endloop
  endfacet
  facet normal -0.000000e+000 0.000000e+000 1.000000e+000
    outer loop
      vertex   2.268973e+002 1.926339e+002 1.000000e+002
      vertex   -1.106027e+002 1.926339e+002 1.000000e+002
      vertex   2.268973e+002 1.301339e+002 1.000000e+002
    endloop
  endfacet
  facet normal 0.000000e+000 0.000000e+000 1.000000e+000
    outer loop
      vertex   -4.185268e+001 -8.236606e+001 1.000000e+002
      vertex   -1.106027e+002 -3.073661e+002 1.000000e+002
      vertex   -4.185268e+001 -3.073661e+002 1.000000e+002
    endloop
  endfacet
  facet normal 0.000000e+000 0.000000e+000 1.000000e+000
    outer loop
      vertex   -4.185268e+001 -1.986606e+001 1.000000e+002
      vertex   -1.106027e+002 -3.073661e+002 1.000000e+002
      vertex   -4.185268e+001 -8.236606e+001 1.000000e+002
    endloop
  endfacet
endsolid
