solid ascii
  facet normal 1.000000e+000 0.000000e+000 0.000000e+000
    outer loop
      vertex   -1.281250e+002 1.425691e+002 5.000000e+001
      vertex   -1.281250e+002 3.631912e+001 0.000000e+000
      vertex   -1.281250e+002 2.488192e+002 0.000000e+000
    endloop
  endfacet
  facet normal -1.000000e+000 0.000000e+000 0.000000e+000
    outer loop
      vertex   1.281250e+002 1.425691e+002 5.000000e+001
      vertex   1.281250e+002 3.631912e+001 0.000000e+000
      vertex   1.281250e+002 3.631912e+001 1.000000e+002
    endloop
  endfacet
  facet normal 1.000000e+000 0.000000e+000 -0.000000e+000
    outer loop
      vertex   -1.281250e+002 1.425691e+002 5.000000e+001
      vertex   -1.281250e+002 2.488192e+002 0.000000e+000
      vertex   -1.281250e+002 2.488192e+002 1.000000e+002
    endloop
  endfacet
  facet normal -1.000000e+000 0.000000e+000 -0.000000e+000
    outer loop
      vertex   1.281250e+002 1.425691e+002 5.000000e+001
      vertex   1.281250e+002 2.488192e+002 1.000000e+002
      vertex   1.281250e+002 2.488192e+002 0.000000e+000
    endloop
  endfacet
  facet normal 0.000000e+000 -1.000000e+000 0.000000e+000
    outer loop
      vertex   1.625000e+002 -2.511809e+002 5.000000e+001
      vertex   1.281250e+002 -2.511809e+002 0.000000e+000
      vertex   1.968750e+002 -2.511809e+002 0.000000e+000
    endloop
  endfacet
  facet normal 0.000000e+000 -1.000000e+000 0.000000e+000
    outer loop
      vertex   1.625000e+002 -2.511809e+002 5.000000e+001
      vertex   1.968750e+002 -2.511809e+002 0.000000e+000
      vertex   1.968750e+002 -2.511809e+002 1.000000e+002
    endloop
  endfacet
  facet normal 1.000000e+000 0.000000e+000 0.000000e+000
    outer loop
      vertex   -1.281250e+002 1.425691e+002 5.000000e+001
      vertex   -1.281250e+002 3.631912e+001 1.000000e+002
      vertex   -1.281250e+002 3.631912e+001 0.000000e+000
    endloop
  endfacet
  facet normal 0.000000e+000 -1.000000e+000 0.000000e+000
    outer loop
      vertex   1.625000e+002 -2.511809e+002 5.000000e+001
      vertex   1.281250e+002 -2.511809e+002 1.000000e+002
      vertex   1.281250e+002 -2.511809e+002 0.000000e+000
    endloop
  endfacet
  facet normal 0.000000e+000 -1.000000e+000 0.000000e+000
    outer loop
      vertex   -1.625000e+002 -2.511809e+002 5.000000e+001
      vertex   -1.968750e+002 -2.511809e+002 0.000000e+000
      vertex   -1.281250e+002 -2.511809e+002 0.000000e+000
    endloop
  endfacet
  facet normal 0.000000e+000 -1.000000e+000 0.000000e+000
    outer loop
      vertex   -1.625000e+002 -2.511809e+002 5.000000e+001
      vertex   -1.281250e+002 -2.511809e+002 0.000000e+000
      vertex   -1.281250e+002 -2.511809e+002 1.000000e+002
    endloop
  endfacet
  facet normal 0.000000e+000 -1.000000e+000 0.000000e+000
    outer loop
      vertex   2.887891e-006 -2.618088e+001 5.000000e+001
      vertex   1.281250e+002 -2.618088e+001 0.000000e+000
      vertex   1.281250e+002 -2.618088e+001 1.000000e+002
    endloop
  endfacet
  facet normal 0.000000e+000 -1.000000e+000 0.000000e+000
    outer loop
      vertex   -1.625000e+002 -2.511809e+002 5.000000e+001
      vertex   -1.968750e+002 -2.511809e+002 1.000000e+002
      vertex   -1.968750e+002 -2.511809e+002 0.000000e+000
    endloop
  endfacet
  facet normal -1.000000e+000 0.000000e+000 0.000000e+000
    outer loop
      vertex   1.281250e+002 -1.386809e+002 5.000000e+001
      vertex   1.281250e+002 -2.618088e+001 0.000000e+000
      vertex   1.281250e+002 -2.511809e+002 0.000000e+000
    endloop
  endfacet
  facet normal -1.000000e+000 0.000000e+000 0.000000e+000
    outer loop
      vertex   1.281250e+002 -1.386809e+002 5.000000e+001
      vertex   1.281250e+002 -2.511809e+002 0.000000e+000
      vertex   1.281250e+002 -2.511809e+002 1.000000e+002
    endloop
  endfacet
  facet normal 0.000000e+000 -1.000000e+000 0.000000e+000
    outer loop
      vertex   2.887891e-006 -2.618088e+001 5.000000e+001
      vertex   -1.281250e+002 -2.618088e+001 1.000000e+002
      vertex   -1.281250e+002 -2.618088e+001 0.000000e+000
    endloop
  endfacet
  facet normal -1.000000e+000 0.000000e+000 -0.000000e+000
    outer loop
      vertex   1.281250e+002 -1.386809e+002 5.000000e+001
      vertex   1.281250e+002 -2.618088e+001 1.000000e+002
      vertex   1.281250e+002 -2.618088e+001 0.000000e+000
    endloop
  endfacet
  facet normal 0.000000e+000 1.000000e+000 0.000000e+000
    outer loop
      vertex   1.625000e+002 2.488192e+002 5.000000e+001
      vertex   1.968750e+002 2.488192e+002 0.000000e+000
      vertex   1.281250e+002 2.488192e+002 0.000000e+000
    endloop
  endfacet
  facet normal 0.000000e+000 1.000000e+000 0.000000e+000
    outer loop
      vertex   1.625000e+002 2.488192e+002 5.000000e+001
      vertex   1.281250e+002 2.488192e+002 0.000000e+000
      vertex   1.281250e+002 2.488192e+002 1.000000e+002
    endloop
  endfacet
  facet normal 0.000000e+000 1.000000e+000 0.000000e+000
    outer loop
      vertex   2.887891e-006 3.631912e+001 5.000000e+001
      vertex   -1.281250e+002 3.631912e+001 0.000000e+000
      vertex   -1.281250e+002 3.631912e+001 1.000000e+002
    endloop
  endfacet
  facet normal 0.000000e+000 1.000000e+000 0.000000e+000
    outer loop
      vertex   1.625000e+002 2.488192e+002 5.000000e+001
      vertex   1.968750e+002 2.488192e+002 1.000000e+002
      vertex   1.968750e+002 2.488192e+002 0.000000e+000
    endloop
  endfacet
  facet normal -1.000000e+000 0.000000e+000 0.000000e+000
    outer loop
      vertex   -1.968750e+002 -1.180882e+000 5.000000e+001
      vertex   -1.968750e+002 2.488192e+002 0.000000e+000
      vertex   -1.968750e+002 -2.511809e+002 0.000000e+000
    endloop
  endfacet
  facet normal -1.000000e+000 0.000000e+000 0.000000e+000
    outer loop
      vertex   -1.968750e+002 -1.180882e+000 5.000000e+001
      vertex   -1.968750e+002 -2.511809e+002 0.000000e+000
      vertex   -1.968750e+002 -2.511809e+002 1.000000e+002
    endloop
  endfacet
  facet normal 0.000000e+000 1.000000e+000 0.000000e+000
    outer loop
      vertex   2.887891e-006 3.631912e+001 5.000000e+001
      vertex   1.281250e+002 3.631912e+001 1.000000e+002
      vertex   1.281250e+002 3.631912e+001 0.000000e+000
    endloop
  endfacet
  facet normal -1.000000e+000 0.000000e+000 -0.000000e+000
    outer loop
      vertex   -1.968750e+002 -1.180882e+000 5.000000e+001
      vertex   -1.968750e+002 2.488192e+002 1.000000e+002
      vertex   -1.968750e+002 2.488192e+002 0.000000e+000
    endloop
  endfacet
  facet normal 0.000000e+000 1.000000e+000 0.000000e+000
    outer loop
      vertex   -1.625000e+002 2.488192e+002 5.000000e+001
      vertex   -1.281250e+002 2.488192e+002 0.000000e+000
      vertex   -1.968750e+002 2.488192e+002 0.000000e+000
    endloop
  endfacet
  facet normal 0.000000e+000 1.000000e+000 0.000000e+000
    outer loop
      vertex   -1.625000e+002 2.488192e+002 5.000000e+001
      vertex   -1.968750e+002 2.488192e+002 0.000000e+000
      vertex   -1.968750e+002 2.488192e+002 1.000000e+002
    endloop
  endfacet
  facet normal 1.000000e+000 0.000000e+000 -0.000000e+000
    outer loop
      vertex   1.968750e+002 -1.180882e+000 5.000000e+001
      vertex   1.968750e+002 2.488192e+002 0.000000e+000
      vertex   1.968750e+002 2.488192e+002 1.000000e+002
    endloop
  endfacet
  facet normal 0.000000e+000 1.000000e+000 0.000000e+000
    outer loop
      vertex   -1.625000e+002 2.488192e+002 5.000000e+001
      vertex   -1.281250e+002 2.488192e+002 1.000000e+002
      vertex   -1.281250e+002 2.488192e+002 0.000000e+000
    endloop
  endfacet
  facet normal 0.000000e+000 0.000000e+000 -1.000000e+000
    outer loop
      vertex   -1.281250e+002 -2.618088e+001 0.000000e+000
      vertex   -1.281250e+002 -2.511809e+002 0.000000e+000
      vertex   -1.968750e+002 -2.511809e+002 0.000000e+000
    endloop
  endfacet
  facet normal 1.000000e+000 0.000000e+000 0.000000e+000
    outer loop
      vertex   1.968750e+002 -1.180882e+000 5.000000e+001
      vertex   1.968750e+002 -2.511809e+002 1.000000e+002
      vertex   1.968750e+002 -2.511809e+002 0.000000e+000
    endloop
  endfacet
  facet normal 0.000000e+000 0.000000e+000 -1.000000e+000
    outer loop
      vertex   1.281250e+002 -2.618088e+001 0.000000e+000
      vertex   -1.281250e+002 -2.618088e+001 0.000000e+000
      vertex   -1.281250e+002 3.631912e+001 0.000000e+000
    endloop
  endfacet
  facet normal 0.000000e+000 0.000000e+000 -1.000000e+000
    outer loop
      vertex   1.281250e+002 -2.618088e+001 0.000000e+000
      vertex   1.968750e+002 -2.511809e+002 0.000000e+000
      vertex   1.281250e+002 -2.511809e+002 0.000000e+000
    endloop
  endfacet
  facet normal 0.000000e+000 -1.000000e+000 0.000000e+000
    outer loop
      vertex   2.887891e-006 -2.618088e+001 5.000000e+001
      vertex   -1.281250e+002 -2.618088e+001 0.000000e+000
      vertex   1.281250e+002 -2.618088e+001 0.000000e+000
    endloop
  endfacet
  facet normal -0.000000e+000 0.000000e+000 -1.000000e+000
    outer loop
      vertex   -1.281250e+002 3.631912e+001 0.000000e+000
      vertex   -1.281250e+002 -2.618088e+001 0.000000e+000
      vertex   -1.968750e+002 -2.511809e+002 0.000000e+000
    endloop
  endfacet
  facet normal -1.000000e+000 0.000000e+000 0.000000e+000
    outer loop
      vertex   1.281250e+002 1.425691e+002 5.000000e+001
      vertex   1.281250e+002 2.488192e+002 0.000000e+000
      vertex   1.281250e+002 3.631912e+001 0.000000e+000
    endloop
  endfacet
  facet normal 1.000000e+000 0.000000e+000 0.000000e+000
    outer loop
      vertex   -1.281250e+002 -1.386809e+002 5.000000e+001
      vertex   -1.281250e+002 -2.511809e+002 0.000000e+000
      vertex   -1.281250e+002 -2.618088e+001 0.000000e+000
    endloop
  endfacet
  facet normal 0.000000e+000 1.000000e+000 0.000000e+000
    outer loop
      vertex   2.887891e-006 3.631912e+001 5.000000e+001
      vertex   1.281250e+002 3.631912e+001 0.000000e+000
      vertex   -1.281250e+002 3.631912e+001 0.000000e+000
    endloop
  endfacet
  facet normal 1.000000e+000 0.000000e+000 -0.000000e+000
    outer loop
      vertex   -1.281250e+002 -1.386809e+002 5.000000e+001
      vertex   -1.281250e+002 -2.618088e+001 0.000000e+000
      vertex   -1.281250e+002 -2.618088e+001 1.000000e+002
    endloop
  endfacet
  facet normal -0.000000e+000 0.000000e+000 -1.000000e+000
    outer loop
      vertex   -1.968750e+002 2.488192e+002 0.000000e+000
      vertex   -1.281250e+002 3.631912e+001 0.000000e+000
      vertex   -1.968750e+002 -2.511809e+002 0.000000e+000
    endloop
  endfacet
  facet normal 0.000000e+000 0.000000e+000 -1.000000e+000
    outer loop
      vertex   -1.281250e+002 2.488192e+002 0.000000e+000
      vertex   -1.281250e+002 3.631912e+001 0.000000e+000
      vertex   -1.968750e+002 2.488192e+002 0.000000e+000
    endloop
  endfacet
  facet normal 1.000000e+000 0.000000e+000 0.000000e+000
    outer loop
      vertex   1.968750e+002 -1.180882e+000 5.000000e+001
      vertex   1.968750e+002 -2.511809e+002 0.000000e+000
      vertex   1.968750e+002 2.488192e+002 0.000000e+000
    endloop
  endfacet
  facet normal 0.000000e+000 0.000000e+000 -1.000000e+000
    outer loop
      vertex   1.968750e+002 2.488192e+002 0.000000e+000
      vertex   1.968750e+002 -2.511809e+002 0.000000e+000
      vertex   1.281250e+002 2.488192e+002 0.000000e+000
    endloop
  endfacet
  facet normal 1.000000e+000 0.000000e+000 0.000000e+000
    outer loop
      vertex   -1.281250e+002 -1.386809e+002 5.000000e+001
      vertex   -1.281250e+002 -2.511809e+002 1.000000e+002
      vertex   -1.281250e+002 -2.511809e+002 0.000000e+000
    endloop
  endfacet
  facet normal 0.000000e+000 0.000000e+000 -1.000000e+000
    outer loop
      vertex   1.281250e+002 3.631912e+001 0.000000e+000
      vertex   1.968750e+002 -2.511809e+002 0.000000e+000
      vertex   1.281250e+002 -2.618088e+001 0.000000e+000
    endloop
  endfacet
  facet normal 0.000000e+000 0.000000e+000 -1.000000e+000
    outer loop
      vertex   1.281250e+002 3.631912e+001 0.000000e+000
      vertex   1.281250e+002 -2.618088e+001 0.000000e+000
      vertex   -1.281250e+002 3.631912e+001 0.000000e+000
    endloop
  endfacet
  facet normal 0.000000e+000 0.000000e+000 -1.000000e+000
    outer loop
      vertex   1.281250e+002 2.488192e+002 0.000000e+000
      vertex   1.968750e+002 -2.511809e+002 0.000000e+000
      vertex   1.281250e+002 3.631912e+001 0.000000e+000
    endloop
  endfacet
  facet normal -1.000000e+000 0.000000e+000 0.000000e+000
    outer loop
      vertex   1.281250e+002 -1.386809e+002 5.000000e+001
      vertex   1.281250e+002 -2.511809e+002 1.000000e+002
      vertex   1.281250e+002 -2.618088e+001 1.000000e+002
    endloop
  endfacet
  facet normal -0.000000e+000 -1.000000e+000 0.000000e+000
    outer loop
      vertex   -1.625000e+002 -2.511809e+002 5.000000e+001
      vertex   -1.281250e+002 -2.511809e+002 1.000000e+002
      vertex   -1.968750e+002 -2.511809e+002 1.000000e+002
    endloop
  endfacet
  facet normal -0.000000e+000 -1.000000e+000 0.000000e+000
    outer loop
      vertex   1.625000e+002 -2.511809e+002 5.000000e+001
      vertex   1.968750e+002 -2.511809e+002 1.000000e+002
      vertex   1.281250e+002 -2.511809e+002 1.000000e+002
    endloop
  endfacet
  facet normal -1.000000e+000 0.000000e+000 0.000000e+000
    outer loop
      vertex   -1.968750e+002 -1.180882e+000 5.000000e+001
      vertex   -1.968750e+002 -2.511809e+002 1.000000e+002
      vertex   -1.968750e+002 2.488192e+002 1.000000e+002
    endloop
  endfacet
  facet normal -0.000000e+000 1.000000e+000 0.000000e+000
    outer loop
      vertex   -1.625000e+002 2.488192e+002 5.000000e+001
      vertex   -1.968750e+002 2.488192e+002 1.000000e+002
      vertex   -1.281250e+002 2.488192e+002 1.000000e+002
    endloop
  endfacet
  facet normal -0.000000e+000 1.000000e+000 0.000000e+000
    outer loop
      vertex   2.887891e-006 3.631912e+001 5.000000e+001
      vertex   -1.281250e+002 3.631912e+001 1.000000e+002
      vertex   1.281250e+002 3.631912e+001 1.000000e+002
    endloop
  endfacet
  facet normal -0.000000e+000 1.000000e+000 0.000000e+000
    outer loop
      vertex   1.625000e+002 2.488192e+002 5.000000e+001
      vertex   1.281250e+002 2.488192e+002 1.000000e+002
      vertex   1.968750e+002 2.488192e+002 1.000000e+002
    endloop
  endfacet
  facet normal 1.000000e+000 0.000000e+000 0.000000e+000
    outer loop
      vertex   -1.281250e+002 -1.386809e+002 5.000000e+001
      vertex   -1.281250e+002 -2.618088e+001 1.000000e+002
      vertex   -1.281250e+002 -2.511809e+002 1.000000e+002
    endloop
  endfacet
  facet normal 1.000000e+000 0.000000e+000 0.000000e+000
    outer loop
      vertex   1.968750e+002 -1.180882e+000 5.000000e+001
      vertex   1.968750e+002 2.488192e+002 1.000000e+002
      vertex   1.968750e+002 -2.511809e+002 1.000000e+002
    endloop
  endfacet
  facet normal 1.000000e+000 0.000000e+000 0.000000e+000
    outer loop
      vertex   -1.281250e+002 1.425691e+002 5.000000e+001
      vertex   -1.281250e+002 2.488192e+002 1.000000e+002
      vertex   -1.281250e+002 3.631912e+001 1.000000e+002
    endloop
  endfacet
  facet normal -1.000000e+000 0.000000e+000 0.000000e+000
    outer loop
      vertex   1.281250e+002 1.425691e+002 5.000000e+001
      vertex   1.281250e+002 3.631912e+001 1.000000e+002
      vertex   1.281250e+002 2.488192e+002 1.000000e+002
    endloop
  endfacet
  facet normal -0.000000e+000 -1.000000e+000 0.000000e+000
    outer loop
      vertex   2.887891e-006 -2.618088e+001 5.000000e+001
      vertex   1.281250e+002 -2.618088e+001 1.000000e+002
      vertex   -1.281250e+002 -2.618088e+001 1.000000e+002
    endloop
  endfacet
  facet normal 0.000000e+000 0.000000e+000 1.000000e+000
    outer loop
      vertex   -1.968750e+002 2.488192e+002 1.000000e+002
      vertex   -1.968750e+002 -2.511809e+002 1.000000e+002
      vertex   -1.281250e+002 3.631912e+001 1.000000e+002
    endloop
  endfacet
  facet normal -0.000000e+000 0.000000e+000 1.000000e+000
    outer loop
      vertex   1.281250e+002 2.488192e+002 1.000000e+002
      vertex   1.281250e+002 3.631912e+001 1.000000e+002
      vertex   1.968750e+002 -2.511809e+002 1.000000e+002
    endloop
  endfacet
  facet normal -0.000000e+000 0.000000e+000 1.000000e+000
    outer loop
      vertex   1.281250e+002 3.631912e+001 1.000000e+002
      vertex   -1.281250e+002 3.631912e+001 1.000000e+002
      vertex   1.281250e+002 -2.618088e+001 1.000000e+002
    endloop
  endfacet
  facet normal -0.000000e+000 0.000000e+000 1.000000e+000
    outer loop
      vertex   1.281250e+002 3.631912e+001 1.000000e+002
      vertex   1.281250e+002 -2.618088e+001 1.000000e+002
      vertex   1.968750e+002 -2.511809e+002 1.000000e+002
    endloop
  endfacet
  facet normal -0.000000e+000 0.000000e+000 1.000000e+000
    outer loop
      vertex   -1.281250e+002 2.488192e+002 1.000000e+002
      vertex   -1.968750e+002 2.488192e+002 1.000000e+002
      vertex   -1.281250e+002 3.631912e+001 1.000000e+002
    endloop
  endfacet
  facet normal -0.000000e+000 0.000000e+000 1.000000e+000
    outer loop
      vertex   1.968750e+002 2.488192e+002 1.000000e+002
      vertex   1.281250e+002 2.488192e+002 1.000000e+002
      vertex   1.968750e+002 -2.511809e+002 1.000000e+002
    endloop
  endfacet
  facet normal 0.000000e+000 0.000000e+000 1.000000e+000
    outer loop
      vertex   1.281250e+002 -2.618088e+001 1.000000e+002
      vertex   -1.281250e+002 3.631912e+001 1.000000e+002
      vertex   -1.281250e+002 -2.618088e+001 1.000000e+002
    endloop
  endfacet
  facet normal 0.000000e+000 0.000000e+000 1.000000e+000
    outer loop
      vertex   1.281250e+002 -2.618088e+001 1.000000e+002
      vertex   1.281250e+002 -2.511809e+002 1.000000e+002
      vertex   1.968750e+002 -2.511809e+002 1.000000e+002
    endloop
  endfacet
  facet normal 0.000000e+000 0.000000e+000 1.000000e+000
    outer loop
      vertex   -1.281250e+002 3.631912e+001 1.000000e+002
      vertex   -1.968750e+002 -2.511809e+002 1.000000e+002
      vertex   -1.281250e+002 -2.618088e+001 1.000000e+002
    endloop
  endfacet
  facet normal 0.000000e+000 0.000000e+000 1.000000e+000
    outer loop
      vertex   -1.281250e+002 -2.618088e+001 1.000000e+002
      vertex   -1.968750e+002 -2.511809e+002 1.000000e+002
      vertex   -1.281250e+002 -2.511809e+002 1.000000e+002
    endloop
  endfacet
endsolid
