solid ascii
  facet normal 1.000000e+000 0.000000e+000 0.000000e+000
    outer loop
      vertex   3.437500e+001 -1.006321e-005 5.000000e+001
      vertex   3.437500e+001 -2.500000e+002 0.000000e+000
      vertex   3.437500e+001 2.500000e+002 0.000000e+000
    endloop
  endfacet
  facet normal 0.000000e+000 -0.000000e+000 -1.000000e+000
    outer loop
      vertex   7.190750e-007 -1.006321e-005 0.000000e+000
      vertex   3.437500e+001 2.500000e+002 0.000000e+000
      vertex   3.437500e+001 -2.500000e+002 0.000000e+000
    endloop
  endfacet
  facet normal 0.000000e+000 0.000000e+000 -1.000000e+000
    outer loop
      vertex   7.190750e-007 -1.006321e-005 0.000000e+000
      vertex   3.437500e+001 -2.500000e+002 0.000000e+000
      vertex   -3.437500e+001 -2.500000e+002 0.000000e+000
    endloop
  endfacet
  facet normal 0.000000e+000 0.000000e+000 -1.000000e+000
    outer loop
      vertex   7.190750e-007 -1.006321e-005 0.000000e+000
      vertex   -3.437500e+001 -2.500000e+002 0.000000e+000
      vertex   -3.437500e+001 2.500000e+002 0.000000e+000
    endloop
  endfacet
  facet normal -1.000000e+000 0.000000e+000 0.000000e+000
    outer loop
      vertex   -3.437500e+001 -1.006321e-005 5.000000e+001
      vertex   -3.437500e+001 -2.500000e+002 0.000000e+000
      vertex   -3.437500e+001 -2.500000e+002 1.000000e+002
    endloop
  endfacet
  facet normal 0.000000e+000 -1.000000e+000 0.000000e+000
    outer loop
      vertex   7.190750e-007 -2.500000e+002 5.000000e+001
      vertex   -3.437500e+001 -2.500000e+002 1.000000e+002
      vertex   -3.437500e+001 -2.500000e+002 0.000000e+000
    endloop
  endfacet
  facet normal 0.000000e+000 -1.000000e+000 0.000000e+000
    outer loop
      vertex   7.190750e-007 -2.500000e+002 5.000000e+001
      vertex   3.437500e+001 -2.500000e+002 0.000000e+000
      vertex   3.437500e+001 -2.500000e+002 1.000000e+002
    endloop
  endfacet
  facet normal 0.000000e+000 -1.000000e+000 0.000000e+000
    outer loop
      vertex   7.190750e-007 -2.500000e+002 5.000000e+001
      vertex   -3.437500e+001 -2.500000e+002 0.000000e+000
      vertex   3.437500e+001 -2.500000e+002 0.000000e+000
    endloop
  endfacet
  facet normal 0.000000e+000 1.000000e+000 0.000000e+000
    outer loop
      vertex   7.190750e-007 2.500000e+002 5.000000e+001
      vertex   3.437500e+001 2.500000e+002 0.000000e+000
      vertex   -3.437500e+001 2.500000e+002 0.000000e+000
    endloop
  endfacet
  facet normal 0.000000e+000 1.000000e+000 0.000000e+000
    outer loop
      vertex   7.190750e-007 2.500000e+002 5.000000e+001
      vertex   -3.437500e+001 2.500000e+002 0.000000e+000
      vertex   -3.437500e+001 2.500000e+002 1.000000e+002
    endloop
  endfacet
  facet normal -1.000000e+000 0.000000e+000 0.000000e+000
    outer loop
      vertex   -3.437500e+001 -1.006321e-005 5.000000e+001
      vertex   -3.437500e+001 2.500000e+002 0.000000e+000
      vertex   -3.437500e+001 -2.500000e+002 0.000000e+000
    endloop
  endfacet
  facet normal 0.000000e+000 1.000000e+000 0.000000e+000
    outer loop
      vertex   7.190750e-007 2.500000e+002 5.000000e+001
      vertex   3.437500e+001 2.500000e+002 1.000000e+002
      vertex   3.437500e+001 2.500000e+002 0.000000e+000
    endloop
  endfacet
  facet normal 0.000000e+000 0.000000e+000 -1.000000e+000
    outer loop
      vertex   7.190750e-007 -1.006321e-005 0.000000e+000
      vertex   -3.437500e+001 2.500000e+002 0.000000e+000
      vertex   3.437500e+001 2.500000e+002 0.000000e+000
    endloop
  endfacet
  facet normal 1.000000e+000 0.000000e+000 -0.000000e+000
    outer loop
      vertex   3.437500e+001 -1.006321e-005 5.000000e+001
      vertex   3.437500e+001 2.500000e+002 0.000000e+000
      vertex   3.437500e+001 2.500000e+002 1.000000e+002
    endloop
  endfacet
  facet normal -1.000000e+000 0.000000e+000 -0.000000e+000
    outer loop
      vertex   -3.437500e+001 -1.006321e-005 5.000000e+001
      vertex   -3.437500e+001 2.500000e+002 1.000000e+002
      vertex   -3.437500e+001 2.500000e+002 0.000000e+000
    endloop
  endfacet
  facet normal 1.000000e+000 0.000000e+000 0.000000e+000
    outer loop
      vertex   3.437500e+001 -1.006321e-005 5.000000e+001
      vertex   3.437500e+001 -2.500000e+002 1.000000e+002
      vertex   3.437500e+001 -2.500000e+002 0.000000e+000
    endloop
  endfacet
  facet normal -0.000000e+000 1.000000e+000 0.000000e+000
    outer loop
      vertex   7.190750e-007 2.500000e+002 5.000000e+001
      vertex   -3.437500e+001 2.500000e+002 1.000000e+002
      vertex   3.437500e+001 2.500000e+002 1.000000e+002
    endloop
  endfacet
  facet normal 1.000000e+000 0.000000e+000 0.000000e+000
    outer loop
      vertex   3.437500e+001 -1.006321e-005 5.000000e+001
      vertex   3.437500e+001 2.500000e+002 1.000000e+002
      vertex   3.437500e+001 -2.500000e+002 1.000000e+002
    endloop
  endfacet
  facet normal -1.000000e+000 0.000000e+000 0.000000e+000
    outer loop
      vertex   -3.437500e+001 -1.006321e-005 5.000000e+001
      vertex   -3.437500e+001 -2.500000e+002 1.000000e+002
      vertex   -3.437500e+001 2.500000e+002 1.000000e+002
    endloop
  endfacet
  facet normal -0.000000e+000 -1.000000e+000 0.000000e+000
    outer loop
      vertex   7.190750e-007 -2.500000e+002 5.000000e+001
      vertex   3.437500e+001 -2.500000e+002 1.000000e+002
      vertex   -3.437500e+001 -2.500000e+002 1.000000e+002
    endloop
  endfacet
  facet normal 0.000000e+000 0.000000e+000 1.000000e+000
    outer loop
      vertex   7.190750e-007 -1.006321e-005 1.000000e+002
      vertex   3.437500e+001 2.500000e+002 1.000000e+002
      vertex   -3.437500e+001 2.500000e+002 1.000000e+002
    endloop
  endfacet
  facet normal 0.000000e+000 0.000000e+000 1.000000e+000
    outer loop
      vertex   7.190750e-007 -1.006321e-005 1.000000e+002
      vertex   -3.437500e+001 2.500000e+002 1.000000e+002
      vertex   -3.437500e+001 -2.500000e+002 1.000000e+002
    endloop
  endfacet
  facet normal 0.000000e+000 -0.000000e+000 1.000000e+000
    outer loop
      vertex   7.190750e-007 -1.006321e-005 1.000000e+002
      vertex   3.437500e+001 -2.500000e+002 1.000000e+002
      vertex   3.437500e+001 2.500000e+002 1.000000e+002
    endloop
  endfacet
  facet normal 0.000000e+000 0.000000e+000 1.000000e+000
    outer loop
      vertex   7.190750e-007 -1.006321e-005 1.000000e+002
      vertex   -3.437500e+001 -2.500000e+002 1.000000e+002
      vertex   3.437500e+001 -2.500000e+002 1.000000e+002
    endloop
  endfacet
endsolid
