solid ascii
  facet normal -8.000000e-001 6.000000e-001 0.000000e+000
    outer loop
      vertex   1.195065e+001 -9.484548e+001 5.000000e+001
      vertex   2.132565e+001 -8.234548e+001 0.000000e+000
      vertex   2.575651e+000 -1.073455e+002 0.000000e+000
    endloop
  endfacet
  facet normal 0.000000e+000 1.000000e+000 0.000000e+000
    outer loop
      vertex   6.195066e+001 3.051545e+002 5.000000e+001
      vertex   2.757565e+001 3.051545e+002 0.000000e+000
      vertex   2.757565e+001 3.051545e+002 1.000000e+002
    endloop
  endfacet
  facet normal -8.000000e-001 6.000000e-001 0.000000e+000
    outer loop
      vertex   1.195065e+001 -9.484548e+001 5.000000e+001
      vertex   2.575651e+000 -1.073455e+002 0.000000e+000
      vertex   2.575651e+000 -1.073455e+002 1.000000e+002
    endloop
  endfacet
  facet normal 0.000000e+000 1.000000e+000 0.000000e+000
    outer loop
      vertex   6.195066e+001 3.051545e+002 5.000000e+001
      vertex   9.632567e+001 3.051545e+002 1.000000e+002
      vertex   9.632567e+001 3.051545e+002 0.000000e+000
    endloop
  endfacet
  facet normal -3.162274e-001 9.486834e-001 -6.562344e-008
    outer loop
      vertex   -3.179935e+001 -1.292205e+002 5.000000e+001
      vertex   -2.242435e+001 -1.260955e+002 0.000000e+000
      vertex   -4.117435e+001 -1.323455e+002 0.000000e+000
    endloop
  endfacet
  facet normal -3.162277e-001 9.486833e-001 0.000000e+000
    outer loop
      vertex   -3.179935e+001 -1.292205e+002 5.000000e+001
      vertex   -4.117435e+001 -1.323455e+002 0.000000e+000
      vertex   -4.117435e+001 -1.323455e+002 1.000000e+002
    endloop
  endfacet
  facet normal -8.000000e-001 6.000000e-001 0.000000e+000
    outer loop
      vertex   1.195065e+001 -9.484548e+001 5.000000e+001
      vertex   2.132565e+001 -8.234548e+001 1.000000e+002
      vertex   2.132565e+001 -8.234548e+001 0.000000e+000
    endloop
  endfacet
  facet normal -3.162271e-001 9.486836e-001 0.000000e+000
    outer loop
      vertex   -3.179935e+001 -1.292205e+002 5.000000e+001
      vertex   -2.242435e+001 -1.260955e+002 1.000000e+002
      vertex   -2.242435e+001 -1.260955e+002 0.000000e+000
    endloop
  endfacet
  facet normal 8.000000e-001 -6.000001e-001 -2.929687e-008
    outer loop
      vertex   6.820067e+001 -1.448455e+002 5.000000e+001
      vertex   5.882566e+001 -1.573455e+002 0.000000e+000
      vertex   7.757567e+001 -1.323455e+002 0.000000e+000
    endloop
  endfacet
  facet normal 8.000000e-001 -6.000000e-001 0.000000e+000
    outer loop
      vertex   6.820067e+001 -1.448455e+002 5.000000e+001
      vertex   7.757567e+001 -1.323455e+002 0.000000e+000
      vertex   7.757567e+001 -1.323455e+002 1.000000e+002
    endloop
  endfacet
  facet normal -9.486833e-001 -3.162279e-001 0.000000e+000
    outer loop
      vertex   -1.849243e+002 -1.135955e+002 5.000000e+001
      vertex   -1.786743e+002 -1.323455e+002 0.000000e+000
      vertex   -1.786743e+002 -1.323455e+002 1.000000e+002
    endloop
  endfacet
  facet normal 7.999999e-001 -6.000001e-001 0.000000e+000
    outer loop
      vertex   6.820067e+001 -1.448455e+002 5.000000e+001
      vertex   5.882566e+001 -1.573455e+002 1.000000e+002
      vertex   5.882566e+001 -1.573455e+002 0.000000e+000
    endloop
  endfacet
  facet normal -6.000000e-001 8.000000e-001 0.000000e+000
    outer loop
      vertex   -9.924349e+000 -1.167205e+002 5.000000e+001
      vertex   2.575651e+000 -1.073455e+002 0.000000e+000
      vertex   -2.242435e+001 -1.260955e+002 0.000000e+000
    endloop
  endfacet
  facet normal -6.000000e-001 8.000000e-001 0.000000e+000
    outer loop
      vertex   -9.924349e+000 -1.167205e+002 5.000000e+001
      vertex   -2.242435e+001 -1.260955e+002 0.000000e+000
      vertex   -2.242435e+001 -1.260955e+002 1.000000e+002
    endloop
  endfacet
  facet normal -9.486833e-001 -3.162278e-001 -0.000000e+000
    outer loop
      vertex   -1.849243e+002 -1.135955e+002 5.000000e+001
      vertex   -1.911743e+002 -9.484548e+001 1.000000e+002
      vertex   -1.911743e+002 -9.484548e+001 0.000000e+000
    endloop
  endfacet
  facet normal -6.000000e-001 8.000000e-001 0.000000e+000
    outer loop
      vertex   -9.924349e+000 -1.167205e+002 5.000000e+001
      vertex   2.575651e+000 -1.073455e+002 1.000000e+002
      vertex   2.575651e+000 -1.073455e+002 0.000000e+000
    endloop
  endfacet
  facet normal 6.000000e-001 8.000000e-001 0.000000e+000
    outer loop
      vertex   -9.742434e+001 -1.167205e+002 5.000000e+001
      vertex   -8.492434e+001 -1.260955e+002 0.000000e+000
      vertex   -1.099243e+002 -1.073455e+002 0.000000e+000
    endloop
  endfacet
  facet normal 6.000000e-001 8.000000e-001 -0.000000e+000
    outer loop
      vertex   -9.742434e+001 -1.167205e+002 5.000000e+001
      vertex   -1.099243e+002 -1.073455e+002 0.000000e+000
      vertex   -1.099243e+002 -1.073455e+002 1.000000e+002
    endloop
  endfacet
  facet normal 0.000000e+000 1.000000e+000 0.000000e+000
    outer loop
      vertex   -5.367435e+001 -1.323455e+002 5.000000e+001
      vertex   -6.617435e+001 -1.323455e+002 0.000000e+000
      vertex   -6.617435e+001 -1.323455e+002 1.000000e+002
    endloop
  endfacet
  facet normal 6.000000e-001 8.000000e-001 0.000000e+000
    outer loop
      vertex   -9.742434e+001 -1.167205e+002 5.000000e+001
      vertex   -8.492434e+001 -1.260955e+002 1.000000e+002
      vertex   -8.492434e+001 -1.260955e+002 0.000000e+000
    endloop
  endfacet
  facet normal 2.425356e-001 -9.701425e-001 0.000000e+000
    outer loop
      vertex   -3.674349e+000 -1.885955e+002 5.000000e+001
      vertex   -2.867435e+001 -1.948455e+002 0.000000e+000
      vertex   2.132565e+001 -1.823455e+002 0.000000e+000
    endloop
  endfacet
  facet normal 2.425356e-001 -9.701425e-001 0.000000e+000
    outer loop
      vertex   -3.674349e+000 -1.885955e+002 5.000000e+001
      vertex   2.132565e+001 -1.823455e+002 0.000000e+000
      vertex   2.132565e+001 -1.823455e+002 1.000000e+002
    endloop
  endfacet
  facet normal 0.000000e+000 1.000000e+000 0.000000e+000
    outer loop
      vertex   -5.367435e+001 -1.323455e+002 5.000000e+001
      vertex   -4.117435e+001 -1.323455e+002 1.000000e+002
      vertex   -4.117435e+001 -1.323455e+002 0.000000e+000
    endloop
  endfacet
  facet normal 2.425356e-001 -9.701425e-001 0.000000e+000
    outer loop
      vertex   -3.674349e+000 -1.885955e+002 5.000000e+001
      vertex   -2.867435e+001 -1.948455e+002 1.000000e+002
      vertex   -2.867435e+001 -1.948455e+002 0.000000e+000
    endloop
  endfacet
  facet normal -1.000000e+000 0.000000e+000 0.000000e+000
    outer loop
      vertex   -1.974243e+002 -3.547048e+001 5.000000e+001
      vertex   -1.974243e+002 -1.984548e+001 0.000000e+000
      vertex   -1.974243e+002 -5.109548e+001 0.000000e+000
    endloop
  endfacet
  facet normal -1.000000e+000 0.000000e+000 0.000000e+000
    outer loop
      vertex   -1.974243e+002 -3.547048e+001 5.000000e+001
      vertex   -1.974243e+002 -5.109548e+001 0.000000e+000
      vertex   -1.974243e+002 -5.109548e+001 1.000000e+002
    endloop
  endfacet
  facet normal -9.805807e-001 1.961161e-001 0.000000e+000
    outer loop
      vertex   2.445065e+001 -6.672048e+001 5.000000e+001
      vertex   2.132565e+001 -8.234548e+001 0.000000e+000
      vertex   2.132565e+001 -8.234548e+001 1.000000e+002
    endloop
  endfacet
  facet normal -1.000000e+000 0.000000e+000 -0.000000e+000
    outer loop
      vertex   -1.974243e+002 -3.547048e+001 5.000000e+001
      vertex   -1.974243e+002 -1.984548e+001 1.000000e+002
      vertex   -1.974243e+002 -1.984548e+001 0.000000e+000
    endloop
  endfacet
  facet normal -1.000000e+000 0.000000e+000 0.000000e+000
    outer loop
      vertex   2.757565e+001 1.270295e+002 5.000000e+001
      vertex   2.757565e+001 3.051545e+002 0.000000e+000
      vertex   2.757565e+001 -5.109548e+001 0.000000e+000
    endloop
  endfacet
  facet normal -1.000000e+000 0.000000e+000 0.000000e+000
    outer loop
      vertex   2.757565e+001 1.270295e+002 5.000000e+001
      vertex   2.757565e+001 -5.109548e+001 0.000000e+000
      vertex   2.757565e+001 -5.109548e+001 1.000000e+002
    endloop
  endfacet
  facet normal -9.805807e-001 1.961161e-001 0.000000e+000
    outer loop
      vertex   2.445065e+001 -6.672048e+001 5.000000e+001
      vertex   2.757565e+001 -5.109548e+001 1.000000e+002
      vertex   2.757565e+001 -5.109548e+001 0.000000e+000
    endloop
  endfacet
  facet normal -1.000000e+000 0.000000e+000 -0.000000e+000
    outer loop
      vertex   2.757565e+001 1.270295e+002 5.000000e+001
      vertex   2.757565e+001 3.051545e+002 1.000000e+002
      vertex   2.757565e+001 3.051545e+002 0.000000e+000
    endloop
  endfacet
  facet normal 1.000000e+000 0.000000e+000 0.000000e+000
    outer loop
      vertex   9.632567e+001 1.270295e+002 5.000000e+001
      vertex   9.632567e+001 -5.109548e+001 0.000000e+000
      vertex   9.632567e+001 3.051545e+002 0.000000e+000
    endloop
  endfacet
  facet normal 1.000000e+000 0.000000e+000 -0.000000e+000
    outer loop
      vertex   9.632567e+001 1.270295e+002 5.000000e+001
      vertex   9.632567e+001 3.051545e+002 0.000000e+000
      vertex   9.632567e+001 3.051545e+002 1.000000e+002
    endloop
  endfacet
  facet normal -8.000000e-001 -6.000000e-001 0.000000e+000
    outer loop
      vertex   -1.692993e+002 -1.448455e+002 5.000000e+001
      vertex   -1.599243e+002 -1.573455e+002 0.000000e+000
      vertex   -1.599243e+002 -1.573455e+002 1.000000e+002
    endloop
  endfacet
  facet normal 1.000000e+000 0.000000e+000 0.000000e+000
    outer loop
      vertex   9.632567e+001 1.270295e+002 5.000000e+001
      vertex   9.632567e+001 -5.109548e+001 1.000000e+002
      vertex   9.632567e+001 -5.109548e+001 0.000000e+000
    endloop
  endfacet
  facet normal 0.000000e+000 1.000000e+000 0.000000e+000
    outer loop
      vertex   -1.661743e+002 -1.984548e+001 5.000000e+001
      vertex   -1.349243e+002 -1.984548e+001 0.000000e+000
      vertex   -1.974243e+002 -1.984548e+001 0.000000e+000
    endloop
  endfacet
  facet normal 0.000000e+000 1.000000e+000 0.000000e+000
    outer loop
      vertex   -1.661743e+002 -1.984548e+001 5.000000e+001
      vertex   -1.974243e+002 -1.984548e+001 0.000000e+000
      vertex   -1.974243e+002 -1.984548e+001 1.000000e+002
    endloop
  endfacet
  facet normal -8.000000e-001 -6.000000e-001 -0.000000e+000
    outer loop
      vertex   -1.692993e+002 -1.448455e+002 5.000000e+001
      vertex   -1.786743e+002 -1.323455e+002 1.000000e+002
      vertex   -1.786743e+002 -1.323455e+002 0.000000e+000
    endloop
  endfacet
  facet normal 0.000000e+000 1.000000e+000 0.000000e+000
    outer loop
      vertex   -1.661743e+002 -1.984548e+001 5.000000e+001
      vertex   -1.349243e+002 -1.984548e+001 1.000000e+002
      vertex   -1.349243e+002 -1.984548e+001 0.000000e+000
    endloop
  endfacet
  facet normal -5.547001e-001 -8.320504e-001 -4.062745e-008
    outer loop
      vertex   -1.411743e+002 -1.698455e+002 5.000000e+001
      vertex   -1.599243e+002 -1.573455e+002 0.000000e+000
      vertex   -1.224243e+002 -1.823455e+002 0.000000e+000
    endloop
  endfacet
  facet normal -5.547000e-001 -8.320504e-001 0.000000e+000
    outer loop
      vertex   -1.411743e+002 -1.698455e+002 5.000000e+001
      vertex   -1.224243e+002 -1.823455e+002 0.000000e+000
      vertex   -1.224243e+002 -1.823455e+002 1.000000e+002
    endloop
  endfacet
  facet normal 1.000000e+000 0.000000e+000 -0.000000e+000
    outer loop
      vertex   -1.349243e+002 -3.547048e+001 5.000000e+001
      vertex   -1.349243e+002 -1.984548e+001 0.000000e+000
      vertex   -1.349243e+002 -1.984548e+001 1.000000e+002
    endloop
  endfacet
  facet normal -5.547002e-001 -8.320503e-001 -0.000000e+000
    outer loop
      vertex   -1.411743e+002 -1.698455e+002 5.000000e+001
      vertex   -1.599243e+002 -1.573455e+002 1.000000e+002
      vertex   -1.599243e+002 -1.573455e+002 0.000000e+000
    endloop
  endfacet
  facet normal 7.999999e-001 6.000001e-001 -5.859374e-008
    outer loop
      vertex   -1.192993e+002 -9.484548e+001 5.000000e+001
      vertex   -1.099243e+002 -1.073455e+002 0.000000e+000
      vertex   -1.286743e+002 -8.234548e+001 0.000000e+000
    endloop
  endfacet
  facet normal 7.999998e-001 6.000003e-001 -0.000000e+000
    outer loop
      vertex   -1.192993e+002 -9.484548e+001 5.000000e+001
      vertex   -1.286743e+002 -8.234548e+001 0.000000e+000
      vertex   -1.286743e+002 -8.234548e+001 1.000000e+002
    endloop
  endfacet
  facet normal 1.000000e+000 0.000000e+000 0.000000e+000
    outer loop
      vertex   -1.349243e+002 -3.547048e+001 5.000000e+001
      vertex   -1.349243e+002 -5.109548e+001 1.000000e+002
      vertex   -1.349243e+002 -5.109548e+001 0.000000e+000
    endloop
  endfacet
  facet normal 8.000000e-001 6.000000e-001 0.000000e+000
    outer loop
      vertex   -1.192993e+002 -9.484548e+001 5.000000e+001
      vertex   -1.099243e+002 -1.073455e+002 1.000000e+002
      vertex   -1.099243e+002 -1.073455e+002 0.000000e+000
    endloop
  endfacet
  facet normal 9.486833e-001 -3.162278e-001 -2.316122e-008
    outer loop
      vertex   8.382567e+001 -1.135955e+002 5.000000e+001
      vertex   7.757567e+001 -1.323455e+002 0.000000e+000
      vertex   9.007567e+001 -9.484548e+001 0.000000e+000
    endloop
  endfacet
  facet normal 9.486833e-001 -3.162278e-001 0.000000e+000
    outer loop
      vertex   8.382567e+001 -1.135955e+002 5.000000e+001
      vertex   9.007567e+001 -9.484548e+001 0.000000e+000
      vertex   9.007567e+001 -9.484548e+001 1.000000e+002
    endloop
  endfacet
  facet normal 5.546999e-001 -8.320505e-001 0.000000e+000
    outer loop
      vertex   4.007565e+001 -1.698455e+002 5.000000e+001
      vertex   5.882566e+001 -1.573455e+002 0.000000e+000
      vertex   5.882566e+001 -1.573455e+002 1.000000e+002
    endloop
  endfacet
  facet normal 9.486833e-001 -3.162279e-001 0.000000e+000
    outer loop
      vertex   8.382567e+001 -1.135955e+002 5.000000e+001
      vertex   7.757567e+001 -1.323455e+002 1.000000e+002
      vertex   7.757567e+001 -1.323455e+002 0.000000e+000
    endloop
  endfacet
  facet normal 0.000000e+000 -1.000000e+000 0.000000e+000
    outer loop
      vertex   -5.054935e+001 -1.948455e+002 5.000000e+001
      vertex   -7.242435e+001 -1.948455e+002 0.000000e+000
      vertex   -2.867435e+001 -1.948455e+002 0.000000e+000
    endloop
  endfacet
  facet normal 0.000000e+000 -1.000000e+000 0.000000e+000
    outer loop
      vertex   -5.054935e+001 -1.948455e+002 5.000000e+001
      vertex   -2.867435e+001 -1.948455e+002 0.000000e+000
      vertex   -2.867435e+001 -1.948455e+002 1.000000e+002
    endloop
  endfacet
  facet normal 5.547003e-001 -8.320503e-001 0.000000e+000
    outer loop
      vertex   4.007565e+001 -1.698455e+002 5.000000e+001
      vertex   2.132565e+001 -1.823455e+002 1.000000e+002
      vertex   2.132565e+001 -1.823455e+002 0.000000e+000
    endloop
  endfacet
  facet normal 0.000000e+000 -1.000000e+000 0.000000e+000
    outer loop
      vertex   -5.054935e+001 -1.948455e+002 5.000000e+001
      vertex   -7.242435e+001 -1.948455e+002 1.000000e+002
      vertex   -7.242435e+001 -1.948455e+002 0.000000e+000
    endloop
  endfacet
  facet normal -9.899495e-001 -1.414213e-001 -6.905339e-009
    outer loop
      vertex   -1.942993e+002 -7.297048e+001 5.000000e+001
      vertex   -1.974243e+002 -5.109548e+001 0.000000e+000
      vertex   -1.911743e+002 -9.484548e+001 0.000000e+000
    endloop
  endfacet
  facet normal -9.899496e-001 -1.414214e-001 0.000000e+000
    outer loop
      vertex   -1.942993e+002 -7.297048e+001 5.000000e+001
      vertex   -1.911743e+002 -9.484548e+001 0.000000e+000
      vertex   -1.911743e+002 -9.484548e+001 1.000000e+002
    endloop
  endfacet
  facet normal 0.000000e+000 0.000000e+000 -1.000000e+000
    outer loop
      vertex   -1.911743e+002 -9.484548e+001 0.000000e+000
      vertex   -1.224243e+002 -1.823455e+002 0.000000e+000
      vertex   -1.786743e+002 -1.323455e+002 0.000000e+000
    endloop
  endfacet
  facet normal -9.899495e-001 -1.414213e-001 -0.000000e+000
    outer loop
      vertex   -1.942993e+002 -7.297048e+001 5.000000e+001
      vertex   -1.974243e+002 -5.109548e+001 1.000000e+002
      vertex   -1.974243e+002 -5.109548e+001 0.000000e+000
    endloop
  endfacet
  facet normal 9.899495e-001 -1.414213e-001 -6.905339e-009
    outer loop
      vertex   9.320067e+001 -7.297048e+001 5.000000e+001
      vertex   9.007567e+001 -9.484548e+001 0.000000e+000
      vertex   9.632567e+001 -5.109548e+001 0.000000e+000
    endloop
  endfacet
  facet normal 9.899495e-001 -1.414213e-001 0.000000e+000
    outer loop
      vertex   9.320067e+001 -7.297048e+001 5.000000e+001
      vertex   9.632567e+001 -5.109548e+001 0.000000e+000
      vertex   9.632567e+001 -5.109548e+001 1.000000e+002
    endloop
  endfacet
  facet normal 0.000000e+000 0.000000e+000 -1.000000e+000
    outer loop
      vertex   -1.974243e+002 -5.109548e+001 0.000000e+000
      vertex   -7.242435e+001 -1.948455e+002 0.000000e+000
      vertex   -1.911743e+002 -9.484548e+001 0.000000e+000
    endloop
  endfacet
  facet normal 9.899496e-001 -1.414214e-001 0.000000e+000
    outer loop
      vertex   9.320067e+001 -7.297048e+001 5.000000e+001
      vertex   9.007567e+001 -9.484548e+001 1.000000e+002
      vertex   9.007567e+001 -9.484548e+001 0.000000e+000
    endloop
  endfacet
  facet normal 9.805807e-001 1.961161e-001 9.575982e-009
    outer loop
      vertex   -1.317993e+002 -6.672048e+001 5.000000e+001
      vertex   -1.286743e+002 -8.234548e+001 0.000000e+000
      vertex   -1.349243e+002 -5.109548e+001 0.000000e+000
    endloop
  endfacet
  facet normal 9.805807e-001 1.961161e-001 -0.000000e+000
    outer loop
      vertex   -1.317993e+002 -6.672048e+001 5.000000e+001
      vertex   -1.349243e+002 -5.109548e+001 0.000000e+000
      vertex   -1.349243e+002 -5.109548e+001 1.000000e+002
    endloop
  endfacet
  facet normal 0.000000e+000 0.000000e+000 -1.000000e+000
    outer loop
      vertex   -1.099243e+002 -1.073455e+002 0.000000e+000
      vertex   -2.867435e+001 -1.948455e+002 0.000000e+000
      vertex   -1.974243e+002 -5.109548e+001 0.000000e+000
    endloop
  endfacet
  facet normal 9.805807e-001 1.961161e-001 0.000000e+000
    outer loop
      vertex   -1.317993e+002 -6.672048e+001 5.000000e+001
      vertex   -1.286743e+002 -8.234548e+001 1.000000e+002
      vertex   -1.286743e+002 -8.234548e+001 0.000000e+000
    endloop
  endfacet
  facet normal -2.425357e-001 -9.701425e-001 2.368512e-008
    outer loop
      vertex   -9.742434e+001 -1.885955e+002 5.000000e+001
      vertex   -1.224243e+002 -1.823455e+002 0.000000e+000
      vertex   -7.242435e+001 -1.948455e+002 0.000000e+000
    endloop
  endfacet
  facet normal -2.425357e-001 -9.701424e-001 0.000000e+000
    outer loop
      vertex   -9.742434e+001 -1.885955e+002 5.000000e+001
      vertex   -7.242435e+001 -1.948455e+002 0.000000e+000
      vertex   -7.242435e+001 -1.948455e+002 1.000000e+002
    endloop
  endfacet
  facet normal 0.000000e+000 0.000000e+000 -1.000000e+000
    outer loop
      vertex   -8.492434e+001 -1.260955e+002 0.000000e+000
      vertex   -2.867435e+001 -1.948455e+002 0.000000e+000
      vertex   -1.099243e+002 -1.073455e+002 0.000000e+000
    endloop
  endfacet
  facet normal -2.425356e-001 -9.701425e-001 -0.000000e+000
    outer loop
      vertex   -9.742434e+001 -1.885955e+002 5.000000e+001
      vertex   -1.224243e+002 -1.823455e+002 1.000000e+002
      vertex   -1.224243e+002 -1.823455e+002 0.000000e+000
    endloop
  endfacet
  facet normal 3.162276e-001 9.486834e-001 -5.018265e-008
    outer loop
      vertex   -7.554935e+001 -1.292205e+002 5.000000e+001
      vertex   -6.617435e+001 -1.323455e+002 0.000000e+000
      vertex   -8.492434e+001 -1.260955e+002 0.000000e+000
    endloop
  endfacet
  facet normal 3.162273e-001 9.486835e-001 -0.000000e+000
    outer loop
      vertex   -7.554935e+001 -1.292205e+002 5.000000e+001
      vertex   -8.492434e+001 -1.260955e+002 0.000000e+000
      vertex   -8.492434e+001 -1.260955e+002 1.000000e+002
    endloop
  endfacet
  facet normal 0.000000e+000 0.000000e+000 -1.000000e+000
    outer loop
      vertex   -6.617435e+001 -1.323455e+002 0.000000e+000
      vertex   -2.867435e+001 -1.948455e+002 0.000000e+000
      vertex   -8.492434e+001 -1.260955e+002 0.000000e+000
    endloop
  endfacet
  facet normal 3.162278e-001 9.486833e-001 0.000000e+000
    outer loop
      vertex   -7.554935e+001 -1.292205e+002 5.000000e+001
      vertex   -6.617435e+001 -1.323455e+002 1.000000e+002
      vertex   -6.617435e+001 -1.323455e+002 0.000000e+000
    endloop
  endfacet
  facet normal 0.000000e+000 1.000000e+000 0.000000e+000
    outer loop
      vertex   6.195066e+001 3.051545e+002 5.000000e+001
      vertex   9.632567e+001 3.051545e+002 0.000000e+000
      vertex   2.757565e+001 3.051545e+002 0.000000e+000
    endloop
  endfacet
  facet normal 0.000000e+000 0.000000e+000 -1.000000e+000
    outer loop
      vertex   -1.349243e+002 -5.109548e+001 0.000000e+000
      vertex   -1.286743e+002 -8.234548e+001 0.000000e+000
      vertex   -1.974243e+002 -1.984548e+001 0.000000e+000
    endloop
  endfacet
  facet normal 0.000000e+000 0.000000e+000 -1.000000e+000
    outer loop
      vertex   -4.117435e+001 -1.323455e+002 0.000000e+000
      vertex   -2.867435e+001 -1.948455e+002 0.000000e+000
      vertex   -6.617435e+001 -1.323455e+002 0.000000e+000
    endloop
  endfacet
  facet normal 0.000000e+000 0.000000e+000 -1.000000e+000
    outer loop
      vertex   2.757565e+001 3.051545e+002 0.000000e+000
      vertex   9.632567e+001 -5.109548e+001 0.000000e+000
      vertex   2.757565e+001 -5.109548e+001 0.000000e+000
    endloop
  endfacet
  facet normal -9.486833e-001 -3.162278e-001 -2.316122e-008
    outer loop
      vertex   -1.849243e+002 -1.135955e+002 5.000000e+001
      vertex   -1.911743e+002 -9.484548e+001 0.000000e+000
      vertex   -1.786743e+002 -1.323455e+002 0.000000e+000
    endloop
  endfacet
  facet normal 0.000000e+000 0.000000e+000 -1.000000e+000
    outer loop
      vertex   9.632567e+001 3.051545e+002 0.000000e+000
      vertex   9.632567e+001 -5.109548e+001 0.000000e+000
      vertex   2.757565e+001 3.051545e+002 0.000000e+000
    endloop
  endfacet
  facet normal 0.000000e+000 0.000000e+000 -1.000000e+000
    outer loop
      vertex   9.632567e+001 -5.109548e+001 0.000000e+000
      vertex   9.007567e+001 -9.484548e+001 0.000000e+000
      vertex   2.757565e+001 -5.109548e+001 0.000000e+000
    endloop
  endfacet
  facet normal 0.000000e+000 0.000000e+000 -1.000000e+000
    outer loop
      vertex   9.007567e+001 -9.484548e+001 0.000000e+000
      vertex   7.757567e+001 -1.323455e+002 0.000000e+000
      vertex   2.757565e+001 -5.109548e+001 0.000000e+000
    endloop
  endfacet
  facet normal 0.000000e+000 1.000000e+000 0.000000e+000
    outer loop
      vertex   -5.367435e+001 -1.323455e+002 5.000000e+001
      vertex   -4.117435e+001 -1.323455e+002 0.000000e+000
      vertex   -6.617435e+001 -1.323455e+002 0.000000e+000
    endloop
  endfacet
  facet normal 0.000000e+000 0.000000e+000 -1.000000e+000
    outer loop
      vertex   -1.224243e+002 -1.823455e+002 0.000000e+000
      vertex   -1.599243e+002 -1.573455e+002 0.000000e+000
      vertex   -1.786743e+002 -1.323455e+002 0.000000e+000
    endloop
  endfacet
  facet normal 0.000000e+000 0.000000e+000 -1.000000e+000
    outer loop
      vertex   2.132565e+001 -8.234548e+001 0.000000e+000
      vertex   5.882566e+001 -1.573455e+002 0.000000e+000
      vertex   2.575651e+000 -1.073455e+002 0.000000e+000
    endloop
  endfacet
  facet normal 0.000000e+000 0.000000e+000 -1.000000e+000
    outer loop
      vertex   5.882566e+001 -1.573455e+002 0.000000e+000
      vertex   2.132565e+001 -1.823455e+002 0.000000e+000
      vertex   2.575651e+000 -1.073455e+002 0.000000e+000
    endloop
  endfacet
  facet normal -9.805807e-001 1.961161e-001 4.787991e-009
    outer loop
      vertex   2.445065e+001 -6.672048e+001 5.000000e+001
      vertex   2.757565e+001 -5.109548e+001 0.000000e+000
      vertex   2.132565e+001 -8.234548e+001 0.000000e+000
    endloop
  endfacet
  facet normal 0.000000e+000 0.000000e+000 -1.000000e+000
    outer loop
      vertex   7.757567e+001 -1.323455e+002 0.000000e+000
      vertex   5.882566e+001 -1.573455e+002 0.000000e+000
      vertex   2.132565e+001 -8.234548e+001 0.000000e+000
    endloop
  endfacet
  facet normal 0.000000e+000 0.000000e+000 -1.000000e+000
    outer loop
      vertex   2.575651e+000 -1.073455e+002 0.000000e+000
      vertex   2.132565e+001 -1.823455e+002 0.000000e+000
      vertex   -2.242435e+001 -1.260955e+002 0.000000e+000
    endloop
  endfacet
  facet normal 0.000000e+000 0.000000e+000 -1.000000e+000
    outer loop
      vertex   -2.242435e+001 -1.260955e+002 0.000000e+000
      vertex   2.132565e+001 -1.823455e+002 0.000000e+000
      vertex   -4.117435e+001 -1.323455e+002 0.000000e+000
    endloop
  endfacet
  facet normal -8.000000e-001 -6.000000e-001 0.000000e+000
    outer loop
      vertex   -1.692993e+002 -1.448455e+002 5.000000e+001
      vertex   -1.786743e+002 -1.323455e+002 0.000000e+000
      vertex   -1.599243e+002 -1.573455e+002 0.000000e+000
    endloop
  endfacet
  facet normal 0.000000e+000 0.000000e+000 -1.000000e+000
    outer loop
      vertex   2.757565e+001 -5.109548e+001 0.000000e+000
      vertex   7.757567e+001 -1.323455e+002 0.000000e+000
      vertex   2.132565e+001 -8.234548e+001 0.000000e+000
    endloop
  endfacet
  facet normal 0.000000e+000 0.000000e+000 -1.000000e+000
    outer loop
      vertex   -1.286743e+002 -8.234548e+001 0.000000e+000
      vertex   -1.099243e+002 -1.073455e+002 0.000000e+000
      vertex   -1.974243e+002 -1.984548e+001 0.000000e+000
    endloop
  endfacet
  facet normal 0.000000e+000 0.000000e+000 -1.000000e+000
    outer loop
      vertex   -1.974243e+002 -1.984548e+001 0.000000e+000
      vertex   -1.099243e+002 -1.073455e+002 0.000000e+000
      vertex   -1.974243e+002 -5.109548e+001 0.000000e+000
    endloop
  endfacet
  facet normal 1.000000e+000 0.000000e+000 0.000000e+000
    outer loop
      vertex   -1.349243e+002 -3.547048e+001 5.000000e+001
      vertex   -1.349243e+002 -5.109548e+001 0.000000e+000
      vertex   -1.349243e+002 -1.984548e+001 0.000000e+000
    endloop
  endfacet
  facet normal 0.000000e+000 0.000000e+000 -1.000000e+000
    outer loop
      vertex   2.132565e+001 -1.823455e+002 0.000000e+000
      vertex   -2.867435e+001 -1.948455e+002 0.000000e+000
      vertex   -4.117435e+001 -1.323455e+002 0.000000e+000
    endloop
  endfacet
  facet normal 0.000000e+000 0.000000e+000 -1.000000e+000
    outer loop
      vertex   -2.867435e+001 -1.948455e+002 0.000000e+000
      vertex   -7.242435e+001 -1.948455e+002 0.000000e+000
      vertex   -1.974243e+002 -5.109548e+001 0.000000e+000
    endloop
  endfacet
  facet normal 5.547000e-001 -8.320504e-001 1.083398e-007
    outer loop
      vertex   4.007565e+001 -1.698455e+002 5.000000e+001
      vertex   2.132565e+001 -1.823455e+002 0.000000e+000
      vertex   5.882566e+001 -1.573455e+002 0.000000e+000
    endloop
  endfacet
  facet normal 0.000000e+000 0.000000e+000 -1.000000e+000
    outer loop
      vertex   -7.242435e+001 -1.948455e+002 0.000000e+000
      vertex   -1.224243e+002 -1.823455e+002 0.000000e+000
      vertex   -1.911743e+002 -9.484548e+001 0.000000e+000
    endloop
  endfacet
  facet normal 0.000000e+000 0.000000e+000 -1.000000e+000
    outer loop
      vertex   -1.349243e+002 -1.984548e+001 0.000000e+000
      vertex   -1.349243e+002 -5.109548e+001 0.000000e+000
      vertex   -1.974243e+002 -1.984548e+001 0.000000e+000
    endloop
  endfacet
  facet normal -5.547001e-001 -8.320504e-001 4.062745e-008
    outer loop
      vertex   -1.411743e+002 -1.698455e+002 5.000000e+001
      vertex   -1.224243e+002 -1.823455e+002 1.000000e+002
      vertex   -1.599243e+002 -1.573455e+002 1.000000e+002
    endloop
  endfacet
  facet normal 7.999999e-001 6.000001e-001 5.859374e-008
    outer loop
      vertex   -1.192993e+002 -9.484548e+001 5.000000e+001
      vertex   -1.286743e+002 -8.234548e+001 1.000000e+002
      vertex   -1.099243e+002 -1.073455e+002 1.000000e+002
    endloop
  endfacet
  facet normal 1.000000e+000 0.000000e+000 0.000000e+000
    outer loop
      vertex   -1.349243e+002 -3.547048e+001 5.000000e+001
      vertex   -1.349243e+002 -1.984548e+001 1.000000e+002
      vertex   -1.349243e+002 -5.109548e+001 1.000000e+002
    endloop
  endfacet
  facet normal 9.486833e-001 -3.162278e-001 2.316122e-008
    outer loop
      vertex   8.382567e+001 -1.135955e+002 5.000000e+001
      vertex   9.007567e+001 -9.484548e+001 1.000000e+002
      vertex   7.757567e+001 -1.323455e+002 1.000000e+002
    endloop
  endfacet
  facet normal -0.000000e+000 1.000000e+000 0.000000e+000
    outer loop
      vertex   -1.661743e+002 -1.984548e+001 5.000000e+001
      vertex   -1.974243e+002 -1.984548e+001 1.000000e+002
      vertex   -1.349243e+002 -1.984548e+001 1.000000e+002
    endloop
  endfacet
  facet normal 9.899495e-001 -1.414213e-001 6.905339e-009
    outer loop
      vertex   9.320067e+001 -7.297048e+001 5.000000e+001
      vertex   9.632567e+001 -5.109548e+001 1.000000e+002
      vertex   9.007567e+001 -9.484548e+001 1.000000e+002
    endloop
  endfacet
  facet normal -8.000000e-001 -6.000000e-001 0.000000e+000
    outer loop
      vertex   -1.692993e+002 -1.448455e+002 5.000000e+001
      vertex   -1.599243e+002 -1.573455e+002 1.000000e+002
      vertex   -1.786743e+002 -1.323455e+002 1.000000e+002
    endloop
  endfacet
  facet normal 9.805807e-001 1.961161e-001 -4.787991e-009
    outer loop
      vertex   -1.317993e+002 -6.672048e+001 5.000000e+001
      vertex   -1.349243e+002 -5.109548e+001 1.000000e+002
      vertex   -1.286743e+002 -8.234548e+001 1.000000e+002
    endloop
  endfacet
  facet normal 2.425356e-001 -9.701425e-001 0.000000e+000
    outer loop
      vertex   -3.674349e+000 -1.885955e+002 5.000000e+001
      vertex   2.132565e+001 -1.823455e+002 1.000000e+002
      vertex   -2.867435e+001 -1.948455e+002 1.000000e+002
    endloop
  endfacet
  facet normal -2.425357e-001 -9.701425e-001 -1.184256e-008
    outer loop
      vertex   -9.742434e+001 -1.885955e+002 5.000000e+001
      vertex   -7.242435e+001 -1.948455e+002 1.000000e+002
      vertex   -1.224243e+002 -1.823455e+002 1.000000e+002
    endloop
  endfacet
  facet normal -1.000000e+000 0.000000e+000 0.000000e+000
    outer loop
      vertex   2.757565e+001 1.270295e+002 5.000000e+001
      vertex   2.757565e+001 -5.109548e+001 1.000000e+002
      vertex   2.757565e+001 3.051545e+002 1.000000e+002
    endloop
  endfacet
  facet normal 3.162276e-001 9.486834e-001 5.018265e-008
    outer loop
      vertex   -7.554935e+001 -1.292205e+002 5.000000e+001
      vertex   -8.492434e+001 -1.260955e+002 1.000000e+002
      vertex   -6.617435e+001 -1.323455e+002 1.000000e+002
    endloop
  endfacet
  facet normal -0.000000e+000 1.000000e+000 0.000000e+000
    outer loop
      vertex   6.195066e+001 3.051545e+002 5.000000e+001
      vertex   2.757565e+001 3.051545e+002 1.000000e+002
      vertex   9.632567e+001 3.051545e+002 1.000000e+002
    endloop
  endfacet
  facet normal -3.162274e-001 9.486834e-001 6.948364e-008
    outer loop
      vertex   -3.179935e+001 -1.292205e+002 5.000000e+001
      vertex   -4.117435e+001 -1.323455e+002 1.000000e+002
      vertex   -2.242435e+001 -1.260955e+002 1.000000e+002
    endloop
  endfacet
  facet normal 1.000000e+000 0.000000e+000 0.000000e+000
    outer loop
      vertex   9.632567e+001 1.270295e+002 5.000000e+001
      vertex   9.632567e+001 3.051545e+002 1.000000e+002
      vertex   9.632567e+001 -5.109548e+001 1.000000e+002
    endloop
  endfacet
  facet normal -9.805807e-001 1.961161e-001 -9.575982e-009
    outer loop
      vertex   2.445065e+001 -6.672048e+001 5.000000e+001
      vertex   2.132565e+001 -8.234548e+001 1.000000e+002
      vertex   2.757565e+001 -5.109548e+001 1.000000e+002
    endloop
  endfacet
  facet normal -1.000000e+000 0.000000e+000 0.000000e+000
    outer loop
      vertex   -1.974243e+002 -3.547048e+001 5.000000e+001
      vertex   -1.974243e+002 -5.109548e+001 1.000000e+002
      vertex   -1.974243e+002 -1.984548e+001 1.000000e+002
    endloop
  endfacet
  facet normal -9.899495e-001 -1.414213e-001 6.905339e-009
    outer loop
      vertex   -1.942993e+002 -7.297048e+001 5.000000e+001
      vertex   -1.911743e+002 -9.484548e+001 1.000000e+002
      vertex   -1.974243e+002 -5.109548e+001 1.000000e+002
    endloop
  endfacet
  facet normal -6.000000e-001 8.000000e-001 0.000000e+000
    outer loop
      vertex   -9.924349e+000 -1.167205e+002 5.000000e+001
      vertex   -2.242435e+001 -1.260955e+002 1.000000e+002
      vertex   2.575651e+000 -1.073455e+002 1.000000e+002
    endloop
  endfacet
  facet normal -0.000000e+000 1.000000e+000 0.000000e+000
    outer loop
      vertex   -5.367435e+001 -1.323455e+002 5.000000e+001
      vertex   -6.617435e+001 -1.323455e+002 1.000000e+002
      vertex   -4.117435e+001 -1.323455e+002 1.000000e+002
    endloop
  endfacet
  facet normal 6.000000e-001 8.000000e-001 0.000000e+000
    outer loop
      vertex   -9.742434e+001 -1.167205e+002 5.000000e+001
      vertex   -1.099243e+002 -1.073455e+002 1.000000e+002
      vertex   -8.492434e+001 -1.260955e+002 1.000000e+002
    endloop
  endfacet
  facet normal -9.486833e-001 -3.162278e-001 2.316122e-008
    outer loop
      vertex   -1.849243e+002 -1.135955e+002 5.000000e+001
      vertex   -1.786743e+002 -1.323455e+002 1.000000e+002
      vertex   -1.911743e+002 -9.484548e+001 1.000000e+002
    endloop
  endfacet
  facet normal 8.000000e-001 -6.000001e-001 2.929687e-008
    outer loop
      vertex   6.820067e+001 -1.448455e+002 5.000000e+001
      vertex   7.757567e+001 -1.323455e+002 1.000000e+002
      vertex   5.882566e+001 -1.573455e+002 1.000000e+002
    endloop
  endfacet
  facet normal 5.547000e-001 -8.320504e-001 -8.125489e-008
    outer loop
      vertex   4.007565e+001 -1.698455e+002 5.000000e+001
      vertex   5.882566e+001 -1.573455e+002 1.000000e+002
      vertex   2.132565e+001 -1.823455e+002 1.000000e+002
    endloop
  endfacet
  facet normal -0.000000e+000 -1.000000e+000 0.000000e+000
    outer loop
      vertex   -5.054935e+001 -1.948455e+002 5.000000e+001
      vertex   -2.867435e+001 -1.948455e+002 1.000000e+002
      vertex   -7.242435e+001 -1.948455e+002 1.000000e+002
    endloop
  endfacet
  facet normal -8.000000e-001 6.000000e-001 0.000000e+000
    outer loop
      vertex   1.195065e+001 -9.484548e+001 5.000000e+001
      vertex   2.575651e+000 -1.073455e+002 1.000000e+002
      vertex   2.132565e+001 -8.234548e+001 1.000000e+002
    endloop
  endfacet
  facet normal 0.000000e+000 0.000000e+000 1.000000e+000
    outer loop
      vertex   2.132565e+001 -1.823455e+002 1.000000e+002
      vertex   -4.117435e+001 -1.323455e+002 1.000000e+002
      vertex   -2.867435e+001 -1.948455e+002 1.000000e+002
    endloop
  endfacet
  facet normal -0.000000e+000 -0.000000e+000 1.000000e+000
    outer loop
      vertex   -1.911743e+002 -9.484548e+001 1.000000e+002
      vertex   -1.786743e+002 -1.323455e+002 1.000000e+002
      vertex   -1.224243e+002 -1.823455e+002 1.000000e+002
    endloop
  endfacet
  facet normal 0.000000e+000 0.000000e+000 1.000000e+000
    outer loop
      vertex   -7.242435e+001 -1.948455e+002 1.000000e+002
      vertex   -1.911743e+002 -9.484548e+001 1.000000e+002
      vertex   -1.224243e+002 -1.823455e+002 1.000000e+002
    endloop
  endfacet
  facet normal -0.000000e+000 -0.000000e+000 1.000000e+000
    outer loop
      vertex   -1.974243e+002 -5.109548e+001 1.000000e+002
      vertex   -1.911743e+002 -9.484548e+001 1.000000e+002
      vertex   -7.242435e+001 -1.948455e+002 1.000000e+002
    endloop
  endfacet
  facet normal 0.000000e+000 0.000000e+000 1.000000e+000
    outer loop
      vertex   -2.867435e+001 -1.948455e+002 1.000000e+002
      vertex   -1.974243e+002 -5.109548e+001 1.000000e+002
      vertex   -7.242435e+001 -1.948455e+002 1.000000e+002
    endloop
  endfacet
  facet normal 0.000000e+000 0.000000e+000 1.000000e+000
    outer loop
      vertex   -1.099243e+002 -1.073455e+002 1.000000e+002
      vertex   -1.974243e+002 -5.109548e+001 1.000000e+002
      vertex   -2.867435e+001 -1.948455e+002 1.000000e+002
    endloop
  endfacet
  facet normal -0.000000e+000 0.000000e+000 1.000000e+000
    outer loop
      vertex   -1.974243e+002 -1.984548e+001 1.000000e+002
      vertex   -1.974243e+002 -5.109548e+001 1.000000e+002
      vertex   -1.099243e+002 -1.073455e+002 1.000000e+002
    endloop
  endfacet
  facet normal 0.000000e+000 0.000000e+000 1.000000e+000
    outer loop
      vertex   -8.492434e+001 -1.260955e+002 1.000000e+002
      vertex   -1.099243e+002 -1.073455e+002 1.000000e+002
      vertex   -2.867435e+001 -1.948455e+002 1.000000e+002
    endloop
  endfacet
  facet normal 0.000000e+000 0.000000e+000 1.000000e+000
    outer loop
      vertex   -1.286743e+002 -8.234548e+001 1.000000e+002
      vertex   -1.974243e+002 -1.984548e+001 1.000000e+002
      vertex   -1.099243e+002 -1.073455e+002 1.000000e+002
    endloop
  endfacet
  facet normal 0.000000e+000 0.000000e+000 1.000000e+000
    outer loop
      vertex   -6.617435e+001 -1.323455e+002 1.000000e+002
      vertex   -8.492434e+001 -1.260955e+002 1.000000e+002
      vertex   -2.867435e+001 -1.948455e+002 1.000000e+002
    endloop
  endfacet
  facet normal 0.000000e+000 0.000000e+000 1.000000e+000
    outer loop
      vertex   -1.349243e+002 -5.109548e+001 1.000000e+002
      vertex   -1.974243e+002 -1.984548e+001 1.000000e+002
      vertex   -1.286743e+002 -8.234548e+001 1.000000e+002
    endloop
  endfacet
  facet normal -0.000000e+000 0.000000e+000 1.000000e+000
    outer loop
      vertex   -4.117435e+001 -1.323455e+002 1.000000e+002
      vertex   -6.617435e+001 -1.323455e+002 1.000000e+002
      vertex   -2.867435e+001 -1.948455e+002 1.000000e+002
    endloop
  endfacet
  facet normal 0.000000e+000 0.000000e+000 1.000000e+000
    outer loop
      vertex   -1.224243e+002 -1.823455e+002 1.000000e+002
      vertex   -1.786743e+002 -1.323455e+002 1.000000e+002
      vertex   -1.599243e+002 -1.573455e+002 1.000000e+002
    endloop
  endfacet
  facet normal -0.000000e+000 0.000000e+000 1.000000e+000
    outer loop
      vertex   -1.349243e+002 -1.984548e+001 1.000000e+002
      vertex   -1.974243e+002 -1.984548e+001 1.000000e+002
      vertex   -1.349243e+002 -5.109548e+001 1.000000e+002
    endloop
  endfacet
  facet normal -0.000000e+000 0.000000e+000 1.000000e+000
    outer loop
      vertex   -2.242435e+001 -1.260955e+002 1.000000e+002
      vertex   -4.117435e+001 -1.323455e+002 1.000000e+002
      vertex   2.132565e+001 -1.823455e+002 1.000000e+002
    endloop
  endfacet
  facet normal -0.000000e+000 0.000000e+000 1.000000e+000
    outer loop
      vertex   2.575651e+000 -1.073455e+002 1.000000e+002
      vertex   -2.242435e+001 -1.260955e+002 1.000000e+002
      vertex   2.132565e+001 -1.823455e+002 1.000000e+002
    endloop
  endfacet
  facet normal 0.000000e+000 0.000000e+000 1.000000e+000
    outer loop
      vertex   5.882566e+001 -1.573455e+002 1.000000e+002
      vertex   2.575651e+000 -1.073455e+002 1.000000e+002
      vertex   2.132565e+001 -1.823455e+002 1.000000e+002
    endloop
  endfacet
  facet normal -0.000000e+000 0.000000e+000 1.000000e+000
    outer loop
      vertex   2.132565e+001 -8.234548e+001 1.000000e+002
      vertex   2.575651e+000 -1.073455e+002 1.000000e+002
      vertex   5.882566e+001 -1.573455e+002 1.000000e+002
    endloop
  endfacet
  facet normal 0.000000e+000 0.000000e+000 1.000000e+000
    outer loop
      vertex   7.757567e+001 -1.323455e+002 1.000000e+002
      vertex   2.132565e+001 -8.234548e+001 1.000000e+002
      vertex   5.882566e+001 -1.573455e+002 1.000000e+002
    endloop
  endfacet
  facet normal -0.000000e+000 0.000000e+000 1.000000e+000
    outer loop
      vertex   2.757565e+001 -5.109548e+001 1.000000e+002
      vertex   2.132565e+001 -8.234548e+001 1.000000e+002
      vertex   7.757567e+001 -1.323455e+002 1.000000e+002
    endloop
  endfacet
  facet normal 0.000000e+000 0.000000e+000 1.000000e+000
    outer loop
      vertex   9.007567e+001 -9.484548e+001 1.000000e+002
      vertex   2.757565e+001 -5.109548e+001 1.000000e+002
      vertex   7.757567e+001 -1.323455e+002 1.000000e+002
    endloop
  endfacet
  facet normal -0.000000e+000 0.000000e+000 1.000000e+000
    outer loop
      vertex   9.632567e+001 -5.109548e+001 1.000000e+002
      vertex   2.757565e+001 -5.109548e+001 1.000000e+002
      vertex   9.007567e+001 -9.484548e+001 1.000000e+002
    endloop
  endfacet
  facet normal 0.000000e+000 0.000000e+000 1.000000e+000
    outer loop
      vertex   2.757565e+001 3.051545e+002 1.000000e+002
      vertex   2.757565e+001 -5.109548e+001 1.000000e+002
      vertex   9.632567e+001 -5.109548e+001 1.000000e+002
    endloop
  endfacet
  facet normal -0.000000e+000 0.000000e+000 1.000000e+000
    outer loop
      vertex   9.632567e+001 3.051545e+002 1.000000e+002
      vertex   2.757565e+001 3.051545e+002 1.000000e+002
      vertex   9.632567e+001 -5.109548e+001 1.000000e+002
    endloop
  endfacet
endsolid
