solid ascii
  facet normal 1.000000e+000 0.000000e+000 0.000000e+000
    outer loop
      vertex   -8.896357e+001 1.314452e+002 5.000000e+001
      vertex   -8.896357e+001 1.269518e+001 0.000000e+000
      vertex   -8.896357e+001 2.501952e+002 0.000000e+000
    endloop
  endfacet
  facet normal 7.071068e-001 -7.071068e-001 0.000000e+000
    outer loop
      vertex   -4.833857e+001 -3.417982e+001 5.000000e+001
      vertex   -7.713566e+000 6.445176e+000 0.000000e+000
      vertex   -7.713566e+000 6.445176e+000 1.000000e+002
    endloop
  endfacet
  facet normal 1.000000e+000 0.000000e+000 -0.000000e+000
    outer loop
      vertex   -8.896357e+001 1.314452e+002 5.000000e+001
      vertex   -8.896357e+001 2.501952e+002 0.000000e+000
      vertex   -8.896357e+001 2.501952e+002 1.000000e+002
    endloop
  endfacet
  facet normal 7.071068e-001 -7.071068e-001 0.000000e+000
    outer loop
      vertex   -4.833857e+001 -3.417982e+001 5.000000e+001
      vertex   -8.896357e+001 -7.480482e+001 1.000000e+002
      vertex   -8.896357e+001 -7.480482e+001 0.000000e+000
    endloop
  endfacet
  facet normal -6.978647e-001 7.162296e-001 3.443411e-007
    outer loop
      vertex   3.291143e+001 1.314452e+002 5.000000e+001
      vertex   1.547864e+002 2.501952e+002 0.000000e+000
      vertex   -8.896357e+001 1.269518e+001 0.000000e+000
    endloop
  endfacet
  facet normal -6.978647e-001 7.162297e-001 0.000000e+000
    outer loop
      vertex   3.291143e+001 1.314452e+002 5.000000e+001
      vertex   -8.896357e+001 1.269518e+001 0.000000e+000
      vertex   -8.896357e+001 1.269518e+001 1.000000e+002
    endloop
  endfacet
  facet normal 1.000000e+000 0.000000e+000 0.000000e+000
    outer loop
      vertex   -8.896357e+001 1.314452e+002 5.000000e+001
      vertex   -8.896357e+001 1.269518e+001 1.000000e+002
      vertex   -8.896357e+001 1.269518e+001 0.000000e+000
    endloop
  endfacet
  facet normal -6.978648e-001 7.162296e-001 0.000000e+000
    outer loop
      vertex   3.291143e+001 1.314452e+002 5.000000e+001
      vertex   1.547864e+002 2.501952e+002 1.000000e+002
      vertex   1.547864e+002 2.501952e+002 0.000000e+000
    endloop
  endfacet
  facet normal 0.000000e+000 1.000000e+000 0.000000e+000
    outer loop
      vertex   -1.233386e+002 2.501952e+002 5.000000e+001
      vertex   -8.896357e+001 2.501952e+002 0.000000e+000
      vertex   -1.577136e+002 2.501952e+002 0.000000e+000
    endloop
  endfacet
  facet normal 0.000000e+000 1.000000e+000 0.000000e+000
    outer loop
      vertex   -1.233386e+002 2.501952e+002 5.000000e+001
      vertex   -1.577136e+002 2.501952e+002 0.000000e+000
      vertex   -1.577136e+002 2.501952e+002 1.000000e+002
    endloop
  endfacet
  facet normal 0.000000e+000 1.000000e+000 0.000000e+000
    outer loop
      vertex   1.985364e+002 2.501952e+002 5.000000e+001
      vertex   1.547864e+002 2.501952e+002 0.000000e+000
      vertex   1.547864e+002 2.501952e+002 1.000000e+002
    endloop
  endfacet
  facet normal 0.000000e+000 1.000000e+000 0.000000e+000
    outer loop
      vertex   -1.233386e+002 2.501952e+002 5.000000e+001
      vertex   -8.896357e+001 2.501952e+002 1.000000e+002
      vertex   -8.896357e+001 2.501952e+002 0.000000e+000
    endloop
  endfacet
  facet normal 0.000000e+000 -1.000000e+000 0.000000e+000
    outer loop
      vertex   2.172864e+002 -2.498048e+002 5.000000e+001
      vertex   1.735364e+002 -2.498048e+002 0.000000e+000
      vertex   2.610364e+002 -2.498048e+002 0.000000e+000
    endloop
  endfacet
  facet normal 0.000000e+000 -1.000000e+000 0.000000e+000
    outer loop
      vertex   2.172864e+002 -2.498048e+002 5.000000e+001
      vertex   2.610364e+002 -2.498048e+002 0.000000e+000
      vertex   2.610364e+002 -2.498048e+002 1.000000e+002
    endloop
  endfacet
  facet normal 0.000000e+000 1.000000e+000 0.000000e+000
    outer loop
      vertex   1.985364e+002 2.501952e+002 5.000000e+001
      vertex   2.422864e+002 2.501952e+002 1.000000e+002
      vertex   2.422864e+002 2.501952e+002 0.000000e+000
    endloop
  endfacet
  facet normal 0.000000e+000 -1.000000e+000 0.000000e+000
    outer loop
      vertex   2.172864e+002 -2.498048e+002 5.000000e+001
      vertex   1.735364e+002 -2.498048e+002 1.000000e+002
      vertex   1.735364e+002 -2.498048e+002 0.000000e+000
    endloop
  endfacet
  facet normal -8.164156e-001 -5.774646e-001 1.244536e-007
    outer loop
      vertex   8.291143e+001 -1.216798e+002 5.000000e+001
      vertex   -7.713566e+000 6.445176e+000 0.000000e+000
      vertex   1.735364e+002 -2.498048e+002 0.000000e+000
    endloop
  endfacet
  facet normal -8.164156e-001 -5.774646e-001 0.000000e+000
    outer loop
      vertex   8.291143e+001 -1.216798e+002 5.000000e+001
      vertex   1.735364e+002 -2.498048e+002 0.000000e+000
      vertex   1.735364e+002 -2.498048e+002 1.000000e+002
    endloop
  endfacet
  facet normal 8.137335e-001 5.812382e-001 -0.000000e+000
    outer loop
      vertex   1.516614e+002 -9.667982e+001 5.000000e+001
      vertex   4.228643e+001 5.644516e+001 0.000000e+000
      vertex   4.228643e+001 5.644516e+001 1.000000e+002
    endloop
  endfacet
  facet normal -8.164156e-001 -5.774647e-001 -0.000000e+000
    outer loop
      vertex   8.291143e+001 -1.216798e+002 5.000000e+001
      vertex   -7.713566e+000 6.445176e+000 1.000000e+002
      vertex   -7.713566e+000 6.445176e+000 0.000000e+000
    endloop
  endfacet
  facet normal -1.000000e+000 0.000000e+000 0.000000e+000
    outer loop
      vertex   -1.577136e+002 1.951762e-001 5.000000e+001
      vertex   -1.577136e+002 2.501952e+002 0.000000e+000
      vertex   -1.577136e+002 -2.498048e+002 0.000000e+000
    endloop
  endfacet
  facet normal -1.000000e+000 0.000000e+000 0.000000e+000
    outer loop
      vertex   -1.577136e+002 1.951762e-001 5.000000e+001
      vertex   -1.577136e+002 -2.498048e+002 0.000000e+000
      vertex   -1.577136e+002 -2.498048e+002 1.000000e+002
    endloop
  endfacet
  facet normal 8.137335e-001 5.812381e-001 0.000000e+000
    outer loop
      vertex   1.516614e+002 -9.667982e+001 5.000000e+001
      vertex   2.610364e+002 -2.498048e+002 1.000000e+002
      vertex   2.610364e+002 -2.498048e+002 0.000000e+000
    endloop
  endfacet
  facet normal -1.000000e+000 0.000000e+000 -0.000000e+000
    outer loop
      vertex   -1.577136e+002 1.951762e-001 5.000000e+001
      vertex   -1.577136e+002 2.501952e+002 1.000000e+002
      vertex   -1.577136e+002 2.501952e+002 0.000000e+000
    endloop
  endfacet
  facet normal 1.000000e+000 0.000000e+000 0.000000e+000
    outer loop
      vertex   -8.896357e+001 -1.623048e+002 5.000000e+001
      vertex   -8.896357e+001 -2.498048e+002 0.000000e+000
      vertex   -8.896357e+001 -7.480482e+001 0.000000e+000
    endloop
  endfacet
  facet normal 1.000000e+000 0.000000e+000 -0.000000e+000
    outer loop
      vertex   -8.896357e+001 -1.623048e+002 5.000000e+001
      vertex   -8.896357e+001 -7.480482e+001 0.000000e+000
      vertex   -8.896357e+001 -7.480482e+001 1.000000e+002
    endloop
  endfacet
  facet normal 6.957952e-001 -7.182403e-001 0.000000e+000
    outer loop
      vertex   1.422864e+002 1.533202e+002 5.000000e+001
      vertex   2.422864e+002 2.501952e+002 0.000000e+000
      vertex   2.422864e+002 2.501952e+002 1.000000e+002
    endloop
  endfacet
  facet normal 1.000000e+000 0.000000e+000 0.000000e+000
    outer loop
      vertex   -8.896357e+001 -1.623048e+002 5.000000e+001
      vertex   -8.896357e+001 -2.498048e+002 1.000000e+002
      vertex   -8.896357e+001 -2.498048e+002 0.000000e+000
    endloop
  endfacet
  facet normal 0.000000e+000 0.000000e+000 -1.000000e+000
    outer loop
      vertex   -8.896357e+001 -7.480482e+001 0.000000e+000
      vertex   -8.896357e+001 -2.498048e+002 0.000000e+000
      vertex   -1.577136e+002 -2.498048e+002 0.000000e+000
    endloop
  endfacet
  facet normal 6.957953e-001 -7.182401e-001 0.000000e+000
    outer loop
      vertex   1.422864e+002 1.533202e+002 5.000000e+001
      vertex   4.228643e+001 5.644516e+001 1.000000e+002
      vertex   4.228643e+001 5.644516e+001 0.000000e+000
    endloop
  endfacet
  facet normal 0.000000e+000 0.000000e+000 -1.000000e+000
    outer loop
      vertex   -7.713566e+000 6.445176e+000 0.000000e+000
      vertex   -8.896357e+001 -7.480482e+001 0.000000e+000
      vertex   -8.896357e+001 1.269518e+001 0.000000e+000
    endloop
  endfacet
  facet normal 0.000000e+000 0.000000e+000 -1.000000e+000
    outer loop
      vertex   -7.713566e+000 6.445176e+000 0.000000e+000
      vertex   2.610364e+002 -2.498048e+002 0.000000e+000
      vertex   1.735364e+002 -2.498048e+002 0.000000e+000
    endloop
  endfacet
  facet normal 0.000000e+000 1.000000e+000 0.000000e+000
    outer loop
      vertex   1.985364e+002 2.501952e+002 5.000000e+001
      vertex   2.422864e+002 2.501952e+002 0.000000e+000
      vertex   1.547864e+002 2.501952e+002 0.000000e+000
    endloop
  endfacet
  facet normal -0.000000e+000 0.000000e+000 -1.000000e+000
    outer loop
      vertex   -8.896357e+001 1.269518e+001 0.000000e+000
      vertex   -8.896357e+001 -7.480482e+001 0.000000e+000
      vertex   -1.577136e+002 -2.498048e+002 0.000000e+000
    endloop
  endfacet
  facet normal 7.071068e-001 -7.071068e-001 -4.249440e-008
    outer loop
      vertex   -4.833857e+001 -3.417982e+001 5.000000e+001
      vertex   -8.896357e+001 -7.480482e+001 0.000000e+000
      vertex   -7.713566e+000 6.445176e+000 0.000000e+000
    endloop
  endfacet
  facet normal 0.000000e+000 -1.000000e+000 0.000000e+000
    outer loop
      vertex   -1.233386e+002 -2.498048e+002 5.000000e+001
      vertex   -1.577136e+002 -2.498048e+002 0.000000e+000
      vertex   -8.896357e+001 -2.498048e+002 0.000000e+000
    endloop
  endfacet
  facet normal 8.137335e-001 5.812381e-001 0.000000e+000
    outer loop
      vertex   1.516614e+002 -9.667982e+001 5.000000e+001
      vertex   2.610364e+002 -2.498048e+002 0.000000e+000
      vertex   4.228643e+001 5.644516e+001 0.000000e+000
    endloop
  endfacet
  facet normal 0.000000e+000 -1.000000e+000 0.000000e+000
    outer loop
      vertex   -1.233386e+002 -2.498048e+002 5.000000e+001
      vertex   -8.896357e+001 -2.498048e+002 0.000000e+000
      vertex   -8.896357e+001 -2.498048e+002 1.000000e+002
    endloop
  endfacet
  facet normal 0.000000e+000 0.000000e+000 -1.000000e+000
    outer loop
      vertex   4.228643e+001 5.644516e+001 0.000000e+000
      vertex   -7.713566e+000 6.445176e+000 0.000000e+000
      vertex   -8.896357e+001 1.269518e+001 0.000000e+000
    endloop
  endfacet
  facet normal 0.000000e+000 0.000000e+000 -1.000000e+000
    outer loop
      vertex   4.228643e+001 5.644516e+001 0.000000e+000
      vertex   2.610364e+002 -2.498048e+002 0.000000e+000
      vertex   -7.713566e+000 6.445176e+000 0.000000e+000
    endloop
  endfacet
  facet normal 6.957952e-001 -7.182402e-001 1.402813e-007
    outer loop
      vertex   1.422864e+002 1.533202e+002 5.000000e+001
      vertex   4.228643e+001 5.644516e+001 0.000000e+000
      vertex   2.422864e+002 2.501952e+002 0.000000e+000
    endloop
  endfacet
  facet normal 0.000000e+000 0.000000e+000 -1.000000e+000
    outer loop
      vertex   2.422864e+002 2.501952e+002 0.000000e+000
      vertex   4.228643e+001 5.644516e+001 0.000000e+000
      vertex   1.547864e+002 2.501952e+002 0.000000e+000
    endloop
  endfacet
  facet normal 0.000000e+000 -1.000000e+000 0.000000e+000
    outer loop
      vertex   -1.233386e+002 -2.498048e+002 5.000000e+001
      vertex   -1.577136e+002 -2.498048e+002 1.000000e+002
      vertex   -1.577136e+002 -2.498048e+002 0.000000e+000
    endloop
  endfacet
  facet normal -0.000000e+000 0.000000e+000 -1.000000e+000
    outer loop
      vertex   -1.577136e+002 2.501952e+002 0.000000e+000
      vertex   -8.896357e+001 1.269518e+001 0.000000e+000
      vertex   -1.577136e+002 -2.498048e+002 0.000000e+000
    endloop
  endfacet
  facet normal 0.000000e+000 0.000000e+000 -1.000000e+000
    outer loop
      vertex   -8.896357e+001 2.501952e+002 0.000000e+000
      vertex   -8.896357e+001 1.269518e+001 0.000000e+000
      vertex   -1.577136e+002 2.501952e+002 0.000000e+000
    endloop
  endfacet
  facet normal -0.000000e+000 0.000000e+000 -1.000000e+000
    outer loop
      vertex   1.547864e+002 2.501952e+002 0.000000e+000
      vertex   4.228643e+001 5.644516e+001 0.000000e+000
      vertex   -8.896357e+001 1.269518e+001 0.000000e+000
    endloop
  endfacet
  facet normal -0.000000e+000 -1.000000e+000 0.000000e+000
    outer loop
      vertex   2.172864e+002 -2.498048e+002 5.000000e+001
      vertex   2.610364e+002 -2.498048e+002 1.000000e+002
      vertex   1.735364e+002 -2.498048e+002 1.000000e+002
    endloop
  endfacet
  facet normal -0.000000e+000 1.000000e+000 0.000000e+000
    outer loop
      vertex   -1.233386e+002 2.501952e+002 5.000000e+001
      vertex   -1.577136e+002 2.501952e+002 1.000000e+002
      vertex   -8.896357e+001 2.501952e+002 1.000000e+002
    endloop
  endfacet
  facet normal -6.978647e-001 7.162296e-001 -1.147804e-007
    outer loop
      vertex   3.291143e+001 1.314452e+002 5.000000e+001
      vertex   -8.896357e+001 1.269518e+001 1.000000e+002
      vertex   1.547864e+002 2.501952e+002 1.000000e+002
    endloop
  endfacet
  facet normal -1.000000e+000 0.000000e+000 0.000000e+000
    outer loop
      vertex   -1.577136e+002 1.951762e-001 5.000000e+001
      vertex   -1.577136e+002 -2.498048e+002 1.000000e+002
      vertex   -1.577136e+002 2.501952e+002 1.000000e+002
    endloop
  endfacet
  facet normal 1.000000e+000 0.000000e+000 0.000000e+000
    outer loop
      vertex   -8.896357e+001 -1.623048e+002 5.000000e+001
      vertex   -8.896357e+001 -7.480482e+001 1.000000e+002
      vertex   -8.896357e+001 -2.498048e+002 1.000000e+002
    endloop
  endfacet
  facet normal 8.137335e-001 5.812381e-001 2.075851e-007
    outer loop
      vertex   1.516614e+002 -9.667982e+001 5.000000e+001
      vertex   4.228643e+001 5.644516e+001 1.000000e+002
      vertex   2.610364e+002 -2.498048e+002 1.000000e+002
    endloop
  endfacet
  facet normal -8.164156e-001 -5.774646e-001 0.000000e+000
    outer loop
      vertex   8.291143e+001 -1.216798e+002 5.000000e+001
      vertex   1.735364e+002 -2.498048e+002 1.000000e+002
      vertex   -7.713566e+000 6.445176e+000 1.000000e+002
    endloop
  endfacet
  facet normal -0.000000e+000 -1.000000e+000 0.000000e+000
    outer loop
      vertex   -1.233386e+002 -2.498048e+002 5.000000e+001
      vertex   -8.896357e+001 -2.498048e+002 1.000000e+002
      vertex   -1.577136e+002 -2.498048e+002 1.000000e+002
    endloop
  endfacet
  facet normal 6.957952e-001 -7.182402e-001 -1.402813e-007
    outer loop
      vertex   1.422864e+002 1.533202e+002 5.000000e+001
      vertex   2.422864e+002 2.501952e+002 1.000000e+002
      vertex   4.228643e+001 5.644516e+001 1.000000e+002
    endloop
  endfacet
  facet normal 1.000000e+000 0.000000e+000 0.000000e+000
    outer loop
      vertex   -8.896357e+001 1.314452e+002 5.000000e+001
      vertex   -8.896357e+001 2.501952e+002 1.000000e+002
      vertex   -8.896357e+001 1.269518e+001 1.000000e+002
    endloop
  endfacet
  facet normal 7.071068e-001 -7.071068e-001 0.000000e+000
    outer loop
      vertex   -4.833857e+001 -3.417982e+001 5.000000e+001
      vertex   -7.713566e+000 6.445176e+000 1.000000e+002
      vertex   -8.896357e+001 -7.480482e+001 1.000000e+002
    endloop
  endfacet
  facet normal -0.000000e+000 1.000000e+000 0.000000e+000
    outer loop
      vertex   1.985364e+002 2.501952e+002 5.000000e+001
      vertex   1.547864e+002 2.501952e+002 1.000000e+002
      vertex   2.422864e+002 2.501952e+002 1.000000e+002
    endloop
  endfacet
  facet normal -0.000000e+000 0.000000e+000 1.000000e+000
    outer loop
      vertex   4.228643e+001 5.644516e+001 1.000000e+002
      vertex   -8.896357e+001 1.269518e+001 1.000000e+002
      vertex   -7.713566e+000 6.445176e+000 1.000000e+002
    endloop
  endfacet
  facet normal 0.000000e+000 0.000000e+000 1.000000e+000
    outer loop
      vertex   1.547864e+002 2.501952e+002 1.000000e+002
      vertex   -8.896357e+001 1.269518e+001 1.000000e+002
      vertex   4.228643e+001 5.644516e+001 1.000000e+002
    endloop
  endfacet
  facet normal -0.000000e+000 0.000000e+000 1.000000e+000
    outer loop
      vertex   -8.896357e+001 2.501952e+002 1.000000e+002
      vertex   -1.577136e+002 2.501952e+002 1.000000e+002
      vertex   -8.896357e+001 1.269518e+001 1.000000e+002
    endloop
  endfacet
  facet normal 0.000000e+000 0.000000e+000 1.000000e+000
    outer loop
      vertex   -1.577136e+002 2.501952e+002 1.000000e+002
      vertex   -1.577136e+002 -2.498048e+002 1.000000e+002
      vertex   -8.896357e+001 1.269518e+001 1.000000e+002
    endloop
  endfacet
  facet normal -0.000000e+000 0.000000e+000 1.000000e+000
    outer loop
      vertex   4.228643e+001 5.644516e+001 1.000000e+002
      vertex   -7.713566e+000 6.445176e+000 1.000000e+002
      vertex   2.610364e+002 -2.498048e+002 1.000000e+002
    endloop
  endfacet
  facet normal -0.000000e+000 0.000000e+000 1.000000e+000
    outer loop
      vertex   2.422864e+002 2.501952e+002 1.000000e+002
      vertex   1.547864e+002 2.501952e+002 1.000000e+002
      vertex   4.228643e+001 5.644516e+001 1.000000e+002
    endloop
  endfacet
  facet normal 0.000000e+000 0.000000e+000 1.000000e+000
    outer loop
      vertex   -7.713566e+000 6.445176e+000 1.000000e+002
      vertex   -8.896357e+001 1.269518e+001 1.000000e+002
      vertex   -8.896357e+001 -7.480482e+001 1.000000e+002
    endloop
  endfacet
  facet normal 0.000000e+000 -0.000000e+000 1.000000e+000
    outer loop
      vertex   -7.713566e+000 6.445176e+000 1.000000e+002
      vertex   1.735364e+002 -2.498048e+002 1.000000e+002
      vertex   2.610364e+002 -2.498048e+002 1.000000e+002
    endloop
  endfacet
  facet normal 0.000000e+000 0.000000e+000 1.000000e+000
    outer loop
      vertex   -8.896357e+001 1.269518e+001 1.000000e+002
      vertex   -1.577136e+002 -2.498048e+002 1.000000e+002
      vertex   -8.896357e+001 -7.480482e+001 1.000000e+002
    endloop
  endfacet
  facet normal 0.000000e+000 0.000000e+000 1.000000e+000
    outer loop
      vertex   -8.896357e+001 -7.480482e+001 1.000000e+002
      vertex   -1.577136e+002 -2.498048e+002 1.000000e+002
      vertex   -8.896357e+001 -2.498048e+002 1.000000e+002
    endloop
  endfacet
endsolid
