solid ascii
  facet normal 1.000000e+000 0.000000e+000 0.000000e+000
    outer loop
      vertex   2.433654e+002 -1.480769e+002 5.000000e+001
      vertex   2.433654e+002 -1.793269e+002 0.000000e+000
      vertex   2.433654e+002 -1.168269e+002 0.000000e+000
    endloop
  endfacet
  facet normal -1.000000e+000 0.000000e+000 0.000000e+000
    outer loop
      vertex   -8.788461e+001 7.067307e+001 5.000000e+001
      vertex   -8.788461e+001 -1.793269e+002 0.000000e+000
      vertex   -8.788461e+001 -1.793269e+002 1.000000e+002
    endloop
  endfacet
  facet normal 1.000000e+000 0.000000e+000 -0.000000e+000
    outer loop
      vertex   2.433654e+002 -1.480769e+002 5.000000e+001
      vertex   2.433654e+002 -1.168269e+002 0.000000e+000
      vertex   2.433654e+002 -1.168269e+002 1.000000e+002
    endloop
  endfacet
  facet normal -1.000000e+000 0.000000e+000 -0.000000e+000
    outer loop
      vertex   -8.788461e+001 7.067307e+001 5.000000e+001
      vertex   -8.788461e+001 3.206731e+002 1.000000e+002
      vertex   -8.788461e+001 3.206731e+002 0.000000e+000
    endloop
  endfacet
  facet normal 0.000000e+000 -1.000000e+000 0.000000e+000
    outer loop
      vertex   7.774039e+001 -1.793269e+002 5.000000e+001
      vertex   -8.788461e+001 -1.793269e+002 0.000000e+000
      vertex   2.433654e+002 -1.793269e+002 0.000000e+000
    endloop
  endfacet
  facet normal 0.000000e+000 -1.000000e+000 0.000000e+000
    outer loop
      vertex   7.774039e+001 -1.793269e+002 5.000000e+001
      vertex   2.433654e+002 -1.793269e+002 0.000000e+000
      vertex   2.433654e+002 -1.793269e+002 1.000000e+002
    endloop
  endfacet
  facet normal 1.000000e+000 0.000000e+000 0.000000e+000
    outer loop
      vertex   2.433654e+002 -1.480769e+002 5.000000e+001
      vertex   2.433654e+002 -1.793269e+002 1.000000e+002
      vertex   2.433654e+002 -1.793269e+002 0.000000e+000
    endloop
  endfacet
  facet normal 0.000000e+000 -1.000000e+000 0.000000e+000
    outer loop
      vertex   7.774039e+001 -1.793269e+002 5.000000e+001
      vertex   -8.788461e+001 -1.793269e+002 1.000000e+002
      vertex   -8.788461e+001 -1.793269e+002 0.000000e+000
    endloop
  endfacet
  facet normal 1.000000e+000 0.000000e+000 0.000000e+000
    outer loop
      vertex   -1.913461e+001 1.019231e+002 5.000000e+001
      vertex   -1.913461e+001 -1.168269e+002 0.000000e+000
      vertex   -1.913461e+001 3.206731e+002 0.000000e+000
    endloop
  endfacet
  facet normal 1.000000e+000 0.000000e+000 -0.000000e+000
    outer loop
      vertex   -1.913461e+001 1.019231e+002 5.000000e+001
      vertex   -1.913461e+001 3.206731e+002 0.000000e+000
      vertex   -1.913461e+001 3.206731e+002 1.000000e+002
    endloop
  endfacet
  facet normal 0.000000e+000 1.000000e+000 0.000000e+000
    outer loop
      vertex   1.121154e+002 -1.168269e+002 5.000000e+001
      vertex   -1.913461e+001 -1.168269e+002 0.000000e+000
      vertex   -1.913461e+001 -1.168269e+002 1.000000e+002
    endloop
  endfacet
  facet normal 1.000000e+000 0.000000e+000 0.000000e+000
    outer loop
      vertex   -1.913461e+001 1.019231e+002 5.000000e+001
      vertex   -1.913461e+001 -1.168269e+002 1.000000e+002
      vertex   -1.913461e+001 -1.168269e+002 0.000000e+000
    endloop
  endfacet
  facet normal 0.000000e+000 1.000000e+000 0.000000e+000
    outer loop
      vertex   -5.350962e+001 3.206731e+002 5.000000e+001
      vertex   -1.913461e+001 3.206731e+002 0.000000e+000
      vertex   -8.788461e+001 3.206731e+002 0.000000e+000
    endloop
  endfacet
  facet normal 0.000000e+000 1.000000e+000 0.000000e+000
    outer loop
      vertex   -5.350962e+001 3.206731e+002 5.000000e+001
      vertex   -8.788461e+001 3.206731e+002 0.000000e+000
      vertex   -8.788461e+001 3.206731e+002 1.000000e+002
    endloop
  endfacet
  facet normal 0.000000e+000 1.000000e+000 0.000000e+000
    outer loop
      vertex   1.121154e+002 -1.168269e+002 5.000000e+001
      vertex   2.433654e+002 -1.168269e+002 1.000000e+002
      vertex   2.433654e+002 -1.168269e+002 0.000000e+000
    endloop
  endfacet
  facet normal 0.000000e+000 1.000000e+000 0.000000e+000
    outer loop
      vertex   -5.350962e+001 3.206731e+002 5.000000e+001
      vertex   -1.913461e+001 3.206731e+002 1.000000e+002
      vertex   -1.913461e+001 3.206731e+002 0.000000e+000
    endloop
  endfacet
  facet normal -1.000000e+000 0.000000e+000 0.000000e+000
    outer loop
      vertex   -8.788461e+001 7.067307e+001 5.000000e+001
      vertex   -8.788461e+001 3.206731e+002 0.000000e+000
      vertex   -8.788461e+001 -1.793269e+002 0.000000e+000
    endloop
  endfacet
  facet normal 0.000000e+000 0.000000e+000 -1.000000e+000
    outer loop
      vertex   2.433654e+002 -1.793269e+002 0.000000e+000
      vertex   -8.788461e+001 -1.793269e+002 0.000000e+000
      vertex   -1.913461e+001 -1.168269e+002 0.000000e+000
    endloop
  endfacet
  facet normal -0.000000e+000 0.000000e+000 -1.000000e+000
    outer loop
      vertex   -8.788461e+001 3.206731e+002 0.000000e+000
      vertex   -1.913461e+001 -1.168269e+002 0.000000e+000
      vertex   -8.788461e+001 -1.793269e+002 0.000000e+000
    endloop
  endfacet
  facet normal 0.000000e+000 1.000000e+000 0.000000e+000
    outer loop
      vertex   1.121154e+002 -1.168269e+002 5.000000e+001
      vertex   2.433654e+002 -1.168269e+002 0.000000e+000
      vertex   -1.913461e+001 -1.168269e+002 0.000000e+000
    endloop
  endfacet
  facet normal 0.000000e+000 0.000000e+000 -1.000000e+000
    outer loop
      vertex   2.433654e+002 -1.168269e+002 0.000000e+000
      vertex   2.433654e+002 -1.793269e+002 0.000000e+000
      vertex   -1.913461e+001 -1.168269e+002 0.000000e+000
    endloop
  endfacet
  facet normal 0.000000e+000 0.000000e+000 -1.000000e+000
    outer loop
      vertex   -1.913461e+001 3.206731e+002 0.000000e+000
      vertex   -1.913461e+001 -1.168269e+002 0.000000e+000
      vertex   -8.788461e+001 3.206731e+002 0.000000e+000
    endloop
  endfacet
  facet normal -0.000000e+000 1.000000e+000 0.000000e+000
    outer loop
      vertex   -5.350962e+001 3.206731e+002 5.000000e+001
      vertex   -8.788461e+001 3.206731e+002 1.000000e+002
      vertex   -1.913461e+001 3.206731e+002 1.000000e+002
    endloop
  endfacet
  facet normal -1.000000e+000 0.000000e+000 0.000000e+000
    outer loop
      vertex   -8.788461e+001 7.067307e+001 5.000000e+001
      vertex   -8.788461e+001 -1.793269e+002 1.000000e+002
      vertex   -8.788461e+001 3.206731e+002 1.000000e+002
    endloop
  endfacet
  facet normal -0.000000e+000 -1.000000e+000 0.000000e+000
    outer loop
      vertex   7.774039e+001 -1.793269e+002 5.000000e+001
      vertex   2.433654e+002 -1.793269e+002 1.000000e+002
      vertex   -8.788461e+001 -1.793269e+002 1.000000e+002
    endloop
  endfacet
  facet normal -0.000000e+000 1.000000e+000 0.000000e+000
    outer loop
      vertex   1.121154e+002 -1.168269e+002 5.000000e+001
      vertex   -1.913461e+001 -1.168269e+002 1.000000e+002
      vertex   2.433654e+002 -1.168269e+002 1.000000e+002
    endloop
  endfacet
  facet normal 1.000000e+000 0.000000e+000 0.000000e+000
    outer loop
      vertex   -1.913461e+001 1.019231e+002 5.000000e+001
      vertex   -1.913461e+001 3.206731e+002 1.000000e+002
      vertex   -1.913461e+001 -1.168269e+002 1.000000e+002
    endloop
  endfacet
  facet normal 1.000000e+000 0.000000e+000 0.000000e+000
    outer loop
      vertex   2.433654e+002 -1.480769e+002 5.000000e+001
      vertex   2.433654e+002 -1.168269e+002 1.000000e+002
      vertex   2.433654e+002 -1.793269e+002 1.000000e+002
    endloop
  endfacet
  facet normal 0.000000e+000 0.000000e+000 1.000000e+000
    outer loop
      vertex   -8.788461e+001 3.206731e+002 1.000000e+002
      vertex   -8.788461e+001 -1.793269e+002 1.000000e+002
      vertex   -1.913461e+001 -1.168269e+002 1.000000e+002
    endloop
  endfacet
  facet normal -0.000000e+000 0.000000e+000 1.000000e+000
    outer loop
      vertex   2.433654e+002 -1.168269e+002 1.000000e+002
      vertex   -1.913461e+001 -1.168269e+002 1.000000e+002
      vertex   2.433654e+002 -1.793269e+002 1.000000e+002
    endloop
  endfacet
  facet normal -0.000000e+000 0.000000e+000 1.000000e+000
    outer loop
      vertex   -1.913461e+001 3.206731e+002 1.000000e+002
      vertex   -8.788461e+001 3.206731e+002 1.000000e+002
      vertex   -1.913461e+001 -1.168269e+002 1.000000e+002
    endloop
  endfacet
  facet normal 0.000000e+000 0.000000e+000 1.000000e+000
    outer loop
      vertex   2.433654e+002 -1.793269e+002 1.000000e+002
      vertex   -1.913461e+001 -1.168269e+002 1.000000e+002
      vertex   -8.788461e+001 -1.793269e+002 1.000000e+002
    endloop
  endfacet
endsolid
