solid ascii
  facet normal -1.000000e+000 0.000000e+000 0.000000e+000
    outer loop
      vertex   1.812500e+002 -5.407149e+001 5.000000e+001
      vertex   1.812500e+002 -2.478215e+002 0.000000e+000
      vertex   1.812500e+002 -2.478215e+002 1.000000e+002
    endloop
  endfacet
  facet normal -9.314573e-001 3.638505e-001 0.000000e+000
    outer loop
      vertex   7.812499e+001 5.217851e+001 5.000000e+001
      vertex   -7.288465e-006 -1.478215e+002 0.000000e+000
      vertex   -7.288465e-006 -1.478215e+002 1.000000e+002
    endloop
  endfacet
  facet normal 9.314573e-001 3.638505e-001 0.000000e+000
    outer loop
      vertex   -7.812501e+001 5.217851e+001 5.000000e+001
      vertex   -7.288465e-006 -1.478215e+002 0.000000e+000
      vertex   -1.562500e+002 2.521785e+002 0.000000e+000
    endloop
  endfacet
  facet normal -9.314573e-001 3.638506e-001 0.000000e+000
    outer loop
      vertex   7.812499e+001 5.217851e+001 5.000000e+001
      vertex   1.562500e+002 2.521785e+002 1.000000e+002
      vertex   1.562500e+002 2.521785e+002 0.000000e+000
    endloop
  endfacet
  facet normal 0.000000e+000 1.000000e+000 0.000000e+000
    outer loop
      vertex   2.000000e+002 2.521785e+002 5.000000e+001
      vertex   2.437500e+002 2.521785e+002 0.000000e+000
      vertex   1.562500e+002 2.521785e+002 0.000000e+000
    endloop
  endfacet
  facet normal 0.000000e+000 1.000000e+000 0.000000e+000
    outer loop
      vertex   2.000000e+002 2.521785e+002 5.000000e+001
      vertex   1.562500e+002 2.521785e+002 0.000000e+000
      vertex   1.562500e+002 2.521785e+002 1.000000e+002
    endloop
  endfacet
  facet normal 9.314574e-001 3.638505e-001 -0.000000e+000
    outer loop
      vertex   -7.812501e+001 5.217851e+001 5.000000e+001
      vertex   -1.562500e+002 2.521785e+002 0.000000e+000
      vertex   -1.562500e+002 2.521785e+002 1.000000e+002
    endloop
  endfacet
  facet normal 0.000000e+000 1.000000e+000 0.000000e+000
    outer loop
      vertex   2.000000e+002 2.521785e+002 5.000000e+001
      vertex   2.437500e+002 2.521785e+002 1.000000e+002
      vertex   2.437500e+002 2.521785e+002 0.000000e+000
    endloop
  endfacet
  facet normal 1.000000e+000 0.000000e+000 0.000000e+000
    outer loop
      vertex   2.437500e+002 2.178514e+000 5.000000e+001
      vertex   2.437500e+002 -2.478215e+002 0.000000e+000
      vertex   2.437500e+002 2.521785e+002 0.000000e+000
    endloop
  endfacet
  facet normal 1.000000e+000 0.000000e+000 -0.000000e+000
    outer loop
      vertex   2.437500e+002 2.178514e+000 5.000000e+001
      vertex   2.437500e+002 2.521785e+002 0.000000e+000
      vertex   2.437500e+002 2.521785e+002 1.000000e+002
    endloop
  endfacet
  facet normal 9.314573e-001 3.638505e-001 0.000000e+000
    outer loop
      vertex   -7.812501e+001 5.217851e+001 5.000000e+001
      vertex   -7.288465e-006 -1.478215e+002 1.000000e+002
      vertex   -7.288465e-006 -1.478215e+002 0.000000e+000
    endloop
  endfacet
  facet normal 1.000000e+000 0.000000e+000 0.000000e+000
    outer loop
      vertex   2.437500e+002 2.178514e+000 5.000000e+001
      vertex   2.437500e+002 -2.478215e+002 1.000000e+002
      vertex   2.437500e+002 -2.478215e+002 0.000000e+000
    endloop
  endfacet
  facet normal 1.000000e+000 0.000000e+000 0.000000e+000
    outer loop
      vertex   -1.812500e+002 -5.407149e+001 5.000000e+001
      vertex   -1.812500e+002 -2.478215e+002 0.000000e+000
      vertex   -1.812500e+002 1.396785e+002 0.000000e+000
    endloop
  endfacet
  facet normal 1.000000e+000 0.000000e+000 -0.000000e+000
    outer loop
      vertex   -1.812500e+002 -5.407149e+001 5.000000e+001
      vertex   -1.812500e+002 1.396785e+002 0.000000e+000
      vertex   -1.812500e+002 1.396785e+002 1.000000e+002
    endloop
  endfacet
  facet normal -9.314573e-001 3.638505e-001 -1.819253e-007
    outer loop
      vertex   7.812499e+001 5.217851e+001 5.000000e+001
      vertex   1.562500e+002 2.521785e+002 0.000000e+000
      vertex   -7.288465e-006 -1.478215e+002 0.000000e+000
    endloop
  endfacet
  facet normal 1.000000e+000 0.000000e+000 0.000000e+000
    outer loop
      vertex   -1.812500e+002 -5.407149e+001 5.000000e+001
      vertex   -1.812500e+002 -2.478215e+002 1.000000e+002
      vertex   -1.812500e+002 -2.478215e+002 0.000000e+000
    endloop
  endfacet
  facet normal 0.000000e+000 -1.000000e+000 0.000000e+000
    outer loop
      vertex   -7.288465e-006 -2.478215e+002 5.000000e+001
      vertex   -3.125001e+001 -2.478215e+002 0.000000e+000
      vertex   3.124999e+001 -2.478215e+002 0.000000e+000
    endloop
  endfacet
  facet normal 0.000000e+000 -1.000000e+000 0.000000e+000
    outer loop
      vertex   -7.288465e-006 -2.478215e+002 5.000000e+001
      vertex   3.124999e+001 -2.478215e+002 0.000000e+000
      vertex   3.124999e+001 -2.478215e+002 1.000000e+002
    endloop
  endfacet
  facet normal -1.000000e+000 0.000000e+000 -0.000000e+000
    outer loop
      vertex   1.812500e+002 -5.407149e+001 5.000000e+001
      vertex   1.812500e+002 1.396785e+002 1.000000e+002
      vertex   1.812500e+002 1.396785e+002 0.000000e+000
    endloop
  endfacet
  facet normal 0.000000e+000 -1.000000e+000 0.000000e+000
    outer loop
      vertex   -7.288465e-006 -2.478215e+002 5.000000e+001
      vertex   -3.125001e+001 -2.478215e+002 1.000000e+002
      vertex   -3.125001e+001 -2.478215e+002 0.000000e+000
    endloop
  endfacet
  facet normal 9.325681e-001 -3.609941e-001 0.000000e+000
    outer loop
      vertex   1.062500e+002 -5.407149e+001 5.000000e+001
      vertex   3.124999e+001 -2.478215e+002 0.000000e+000
      vertex   1.812500e+002 1.396785e+002 0.000000e+000
    endloop
  endfacet
  facet normal 9.325681e-001 -3.609942e-001 0.000000e+000
    outer loop
      vertex   1.062500e+002 -5.407149e+001 5.000000e+001
      vertex   1.812500e+002 1.396785e+002 0.000000e+000
      vertex   1.812500e+002 1.396785e+002 1.000000e+002
    endloop
  endfacet
  facet normal -1.000000e+000 0.000000e+000 0.000000e+000
    outer loop
      vertex   -2.437500e+002 2.178514e+000 5.000000e+001
      vertex   -2.437500e+002 -2.478215e+002 0.000000e+000
      vertex   -2.437500e+002 -2.478215e+002 1.000000e+002
    endloop
  endfacet
  facet normal 9.325681e-001 -3.609941e-001 0.000000e+000
    outer loop
      vertex   1.062500e+002 -5.407149e+001 5.000000e+001
      vertex   3.124999e+001 -2.478215e+002 1.000000e+002
      vertex   3.124999e+001 -2.478215e+002 0.000000e+000
    endloop
  endfacet
  facet normal -9.325681e-001 -3.609941e-001 -1.880178e-007
    outer loop
      vertex   -1.062500e+002 -5.407149e+001 5.000000e+001
      vertex   -1.812500e+002 1.396785e+002 0.000000e+000
      vertex   -3.125001e+001 -2.478215e+002 0.000000e+000
    endloop
  endfacet
  facet normal -9.325681e-001 -3.609941e-001 0.000000e+000
    outer loop
      vertex   -1.062500e+002 -5.407149e+001 5.000000e+001
      vertex   -3.125001e+001 -2.478215e+002 0.000000e+000
      vertex   -3.125001e+001 -2.478215e+002 1.000000e+002
    endloop
  endfacet
  facet normal -1.000000e+000 0.000000e+000 -0.000000e+000
    outer loop
      vertex   -2.437500e+002 2.178514e+000 5.000000e+001
      vertex   -2.437500e+002 2.521785e+002 1.000000e+002
      vertex   -2.437500e+002 2.521785e+002 0.000000e+000
    endloop
  endfacet
  facet normal -9.325681e-001 -3.609940e-001 -0.000000e+000
    outer loop
      vertex   -1.062500e+002 -5.407149e+001 5.000000e+001
      vertex   -1.812500e+002 1.396785e+002 1.000000e+002
      vertex   -1.812500e+002 1.396785e+002 0.000000e+000
    endloop
  endfacet
  facet normal 0.000000e+000 -1.000000e+000 0.000000e+000
    outer loop
      vertex   -2.125000e+002 -2.478215e+002 5.000000e+001
      vertex   -2.437500e+002 -2.478215e+002 0.000000e+000
      vertex   -1.812500e+002 -2.478215e+002 0.000000e+000
    endloop
  endfacet
  facet normal 0.000000e+000 -1.000000e+000 0.000000e+000
    outer loop
      vertex   -2.125000e+002 -2.478215e+002 5.000000e+001
      vertex   -1.812500e+002 -2.478215e+002 0.000000e+000
      vertex   -1.812500e+002 -2.478215e+002 1.000000e+002
    endloop
  endfacet
  facet normal 0.000000e+000 1.000000e+000 0.000000e+000
    outer loop
      vertex   -2.000000e+002 2.521785e+002 5.000000e+001
      vertex   -2.437500e+002 2.521785e+002 0.000000e+000
      vertex   -2.437500e+002 2.521785e+002 1.000000e+002
    endloop
  endfacet
  facet normal 0.000000e+000 -1.000000e+000 0.000000e+000
    outer loop
      vertex   -2.125000e+002 -2.478215e+002 5.000000e+001
      vertex   -2.437500e+002 -2.478215e+002 1.000000e+002
      vertex   -2.437500e+002 -2.478215e+002 0.000000e+000
    endloop
  endfacet
  facet normal 0.000000e+000 0.000000e+000 -1.000000e+000
    outer loop
      vertex   -7.288465e-006 -1.478215e+002 0.000000e+000
      vertex   3.124999e+001 -2.478215e+002 0.000000e+000
      vertex   -3.125001e+001 -2.478215e+002 0.000000e+000
    endloop
  endfacet
  facet normal 0.000000e+000 0.000000e+000 -1.000000e+000
    outer loop
      vertex   -1.812500e+002 1.396785e+002 0.000000e+000
      vertex   -1.812500e+002 -2.478215e+002 0.000000e+000
      vertex   -2.437500e+002 -2.478215e+002 0.000000e+000
    endloop
  endfacet
  facet normal 0.000000e+000 1.000000e+000 0.000000e+000
    outer loop
      vertex   -2.000000e+002 2.521785e+002 5.000000e+001
      vertex   -1.562500e+002 2.521785e+002 1.000000e+002
      vertex   -1.562500e+002 2.521785e+002 0.000000e+000
    endloop
  endfacet
  facet normal 0.000000e+000 -1.000000e+000 0.000000e+000
    outer loop
      vertex   2.125000e+002 -2.478215e+002 5.000000e+001
      vertex   1.812500e+002 -2.478215e+002 0.000000e+000
      vertex   2.437500e+002 -2.478215e+002 0.000000e+000
    endloop
  endfacet
  facet normal -1.000000e+000 0.000000e+000 0.000000e+000
    outer loop
      vertex   1.812500e+002 -5.407149e+001 5.000000e+001
      vertex   1.812500e+002 1.396785e+002 0.000000e+000
      vertex   1.812500e+002 -2.478215e+002 0.000000e+000
    endloop
  endfacet
  facet normal 0.000000e+000 -1.000000e+000 0.000000e+000
    outer loop
      vertex   2.125000e+002 -2.478215e+002 5.000000e+001
      vertex   2.437500e+002 -2.478215e+002 0.000000e+000
      vertex   2.437500e+002 -2.478215e+002 1.000000e+002
    endloop
  endfacet
  facet normal 0.000000e+000 0.000000e+000 -1.000000e+000
    outer loop
      vertex   -2.437500e+002 2.521785e+002 0.000000e+000
      vertex   -7.288465e-006 -1.478215e+002 0.000000e+000
      vertex   -1.812500e+002 1.396785e+002 0.000000e+000
    endloop
  endfacet
  facet normal -0.000000e+000 0.000000e+000 -1.000000e+000
    outer loop
      vertex   -2.437500e+002 2.521785e+002 0.000000e+000
      vertex   -1.812500e+002 1.396785e+002 0.000000e+000
      vertex   -2.437500e+002 -2.478215e+002 0.000000e+000
    endloop
  endfacet
  facet normal -1.000000e+000 0.000000e+000 0.000000e+000
    outer loop
      vertex   -2.437500e+002 2.178514e+000 5.000000e+001
      vertex   -2.437500e+002 2.521785e+002 0.000000e+000
      vertex   -2.437500e+002 -2.478215e+002 0.000000e+000
    endloop
  endfacet
  facet normal -0.000000e+000 0.000000e+000 -1.000000e+000
    outer loop
      vertex   -1.812500e+002 1.396785e+002 0.000000e+000
      vertex   -7.288465e-006 -1.478215e+002 0.000000e+000
      vertex   -3.125001e+001 -2.478215e+002 0.000000e+000
    endloop
  endfacet
  facet normal 0.000000e+000 0.000000e+000 -1.000000e+000
    outer loop
      vertex   -1.562500e+002 2.521785e+002 0.000000e+000
      vertex   -7.288465e-006 -1.478215e+002 0.000000e+000
      vertex   -2.437500e+002 2.521785e+002 0.000000e+000
    endloop
  endfacet
  facet normal 0.000000e+000 0.000000e+000 -1.000000e+000
    outer loop
      vertex   1.812500e+002 1.396785e+002 0.000000e+000
      vertex   3.124999e+001 -2.478215e+002 0.000000e+000
      vertex   -7.288465e-006 -1.478215e+002 0.000000e+000
    endloop
  endfacet
  facet normal 0.000000e+000 1.000000e+000 0.000000e+000
    outer loop
      vertex   -2.000000e+002 2.521785e+002 5.000000e+001
      vertex   -1.562500e+002 2.521785e+002 0.000000e+000
      vertex   -2.437500e+002 2.521785e+002 0.000000e+000
    endloop
  endfacet
  facet normal 0.000000e+000 0.000000e+000 -1.000000e+000
    outer loop
      vertex   2.437500e+002 2.521785e+002 0.000000e+000
      vertex   2.437500e+002 -2.478215e+002 0.000000e+000
      vertex   1.812500e+002 1.396785e+002 0.000000e+000
    endloop
  endfacet
  facet normal 0.000000e+000 -1.000000e+000 0.000000e+000
    outer loop
      vertex   2.125000e+002 -2.478215e+002 5.000000e+001
      vertex   1.812500e+002 -2.478215e+002 1.000000e+002
      vertex   1.812500e+002 -2.478215e+002 0.000000e+000
    endloop
  endfacet
  facet normal 0.000000e+000 0.000000e+000 -1.000000e+000
    outer loop
      vertex   1.812500e+002 1.396785e+002 0.000000e+000
      vertex   2.437500e+002 -2.478215e+002 0.000000e+000
      vertex   1.812500e+002 -2.478215e+002 0.000000e+000
    endloop
  endfacet
  facet normal -0.000000e+000 0.000000e+000 -1.000000e+000
    outer loop
      vertex   1.562500e+002 2.521785e+002 0.000000e+000
      vertex   1.812500e+002 1.396785e+002 0.000000e+000
      vertex   -7.288465e-006 -1.478215e+002 0.000000e+000
    endloop
  endfacet
  facet normal 0.000000e+000 0.000000e+000 -1.000000e+000
    outer loop
      vertex   2.437500e+002 2.521785e+002 0.000000e+000
      vertex   1.812500e+002 1.396785e+002 0.000000e+000
      vertex   1.562500e+002 2.521785e+002 0.000000e+000
    endloop
  endfacet
  facet normal -0.000000e+000 -1.000000e+000 0.000000e+000
    outer loop
      vertex   -7.288465e-006 -2.478215e+002 5.000000e+001
      vertex   3.124999e+001 -2.478215e+002 1.000000e+002
      vertex   -3.125001e+001 -2.478215e+002 1.000000e+002
    endloop
  endfacet
  facet normal -0.000000e+000 1.000000e+000 0.000000e+000
    outer loop
      vertex   2.000000e+002 2.521785e+002 5.000000e+001
      vertex   1.562500e+002 2.521785e+002 1.000000e+002
      vertex   2.437500e+002 2.521785e+002 1.000000e+002
    endloop
  endfacet
  facet normal -0.000000e+000 1.000000e+000 0.000000e+000
    outer loop
      vertex   -2.000000e+002 2.521785e+002 5.000000e+001
      vertex   -2.437500e+002 2.521785e+002 1.000000e+002
      vertex   -1.562500e+002 2.521785e+002 1.000000e+002
    endloop
  endfacet
  facet normal -9.325681e-001 -3.609941e-001 0.000000e+000
    outer loop
      vertex   -1.062500e+002 -5.407149e+001 5.000000e+001
      vertex   -3.125001e+001 -2.478215e+002 1.000000e+002
      vertex   -1.812500e+002 1.396785e+002 1.000000e+002
    endloop
  endfacet
  facet normal -0.000000e+000 -1.000000e+000 0.000000e+000
    outer loop
      vertex   -2.125000e+002 -2.478215e+002 5.000000e+001
      vertex   -1.812500e+002 -2.478215e+002 1.000000e+002
      vertex   -2.437500e+002 -2.478215e+002 1.000000e+002
    endloop
  endfacet
  facet normal -1.000000e+000 0.000000e+000 0.000000e+000
    outer loop
      vertex   -2.437500e+002 2.178514e+000 5.000000e+001
      vertex   -2.437500e+002 -2.478215e+002 1.000000e+002
      vertex   -2.437500e+002 2.521785e+002 1.000000e+002
    endloop
  endfacet
  facet normal 9.325681e-001 -3.609941e-001 -1.880178e-007
    outer loop
      vertex   1.062500e+002 -5.407149e+001 5.000000e+001
      vertex   1.812500e+002 1.396785e+002 1.000000e+002
      vertex   3.124999e+001 -2.478215e+002 1.000000e+002
    endloop
  endfacet
  facet normal -0.000000e+000 -1.000000e+000 0.000000e+000
    outer loop
      vertex   2.125000e+002 -2.478215e+002 5.000000e+001
      vertex   2.437500e+002 -2.478215e+002 1.000000e+002
      vertex   1.812500e+002 -2.478215e+002 1.000000e+002
    endloop
  endfacet
  facet normal 1.000000e+000 0.000000e+000 0.000000e+000
    outer loop
      vertex   2.437500e+002 2.178514e+000 5.000000e+001
      vertex   2.437500e+002 2.521785e+002 1.000000e+002
      vertex   2.437500e+002 -2.478215e+002 1.000000e+002
    endloop
  endfacet
  facet normal -9.314573e-001 3.638505e-001 0.000000e+000
    outer loop
      vertex   7.812499e+001 5.217851e+001 5.000000e+001
      vertex   -7.288465e-006 -1.478215e+002 1.000000e+002
      vertex   1.562500e+002 2.521785e+002 1.000000e+002
    endloop
  endfacet
  facet normal 1.000000e+000 0.000000e+000 0.000000e+000
    outer loop
      vertex   -1.812500e+002 -5.407149e+001 5.000000e+001
      vertex   -1.812500e+002 1.396785e+002 1.000000e+002
      vertex   -1.812500e+002 -2.478215e+002 1.000000e+002
    endloop
  endfacet
  facet normal 9.314573e-001 3.638505e-001 -1.819253e-007
    outer loop
      vertex   -7.812501e+001 5.217851e+001 5.000000e+001
      vertex   -1.562500e+002 2.521785e+002 1.000000e+002
      vertex   -7.288465e-006 -1.478215e+002 1.000000e+002
    endloop
  endfacet
  facet normal -1.000000e+000 0.000000e+000 0.000000e+000
    outer loop
      vertex   1.812500e+002 -5.407149e+001 5.000000e+001
      vertex   1.812500e+002 -2.478215e+002 1.000000e+002
      vertex   1.812500e+002 1.396785e+002 1.000000e+002
    endloop
  endfacet
  facet normal -0.000000e+000 0.000000e+000 1.000000e+000
    outer loop
      vertex   -1.562500e+002 2.521785e+002 1.000000e+002
      vertex   -2.437500e+002 2.521785e+002 1.000000e+002
      vertex   -7.288465e-006 -1.478215e+002 1.000000e+002
    endloop
  endfacet
  facet normal -0.000000e+000 0.000000e+000 1.000000e+000
    outer loop
      vertex   2.437500e+002 2.521785e+002 1.000000e+002
      vertex   1.562500e+002 2.521785e+002 1.000000e+002
      vertex   1.812500e+002 1.396785e+002 1.000000e+002
    endloop
  endfacet
  facet normal 0.000000e+000 0.000000e+000 1.000000e+000
    outer loop
      vertex   1.562500e+002 2.521785e+002 1.000000e+002
      vertex   -7.288465e-006 -1.478215e+002 1.000000e+002
      vertex   1.812500e+002 1.396785e+002 1.000000e+002
    endloop
  endfacet
  facet normal -0.000000e+000 0.000000e+000 1.000000e+000
    outer loop
      vertex   1.812500e+002 1.396785e+002 1.000000e+002
      vertex   -7.288465e-006 -1.478215e+002 1.000000e+002
      vertex   3.124999e+001 -2.478215e+002 1.000000e+002
    endloop
  endfacet
  facet normal 0.000000e+000 0.000000e+000 1.000000e+000
    outer loop
      vertex   1.812500e+002 1.396785e+002 1.000000e+002
      vertex   1.812500e+002 -2.478215e+002 1.000000e+002
      vertex   2.437500e+002 -2.478215e+002 1.000000e+002
    endloop
  endfacet
  facet normal -0.000000e+000 0.000000e+000 1.000000e+000
    outer loop
      vertex   2.437500e+002 2.521785e+002 1.000000e+002
      vertex   1.812500e+002 1.396785e+002 1.000000e+002
      vertex   2.437500e+002 -2.478215e+002 1.000000e+002
    endloop
  endfacet
  facet normal 0.000000e+000 0.000000e+000 1.000000e+000
    outer loop
      vertex   -2.437500e+002 2.521785e+002 1.000000e+002
      vertex   -2.437500e+002 -2.478215e+002 1.000000e+002
      vertex   -1.812500e+002 1.396785e+002 1.000000e+002
    endloop
  endfacet
  facet normal -0.000000e+000 -0.000000e+000 1.000000e+000
    outer loop
      vertex   -2.437500e+002 2.521785e+002 1.000000e+002
      vertex   -1.812500e+002 1.396785e+002 1.000000e+002
      vertex   -7.288465e-006 -1.478215e+002 1.000000e+002
    endloop
  endfacet
  facet normal 0.000000e+000 0.000000e+000 1.000000e+000
    outer loop
      vertex   -1.812500e+002 1.396785e+002 1.000000e+002
      vertex   -2.437500e+002 -2.478215e+002 1.000000e+002
      vertex   -1.812500e+002 -2.478215e+002 1.000000e+002
    endloop
  endfacet
  facet normal 0.000000e+000 -0.000000e+000 1.000000e+000
    outer loop
      vertex   -1.812500e+002 1.396785e+002 1.000000e+002
      vertex   -3.125001e+001 -2.478215e+002 1.000000e+002
      vertex   -7.288465e-006 -1.478215e+002 1.000000e+002
    endloop
  endfacet
  facet normal 0.000000e+000 0.000000e+000 1.000000e+000
    outer loop
      vertex   -7.288465e-006 -1.478215e+002 1.000000e+002
      vertex   -3.125001e+001 -2.478215e+002 1.000000e+002
      vertex   3.124999e+001 -2.478215e+002 1.000000e+002
    endloop
  endfacet
endsolid
