solid ascii
  facet normal 1.000000e+000 0.000000e+000 0.000000e+000
    outer loop
      vertex   1.937500e+002 5.921041e-006 5.000000e+001
      vertex   1.937500e+002 -2.500000e+002 0.000000e+000
      vertex   1.937500e+002 2.500000e+002 0.000000e+000
    endloop
  endfacet
  facet normal 8.341143e-001 5.515918e-001 -0.000000e+000
    outer loop
      vertex   3.124996e+000 5.625001e+001 5.000000e+001
      vertex   -1.250000e+002 2.500000e+002 0.000000e+000
      vertex   -1.250000e+002 2.500000e+002 1.000000e+002
    endloop
  endfacet
  facet normal 1.000000e+000 0.000000e+000 -0.000000e+000
    outer loop
      vertex   1.937500e+002 5.921041e-006 5.000000e+001
      vertex   1.937500e+002 2.500000e+002 0.000000e+000
      vertex   1.937500e+002 2.500000e+002 1.000000e+002
    endloop
  endfacet
  facet normal 8.341142e-001 5.515918e-001 0.000000e+000
    outer loop
      vertex   3.124996e+000 5.625001e+001 5.000000e+001
      vertex   1.312500e+002 -1.375000e+002 1.000000e+002
      vertex   1.312500e+002 -1.375000e+002 0.000000e+000
    endloop
  endfacet
  facet normal -1.000000e+000 0.000000e+000 0.000000e+000
    outer loop
      vertex   1.312500e+002 5.625001e+001 5.000000e+001
      vertex   1.312500e+002 2.500000e+002 0.000000e+000
      vertex   1.312500e+002 -1.375000e+002 0.000000e+000
    endloop
  endfacet
  facet normal -1.000000e+000 0.000000e+000 0.000000e+000
    outer loop
      vertex   1.312500e+002 5.625001e+001 5.000000e+001
      vertex   1.312500e+002 -1.375000e+002 0.000000e+000
      vertex   1.312500e+002 -1.375000e+002 1.000000e+002
    endloop
  endfacet
  facet normal 1.000000e+000 0.000000e+000 0.000000e+000
    outer loop
      vertex   1.937500e+002 5.921041e-006 5.000000e+001
      vertex   1.937500e+002 -2.500000e+002 1.000000e+002
      vertex   1.937500e+002 -2.500000e+002 0.000000e+000
    endloop
  endfacet
  facet normal -1.000000e+000 0.000000e+000 -0.000000e+000
    outer loop
      vertex   1.312500e+002 5.625001e+001 5.000000e+001
      vertex   1.312500e+002 2.500000e+002 1.000000e+002
      vertex   1.312500e+002 2.500000e+002 0.000000e+000
    endloop
  endfacet
  facet normal -8.341143e-001 -5.515917e-001 0.000000e+000
    outer loop
      vertex   -3.125004e+000 -5.624999e+001 5.000000e+001
      vertex   -1.312500e+002 1.375000e+002 0.000000e+000
      vertex   1.250000e+002 -2.500000e+002 0.000000e+000
    endloop
  endfacet
  facet normal -8.341142e-001 -5.515918e-001 0.000000e+000
    outer loop
      vertex   -3.125004e+000 -5.624999e+001 5.000000e+001
      vertex   1.250000e+002 -2.500000e+002 0.000000e+000
      vertex   1.250000e+002 -2.500000e+002 1.000000e+002
    endloop
  endfacet
  facet normal 0.000000e+000 -1.000000e+000 0.000000e+000
    outer loop
      vertex   -1.625000e+002 -2.500000e+002 5.000000e+001
      vertex   -1.312500e+002 -2.500000e+002 0.000000e+000
      vertex   -1.312500e+002 -2.500000e+002 1.000000e+002
    endloop
  endfacet
  facet normal -8.341143e-001 -5.515917e-001 -0.000000e+000
    outer loop
      vertex   -3.125004e+000 -5.624999e+001 5.000000e+001
      vertex   -1.312500e+002 1.375000e+002 1.000000e+002
      vertex   -1.312500e+002 1.375000e+002 0.000000e+000
    endloop
  endfacet
  facet normal -1.000000e+000 0.000000e+000 0.000000e+000
    outer loop
      vertex   -1.937500e+002 5.921041e-006 5.000000e+001
      vertex   -1.937500e+002 2.500000e+002 0.000000e+000
      vertex   -1.937500e+002 -2.500000e+002 0.000000e+000
    endloop
  endfacet
  facet normal -1.000000e+000 0.000000e+000 0.000000e+000
    outer loop
      vertex   -1.937500e+002 5.921041e-006 5.000000e+001
      vertex   -1.937500e+002 -2.500000e+002 0.000000e+000
      vertex   -1.937500e+002 -2.500000e+002 1.000000e+002
    endloop
  endfacet
  facet normal 0.000000e+000 -1.000000e+000 0.000000e+000
    outer loop
      vertex   -1.625000e+002 -2.500000e+002 5.000000e+001
      vertex   -1.937500e+002 -2.500000e+002 1.000000e+002
      vertex   -1.937500e+002 -2.500000e+002 0.000000e+000
    endloop
  endfacet
  facet normal -1.000000e+000 0.000000e+000 -0.000000e+000
    outer loop
      vertex   -1.937500e+002 5.921041e-006 5.000000e+001
      vertex   -1.937500e+002 2.500000e+002 1.000000e+002
      vertex   -1.937500e+002 2.500000e+002 0.000000e+000
    endloop
  endfacet
  facet normal 0.000000e+000 1.000000e+000 0.000000e+000
    outer loop
      vertex   1.625000e+002 2.500000e+002 5.000000e+001
      vertex   1.937500e+002 2.500000e+002 0.000000e+000
      vertex   1.312500e+002 2.500000e+002 0.000000e+000
    endloop
  endfacet
  facet normal 0.000000e+000 1.000000e+000 0.000000e+000
    outer loop
      vertex   1.625000e+002 2.500000e+002 5.000000e+001
      vertex   1.312500e+002 2.500000e+002 0.000000e+000
      vertex   1.312500e+002 2.500000e+002 1.000000e+002
    endloop
  endfacet
  facet normal 0.000000e+000 -1.000000e+000 0.000000e+000
    outer loop
      vertex   1.593750e+002 -2.500000e+002 5.000000e+001
      vertex   1.937500e+002 -2.500000e+002 0.000000e+000
      vertex   1.937500e+002 -2.500000e+002 1.000000e+002
    endloop
  endfacet
  facet normal 0.000000e+000 1.000000e+000 0.000000e+000
    outer loop
      vertex   1.625000e+002 2.500000e+002 5.000000e+001
      vertex   1.937500e+002 2.500000e+002 1.000000e+002
      vertex   1.937500e+002 2.500000e+002 0.000000e+000
    endloop
  endfacet
  facet normal 1.000000e+000 0.000000e+000 0.000000e+000
    outer loop
      vertex   -1.312500e+002 -5.624999e+001 5.000000e+001
      vertex   -1.312500e+002 -2.500000e+002 0.000000e+000
      vertex   -1.312500e+002 1.375000e+002 0.000000e+000
    endloop
  endfacet
  facet normal 1.000000e+000 0.000000e+000 -0.000000e+000
    outer loop
      vertex   -1.312500e+002 -5.624999e+001 5.000000e+001
      vertex   -1.312500e+002 1.375000e+002 0.000000e+000
      vertex   -1.312500e+002 1.375000e+002 1.000000e+002
    endloop
  endfacet
  facet normal 0.000000e+000 -1.000000e+000 0.000000e+000
    outer loop
      vertex   1.593750e+002 -2.500000e+002 5.000000e+001
      vertex   1.250000e+002 -2.500000e+002 1.000000e+002
      vertex   1.250000e+002 -2.500000e+002 0.000000e+000
    endloop
  endfacet
  facet normal 1.000000e+000 0.000000e+000 0.000000e+000
    outer loop
      vertex   -1.312500e+002 -5.624999e+001 5.000000e+001
      vertex   -1.312500e+002 -2.500000e+002 1.000000e+002
      vertex   -1.312500e+002 -2.500000e+002 0.000000e+000
    endloop
  endfacet
  facet normal 0.000000e+000 1.000000e+000 0.000000e+000
    outer loop
      vertex   -1.593750e+002 2.500000e+002 5.000000e+001
      vertex   -1.250000e+002 2.500000e+002 0.000000e+000
      vertex   -1.937500e+002 2.500000e+002 0.000000e+000
    endloop
  endfacet
  facet normal 0.000000e+000 1.000000e+000 0.000000e+000
    outer loop
      vertex   -1.593750e+002 2.500000e+002 5.000000e+001
      vertex   -1.937500e+002 2.500000e+002 0.000000e+000
      vertex   -1.937500e+002 2.500000e+002 1.000000e+002
    endloop
  endfacet
  facet normal 0.000000e+000 0.000000e+000 -1.000000e+000
    outer loop
      vertex   1.937500e+002 2.500000e+002 0.000000e+000
      vertex   1.937500e+002 -2.500000e+002 0.000000e+000
      vertex   1.312500e+002 2.500000e+002 0.000000e+000
    endloop
  endfacet
  facet normal 0.000000e+000 1.000000e+000 0.000000e+000
    outer loop
      vertex   -1.593750e+002 2.500000e+002 5.000000e+001
      vertex   -1.250000e+002 2.500000e+002 1.000000e+002
      vertex   -1.250000e+002 2.500000e+002 0.000000e+000
    endloop
  endfacet
  facet normal 8.341143e-001 5.515918e-001 1.681682e-007
    outer loop
      vertex   3.124996e+000 5.625001e+001 5.000000e+001
      vertex   1.312500e+002 -1.375000e+002 0.000000e+000
      vertex   -1.250000e+002 2.500000e+002 0.000000e+000
    endloop
  endfacet
  facet normal 0.000000e+000 0.000000e+000 -1.000000e+000
    outer loop
      vertex   -1.312500e+002 1.375000e+002 0.000000e+000
      vertex   1.937500e+002 -2.500000e+002 0.000000e+000
      vertex   1.250000e+002 -2.500000e+002 0.000000e+000
    endloop
  endfacet
  facet normal 0.000000e+000 0.000000e+000 -1.000000e+000
    outer loop
      vertex   1.312500e+002 -1.375000e+002 0.000000e+000
      vertex   1.937500e+002 -2.500000e+002 0.000000e+000
      vertex   -1.312500e+002 1.375000e+002 0.000000e+000
    endloop
  endfacet
  facet normal 0.000000e+000 0.000000e+000 -1.000000e+000
    outer loop
      vertex   -1.312500e+002 1.375000e+002 0.000000e+000
      vertex   -1.312500e+002 -2.500000e+002 0.000000e+000
      vertex   -1.937500e+002 -2.500000e+002 0.000000e+000
    endloop
  endfacet
  facet normal 0.000000e+000 -1.000000e+000 0.000000e+000
    outer loop
      vertex   -1.625000e+002 -2.500000e+002 5.000000e+001
      vertex   -1.937500e+002 -2.500000e+002 0.000000e+000
      vertex   -1.312500e+002 -2.500000e+002 0.000000e+000
    endloop
  endfacet
  facet normal 0.000000e+000 0.000000e+000 -1.000000e+000
    outer loop
      vertex   -1.937500e+002 2.500000e+002 0.000000e+000
      vertex   1.312500e+002 -1.375000e+002 0.000000e+000
      vertex   -1.312500e+002 1.375000e+002 0.000000e+000
    endloop
  endfacet
  facet normal -0.000000e+000 0.000000e+000 -1.000000e+000
    outer loop
      vertex   -1.937500e+002 2.500000e+002 0.000000e+000
      vertex   -1.312500e+002 1.375000e+002 0.000000e+000
      vertex   -1.937500e+002 -2.500000e+002 0.000000e+000
    endloop
  endfacet
  facet normal 0.000000e+000 -1.000000e+000 0.000000e+000
    outer loop
      vertex   1.593750e+002 -2.500000e+002 5.000000e+001
      vertex   1.250000e+002 -2.500000e+002 0.000000e+000
      vertex   1.937500e+002 -2.500000e+002 0.000000e+000
    endloop
  endfacet
  facet normal 0.000000e+000 0.000000e+000 -1.000000e+000
    outer loop
      vertex   1.312500e+002 2.500000e+002 0.000000e+000
      vertex   1.937500e+002 -2.500000e+002 0.000000e+000
      vertex   1.312500e+002 -1.375000e+002 0.000000e+000
    endloop
  endfacet
  facet normal 0.000000e+000 0.000000e+000 -1.000000e+000
    outer loop
      vertex   -1.250000e+002 2.500000e+002 0.000000e+000
      vertex   1.312500e+002 -1.375000e+002 0.000000e+000
      vertex   -1.937500e+002 2.500000e+002 0.000000e+000
    endloop
  endfacet
  facet normal -8.341143e-001 -5.515917e-001 3.363364e-007
    outer loop
      vertex   -3.125004e+000 -5.624999e+001 5.000000e+001
      vertex   1.250000e+002 -2.500000e+002 1.000000e+002
      vertex   -1.312500e+002 1.375000e+002 1.000000e+002
    endloop
  endfacet
  facet normal -0.000000e+000 -1.000000e+000 0.000000e+000
    outer loop
      vertex   -1.625000e+002 -2.500000e+002 5.000000e+001
      vertex   -1.312500e+002 -2.500000e+002 1.000000e+002
      vertex   -1.937500e+002 -2.500000e+002 1.000000e+002
    endloop
  endfacet
  facet normal 8.341143e-001 5.515918e-001 1.681682e-007
    outer loop
      vertex   3.124996e+000 5.625001e+001 5.000000e+001
      vertex   -1.250000e+002 2.500000e+002 1.000000e+002
      vertex   1.312500e+002 -1.375000e+002 1.000000e+002
    endloop
  endfacet
  facet normal 1.000000e+000 0.000000e+000 0.000000e+000
    outer loop
      vertex   1.937500e+002 5.921041e-006 5.000000e+001
      vertex   1.937500e+002 2.500000e+002 1.000000e+002
      vertex   1.937500e+002 -2.500000e+002 1.000000e+002
    endloop
  endfacet
  facet normal -1.000000e+000 0.000000e+000 0.000000e+000
    outer loop
      vertex   -1.937500e+002 5.921041e-006 5.000000e+001
      vertex   -1.937500e+002 -2.500000e+002 1.000000e+002
      vertex   -1.937500e+002 2.500000e+002 1.000000e+002
    endloop
  endfacet
  facet normal -1.000000e+000 0.000000e+000 0.000000e+000
    outer loop
      vertex   1.312500e+002 5.625001e+001 5.000000e+001
      vertex   1.312500e+002 -1.375000e+002 1.000000e+002
      vertex   1.312500e+002 2.500000e+002 1.000000e+002
    endloop
  endfacet
  facet normal 1.000000e+000 0.000000e+000 0.000000e+000
    outer loop
      vertex   -1.312500e+002 -5.624999e+001 5.000000e+001
      vertex   -1.312500e+002 1.375000e+002 1.000000e+002
      vertex   -1.312500e+002 -2.500000e+002 1.000000e+002
    endloop
  endfacet
  facet normal -0.000000e+000 1.000000e+000 0.000000e+000
    outer loop
      vertex   1.625000e+002 2.500000e+002 5.000000e+001
      vertex   1.312500e+002 2.500000e+002 1.000000e+002
      vertex   1.937500e+002 2.500000e+002 1.000000e+002
    endloop
  endfacet
  facet normal -0.000000e+000 -1.000000e+000 0.000000e+000
    outer loop
      vertex   1.593750e+002 -2.500000e+002 5.000000e+001
      vertex   1.937500e+002 -2.500000e+002 1.000000e+002
      vertex   1.250000e+002 -2.500000e+002 1.000000e+002
    endloop
  endfacet
  facet normal -0.000000e+000 1.000000e+000 0.000000e+000
    outer loop
      vertex   -1.593750e+002 2.500000e+002 5.000000e+001
      vertex   -1.937500e+002 2.500000e+002 1.000000e+002
      vertex   -1.250000e+002 2.500000e+002 1.000000e+002
    endloop
  endfacet
  facet normal -0.000000e+000 0.000000e+000 1.000000e+000
    outer loop
      vertex   1.312500e+002 2.500000e+002 1.000000e+002
      vertex   1.312500e+002 -1.375000e+002 1.000000e+002
      vertex   1.937500e+002 -2.500000e+002 1.000000e+002
    endloop
  endfacet
  facet normal -0.000000e+000 0.000000e+000 1.000000e+000
    outer loop
      vertex   -1.250000e+002 2.500000e+002 1.000000e+002
      vertex   -1.937500e+002 2.500000e+002 1.000000e+002
      vertex   1.312500e+002 -1.375000e+002 1.000000e+002
    endloop
  endfacet
  facet normal 0.000000e+000 0.000000e+000 1.000000e+000
    outer loop
      vertex   -1.937500e+002 2.500000e+002 1.000000e+002
      vertex   -1.937500e+002 -2.500000e+002 1.000000e+002
      vertex   -1.312500e+002 1.375000e+002 1.000000e+002
    endloop
  endfacet
  facet normal -0.000000e+000 -0.000000e+000 1.000000e+000
    outer loop
      vertex   -1.937500e+002 2.500000e+002 1.000000e+002
      vertex   -1.312500e+002 1.375000e+002 1.000000e+002
      vertex   1.312500e+002 -1.375000e+002 1.000000e+002
    endloop
  endfacet
  facet normal 0.000000e+000 0.000000e+000 1.000000e+000
    outer loop
      vertex   1.312500e+002 -1.375000e+002 1.000000e+002
      vertex   -1.312500e+002 1.375000e+002 1.000000e+002
      vertex   1.937500e+002 -2.500000e+002 1.000000e+002
    endloop
  endfacet
  facet normal -0.000000e+000 0.000000e+000 1.000000e+000
    outer loop
      vertex   1.937500e+002 2.500000e+002 1.000000e+002
      vertex   1.312500e+002 2.500000e+002 1.000000e+002
      vertex   1.937500e+002 -2.500000e+002 1.000000e+002
    endloop
  endfacet
  facet normal 0.000000e+000 -0.000000e+000 1.000000e+000
    outer loop
      vertex   -1.312500e+002 1.375000e+002 1.000000e+002
      vertex   1.250000e+002 -2.500000e+002 1.000000e+002
      vertex   1.937500e+002 -2.500000e+002 1.000000e+002
    endloop
  endfacet
  facet normal 0.000000e+000 0.000000e+000 1.000000e+000
    outer loop
      vertex   -1.312500e+002 1.375000e+002 1.000000e+002
      vertex   -1.937500e+002 -2.500000e+002 1.000000e+002
      vertex   -1.312500e+002 -2.500000e+002 1.000000e+002
    endloop
  endfacet
endsolid
