solid ascii
  facet normal 9.899496e-001 -1.414214e-001 0.000000e+000
    outer loop
      vertex   2.174935e+002 3.864392e+000 5.000000e+001
      vertex   2.143685e+002 -1.801061e+001 0.000000e+000
      vertex   2.206185e+002 2.573939e+001 0.000000e+000
    endloop
  endfacet
  facet normal -1.643990e-001 9.863939e-001 0.000000e+000
    outer loop
      vertex   7.686847e+001 -3.988561e+001 5.000000e+001
      vertex   5.811847e+001 -4.301061e+001 0.000000e+000
      vertex   5.811847e+001 -4.301061e+001 1.000000e+002
    endloop
  endfacet
  facet normal 9.899496e-001 -1.414214e-001 0.000000e+000
    outer loop
      vertex   2.174935e+002 3.864392e+000 5.000000e+001
      vertex   2.206185e+002 2.573939e+001 0.000000e+000
      vertex   2.206185e+002 2.573939e+001 1.000000e+002
    endloop
  endfacet
  facet normal -1.643990e-001 9.863939e-001 0.000000e+000
    outer loop
      vertex   7.686847e+001 -3.988561e+001 5.000000e+001
      vertex   9.561847e+001 -3.676061e+001 1.000000e+002
      vertex   9.561847e+001 -3.676061e+001 0.000000e+000
    endloop
  endfacet
  facet normal -7.071068e-001 7.071068e-001 0.000000e+000
    outer loop
      vertex   1.362435e+002 -1.488561e+001 5.000000e+001
      vertex   1.456185e+002 -5.510608e+000 0.000000e+000
      vertex   1.268685e+002 -2.426061e+001 0.000000e+000
    endloop
  endfacet
  facet normal -7.071068e-001 7.071067e-001 0.000000e+000
    outer loop
      vertex   1.362435e+002 -1.488561e+001 5.000000e+001
      vertex   1.268685e+002 -2.426061e+001 0.000000e+000
      vertex   1.268685e+002 -2.426061e+001 1.000000e+002
    endloop
  endfacet
  facet normal 9.899496e-001 -1.414214e-001 0.000000e+000
    outer loop
      vertex   2.174935e+002 3.864392e+000 5.000000e+001
      vertex   2.143685e+002 -1.801061e+001 1.000000e+002
      vertex   2.143685e+002 -1.801061e+001 0.000000e+000
    endloop
  endfacet
  facet normal -7.071068e-001 7.071068e-001 0.000000e+000
    outer loop
      vertex   1.362435e+002 -1.488561e+001 5.000000e+001
      vertex   1.456185e+002 -5.510608e+000 1.000000e+002
      vertex   1.456185e+002 -5.510608e+000 0.000000e+000
    endloop
  endfacet
  facet normal -9.284767e-001 -3.713906e-001 1.813431e-008
    outer loop
      vertex   1.518685e+002 7.886440e+001 5.000000e+001
      vertex   1.456185e+002 9.448940e+001 0.000000e+000
      vertex   1.581185e+002 6.323939e+001 0.000000e+000
    endloop
  endfacet
  facet normal -9.284767e-001 -3.713906e-001 0.000000e+000
    outer loop
      vertex   1.518685e+002 7.886440e+001 5.000000e+001
      vertex   1.581185e+002 6.323939e+001 0.000000e+000
      vertex   1.581185e+002 6.323939e+001 1.000000e+002
    endloop
  endfacet
  facet normal 0.000000e+000 -1.000000e+000 0.000000e+000
    outer loop
      vertex   -7.506528e+000 1.319894e+002 5.000000e+001
      vertex   5.811847e+001 1.319894e+002 0.000000e+000
      vertex   5.811847e+001 1.319894e+002 1.000000e+002
    endloop
  endfacet
  facet normal -9.284767e-001 -3.713907e-001 -0.000000e+000
    outer loop
      vertex   1.518685e+002 7.886440e+001 5.000000e+001
      vertex   1.456185e+002 9.448940e+001 1.000000e+002
      vertex   1.456185e+002 9.448940e+001 0.000000e+000
    endloop
  endfacet
  facet normal 0.000000e+000 -1.000000e+000 0.000000e+000
    outer loop
      vertex   -1.075065e+002 -3.055106e+002 5.000000e+001
      vertex   -1.418815e+002 -3.055106e+002 0.000000e+000
      vertex   -7.313153e+001 -3.055106e+002 0.000000e+000
    endloop
  endfacet
  facet normal 0.000000e+000 -1.000000e+000 0.000000e+000
    outer loop
      vertex   -1.075065e+002 -3.055106e+002 5.000000e+001
      vertex   -7.313153e+001 -3.055106e+002 0.000000e+000
      vertex   -7.313153e+001 -3.055106e+002 1.000000e+002
    endloop
  endfacet
  facet normal 0.000000e+000 -1.000000e+000 0.000000e+000
    outer loop
      vertex   -7.506528e+000 1.319894e+002 5.000000e+001
      vertex   -7.313153e+001 1.319894e+002 1.000000e+002
      vertex   -7.313153e+001 1.319894e+002 0.000000e+000
    endloop
  endfacet
  facet normal 0.000000e+000 -1.000000e+000 0.000000e+000
    outer loop
      vertex   -1.075065e+002 -3.055106e+002 5.000000e+001
      vertex   -1.418815e+002 -3.055106e+002 1.000000e+002
      vertex   -1.418815e+002 -3.055106e+002 0.000000e+000
    endloop
  endfacet
  facet normal 1.240348e-001 9.922779e-001 -1.816916e-008
    outer loop
      vertex   1.018685e+002 1.913644e+002 5.000000e+001
      vertex   1.268685e+002 1.882394e+002 0.000000e+000
      vertex   7.686847e+001 1.944894e+002 0.000000e+000
    endloop
  endfacet
  facet normal 1.240347e-001 9.922779e-001 -0.000000e+000
    outer loop
      vertex   1.018685e+002 1.913644e+002 5.000000e+001
      vertex   7.686847e+001 1.944894e+002 0.000000e+000
      vertex   7.686847e+001 1.944894e+002 1.000000e+002
    endloop
  endfacet
  facet normal 7.071066e-001 -7.071069e-001 0.000000e+000
    outer loop
      vertex   1.768685e+002 -6.801060e+001 5.000000e+001
      vertex   1.893685e+002 -5.551061e+001 0.000000e+000
      vertex   1.893685e+002 -5.551061e+001 1.000000e+002
    endloop
  endfacet
  facet normal 1.240348e-001 9.922779e-001 0.000000e+000
    outer loop
      vertex   1.018685e+002 1.913644e+002 5.000000e+001
      vertex   1.268685e+002 1.882394e+002 1.000000e+002
      vertex   1.268685e+002 1.882394e+002 0.000000e+000
    endloop
  endfacet
  facet normal -1.000000e+000 0.000000e+000 0.000000e+000
    outer loop
      vertex   -1.418815e+002 -5.551061e+001 5.000000e+001
      vertex   -1.418815e+002 1.944894e+002 0.000000e+000
      vertex   -1.418815e+002 -3.055106e+002 0.000000e+000
    endloop
  endfacet
  facet normal -1.000000e+000 0.000000e+000 0.000000e+000
    outer loop
      vertex   -1.418815e+002 -5.551061e+001 5.000000e+001
      vertex   -1.418815e+002 -3.055106e+002 0.000000e+000
      vertex   -1.418815e+002 -3.055106e+002 1.000000e+002
    endloop
  endfacet
  facet normal 7.071068e-001 -7.071068e-001 0.000000e+000
    outer loop
      vertex   1.768685e+002 -6.801060e+001 5.000000e+001
      vertex   1.643685e+002 -8.051060e+001 1.000000e+002
      vertex   1.643685e+002 -8.051060e+001 0.000000e+000
    endloop
  endfacet
  facet normal -1.000000e+000 0.000000e+000 -0.000000e+000
    outer loop
      vertex   -1.418815e+002 -5.551061e+001 5.000000e+001
      vertex   -1.418815e+002 1.944894e+002 1.000000e+002
      vertex   -1.418815e+002 1.944894e+002 0.000000e+000
    endloop
  endfacet
  facet normal 8.320503e-001 -5.547002e-001 0.000000e+000
    outer loop
      vertex   2.018685e+002 -3.676061e+001 5.000000e+001
      vertex   1.893685e+002 -5.551061e+001 0.000000e+000
      vertex   2.143685e+002 -1.801061e+001 0.000000e+000
    endloop
  endfacet
  facet normal 8.320503e-001 -5.547002e-001 0.000000e+000
    outer loop
      vertex   2.018685e+002 -3.676061e+001 5.000000e+001
      vertex   2.143685e+002 -1.801061e+001 0.000000e+000
      vertex   2.143685e+002 -1.801061e+001 1.000000e+002
    endloop
  endfacet
  facet normal -3.713910e-001 -9.284766e-001 0.000000e+000
    outer loop
      vertex   1.112435e+002 1.194894e+002 5.000000e+001
      vertex   1.268685e+002 1.132394e+002 0.000000e+000
      vertex   1.268685e+002 1.132394e+002 1.000000e+002
    endloop
  endfacet
  facet normal 8.320503e-001 -5.547002e-001 0.000000e+000
    outer loop
      vertex   2.018685e+002 -3.676061e+001 5.000000e+001
      vertex   1.893685e+002 -5.551061e+001 1.000000e+002
      vertex   1.893685e+002 -5.551061e+001 0.000000e+000
    endloop
  endfacet
  facet normal 0.000000e+000 1.000000e+000 0.000000e+000
    outer loop
      vertex   -7.506528e+000 -4.301061e+001 5.000000e+001
      vertex   5.811847e+001 -4.301061e+001 0.000000e+000
      vertex   -7.313153e+001 -4.301061e+001 0.000000e+000
    endloop
  endfacet
  facet normal 0.000000e+000 1.000000e+000 0.000000e+000
    outer loop
      vertex   -7.506528e+000 -4.301061e+001 5.000000e+001
      vertex   -7.313153e+001 -4.301061e+001 0.000000e+000
      vertex   -7.313153e+001 -4.301061e+001 1.000000e+002
    endloop
  endfacet
  facet normal -3.713907e-001 -9.284767e-001 -0.000000e+000
    outer loop
      vertex   1.112435e+002 1.194894e+002 5.000000e+001
      vertex   9.561847e+001 1.257394e+002 1.000000e+002
      vertex   9.561847e+001 1.257394e+002 0.000000e+000
    endloop
  endfacet
  facet normal 0.000000e+000 1.000000e+000 0.000000e+000
    outer loop
      vertex   -7.506528e+000 -4.301061e+001 5.000000e+001
      vertex   5.811847e+001 -4.301061e+001 1.000000e+002
      vertex   5.811847e+001 -4.301061e+001 0.000000e+000
    endloop
  endfacet
  facet normal 9.899495e-001 1.414213e-001 -6.905339e-009
    outer loop
      vertex   2.174935e+002 8.511440e+001 5.000000e+001
      vertex   2.206185e+002 6.323939e+001 0.000000e+000
      vertex   2.143685e+002 1.069894e+002 0.000000e+000
    endloop
  endfacet
  facet normal 9.899496e-001 1.414214e-001 -0.000000e+000
    outer loop
      vertex   2.174935e+002 8.511440e+001 5.000000e+001
      vertex   2.143685e+002 1.069894e+002 0.000000e+000
      vertex   2.143685e+002 1.069894e+002 1.000000e+002
    endloop
  endfacet
  facet normal 4.472136e-001 -8.944272e-001 0.000000e+000
    outer loop
      vertex   1.456185e+002 -8.988560e+001 5.000000e+001
      vertex   1.643685e+002 -8.051060e+001 0.000000e+000
      vertex   1.643685e+002 -8.051060e+001 1.000000e+002
    endloop
  endfacet
  facet normal 9.899495e-001 1.414213e-001 0.000000e+000
    outer loop
      vertex   2.174935e+002 8.511440e+001 5.000000e+001
      vertex   2.206185e+002 6.323939e+001 1.000000e+002
      vertex   2.206185e+002 6.323939e+001 0.000000e+000
    endloop
  endfacet
  facet normal -9.284767e-001 3.713907e-001 -9.067155e-009
    outer loop
      vertex   1.518685e+002 1.011439e+001 5.000000e+001
      vertex   1.581185e+002 2.573939e+001 0.000000e+000
      vertex   1.456185e+002 -5.510608e+000 0.000000e+000
    endloop
  endfacet
  facet normal -9.284767e-001 3.713907e-001 0.000000e+000
    outer loop
      vertex   1.518685e+002 1.011439e+001 5.000000e+001
      vertex   1.456185e+002 -5.510608e+000 0.000000e+000
      vertex   1.456185e+002 -5.510608e+000 1.000000e+002
    endloop
  endfacet
  facet normal 4.472136e-001 -8.944272e-001 0.000000e+000
    outer loop
      vertex   1.456185e+002 -8.988560e+001 5.000000e+001
      vertex   1.268685e+002 -9.926060e+001 1.000000e+002
      vertex   1.268685e+002 -9.926060e+001 0.000000e+000
    endloop
  endfacet
  facet normal -9.284767e-001 3.713907e-001 0.000000e+000
    outer loop
      vertex   1.518685e+002 1.011439e+001 5.000000e+001
      vertex   1.581185e+002 2.573939e+001 1.000000e+002
      vertex   1.581185e+002 2.573939e+001 0.000000e+000
    endloop
  endfacet
  facet normal -1.000000e+000 0.000000e+000 0.000000e+000
    outer loop
      vertex   1.581185e+002 4.448939e+001 5.000000e+001
      vertex   1.581185e+002 6.323939e+001 0.000000e+000
      vertex   1.581185e+002 2.573939e+001 0.000000e+000
    endloop
  endfacet
  facet normal -1.000000e+000 0.000000e+000 0.000000e+000
    outer loop
      vertex   1.581185e+002 4.448939e+001 5.000000e+001
      vertex   1.581185e+002 2.573939e+001 0.000000e+000
      vertex   1.581185e+002 2.573939e+001 1.000000e+002
    endloop
  endfacet
  facet normal 0.000000e+000 1.000000e+000 0.000000e+000
    outer loop
      vertex   -3.250653e+001 1.944894e+002 5.000000e+001
      vertex   -1.418815e+002 1.944894e+002 0.000000e+000
      vertex   -1.418815e+002 1.944894e+002 1.000000e+002
    endloop
  endfacet
  facet normal -1.000000e+000 0.000000e+000 -0.000000e+000
    outer loop
      vertex   1.581185e+002 4.448939e+001 5.000000e+001
      vertex   1.581185e+002 6.323939e+001 1.000000e+002
      vertex   1.581185e+002 6.323939e+001 0.000000e+000
    endloop
  endfacet
  facet normal 7.071068e-001 7.071068e-001 0.000000e+000
    outer loop
      vertex   1.768685e+002 1.569894e+002 5.000000e+001
      vertex   1.893685e+002 1.444894e+002 0.000000e+000
      vertex   1.643685e+002 1.694894e+002 0.000000e+000
    endloop
  endfacet
  facet normal 7.071068e-001 7.071068e-001 -0.000000e+000
    outer loop
      vertex   1.768685e+002 1.569894e+002 5.000000e+001
      vertex   1.643685e+002 1.694894e+002 0.000000e+000
      vertex   1.643685e+002 1.694894e+002 1.000000e+002
    endloop
  endfacet
  facet normal 0.000000e+000 1.000000e+000 0.000000e+000
    outer loop
      vertex   -3.250653e+001 1.944894e+002 5.000000e+001
      vertex   7.686847e+001 1.944894e+002 1.000000e+002
      vertex   7.686847e+001 1.944894e+002 0.000000e+000
    endloop
  endfacet
  facet normal 7.071068e-001 7.071068e-001 0.000000e+000
    outer loop
      vertex   1.768685e+002 1.569894e+002 5.000000e+001
      vertex   1.893685e+002 1.444894e+002 1.000000e+002
      vertex   1.893685e+002 1.444894e+002 0.000000e+000
    endloop
  endfacet
  facet normal -7.071068e-001 -7.071068e-001 0.000000e+000
    outer loop
      vertex   1.362435e+002 1.038644e+002 5.000000e+001
      vertex   1.268685e+002 1.132394e+002 0.000000e+000
      vertex   1.456185e+002 9.448940e+001 0.000000e+000
    endloop
  endfacet
  facet normal -7.071068e-001 -7.071068e-001 0.000000e+000
    outer loop
      vertex   1.362435e+002 1.038644e+002 5.000000e+001
      vertex   1.456185e+002 9.448940e+001 0.000000e+000
      vertex   1.456185e+002 9.448940e+001 1.000000e+002
    endloop
  endfacet
  facet normal 1.000000e+000 0.000000e+000 -0.000000e+000
    outer loop
      vertex   -7.313153e+001 -2.055106e+002 5.000000e+001
      vertex   -7.313153e+001 -1.055106e+002 0.000000e+000
      vertex   -7.313153e+001 -1.055106e+002 1.000000e+002
    endloop
  endfacet
  facet normal -7.071068e-001 -7.071068e-001 -0.000000e+000
    outer loop
      vertex   1.362435e+002 1.038644e+002 5.000000e+001
      vertex   1.268685e+002 1.132394e+002 1.000000e+002
      vertex   1.268685e+002 1.132394e+002 0.000000e+000
    endloop
  endfacet
  facet normal 8.320503e-001 5.547002e-001 0.000000e+000
    outer loop
      vertex   2.018685e+002 1.257394e+002 5.000000e+001
      vertex   2.143685e+002 1.069894e+002 0.000000e+000
      vertex   1.893685e+002 1.444894e+002 0.000000e+000
    endloop
  endfacet
  facet normal 8.320503e-001 5.547002e-001 -0.000000e+000
    outer loop
      vertex   2.018685e+002 1.257394e+002 5.000000e+001
      vertex   1.893685e+002 1.444894e+002 0.000000e+000
      vertex   1.893685e+002 1.444894e+002 1.000000e+002
    endloop
  endfacet
  facet normal 1.000000e+000 0.000000e+000 0.000000e+000
    outer loop
      vertex   -7.313153e+001 -2.055106e+002 5.000000e+001
      vertex   -7.313153e+001 -3.055106e+002 1.000000e+002
      vertex   -7.313153e+001 -3.055106e+002 0.000000e+000
    endloop
  endfacet
  facet normal 8.320503e-001 5.547002e-001 0.000000e+000
    outer loop
      vertex   2.018685e+002 1.257394e+002 5.000000e+001
      vertex   2.143685e+002 1.069894e+002 1.000000e+002
      vertex   2.143685e+002 1.069894e+002 0.000000e+000
    endloop
  endfacet
  facet normal -1.643990e-001 -9.863939e-001 -4.013648e-009
    outer loop
      vertex   7.686847e+001 1.288644e+002 5.000000e+001
      vertex   5.811847e+001 1.319894e+002 0.000000e+000
      vertex   9.561847e+001 1.257394e+002 0.000000e+000
    endloop
  endfacet
  facet normal -1.643990e-001 -9.863939e-001 0.000000e+000
    outer loop
      vertex   7.686847e+001 1.288644e+002 5.000000e+001
      vertex   9.561847e+001 1.257394e+002 0.000000e+000
      vertex   9.561847e+001 1.257394e+002 1.000000e+002
    endloop
  endfacet
  facet normal -0.000000e+000 0.000000e+000 -1.000000e+000
    outer loop
      vertex   -7.313153e+001 -4.301061e+001 0.000000e+000
      vertex   -7.313153e+001 -1.055106e+002 0.000000e+000
      vertex   -1.418815e+002 -3.055106e+002 0.000000e+000
    endloop
  endfacet
  facet normal -1.643990e-001 -9.863939e-001 -0.000000e+000
    outer loop
      vertex   7.686847e+001 1.288644e+002 5.000000e+001
      vertex   5.811847e+001 1.319894e+002 1.000000e+002
      vertex   5.811847e+001 1.319894e+002 0.000000e+000
    endloop
  endfacet
  facet normal 1.240348e-001 -9.922779e-001 -1.816916e-008
    outer loop
      vertex   1.018685e+002 -1.023856e+002 5.000000e+001
      vertex   7.686847e+001 -1.055106e+002 0.000000e+000
      vertex   1.268685e+002 -9.926060e+001 0.000000e+000
    endloop
  endfacet
  facet normal 1.240348e-001 -9.922779e-001 0.000000e+000
    outer loop
      vertex   1.018685e+002 -1.023856e+002 5.000000e+001
      vertex   1.268685e+002 -9.926060e+001 0.000000e+000
      vertex   1.268685e+002 -9.926060e+001 1.000000e+002
    endloop
  endfacet
  facet normal 0.000000e+000 0.000000e+000 -1.000000e+000
    outer loop
      vertex   5.811847e+001 -4.301061e+001 0.000000e+000
      vertex   7.686847e+001 -1.055106e+002 0.000000e+000
      vertex   -7.313153e+001 -4.301061e+001 0.000000e+000
    endloop
  endfacet
  facet normal 1.240347e-001 -9.922779e-001 0.000000e+000
    outer loop
      vertex   1.018685e+002 -1.023856e+002 5.000000e+001
      vertex   7.686847e+001 -1.055106e+002 1.000000e+002
      vertex   7.686847e+001 -1.055106e+002 0.000000e+000
    endloop
  endfacet
  facet normal 0.000000e+000 -1.000000e+000 0.000000e+000
    outer loop
      vertex   1.868472e+000 -1.055106e+002 5.000000e+001
      vertex   -7.313153e+001 -1.055106e+002 0.000000e+000
      vertex   7.686847e+001 -1.055106e+002 0.000000e+000
    endloop
  endfacet
  facet normal 0.000000e+000 -1.000000e+000 0.000000e+000
    outer loop
      vertex   1.868472e+000 -1.055106e+002 5.000000e+001
      vertex   7.686847e+001 -1.055106e+002 0.000000e+000
      vertex   7.686847e+001 -1.055106e+002 1.000000e+002
    endloop
  endfacet
  facet normal 0.000000e+000 0.000000e+000 -1.000000e+000
    outer loop
      vertex   -7.313153e+001 1.319894e+002 0.000000e+000
      vertex   -7.313153e+001 -4.301061e+001 0.000000e+000
      vertex   -1.418815e+002 1.944894e+002 0.000000e+000
    endloop
  endfacet
  facet normal 0.000000e+000 -1.000000e+000 0.000000e+000
    outer loop
      vertex   1.868472e+000 -1.055106e+002 5.000000e+001
      vertex   -7.313153e+001 -1.055106e+002 1.000000e+002
      vertex   -7.313153e+001 -1.055106e+002 0.000000e+000
    endloop
  endfacet
  facet normal 4.472136e-001 8.944272e-001 0.000000e+000
    outer loop
      vertex   1.456185e+002 1.788644e+002 5.000000e+001
      vertex   1.643685e+002 1.694894e+002 0.000000e+000
      vertex   1.268685e+002 1.882394e+002 0.000000e+000
    endloop
  endfacet
  facet normal 4.472136e-001 8.944272e-001 -0.000000e+000
    outer loop
      vertex   1.456185e+002 1.788644e+002 5.000000e+001
      vertex   1.268685e+002 1.882394e+002 0.000000e+000
      vertex   1.268685e+002 1.882394e+002 1.000000e+002
    endloop
  endfacet
  facet normal 0.000000e+000 0.000000e+000 -1.000000e+000
    outer loop
      vertex   9.561847e+001 -3.676061e+001 0.000000e+000
      vertex   1.268685e+002 -9.926060e+001 0.000000e+000
      vertex   5.811847e+001 -4.301061e+001 0.000000e+000
    endloop
  endfacet
  facet normal 4.472136e-001 8.944272e-001 0.000000e+000
    outer loop
      vertex   1.456185e+002 1.788644e+002 5.000000e+001
      vertex   1.643685e+002 1.694894e+002 1.000000e+002
      vertex   1.643685e+002 1.694894e+002 0.000000e+000
    endloop
  endfacet
  facet normal -3.713908e-001 9.284766e-001 5.440295e-008
    outer loop
      vertex   1.112435e+002 -3.051061e+001 5.000000e+001
      vertex   1.268685e+002 -2.426061e+001 0.000000e+000
      vertex   9.561847e+001 -3.676061e+001 0.000000e+000
    endloop
  endfacet
  facet normal -3.713907e-001 9.284767e-001 0.000000e+000
    outer loop
      vertex   1.112435e+002 -3.051061e+001 5.000000e+001
      vertex   9.561847e+001 -3.676061e+001 0.000000e+000
      vertex   9.561847e+001 -3.676061e+001 1.000000e+002
    endloop
  endfacet
  facet normal 0.000000e+000 0.000000e+000 -1.000000e+000
    outer loop
      vertex   1.268685e+002 -2.426061e+001 0.000000e+000
      vertex   1.643685e+002 -8.051060e+001 0.000000e+000
      vertex   9.561847e+001 -3.676061e+001 0.000000e+000
    endloop
  endfacet
  facet normal -3.713910e-001 9.284766e-001 0.000000e+000
    outer loop
      vertex   1.112435e+002 -3.051061e+001 5.000000e+001
      vertex   1.268685e+002 -2.426061e+001 1.000000e+002
      vertex   1.268685e+002 -2.426061e+001 0.000000e+000
    endloop
  endfacet
  facet normal 1.000000e+000 0.000000e+000 0.000000e+000
    outer loop
      vertex   2.206185e+002 4.448939e+001 5.000000e+001
      vertex   2.206185e+002 2.573939e+001 0.000000e+000
      vertex   2.206185e+002 6.323939e+001 0.000000e+000
    endloop
  endfacet
  facet normal 1.000000e+000 0.000000e+000 -0.000000e+000
    outer loop
      vertex   2.206185e+002 4.448939e+001 5.000000e+001
      vertex   2.206185e+002 6.323939e+001 0.000000e+000
      vertex   2.206185e+002 6.323939e+001 1.000000e+002
    endloop
  endfacet
  facet normal 0.000000e+000 0.000000e+000 -1.000000e+000
    outer loop
      vertex   1.893685e+002 -5.551061e+001 0.000000e+000
      vertex   1.643685e+002 -8.051060e+001 0.000000e+000
      vertex   1.456185e+002 -5.510608e+000 0.000000e+000
    endloop
  endfacet
  facet normal 1.000000e+000 0.000000e+000 0.000000e+000
    outer loop
      vertex   2.206185e+002 4.448939e+001 5.000000e+001
      vertex   2.206185e+002 2.573939e+001 1.000000e+002
      vertex   2.206185e+002 2.573939e+001 0.000000e+000
    endloop
  endfacet
  facet normal 1.000000e+000 0.000000e+000 0.000000e+000
    outer loop
      vertex   -7.313153e+001 4.448939e+001 5.000000e+001
      vertex   -7.313153e+001 -4.301061e+001 0.000000e+000
      vertex   -7.313153e+001 1.319894e+002 0.000000e+000
    endloop
  endfacet
  facet normal 1.000000e+000 0.000000e+000 -0.000000e+000
    outer loop
      vertex   -7.313153e+001 4.448939e+001 5.000000e+001
      vertex   -7.313153e+001 1.319894e+002 0.000000e+000
      vertex   -7.313153e+001 1.319894e+002 1.000000e+002
    endloop
  endfacet
  facet normal 0.000000e+000 0.000000e+000 -1.000000e+000
    outer loop
      vertex   1.581185e+002 2.573939e+001 0.000000e+000
      vertex   1.893685e+002 -5.551061e+001 0.000000e+000
      vertex   1.456185e+002 -5.510608e+000 0.000000e+000
    endloop
  endfacet
  facet normal 1.000000e+000 0.000000e+000 0.000000e+000
    outer loop
      vertex   -7.313153e+001 4.448939e+001 5.000000e+001
      vertex   -7.313153e+001 -4.301061e+001 1.000000e+002
      vertex   -7.313153e+001 -4.301061e+001 0.000000e+000
    endloop
  endfacet
  facet normal -1.643990e-001 9.863939e-001 -8.027295e-009
    outer loop
      vertex   7.686847e+001 -3.988561e+001 5.000000e+001
      vertex   9.561847e+001 -3.676061e+001 0.000000e+000
      vertex   5.811847e+001 -4.301061e+001 0.000000e+000
    endloop
  endfacet
  facet normal 0.000000e+000 0.000000e+000 -1.000000e+000
    outer loop
      vertex   2.143685e+002 -1.801061e+001 0.000000e+000
      vertex   1.893685e+002 -5.551061e+001 0.000000e+000
      vertex   1.581185e+002 2.573939e+001 0.000000e+000
    endloop
  endfacet
  facet normal 0.000000e+000 0.000000e+000 -1.000000e+000
    outer loop
      vertex   9.561847e+001 1.257394e+002 0.000000e+000
      vertex   5.811847e+001 1.319894e+002 0.000000e+000
      vertex   -1.418815e+002 1.944894e+002 0.000000e+000
    endloop
  endfacet
  facet normal 0.000000e+000 0.000000e+000 -1.000000e+000
    outer loop
      vertex   -7.313153e+001 -1.055106e+002 0.000000e+000
      vertex   -7.313153e+001 -3.055106e+002 0.000000e+000
      vertex   -1.418815e+002 -3.055106e+002 0.000000e+000
    endloop
  endfacet
  facet normal 0.000000e+000 -1.000000e+000 0.000000e+000
    outer loop
      vertex   -7.506528e+000 1.319894e+002 5.000000e+001
      vertex   -7.313153e+001 1.319894e+002 0.000000e+000
      vertex   5.811847e+001 1.319894e+002 0.000000e+000
    endloop
  endfacet
  facet normal 0.000000e+000 0.000000e+000 -1.000000e+000
    outer loop
      vertex   1.893685e+002 1.444894e+002 0.000000e+000
      vertex   2.143685e+002 1.069894e+002 0.000000e+000
      vertex   1.643685e+002 1.694894e+002 0.000000e+000
    endloop
  endfacet
  facet normal 0.000000e+000 0.000000e+000 -1.000000e+000
    outer loop
      vertex   7.686847e+001 -1.055106e+002 0.000000e+000
      vertex   -7.313153e+001 -1.055106e+002 0.000000e+000
      vertex   -7.313153e+001 -4.301061e+001 0.000000e+000
    endloop
  endfacet
  facet normal 0.000000e+000 0.000000e+000 -1.000000e+000
    outer loop
      vertex   1.268685e+002 1.882394e+002 0.000000e+000
      vertex   2.206185e+002 6.323939e+001 0.000000e+000
      vertex   7.686847e+001 1.944894e+002 0.000000e+000
    endloop
  endfacet
  facet normal 7.071067e-001 -7.071068e-001 3.452670e-008
    outer loop
      vertex   1.768685e+002 -6.801060e+001 5.000000e+001
      vertex   1.643685e+002 -8.051060e+001 0.000000e+000
      vertex   1.893685e+002 -5.551061e+001 0.000000e+000
    endloop
  endfacet
  facet normal 0.000000e+000 0.000000e+000 -1.000000e+000
    outer loop
      vertex   2.143685e+002 1.069894e+002 0.000000e+000
      vertex   2.206185e+002 6.323939e+001 0.000000e+000
      vertex   1.268685e+002 1.882394e+002 0.000000e+000
    endloop
  endfacet
  facet normal 0.000000e+000 0.000000e+000 -1.000000e+000
    outer loop
      vertex   2.206185e+002 6.323939e+001 0.000000e+000
      vertex   2.206185e+002 2.573939e+001 0.000000e+000
      vertex   7.686847e+001 1.944894e+002 0.000000e+000
    endloop
  endfacet
  facet normal 0.000000e+000 0.000000e+000 -1.000000e+000
    outer loop
      vertex   7.686847e+001 1.944894e+002 0.000000e+000
      vertex   9.561847e+001 1.257394e+002 0.000000e+000
      vertex   -1.418815e+002 1.944894e+002 0.000000e+000
    endloop
  endfacet
  facet normal -3.713908e-001 -9.284766e-001 5.440295e-008
    outer loop
      vertex   1.112435e+002 1.194894e+002 5.000000e+001
      vertex   9.561847e+001 1.257394e+002 0.000000e+000
      vertex   1.268685e+002 1.132394e+002 0.000000e+000
    endloop
  endfacet
  facet normal 0.000000e+000 0.000000e+000 -1.000000e+000
    outer loop
      vertex   7.686847e+001 1.944894e+002 0.000000e+000
      vertex   2.206185e+002 2.573939e+001 0.000000e+000
      vertex   1.268685e+002 1.132394e+002 0.000000e+000
    endloop
  endfacet
  facet normal 0.000000e+000 0.000000e+000 -1.000000e+000
    outer loop
      vertex   2.206185e+002 2.573939e+001 0.000000e+000
      vertex   2.143685e+002 -1.801061e+001 0.000000e+000
      vertex   1.456185e+002 9.448940e+001 0.000000e+000
    endloop
  endfacet
  facet normal 0.000000e+000 0.000000e+000 -1.000000e+000
    outer loop
      vertex   2.206185e+002 2.573939e+001 0.000000e+000
      vertex   1.456185e+002 9.448940e+001 0.000000e+000
      vertex   1.268685e+002 1.132394e+002 0.000000e+000
    endloop
  endfacet
  facet normal 4.472136e-001 -8.944272e-001 0.000000e+000
    outer loop
      vertex   1.456185e+002 -8.988560e+001 5.000000e+001
      vertex   1.268685e+002 -9.926060e+001 0.000000e+000
      vertex   1.643685e+002 -8.051060e+001 0.000000e+000
    endloop
  endfacet
  facet normal 0.000000e+000 0.000000e+000 -1.000000e+000
    outer loop
      vertex   1.456185e+002 9.448940e+001 0.000000e+000
      vertex   2.143685e+002 -1.801061e+001 0.000000e+000
      vertex   1.581185e+002 6.323939e+001 0.000000e+000
    endloop
  endfacet
  facet normal 0.000000e+000 0.000000e+000 -1.000000e+000
    outer loop
      vertex   7.686847e+001 1.944894e+002 0.000000e+000
      vertex   1.268685e+002 1.132394e+002 0.000000e+000
      vertex   9.561847e+001 1.257394e+002 0.000000e+000
    endloop
  endfacet
  facet normal 0.000000e+000 0.000000e+000 -1.000000e+000
    outer loop
      vertex   5.811847e+001 1.319894e+002 0.000000e+000
      vertex   -7.313153e+001 1.319894e+002 0.000000e+000
      vertex   -1.418815e+002 1.944894e+002 0.000000e+000
    endloop
  endfacet
  facet normal 0.000000e+000 1.000000e+000 0.000000e+000
    outer loop
      vertex   -3.250653e+001 1.944894e+002 5.000000e+001
      vertex   7.686847e+001 1.944894e+002 0.000000e+000
      vertex   -1.418815e+002 1.944894e+002 0.000000e+000
    endloop
  endfacet
  facet normal 0.000000e+000 0.000000e+000 -1.000000e+000
    outer loop
      vertex   1.581185e+002 6.323939e+001 0.000000e+000
      vertex   2.143685e+002 -1.801061e+001 0.000000e+000
      vertex   1.581185e+002 2.573939e+001 0.000000e+000
    endloop
  endfacet
  facet normal 0.000000e+000 0.000000e+000 -1.000000e+000
    outer loop
      vertex   1.643685e+002 1.694894e+002 0.000000e+000
      vertex   2.143685e+002 1.069894e+002 0.000000e+000
      vertex   1.268685e+002 1.882394e+002 0.000000e+000
    endloop
  endfacet
  facet normal 0.000000e+000 0.000000e+000 -1.000000e+000
    outer loop
      vertex   1.268685e+002 -9.926060e+001 0.000000e+000
      vertex   7.686847e+001 -1.055106e+002 0.000000e+000
      vertex   5.811847e+001 -4.301061e+001 0.000000e+000
    endloop
  endfacet
  facet normal 1.000000e+000 0.000000e+000 0.000000e+000
    outer loop
      vertex   -7.313153e+001 -2.055106e+002 5.000000e+001
      vertex   -7.313153e+001 -3.055106e+002 0.000000e+000
      vertex   -7.313153e+001 -1.055106e+002 0.000000e+000
    endloop
  endfacet
  facet normal 0.000000e+000 0.000000e+000 -1.000000e+000
    outer loop
      vertex   1.643685e+002 -8.051060e+001 0.000000e+000
      vertex   1.268685e+002 -9.926060e+001 0.000000e+000
      vertex   9.561847e+001 -3.676061e+001 0.000000e+000
    endloop
  endfacet
  facet normal 0.000000e+000 0.000000e+000 -1.000000e+000
    outer loop
      vertex   1.456185e+002 -5.510608e+000 0.000000e+000
      vertex   1.643685e+002 -8.051060e+001 0.000000e+000
      vertex   1.268685e+002 -2.426061e+001 0.000000e+000
    endloop
  endfacet
  facet normal -0.000000e+000 0.000000e+000 -1.000000e+000
    outer loop
      vertex   -1.418815e+002 1.944894e+002 0.000000e+000
      vertex   -7.313153e+001 -4.301061e+001 0.000000e+000
      vertex   -1.418815e+002 -3.055106e+002 0.000000e+000
    endloop
  endfacet
  facet normal -7.071068e-001 -7.071068e-001 0.000000e+000
    outer loop
      vertex   1.362435e+002 1.038644e+002 5.000000e+001
      vertex   1.456185e+002 9.448940e+001 1.000000e+002
      vertex   1.268685e+002 1.132394e+002 1.000000e+002
    endloop
  endfacet
  facet normal 7.071068e-001 7.071068e-001 0.000000e+000
    outer loop
      vertex   1.768685e+002 1.569894e+002 5.000000e+001
      vertex   1.643685e+002 1.694894e+002 1.000000e+002
      vertex   1.893685e+002 1.444894e+002 1.000000e+002
    endloop
  endfacet
  facet normal -0.000000e+000 1.000000e+000 0.000000e+000
    outer loop
      vertex   -3.250653e+001 1.944894e+002 5.000000e+001
      vertex   -1.418815e+002 1.944894e+002 1.000000e+002
      vertex   7.686847e+001 1.944894e+002 1.000000e+002
    endloop
  endfacet
  facet normal 8.320503e-001 5.547002e-001 0.000000e+000
    outer loop
      vertex   2.018685e+002 1.257394e+002 5.000000e+001
      vertex   1.893685e+002 1.444894e+002 1.000000e+002
      vertex   2.143685e+002 1.069894e+002 1.000000e+002
    endloop
  endfacet
  facet normal -0.000000e+000 -1.000000e+000 0.000000e+000
    outer loop
      vertex   1.868472e+000 -1.055106e+002 5.000000e+001
      vertex   7.686847e+001 -1.055106e+002 1.000000e+002
      vertex   -7.313153e+001 -1.055106e+002 1.000000e+002
    endloop
  endfacet
  facet normal 1.000000e+000 0.000000e+000 0.000000e+000
    outer loop
      vertex   -7.313153e+001 -2.055106e+002 5.000000e+001
      vertex   -7.313153e+001 -1.055106e+002 1.000000e+002
      vertex   -7.313153e+001 -3.055106e+002 1.000000e+002
    endloop
  endfacet
  facet normal -9.284767e-001 3.713907e-001 0.000000e+000
    outer loop
      vertex   1.518685e+002 1.011439e+001 5.000000e+001
      vertex   1.456185e+002 -5.510608e+000 1.000000e+002
      vertex   1.581185e+002 2.573939e+001 1.000000e+002
    endloop
  endfacet
  facet normal 4.472136e-001 8.944272e-001 0.000000e+000
    outer loop
      vertex   1.456185e+002 1.788644e+002 5.000000e+001
      vertex   1.268685e+002 1.882394e+002 1.000000e+002
      vertex   1.643685e+002 1.694894e+002 1.000000e+002
    endloop
  endfacet
  facet normal -1.000000e+000 0.000000e+000 0.000000e+000
    outer loop
      vertex   1.581185e+002 4.448939e+001 5.000000e+001
      vertex   1.581185e+002 2.573939e+001 1.000000e+002
      vertex   1.581185e+002 6.323939e+001 1.000000e+002
    endloop
  endfacet
  facet normal -3.713908e-001 9.284766e-001 -5.440295e-008
    outer loop
      vertex   1.112435e+002 -3.051061e+001 5.000000e+001
      vertex   9.561847e+001 -3.676061e+001 1.000000e+002
      vertex   1.268685e+002 -2.426061e+001 1.000000e+002
    endloop
  endfacet
  facet normal 4.472136e-001 -8.944272e-001 0.000000e+000
    outer loop
      vertex   1.456185e+002 -8.988560e+001 5.000000e+001
      vertex   1.643685e+002 -8.051060e+001 1.000000e+002
      vertex   1.268685e+002 -9.926060e+001 1.000000e+002
    endloop
  endfacet
  facet normal 1.000000e+000 0.000000e+000 0.000000e+000
    outer loop
      vertex   2.206185e+002 4.448939e+001 5.000000e+001
      vertex   2.206185e+002 6.323939e+001 1.000000e+002
      vertex   2.206185e+002 2.573939e+001 1.000000e+002
    endloop
  endfacet
  facet normal 9.899495e-001 1.414213e-001 6.905339e-009
    outer loop
      vertex   2.174935e+002 8.511440e+001 5.000000e+001
      vertex   2.143685e+002 1.069894e+002 1.000000e+002
      vertex   2.206185e+002 6.323939e+001 1.000000e+002
    endloop
  endfacet
  facet normal 1.000000e+000 0.000000e+000 0.000000e+000
    outer loop
      vertex   -7.313153e+001 4.448939e+001 5.000000e+001
      vertex   -7.313153e+001 1.319894e+002 1.000000e+002
      vertex   -7.313153e+001 -4.301061e+001 1.000000e+002
    endloop
  endfacet
  facet normal -1.643990e-001 9.863939e-001 4.013648e-009
    outer loop
      vertex   7.686847e+001 -3.988561e+001 5.000000e+001
      vertex   5.811847e+001 -4.301061e+001 1.000000e+002
      vertex   9.561847e+001 -3.676061e+001 1.000000e+002
    endloop
  endfacet
  facet normal -7.071068e-001 7.071068e-001 1.150890e-008
    outer loop
      vertex   1.362435e+002 -1.488561e+001 5.000000e+001
      vertex   1.268685e+002 -2.426061e+001 1.000000e+002
      vertex   1.456185e+002 -5.510608e+000 1.000000e+002
    endloop
  endfacet
  facet normal -0.000000e+000 1.000000e+000 0.000000e+000
    outer loop
      vertex   -7.506528e+000 -4.301061e+001 5.000000e+001
      vertex   -7.313153e+001 -4.301061e+001 1.000000e+002
      vertex   5.811847e+001 -4.301061e+001 1.000000e+002
    endloop
  endfacet
  facet normal -3.713908e-001 -9.284766e-001 -5.440295e-008
    outer loop
      vertex   1.112435e+002 1.194894e+002 5.000000e+001
      vertex   1.268685e+002 1.132394e+002 1.000000e+002
      vertex   9.561847e+001 1.257394e+002 1.000000e+002
    endloop
  endfacet
  facet normal 8.320503e-001 -5.547002e-001 0.000000e+000
    outer loop
      vertex   2.018685e+002 -3.676061e+001 5.000000e+001
      vertex   2.143685e+002 -1.801061e+001 1.000000e+002
      vertex   1.893685e+002 -5.551061e+001 1.000000e+002
    endloop
  endfacet
  facet normal -1.000000e+000 0.000000e+000 0.000000e+000
    outer loop
      vertex   -1.418815e+002 -5.551061e+001 5.000000e+001
      vertex   -1.418815e+002 -3.055106e+002 1.000000e+002
      vertex   -1.418815e+002 1.944894e+002 1.000000e+002
    endloop
  endfacet
  facet normal 1.240348e-001 -9.922779e-001 1.816916e-008
    outer loop
      vertex   1.018685e+002 -1.023856e+002 5.000000e+001
      vertex   1.268685e+002 -9.926060e+001 1.000000e+002
      vertex   7.686847e+001 -1.055106e+002 1.000000e+002
    endloop
  endfacet
  facet normal 7.071067e-001 -7.071068e-001 -1.726335e-008
    outer loop
      vertex   1.768685e+002 -6.801060e+001 5.000000e+001
      vertex   1.893685e+002 -5.551061e+001 1.000000e+002
      vertex   1.643685e+002 -8.051060e+001 1.000000e+002
    endloop
  endfacet
  facet normal 1.240348e-001 9.922779e-001 1.816916e-008
    outer loop
      vertex   1.018685e+002 1.913644e+002 5.000000e+001
      vertex   7.686847e+001 1.944894e+002 1.000000e+002
      vertex   1.268685e+002 1.882394e+002 1.000000e+002
    endloop
  endfacet
  facet normal -9.284767e-001 -3.713906e-001 -9.067154e-009
    outer loop
      vertex   1.518685e+002 7.886440e+001 5.000000e+001
      vertex   1.581185e+002 6.323939e+001 1.000000e+002
      vertex   1.456185e+002 9.448940e+001 1.000000e+002
    endloop
  endfacet
  facet normal -0.000000e+000 -1.000000e+000 0.000000e+000
    outer loop
      vertex   -1.075065e+002 -3.055106e+002 5.000000e+001
      vertex   -7.313153e+001 -3.055106e+002 1.000000e+002
      vertex   -1.418815e+002 -3.055106e+002 1.000000e+002
    endloop
  endfacet
  facet normal -0.000000e+000 -1.000000e+000 0.000000e+000
    outer loop
      vertex   -7.506528e+000 1.319894e+002 5.000000e+001
      vertex   5.811847e+001 1.319894e+002 1.000000e+002
      vertex   -7.313153e+001 1.319894e+002 1.000000e+002
    endloop
  endfacet
  facet normal -1.643990e-001 -9.863939e-001 8.027295e-009
    outer loop
      vertex   7.686847e+001 1.288644e+002 5.000000e+001
      vertex   9.561847e+001 1.257394e+002 1.000000e+002
      vertex   5.811847e+001 1.319894e+002 1.000000e+002
    endloop
  endfacet
  facet normal 9.899496e-001 -1.414214e-001 0.000000e+000
    outer loop
      vertex   2.174935e+002 3.864392e+000 5.000000e+001
      vertex   2.206185e+002 2.573939e+001 1.000000e+002
      vertex   2.143685e+002 -1.801061e+001 1.000000e+002
    endloop
  endfacet
  facet normal 0.000000e+000 0.000000e+000 1.000000e+000
    outer loop
      vertex   2.143685e+002 -1.801061e+001 1.000000e+002
      vertex   1.581185e+002 2.573939e+001 1.000000e+002
      vertex   1.893685e+002 -5.551061e+001 1.000000e+002
    endloop
  endfacet
  facet normal 0.000000e+000 0.000000e+000 1.000000e+000
    outer loop
      vertex   -7.313153e+001 -4.301061e+001 1.000000e+002
      vertex   -1.418815e+002 -3.055106e+002 1.000000e+002
      vertex   -7.313153e+001 -1.055106e+002 1.000000e+002
    endloop
  endfacet
  facet normal 0.000000e+000 0.000000e+000 1.000000e+000
    outer loop
      vertex   7.686847e+001 -1.055106e+002 1.000000e+002
      vertex   -7.313153e+001 -4.301061e+001 1.000000e+002
      vertex   -7.313153e+001 -1.055106e+002 1.000000e+002
    endloop
  endfacet
  facet normal -0.000000e+000 0.000000e+000 1.000000e+000
    outer loop
      vertex   5.811847e+001 -4.301061e+001 1.000000e+002
      vertex   -7.313153e+001 -4.301061e+001 1.000000e+002
      vertex   7.686847e+001 -1.055106e+002 1.000000e+002
    endloop
  endfacet
  facet normal 0.000000e+000 0.000000e+000 1.000000e+000
    outer loop
      vertex   -1.418815e+002 1.944894e+002 1.000000e+002
      vertex   -1.418815e+002 -3.055106e+002 1.000000e+002
      vertex   -7.313153e+001 -4.301061e+001 1.000000e+002
    endloop
  endfacet
  facet normal 0.000000e+000 0.000000e+000 1.000000e+000
    outer loop
      vertex   -7.313153e+001 1.319894e+002 1.000000e+002
      vertex   -1.418815e+002 1.944894e+002 1.000000e+002
      vertex   -7.313153e+001 -4.301061e+001 1.000000e+002
    endloop
  endfacet
  facet normal 0.000000e+000 0.000000e+000 1.000000e+000
    outer loop
      vertex   1.268685e+002 -9.926060e+001 1.000000e+002
      vertex   5.811847e+001 -4.301061e+001 1.000000e+002
      vertex   7.686847e+001 -1.055106e+002 1.000000e+002
    endloop
  endfacet
  facet normal -0.000000e+000 0.000000e+000 1.000000e+000
    outer loop
      vertex   9.561847e+001 -3.676061e+001 1.000000e+002
      vertex   5.811847e+001 -4.301061e+001 1.000000e+002
      vertex   1.268685e+002 -9.926060e+001 1.000000e+002
    endloop
  endfacet
  facet normal 0.000000e+000 0.000000e+000 1.000000e+000
    outer loop
      vertex   1.643685e+002 -8.051060e+001 1.000000e+002
      vertex   9.561847e+001 -3.676061e+001 1.000000e+002
      vertex   1.268685e+002 -9.926060e+001 1.000000e+002
    endloop
  endfacet
  facet normal -0.000000e+000 0.000000e+000 1.000000e+000
    outer loop
      vertex   1.268685e+002 -2.426061e+001 1.000000e+002
      vertex   9.561847e+001 -3.676061e+001 1.000000e+002
      vertex   1.643685e+002 -8.051060e+001 1.000000e+002
    endloop
  endfacet
  facet normal -0.000000e+000 0.000000e+000 1.000000e+000
    outer loop
      vertex   1.456185e+002 -5.510608e+000 1.000000e+002
      vertex   1.268685e+002 -2.426061e+001 1.000000e+002
      vertex   1.643685e+002 -8.051060e+001 1.000000e+002
    endloop
  endfacet
  facet normal 0.000000e+000 0.000000e+000 1.000000e+000
    outer loop
      vertex   1.893685e+002 -5.551061e+001 1.000000e+002
      vertex   1.456185e+002 -5.510608e+000 1.000000e+002
      vertex   1.643685e+002 -8.051060e+001 1.000000e+002
    endloop
  endfacet
  facet normal 0.000000e+000 0.000000e+000 1.000000e+000
    outer loop
      vertex   5.811847e+001 1.319894e+002 1.000000e+002
      vertex   -1.418815e+002 1.944894e+002 1.000000e+002
      vertex   -7.313153e+001 1.319894e+002 1.000000e+002
    endloop
  endfacet
  facet normal -0.000000e+000 0.000000e+000 1.000000e+000
    outer loop
      vertex   1.581185e+002 2.573939e+001 1.000000e+002
      vertex   1.456185e+002 -5.510608e+000 1.000000e+002
      vertex   1.893685e+002 -5.551061e+001 1.000000e+002
    endloop
  endfacet
  facet normal 0.000000e+000 0.000000e+000 1.000000e+000
    outer loop
      vertex   -7.313153e+001 -1.055106e+002 1.000000e+002
      vertex   -1.418815e+002 -3.055106e+002 1.000000e+002
      vertex   -7.313153e+001 -3.055106e+002 1.000000e+002
    endloop
  endfacet
  facet normal 0.000000e+000 0.000000e+000 1.000000e+000
    outer loop
      vertex   9.561847e+001 1.257394e+002 1.000000e+002
      vertex   -1.418815e+002 1.944894e+002 1.000000e+002
      vertex   5.811847e+001 1.319894e+002 1.000000e+002
    endloop
  endfacet
  facet normal -0.000000e+000 0.000000e+000 1.000000e+000
    outer loop
      vertex   1.581185e+002 6.323939e+001 1.000000e+002
      vertex   1.581185e+002 2.573939e+001 1.000000e+002
      vertex   2.143685e+002 -1.801061e+001 1.000000e+002
    endloop
  endfacet
  facet normal -0.000000e+000 -0.000000e+000 1.000000e+000
    outer loop
      vertex   1.456185e+002 9.448940e+001 1.000000e+002
      vertex   1.581185e+002 6.323939e+001 1.000000e+002
      vertex   2.143685e+002 -1.801061e+001 1.000000e+002
    endloop
  endfacet
  facet normal 0.000000e+000 0.000000e+000 1.000000e+000
    outer loop
      vertex   2.206185e+002 2.573939e+001 1.000000e+002
      vertex   1.268685e+002 1.132394e+002 1.000000e+002
      vertex   1.456185e+002 9.448940e+001 1.000000e+002
    endloop
  endfacet
  facet normal 0.000000e+000 0.000000e+000 1.000000e+000
    outer loop
      vertex   2.206185e+002 2.573939e+001 1.000000e+002
      vertex   1.456185e+002 9.448940e+001 1.000000e+002
      vertex   2.143685e+002 -1.801061e+001 1.000000e+002
    endloop
  endfacet
  facet normal -0.000000e+000 -0.000000e+000 1.000000e+000
    outer loop
      vertex   7.686847e+001 1.944894e+002 1.000000e+002
      vertex   1.268685e+002 1.132394e+002 1.000000e+002
      vertex   2.206185e+002 2.573939e+001 1.000000e+002
    endloop
  endfacet
  facet normal -0.000000e+000 -0.000000e+000 1.000000e+000
    outer loop
      vertex   7.686847e+001 1.944894e+002 1.000000e+002
      vertex   9.561847e+001 1.257394e+002 1.000000e+002
      vertex   1.268685e+002 1.132394e+002 1.000000e+002
    endloop
  endfacet
  facet normal -0.000000e+000 0.000000e+000 1.000000e+000
    outer loop
      vertex   7.686847e+001 1.944894e+002 1.000000e+002
      vertex   -1.418815e+002 1.944894e+002 1.000000e+002
      vertex   9.561847e+001 1.257394e+002 1.000000e+002
    endloop
  endfacet
  facet normal 0.000000e+000 0.000000e+000 1.000000e+000
    outer loop
      vertex   2.206185e+002 6.323939e+001 1.000000e+002
      vertex   7.686847e+001 1.944894e+002 1.000000e+002
      vertex   2.206185e+002 2.573939e+001 1.000000e+002
    endloop
  endfacet
  facet normal 0.000000e+000 0.000000e+000 1.000000e+000
    outer loop
      vertex   1.268685e+002 1.882394e+002 1.000000e+002
      vertex   7.686847e+001 1.944894e+002 1.000000e+002
      vertex   2.206185e+002 6.323939e+001 1.000000e+002
    endloop
  endfacet
  facet normal 0.000000e+000 0.000000e+000 1.000000e+000
    outer loop
      vertex   2.143685e+002 1.069894e+002 1.000000e+002
      vertex   1.268685e+002 1.882394e+002 1.000000e+002
      vertex   2.206185e+002 6.323939e+001 1.000000e+002
    endloop
  endfacet
  facet normal 0.000000e+000 0.000000e+000 1.000000e+000
    outer loop
      vertex   1.643685e+002 1.694894e+002 1.000000e+002
      vertex   1.268685e+002 1.882394e+002 1.000000e+002
      vertex   2.143685e+002 1.069894e+002 1.000000e+002
    endloop
  endfacet
  facet normal 0.000000e+000 0.000000e+000 1.000000e+000
    outer loop
      vertex   1.893685e+002 1.444894e+002 1.000000e+002
      vertex   1.643685e+002 1.694894e+002 1.000000e+002
      vertex   2.143685e+002 1.069894e+002 1.000000e+002
    endloop
  endfacet
endsolid
