solid ascii
  facet normal -3.713906e-001 -9.284767e-001 9.067154e-009
    outer loop
      vertex   7.827434e+001 1.553935e+002 5.000000e+001
      vertex   6.264933e+001 1.616435e+002 0.000000e+000
      vertex   9.389934e+001 1.491435e+002 0.000000e+000
    endloop
  endfacet
  facet normal 1.000000e+000 0.000000e+000 -0.000000e+000
    outer loop
      vertex   -1.061007e+002 8.039349e+001 5.000000e+001
      vertex   -1.061007e+002 1.678935e+002 0.000000e+000
      vertex   -1.061007e+002 1.678935e+002 1.000000e+002
    endloop
  endfacet
  facet normal -3.713907e-001 -9.284767e-001 0.000000e+000
    outer loop
      vertex   7.827434e+001 1.553935e+002 5.000000e+001
      vertex   9.389934e+001 1.491435e+002 0.000000e+000
      vertex   9.389934e+001 1.491435e+002 1.000000e+002
    endloop
  endfacet
  facet normal 1.000000e+000 0.000000e+000 0.000000e+000
    outer loop
      vertex   -1.061007e+002 8.039349e+001 5.000000e+001
      vertex   -1.061007e+002 -7.106513e+000 1.000000e+002
      vertex   -1.061007e+002 -7.106513e+000 0.000000e+000
    endloop
  endfacet
  facet normal 8.320503e-001 -5.547002e-001 0.000000e+000
    outer loop
      vertex   1.688993e+002 -8.565127e-001 5.000000e+001
      vertex   1.563993e+002 -1.960651e+001 0.000000e+000
      vertex   1.813993e+002 1.789349e+001 0.000000e+000
    endloop
  endfacet
  facet normal 8.320503e-001 -5.547002e-001 0.000000e+000
    outer loop
      vertex   1.688993e+002 -8.565127e-001 5.000000e+001
      vertex   1.813993e+002 1.789349e+001 0.000000e+000
      vertex   1.813993e+002 1.789349e+001 1.000000e+002
    endloop
  endfacet
  facet normal -3.713906e-001 -9.284767e-001 -0.000000e+000
    outer loop
      vertex   7.827434e+001 1.553935e+002 5.000000e+001
      vertex   6.264933e+001 1.616435e+002 1.000000e+002
      vertex   6.264933e+001 1.616435e+002 0.000000e+000
    endloop
  endfacet
  facet normal 8.320503e-001 -5.547002e-001 0.000000e+000
    outer loop
      vertex   1.688993e+002 -8.565127e-001 5.000000e+001
      vertex   1.563993e+002 -1.960651e+001 1.000000e+002
      vertex   1.563993e+002 -1.960651e+001 0.000000e+000
    endloop
  endfacet
  facet normal 0.000000e+000 -1.000000e+000 0.000000e+000
    outer loop
      vertex   -4.047567e+001 1.678935e+002 5.000000e+001
      vertex   -1.061007e+002 1.678935e+002 0.000000e+000
      vertex   2.514934e+001 1.678935e+002 0.000000e+000
    endloop
  endfacet
  facet normal 0.000000e+000 -1.000000e+000 0.000000e+000
    outer loop
      vertex   -4.047567e+001 1.678935e+002 5.000000e+001
      vertex   2.514934e+001 1.678935e+002 0.000000e+000
      vertex   2.514934e+001 1.678935e+002 1.000000e+002
    endloop
  endfacet
  facet normal -1.000000e+000 0.000000e+000 0.000000e+000
    outer loop
      vertex   1.126493e+002 -1.571065e+002 5.000000e+001
      vertex   1.126493e+002 -1.758565e+002 0.000000e+000
      vertex   1.126493e+002 -1.758565e+002 1.000000e+002
    endloop
  endfacet
  facet normal 0.000000e+000 -1.000000e+000 0.000000e+000
    outer loop
      vertex   -4.047567e+001 1.678935e+002 5.000000e+001
      vertex   -1.061007e+002 1.678935e+002 1.000000e+002
      vertex   -1.061007e+002 1.678935e+002 0.000000e+000
    endloop
  endfacet
  facet normal 9.899496e-001 1.414214e-001 0.000000e+000
    outer loop
      vertex   1.907743e+002 -1.977315e+002 5.000000e+001
      vertex   1.938993e+002 -2.196065e+002 0.000000e+000
      vertex   1.876493e+002 -1.758565e+002 0.000000e+000
    endloop
  endfacet
  facet normal 9.899496e-001 1.414214e-001 -0.000000e+000
    outer loop
      vertex   1.907743e+002 -1.977315e+002 5.000000e+001
      vertex   1.876493e+002 -1.758565e+002 0.000000e+000
      vertex   1.876493e+002 -1.758565e+002 1.000000e+002
    endloop
  endfacet
  facet normal -1.000000e+000 0.000000e+000 -0.000000e+000
    outer loop
      vertex   1.126493e+002 -1.571065e+002 5.000000e+001
      vertex   1.126493e+002 -1.383565e+002 1.000000e+002
      vertex   1.126493e+002 -1.383565e+002 0.000000e+000
    endloop
  endfacet
  facet normal 9.899496e-001 1.414214e-001 0.000000e+000
    outer loop
      vertex   1.907743e+002 -1.977315e+002 5.000000e+001
      vertex   1.938993e+002 -2.196065e+002 1.000000e+002
      vertex   1.938993e+002 -2.196065e+002 0.000000e+000
    endloop
  endfacet
  facet normal 0.000000e+000 -1.000000e+000 0.000000e+000
    outer loop
      vertex   -1.404757e+002 -2.696065e+002 5.000000e+001
      vertex   -1.748507e+002 -2.696065e+002 0.000000e+000
      vertex   -1.061007e+002 -2.696065e+002 0.000000e+000
    endloop
  endfacet
  facet normal 0.000000e+000 -1.000000e+000 0.000000e+000
    outer loop
      vertex   -1.404757e+002 -2.696065e+002 5.000000e+001
      vertex   -1.061007e+002 -2.696065e+002 0.000000e+000
      vertex   -1.061007e+002 -2.696065e+002 1.000000e+002
    endloop
  endfacet
  facet normal 0.000000e+000 -1.000000e+000 0.000000e+000
    outer loop
      vertex   -4.672567e+001 -6.960651e+001 5.000000e+001
      vertex   1.264933e+001 -6.960651e+001 0.000000e+000
      vertex   1.264933e+001 -6.960651e+001 1.000000e+002
    endloop
  endfacet
  facet normal 0.000000e+000 -1.000000e+000 0.000000e+000
    outer loop
      vertex   -1.404757e+002 -2.696065e+002 5.000000e+001
      vertex   -1.748507e+002 -2.696065e+002 1.000000e+002
      vertex   -1.748507e+002 -2.696065e+002 0.000000e+000
    endloop
  endfacet
  facet normal -1.643990e-001 9.863939e-001 0.000000e+000
    outer loop
      vertex   4.389933e+001 -3.981513e+000 5.000000e+001
      vertex   6.264933e+001 -8.565127e-001 0.000000e+000
      vertex   2.514934e+001 -7.106513e+000 0.000000e+000
    endloop
  endfacet
  facet normal -1.643990e-001 9.863939e-001 0.000000e+000
    outer loop
      vertex   4.389933e+001 -3.981513e+000 5.000000e+001
      vertex   2.514934e+001 -7.106513e+000 0.000000e+000
      vertex   2.514934e+001 -7.106513e+000 1.000000e+002
    endloop
  endfacet
  facet normal 0.000000e+000 -1.000000e+000 0.000000e+000
    outer loop
      vertex   -4.672567e+001 -6.960651e+001 5.000000e+001
      vertex   -1.061007e+002 -6.960651e+001 1.000000e+002
      vertex   -1.061007e+002 -6.960651e+001 0.000000e+000
    endloop
  endfacet
  facet normal -1.643990e-001 9.863939e-001 0.000000e+000
    outer loop
      vertex   4.389933e+001 -3.981513e+000 5.000000e+001
      vertex   6.264933e+001 -8.565127e-001 1.000000e+002
      vertex   6.264933e+001 -8.565127e-001 0.000000e+000
    endloop
  endfacet
  facet normal -9.922779e-001 -1.240347e-001 0.000000e+000
    outer loop
      vertex   1.157743e+002 -2.008565e+002 5.000000e+001
      vertex   1.126493e+002 -1.758565e+002 0.000000e+000
      vertex   1.188993e+002 -2.258565e+002 0.000000e+000
    endloop
  endfacet
  facet normal -9.922779e-001 -1.240347e-001 0.000000e+000
    outer loop
      vertex   1.157743e+002 -2.008565e+002 5.000000e+001
      vertex   1.188993e+002 -2.258565e+002 0.000000e+000
      vertex   1.188993e+002 -2.258565e+002 1.000000e+002
    endloop
  endfacet
  facet normal -1.000000e+000 0.000000e+000 0.000000e+000
    outer loop
      vertex   1.251493e+002 8.039349e+001 5.000000e+001
      vertex   1.251493e+002 6.164349e+001 0.000000e+000
      vertex   1.251493e+002 6.164349e+001 1.000000e+002
    endloop
  endfacet
  facet normal -9.922779e-001 -1.240347e-001 -0.000000e+000
    outer loop
      vertex   1.157743e+002 -2.008565e+002 5.000000e+001
      vertex   1.126493e+002 -1.758565e+002 1.000000e+002
      vertex   1.126493e+002 -1.758565e+002 0.000000e+000
    endloop
  endfacet
  facet normal -9.284767e-001 -3.713906e-001 -2.720146e-008
    outer loop
      vertex   1.188993e+002 1.147685e+002 5.000000e+001
      vertex   1.126493e+002 1.303935e+002 0.000000e+000
      vertex   1.251493e+002 9.914349e+001 0.000000e+000
    endloop
  endfacet
  facet normal -9.284767e-001 -3.713907e-001 0.000000e+000
    outer loop
      vertex   1.188993e+002 1.147685e+002 5.000000e+001
      vertex   1.251493e+002 9.914349e+001 0.000000e+000
      vertex   1.251493e+002 9.914349e+001 1.000000e+002
    endloop
  endfacet
  facet normal -1.000000e+000 0.000000e+000 -0.000000e+000
    outer loop
      vertex   1.251493e+002 8.039349e+001 5.000000e+001
      vertex   1.251493e+002 9.914349e+001 1.000000e+002
      vertex   1.251493e+002 9.914349e+001 0.000000e+000
    endloop
  endfacet
  facet normal -9.284768e-001 -3.713906e-001 -0.000000e+000
    outer loop
      vertex   1.188993e+002 1.147685e+002 5.000000e+001
      vertex   1.126493e+002 1.303935e+002 1.000000e+002
      vertex   1.126493e+002 1.303935e+002 0.000000e+000
    endloop
  endfacet
  facet normal 9.363292e-001 3.511234e-001 0.000000e+000
    outer loop
      vertex   2.032743e+002 -2.446065e+002 5.000000e+001
      vertex   2.126493e+002 -2.696065e+002 0.000000e+000
      vertex   1.938993e+002 -2.196065e+002 0.000000e+000
    endloop
  endfacet
  facet normal 9.363292e-001 3.511234e-001 -0.000000e+000
    outer loop
      vertex   2.032743e+002 -2.446065e+002 5.000000e+001
      vertex   1.938993e+002 -2.196065e+002 0.000000e+000
      vertex   1.938993e+002 -2.196065e+002 1.000000e+002
    endloop
  endfacet
  facet normal 7.071068e-001 7.071068e-001 -0.000000e+000
    outer loop
      vertex   1.438993e+002 1.928935e+002 5.000000e+001
      vertex   1.313993e+002 2.053935e+002 0.000000e+000
      vertex   1.313993e+002 2.053935e+002 1.000000e+002
    endloop
  endfacet
  facet normal 9.363292e-001 3.511234e-001 0.000000e+000
    outer loop
      vertex   2.032743e+002 -2.446065e+002 5.000000e+001
      vertex   2.126493e+002 -2.696065e+002 1.000000e+002
      vertex   2.126493e+002 -2.696065e+002 0.000000e+000
    endloop
  endfacet
  facet normal -3.713906e-001 9.284767e-001 9.067154e-009
    outer loop
      vertex   7.827434e+001 5.393487e+000 5.000000e+001
      vertex   9.389934e+001 1.164349e+001 0.000000e+000
      vertex   6.264933e+001 -8.565127e-001 0.000000e+000
    endloop
  endfacet
  facet normal -3.713906e-001 9.284767e-001 0.000000e+000
    outer loop
      vertex   7.827434e+001 5.393487e+000 5.000000e+001
      vertex   6.264933e+001 -8.565127e-001 0.000000e+000
      vertex   6.264933e+001 -8.565127e-001 1.000000e+002
    endloop
  endfacet
  facet normal 7.071068e-001 7.071068e-001 0.000000e+000
    outer loop
      vertex   1.438993e+002 1.928935e+002 5.000000e+001
      vertex   1.563993e+002 1.803935e+002 1.000000e+002
      vertex   1.563993e+002 1.803935e+002 0.000000e+000
    endloop
  endfacet
  facet normal -3.713906e-001 9.284767e-001 0.000000e+000
    outer loop
      vertex   7.827434e+001 5.393487e+000 5.000000e+001
      vertex   9.389934e+001 1.164349e+001 1.000000e+002
      vertex   9.389934e+001 1.164349e+001 0.000000e+000
    endloop
  endfacet
  facet normal 0.000000e+000 -1.000000e+000 0.000000e+000
    outer loop
      vertex   1.720243e+002 -2.696065e+002 5.000000e+001
      vertex   1.313993e+002 -2.696065e+002 0.000000e+000
      vertex   2.126493e+002 -2.696065e+002 0.000000e+000
    endloop
  endfacet
  facet normal 0.000000e+000 -1.000000e+000 0.000000e+000
    outer loop
      vertex   1.720243e+002 -2.696065e+002 5.000000e+001
      vertex   2.126493e+002 -2.696065e+002 0.000000e+000
      vertex   2.126493e+002 -2.696065e+002 1.000000e+002
    endloop
  endfacet
  facet normal 1.000000e+000 0.000000e+000 -0.000000e+000
    outer loop
      vertex   -1.061007e+002 -1.696065e+002 5.000000e+001
      vertex   -1.061007e+002 -6.960651e+001 0.000000e+000
      vertex   -1.061007e+002 -6.960651e+001 1.000000e+002
    endloop
  endfacet
  facet normal 0.000000e+000 -1.000000e+000 0.000000e+000
    outer loop
      vertex   1.720243e+002 -2.696065e+002 5.000000e+001
      vertex   1.313993e+002 -2.696065e+002 1.000000e+002
      vertex   1.313993e+002 -2.696065e+002 0.000000e+000
    endloop
  endfacet
  facet normal -9.284767e-001 -3.713908e-001 -2.720147e-008
    outer loop
      vertex   1.063993e+002 -1.227315e+002 5.000000e+001
      vertex   1.001493e+002 -1.071065e+002 0.000000e+000
      vertex   1.126493e+002 -1.383565e+002 0.000000e+000
    endloop
  endfacet
  facet normal -9.284766e-001 -3.713908e-001 0.000000e+000
    outer loop
      vertex   1.063993e+002 -1.227315e+002 5.000000e+001
      vertex   1.126493e+002 -1.383565e+002 0.000000e+000
      vertex   1.126493e+002 -1.383565e+002 1.000000e+002
    endloop
  endfacet
  facet normal 1.000000e+000 0.000000e+000 0.000000e+000
    outer loop
      vertex   -1.061007e+002 -1.696065e+002 5.000000e+001
      vertex   -1.061007e+002 -2.696065e+002 1.000000e+002
      vertex   -1.061007e+002 -2.696065e+002 0.000000e+000
    endloop
  endfacet
  facet normal -9.284767e-001 -3.713907e-001 -0.000000e+000
    outer loop
      vertex   1.063993e+002 -1.227315e+002 5.000000e+001
      vertex   1.001493e+002 -1.071065e+002 1.000000e+002
      vertex   1.001493e+002 -1.071065e+002 0.000000e+000
    endloop
  endfacet
  facet normal 1.240347e-001 9.922779e-001 -6.056383e-009
    outer loop
      vertex   6.889934e+001 2.272685e+002 5.000000e+001
      vertex   9.389934e+001 2.241435e+002 0.000000e+000
      vertex   4.389933e+001 2.303935e+002 0.000000e+000
    endloop
  endfacet
  facet normal 1.240347e-001 9.922779e-001 -0.000000e+000
    outer loop
      vertex   6.889934e+001 2.272685e+002 5.000000e+001
      vertex   4.389933e+001 2.303935e+002 0.000000e+000
      vertex   4.389933e+001 2.303935e+002 1.000000e+002
    endloop
  endfacet
  facet normal 9.899495e-001 1.414213e-001 -0.000000e+000
    outer loop
      vertex   1.845243e+002 1.210185e+002 5.000000e+001
      vertex   1.813993e+002 1.428935e+002 0.000000e+000
      vertex   1.813993e+002 1.428935e+002 1.000000e+002
    endloop
  endfacet
  facet normal 1.240347e-001 9.922779e-001 0.000000e+000
    outer loop
      vertex   6.889934e+001 2.272685e+002 5.000000e+001
      vertex   9.389934e+001 2.241435e+002 1.000000e+002
      vertex   9.389934e+001 2.241435e+002 0.000000e+000
    endloop
  endfacet
  facet normal 5.144958e-001 -8.574929e-001 1.674791e-008
    outer loop
      vertex   1.407743e+002 -2.898151e+001 5.000000e+001
      vertex   1.251493e+002 -3.835651e+001 0.000000e+000
      vertex   1.563993e+002 -1.960651e+001 0.000000e+000
    endloop
  endfacet
  facet normal 5.144957e-001 -8.574929e-001 0.000000e+000
    outer loop
      vertex   1.407743e+002 -2.898151e+001 5.000000e+001
      vertex   1.563993e+002 -1.960651e+001 0.000000e+000
      vertex   1.563993e+002 -1.960651e+001 1.000000e+002
    endloop
  endfacet
  facet normal 9.899496e-001 1.414214e-001 0.000000e+000
    outer loop
      vertex   1.845243e+002 1.210185e+002 5.000000e+001
      vertex   1.876493e+002 9.914349e+001 1.000000e+002
      vertex   1.876493e+002 9.914349e+001 0.000000e+000
    endloop
  endfacet
  facet normal 5.144958e-001 -8.574929e-001 0.000000e+000
    outer loop
      vertex   1.407743e+002 -2.898151e+001 5.000000e+001
      vertex   1.251493e+002 -3.835651e+001 1.000000e+002
      vertex   1.251493e+002 -3.835651e+001 0.000000e+000
    endloop
  endfacet
  facet normal 4.472136e-001 8.944272e-001 0.000000e+000
    outer loop
      vertex   1.126493e+002 2.147685e+002 5.000000e+001
      vertex   1.313993e+002 2.053935e+002 0.000000e+000
      vertex   9.389934e+001 2.241435e+002 0.000000e+000
    endloop
  endfacet
  facet normal 4.472136e-001 8.944272e-001 -0.000000e+000
    outer loop
      vertex   1.126493e+002 2.147685e+002 5.000000e+001
      vertex   9.389934e+001 2.241435e+002 0.000000e+000
      vertex   9.389934e+001 2.241435e+002 1.000000e+002
    endloop
  endfacet
  facet normal 9.899496e-001 1.414214e-001 -0.000000e+000
    outer loop
      vertex   1.845243e+002 -1.164815e+002 5.000000e+001
      vertex   1.813993e+002 -9.460651e+001 0.000000e+000
      vertex   1.813993e+002 -9.460651e+001 1.000000e+002
    endloop
  endfacet
  facet normal 4.472136e-001 8.944272e-001 0.000000e+000
    outer loop
      vertex   1.126493e+002 2.147685e+002 5.000000e+001
      vertex   1.313993e+002 2.053935e+002 1.000000e+002
      vertex   1.313993e+002 2.053935e+002 0.000000e+000
    endloop
  endfacet
  facet normal -7.071068e-001 7.071068e-001 0.000000e+000
    outer loop
      vertex   1.032743e+002 2.101849e+001 5.000000e+001
      vertex   1.126493e+002 3.039349e+001 0.000000e+000
      vertex   9.389934e+001 1.164349e+001 0.000000e+000
    endloop
  endfacet
  facet normal -7.071068e-001 7.071067e-001 0.000000e+000
    outer loop
      vertex   1.032743e+002 2.101849e+001 5.000000e+001
      vertex   9.389934e+001 1.164349e+001 0.000000e+000
      vertex   9.389934e+001 1.164349e+001 1.000000e+002
    endloop
  endfacet
  facet normal 9.899495e-001 1.414214e-001 0.000000e+000
    outer loop
      vertex   1.845243e+002 -1.164815e+002 5.000000e+001
      vertex   1.876493e+002 -1.383565e+002 1.000000e+002
      vertex   1.876493e+002 -1.383565e+002 0.000000e+000
    endloop
  endfacet
  facet normal -7.071068e-001 7.071068e-001 0.000000e+000
    outer loop
      vertex   1.032743e+002 2.101849e+001 5.000000e+001
      vertex   1.126493e+002 3.039349e+001 1.000000e+002
      vertex   1.126493e+002 3.039349e+001 0.000000e+000
    endloop
  endfacet
  facet normal 5.144957e-001 8.574929e-001 0.000000e+000
    outer loop
      vertex   1.407743e+002 -4.773151e+001 5.000000e+001
      vertex   1.563993e+002 -5.710651e+001 0.000000e+000
      vertex   1.251493e+002 -3.835651e+001 0.000000e+000
    endloop
  endfacet
  facet normal 5.144957e-001 8.574929e-001 -0.000000e+000
    outer loop
      vertex   1.407743e+002 -4.773151e+001 5.000000e+001
      vertex   1.251493e+002 -3.835651e+001 0.000000e+000
      vertex   1.251493e+002 -3.835651e+001 1.000000e+002
    endloop
  endfacet
  facet normal -1.643990e-001 -9.863939e-001 0.000000e+000
    outer loop
      vertex   4.389933e+001 1.647685e+002 5.000000e+001
      vertex   6.264933e+001 1.616435e+002 0.000000e+000
      vertex   6.264933e+001 1.616435e+002 1.000000e+002
    endloop
  endfacet
  facet normal 5.144957e-001 8.574929e-001 0.000000e+000
    outer loop
      vertex   1.407743e+002 -4.773151e+001 5.000000e+001
      vertex   1.563993e+002 -5.710651e+001 1.000000e+002
      vertex   1.563993e+002 -5.710651e+001 0.000000e+000
    endloop
  endfacet
  facet normal -1.000000e+000 0.000000e+000 0.000000e+000
    outer loop
      vertex   -1.748507e+002 -1.960651e+001 5.000000e+001
      vertex   -1.748507e+002 2.303935e+002 0.000000e+000
      vertex   -1.748507e+002 -2.696065e+002 0.000000e+000
    endloop
  endfacet
  facet normal -1.000000e+000 0.000000e+000 0.000000e+000
    outer loop
      vertex   -1.748507e+002 -1.960651e+001 5.000000e+001
      vertex   -1.748507e+002 -2.696065e+002 0.000000e+000
      vertex   -1.748507e+002 -2.696065e+002 1.000000e+002
    endloop
  endfacet
  facet normal -1.643990e-001 -9.863939e-001 -0.000000e+000
    outer loop
      vertex   4.389933e+001 1.647685e+002 5.000000e+001
      vertex   2.514934e+001 1.678935e+002 1.000000e+002
      vertex   2.514934e+001 1.678935e+002 0.000000e+000
    endloop
  endfacet
  facet normal -1.000000e+000 0.000000e+000 -0.000000e+000
    outer loop
      vertex   -1.748507e+002 -1.960651e+001 5.000000e+001
      vertex   -1.748507e+002 2.303935e+002 1.000000e+002
      vertex   -1.748507e+002 2.303935e+002 0.000000e+000
    endloop
  endfacet
  facet normal 8.320503e-001 5.547002e-001 0.000000e+000
    outer loop
      vertex   1.688993e+002 -7.585651e+001 5.000000e+001
      vertex   1.813993e+002 -9.460651e+001 0.000000e+000
      vertex   1.563993e+002 -5.710651e+001 0.000000e+000
    endloop
  endfacet
  facet normal 8.320503e-001 5.547002e-001 -0.000000e+000
    outer loop
      vertex   1.688993e+002 -7.585651e+001 5.000000e+001
      vertex   1.563993e+002 -5.710651e+001 0.000000e+000
      vertex   1.563993e+002 -5.710651e+001 1.000000e+002
    endloop
  endfacet
  facet normal 1.000000e+000 0.000000e+000 -0.000000e+000
    outer loop
      vertex   1.876493e+002 8.039349e+001 5.000000e+001
      vertex   1.876493e+002 9.914349e+001 0.000000e+000
      vertex   1.876493e+002 9.914349e+001 1.000000e+002
    endloop
  endfacet
  facet normal 8.320503e-001 5.547002e-001 0.000000e+000
    outer loop
      vertex   1.688993e+002 -7.585651e+001 5.000000e+001
      vertex   1.813993e+002 -9.460651e+001 1.000000e+002
      vertex   1.813993e+002 -9.460651e+001 0.000000e+000
    endloop
  endfacet
  facet normal -3.713906e-001 -9.284767e-001 9.067154e-009
    outer loop
      vertex   6.577434e+001 -8.210651e+001 5.000000e+001
      vertex   5.014933e+001 -7.585651e+001 0.000000e+000
      vertex   8.139934e+001 -8.835651e+001 0.000000e+000
    endloop
  endfacet
  facet normal -3.713907e-001 -9.284767e-001 0.000000e+000
    outer loop
      vertex   6.577434e+001 -8.210651e+001 5.000000e+001
      vertex   8.139934e+001 -8.835651e+001 0.000000e+000
      vertex   8.139934e+001 -8.835651e+001 1.000000e+002
    endloop
  endfacet
  facet normal 1.000000e+000 0.000000e+000 0.000000e+000
    outer loop
      vertex   1.876493e+002 8.039349e+001 5.000000e+001
      vertex   1.876493e+002 6.164349e+001 1.000000e+002
      vertex   1.876493e+002 6.164349e+001 0.000000e+000
    endloop
  endfacet
  facet normal -3.713906e-001 -9.284767e-001 -0.000000e+000
    outer loop
      vertex   6.577434e+001 -8.210651e+001 5.000000e+001
      vertex   5.014933e+001 -7.585651e+001 1.000000e+002
      vertex   5.014933e+001 -7.585651e+001 0.000000e+000
    endloop
  endfacet
  facet normal 0.000000e+000 1.000000e+000 0.000000e+000
    outer loop
      vertex   -6.547567e+001 2.303935e+002 5.000000e+001
      vertex   4.389933e+001 2.303935e+002 0.000000e+000
      vertex   -1.748507e+002 2.303935e+002 0.000000e+000
    endloop
  endfacet
  facet normal 0.000000e+000 1.000000e+000 0.000000e+000
    outer loop
      vertex   -6.547567e+001 2.303935e+002 5.000000e+001
      vertex   -1.748507e+002 2.303935e+002 0.000000e+000
      vertex   -1.748507e+002 2.303935e+002 1.000000e+002
    endloop
  endfacet
  facet normal 0.000000e+000 0.000000e+000 -1.000000e+000
    outer loop
      vertex   2.126493e+002 -2.696065e+002 0.000000e+000
      vertex   1.313993e+002 -2.696065e+002 0.000000e+000
      vertex   1.188993e+002 -2.258565e+002 0.000000e+000
    endloop
  endfacet
  facet normal 0.000000e+000 1.000000e+000 0.000000e+000
    outer loop
      vertex   -6.547567e+001 2.303935e+002 5.000000e+001
      vertex   4.389933e+001 2.303935e+002 1.000000e+002
      vertex   4.389933e+001 2.303935e+002 0.000000e+000
    endloop
  endfacet
  facet normal -9.615240e-001 -2.747211e-001 0.000000e+000
    outer loop
      vertex   1.251493e+002 -2.477315e+002 5.000000e+001
      vertex   1.188993e+002 -2.258565e+002 0.000000e+000
      vertex   1.313993e+002 -2.696065e+002 0.000000e+000
    endloop
  endfacet
  facet normal -9.615240e-001 -2.747211e-001 0.000000e+000
    outer loop
      vertex   1.251493e+002 -2.477315e+002 5.000000e+001
      vertex   1.313993e+002 -2.696065e+002 0.000000e+000
      vertex   1.313993e+002 -2.696065e+002 1.000000e+002
    endloop
  endfacet
  facet normal 0.000000e+000 0.000000e+000 -1.000000e+000
    outer loop
      vertex   1.126493e+002 -1.758565e+002 0.000000e+000
      vertex   2.126493e+002 -2.696065e+002 0.000000e+000
      vertex   1.188993e+002 -2.258565e+002 0.000000e+000
    endloop
  endfacet
  facet normal -9.615240e-001 -2.747211e-001 -0.000000e+000
    outer loop
      vertex   1.251493e+002 -2.477315e+002 5.000000e+001
      vertex   1.188993e+002 -2.258565e+002 1.000000e+002
      vertex   1.188993e+002 -2.258565e+002 0.000000e+000
    endloop
  endfacet
  facet normal -7.071068e-001 -7.071068e-001 0.000000e+000
    outer loop
      vertex   1.032743e+002 1.397685e+002 5.000000e+001
      vertex   9.389934e+001 1.491435e+002 0.000000e+000
      vertex   1.126493e+002 1.303935e+002 0.000000e+000
    endloop
  endfacet
  facet normal -7.071068e-001 -7.071068e-001 0.000000e+000
    outer loop
      vertex   1.032743e+002 1.397685e+002 5.000000e+001
      vertex   1.126493e+002 1.303935e+002 0.000000e+000
      vertex   1.126493e+002 1.303935e+002 1.000000e+002
    endloop
  endfacet
  facet normal 0.000000e+000 0.000000e+000 -1.000000e+000
    outer loop
      vertex   1.264933e+001 -6.960651e+001 0.000000e+000
      vertex   -1.061007e+002 -6.960651e+001 0.000000e+000
      vertex   -1.061007e+002 -7.106513e+000 0.000000e+000
    endloop
  endfacet
  facet normal -7.071068e-001 -7.071068e-001 -0.000000e+000
    outer loop
      vertex   1.032743e+002 1.397685e+002 5.000000e+001
      vertex   9.389934e+001 1.491435e+002 1.000000e+002
      vertex   9.389934e+001 1.491435e+002 0.000000e+000
    endloop
  endfacet
  facet normal 8.320505e-001 5.546999e-001 1.625097e-007
    outer loop
      vertex   1.688993e+002 1.616435e+002 5.000000e+001
      vertex   1.813993e+002 1.428935e+002 0.000000e+000
      vertex   1.563993e+002 1.803935e+002 0.000000e+000
    endloop
  endfacet
  facet normal 8.320507e-001 5.546995e-001 -0.000000e+000
    outer loop
      vertex   1.688993e+002 1.616435e+002 5.000000e+001
      vertex   1.563993e+002 1.803935e+002 0.000000e+000
      vertex   1.563993e+002 1.803935e+002 1.000000e+002
    endloop
  endfacet
  facet normal 0.000000e+000 0.000000e+000 -1.000000e+000
    outer loop
      vertex   5.014933e+001 -7.585651e+001 0.000000e+000
      vertex   1.264933e+001 -6.960651e+001 0.000000e+000
      vertex   -1.061007e+002 -7.106513e+000 0.000000e+000
    endloop
  endfacet
  facet normal 8.320503e-001 5.547002e-001 0.000000e+000
    outer loop
      vertex   1.688993e+002 1.616435e+002 5.000000e+001
      vertex   1.813993e+002 1.428935e+002 1.000000e+002
      vertex   1.813993e+002 1.428935e+002 0.000000e+000
    endloop
  endfacet
  facet normal -7.071068e-001 -7.071068e-001 0.000000e+000
    outer loop
      vertex   9.077434e+001 -9.773151e+001 5.000000e+001
      vertex   8.139934e+001 -8.835651e+001 0.000000e+000
      vertex   1.001493e+002 -1.071065e+002 0.000000e+000
    endloop
  endfacet
  facet normal -7.071068e-001 -7.071068e-001 0.000000e+000
    outer loop
      vertex   9.077434e+001 -9.773151e+001 5.000000e+001
      vertex   1.001493e+002 -1.071065e+002 0.000000e+000
      vertex   1.001493e+002 -1.071065e+002 1.000000e+002
    endloop
  endfacet
  facet normal 0.000000e+000 0.000000e+000 -1.000000e+000
    outer loop
      vertex   1.876493e+002 -1.758565e+002 0.000000e+000
      vertex   1.938993e+002 -2.196065e+002 0.000000e+000
      vertex   1.001493e+002 -1.071065e+002 0.000000e+000
    endloop
  endfacet
  facet normal -7.071068e-001 -7.071068e-001 -0.000000e+000
    outer loop
      vertex   9.077434e+001 -9.773151e+001 5.000000e+001
      vertex   8.139934e+001 -8.835651e+001 1.000000e+002
      vertex   8.139934e+001 -8.835651e+001 0.000000e+000
    endloop
  endfacet
  facet normal 0.000000e+000 1.000000e+000 0.000000e+000
    outer loop
      vertex   -4.047567e+001 -7.106513e+000 5.000000e+001
      vertex   2.514934e+001 -7.106513e+000 0.000000e+000
      vertex   -1.061007e+002 -7.106513e+000 0.000000e+000
    endloop
  endfacet
  facet normal 0.000000e+000 1.000000e+000 0.000000e+000
    outer loop
      vertex   -4.047567e+001 -7.106513e+000 5.000000e+001
      vertex   -1.061007e+002 -7.106513e+000 0.000000e+000
      vertex   -1.061007e+002 -7.106513e+000 1.000000e+002
    endloop
  endfacet
  facet normal 0.000000e+000 0.000000e+000 -1.000000e+000
    outer loop
      vertex   8.139934e+001 -8.835651e+001 0.000000e+000
      vertex   1.876493e+002 -1.758565e+002 0.000000e+000
      vertex   1.001493e+002 -1.071065e+002 0.000000e+000
    endloop
  endfacet
  facet normal 0.000000e+000 1.000000e+000 0.000000e+000
    outer loop
      vertex   -4.047567e+001 -7.106513e+000 5.000000e+001
      vertex   2.514934e+001 -7.106513e+000 1.000000e+002
      vertex   2.514934e+001 -7.106513e+000 0.000000e+000
    endloop
  endfacet
  facet normal 9.899496e-001 -1.414214e-001 -6.905340e-009
    outer loop
      vertex   1.845243e+002 3.976849e+001 5.000000e+001
      vertex   1.813993e+002 1.789349e+001 0.000000e+000
      vertex   1.876493e+002 6.164349e+001 0.000000e+000
    endloop
  endfacet
  facet normal 9.899496e-001 -1.414214e-001 0.000000e+000
    outer loop
      vertex   1.845243e+002 3.976849e+001 5.000000e+001
      vertex   1.876493e+002 6.164349e+001 0.000000e+000
      vertex   1.876493e+002 6.164349e+001 1.000000e+002
    endloop
  endfacet
  facet normal 0.000000e+000 0.000000e+000 -1.000000e+000
    outer loop
      vertex   2.514934e+001 -7.106513e+000 0.000000e+000
      vertex   1.876493e+002 -1.383565e+002 0.000000e+000
      vertex   8.139934e+001 -8.835651e+001 0.000000e+000
    endloop
  endfacet
  facet normal 9.899496e-001 -1.414214e-001 0.000000e+000
    outer loop
      vertex   1.845243e+002 3.976849e+001 5.000000e+001
      vertex   1.813993e+002 1.789349e+001 1.000000e+002
      vertex   1.813993e+002 1.789349e+001 0.000000e+000
    endloop
  endfacet
  facet normal -9.284767e-001 3.713907e-001 9.067156e-009
    outer loop
      vertex   1.188993e+002 4.601849e+001 5.000000e+001
      vertex   1.251493e+002 6.164349e+001 0.000000e+000
      vertex   1.126493e+002 3.039349e+001 0.000000e+000
    endloop
  endfacet
  facet normal -9.284767e-001 3.713907e-001 0.000000e+000
    outer loop
      vertex   1.188993e+002 4.601849e+001 5.000000e+001
      vertex   1.126493e+002 3.039349e+001 0.000000e+000
      vertex   1.126493e+002 3.039349e+001 1.000000e+002
    endloop
  endfacet
  facet normal 0.000000e+000 0.000000e+000 -1.000000e+000
    outer loop
      vertex   6.264933e+001 -8.565127e-001 0.000000e+000
      vertex   1.876493e+002 -1.383565e+002 0.000000e+000
      vertex   2.514934e+001 -7.106513e+000 0.000000e+000
    endloop
  endfacet
  facet normal -9.284767e-001 3.713907e-001 0.000000e+000
    outer loop
      vertex   1.188993e+002 4.601849e+001 5.000000e+001
      vertex   1.251493e+002 6.164349e+001 1.000000e+002
      vertex   1.251493e+002 6.164349e+001 0.000000e+000
    endloop
  endfacet
  facet normal 1.000000e+000 0.000000e+000 0.000000e+000
    outer loop
      vertex   1.876493e+002 -1.571065e+002 5.000000e+001
      vertex   1.876493e+002 -1.758565e+002 0.000000e+000
      vertex   1.876493e+002 -1.383565e+002 0.000000e+000
    endloop
  endfacet
  facet normal 1.000000e+000 0.000000e+000 -0.000000e+000
    outer loop
      vertex   1.876493e+002 -1.571065e+002 5.000000e+001
      vertex   1.876493e+002 -1.383565e+002 0.000000e+000
      vertex   1.876493e+002 -1.383565e+002 1.000000e+002
    endloop
  endfacet
  facet normal 0.000000e+000 0.000000e+000 -1.000000e+000
    outer loop
      vertex   1.251493e+002 -3.835651e+001 0.000000e+000
      vertex   1.813993e+002 -9.460651e+001 0.000000e+000
      vertex   6.264933e+001 -8.565127e-001 0.000000e+000
    endloop
  endfacet
  facet normal 1.000000e+000 0.000000e+000 0.000000e+000
    outer loop
      vertex   1.876493e+002 -1.571065e+002 5.000000e+001
      vertex   1.876493e+002 -1.758565e+002 1.000000e+002
      vertex   1.876493e+002 -1.758565e+002 0.000000e+000
    endloop
  endfacet
  facet normal -1.643990e-001 -9.863939e-001 0.000000e+000
    outer loop
      vertex   3.139934e+001 -7.273151e+001 5.000000e+001
      vertex   1.264933e+001 -6.960651e+001 0.000000e+000
      vertex   5.014933e+001 -7.585651e+001 0.000000e+000
    endloop
  endfacet
  facet normal -1.643990e-001 -9.863939e-001 0.000000e+000
    outer loop
      vertex   3.139934e+001 -7.273151e+001 5.000000e+001
      vertex   5.014933e+001 -7.585651e+001 0.000000e+000
      vertex   5.014933e+001 -7.585651e+001 1.000000e+002
    endloop
  endfacet
  facet normal -0.000000e+000 0.000000e+000 -1.000000e+000
    outer loop
      vertex   -1.061007e+002 1.678935e+002 0.000000e+000
      vertex   -1.061007e+002 -7.106513e+000 0.000000e+000
      vertex   -1.748507e+002 -2.696065e+002 0.000000e+000
    endloop
  endfacet
  facet normal -1.643990e-001 -9.863939e-001 -0.000000e+000
    outer loop
      vertex   3.139934e+001 -7.273151e+001 5.000000e+001
      vertex   1.264933e+001 -6.960651e+001 1.000000e+002
      vertex   1.264933e+001 -6.960651e+001 0.000000e+000
    endloop
  endfacet
  facet normal 1.000000e+000 0.000000e+000 0.000000e+000
    outer loop
      vertex   -1.061007e+002 8.039349e+001 5.000000e+001
      vertex   -1.061007e+002 -7.106513e+000 0.000000e+000
      vertex   -1.061007e+002 1.678935e+002 0.000000e+000
    endloop
  endfacet
  facet normal 0.000000e+000 0.000000e+000 -1.000000e+000
    outer loop
      vertex   9.389934e+001 1.164349e+001 0.000000e+000
      vertex   1.251493e+002 -3.835651e+001 0.000000e+000
      vertex   6.264933e+001 -8.565127e-001 0.000000e+000
    endloop
  endfacet
  facet normal -0.000000e+000 0.000000e+000 -1.000000e+000
    outer loop
      vertex   -1.748507e+002 2.303935e+002 0.000000e+000
      vertex   -1.061007e+002 1.678935e+002 0.000000e+000
      vertex   -1.748507e+002 -2.696065e+002 0.000000e+000
    endloop
  endfacet
  facet normal 0.000000e+000 0.000000e+000 -1.000000e+000
    outer loop
      vertex   -1.061007e+002 -6.960651e+001 0.000000e+000
      vertex   -1.061007e+002 -2.696065e+002 0.000000e+000
      vertex   -1.748507e+002 -2.696065e+002 0.000000e+000
    endloop
  endfacet
  facet normal -1.000000e+000 0.000000e+000 0.000000e+000
    outer loop
      vertex   1.126493e+002 -1.571065e+002 5.000000e+001
      vertex   1.126493e+002 -1.383565e+002 0.000000e+000
      vertex   1.126493e+002 -1.758565e+002 0.000000e+000
    endloop
  endfacet
  facet normal 0.000000e+000 0.000000e+000 -1.000000e+000
    outer loop
      vertex   1.313993e+002 2.053935e+002 0.000000e+000
      vertex   1.563993e+002 1.803935e+002 0.000000e+000
      vertex   9.389934e+001 2.241435e+002 0.000000e+000
    endloop
  endfacet
  facet normal -0.000000e+000 0.000000e+000 -1.000000e+000
    outer loop
      vertex   -1.061007e+002 -7.106513e+000 0.000000e+000
      vertex   -1.061007e+002 -6.960651e+001 0.000000e+000
      vertex   -1.748507e+002 -2.696065e+002 0.000000e+000
    endloop
  endfacet
  facet normal 0.000000e+000 0.000000e+000 -1.000000e+000
    outer loop
      vertex   1.813993e+002 1.428935e+002 0.000000e+000
      vertex   1.876493e+002 9.914349e+001 0.000000e+000
      vertex   4.389933e+001 2.303935e+002 0.000000e+000
    endloop
  endfacet
  facet normal 0.000000e+000 -1.000000e+000 0.000000e+000
    outer loop
      vertex   -4.672567e+001 -6.960651e+001 5.000000e+001
      vertex   -1.061007e+002 -6.960651e+001 0.000000e+000
      vertex   1.264933e+001 -6.960651e+001 0.000000e+000
    endloop
  endfacet
  facet normal 0.000000e+000 0.000000e+000 -1.000000e+000
    outer loop
      vertex   9.389934e+001 2.241435e+002 0.000000e+000
      vertex   1.813993e+002 1.428935e+002 0.000000e+000
      vertex   4.389933e+001 2.303935e+002 0.000000e+000
    endloop
  endfacet
  facet normal 0.000000e+000 0.000000e+000 -1.000000e+000
    outer loop
      vertex   4.389933e+001 2.303935e+002 0.000000e+000
      vertex   6.264933e+001 1.616435e+002 0.000000e+000
      vertex   -1.748507e+002 2.303935e+002 0.000000e+000
    endloop
  endfacet
  facet normal 0.000000e+000 0.000000e+000 -1.000000e+000
    outer loop
      vertex   4.389933e+001 2.303935e+002 0.000000e+000
      vertex   9.389934e+001 1.491435e+002 0.000000e+000
      vertex   6.264933e+001 1.616435e+002 0.000000e+000
    endloop
  endfacet
  facet normal -1.000000e+000 0.000000e+000 0.000000e+000
    outer loop
      vertex   1.251493e+002 8.039349e+001 5.000000e+001
      vertex   1.251493e+002 9.914349e+001 0.000000e+000
      vertex   1.251493e+002 6.164349e+001 0.000000e+000
    endloop
  endfacet
  facet normal 0.000000e+000 0.000000e+000 -1.000000e+000
    outer loop
      vertex   1.876493e+002 9.914349e+001 0.000000e+000
      vertex   1.876493e+002 6.164349e+001 0.000000e+000
      vertex   9.389934e+001 1.491435e+002 0.000000e+000
    endloop
  endfacet
  facet normal 0.000000e+000 0.000000e+000 -1.000000e+000
    outer loop
      vertex   9.389934e+001 1.491435e+002 0.000000e+000
      vertex   1.876493e+002 6.164349e+001 0.000000e+000
      vertex   1.126493e+002 1.303935e+002 0.000000e+000
    endloop
  endfacet
  facet normal 0.000000e+000 0.000000e+000 -1.000000e+000
    outer loop
      vertex   1.126493e+002 1.303935e+002 0.000000e+000
      vertex   1.876493e+002 6.164349e+001 0.000000e+000
      vertex   1.251493e+002 9.914349e+001 0.000000e+000
    endloop
  endfacet
  facet normal 7.071068e-001 7.071068e-001 0.000000e+000
    outer loop
      vertex   1.438993e+002 1.928935e+002 5.000000e+001
      vertex   1.563993e+002 1.803935e+002 0.000000e+000
      vertex   1.313993e+002 2.053935e+002 0.000000e+000
    endloop
  endfacet
  facet normal 0.000000e+000 0.000000e+000 -1.000000e+000
    outer loop
      vertex   1.876493e+002 6.164349e+001 0.000000e+000
      vertex   1.813993e+002 1.789349e+001 0.000000e+000
      vertex   1.251493e+002 9.914349e+001 0.000000e+000
    endloop
  endfacet
  facet normal 0.000000e+000 0.000000e+000 -1.000000e+000
    outer loop
      vertex   6.264933e+001 1.616435e+002 0.000000e+000
      vertex   2.514934e+001 1.678935e+002 0.000000e+000
      vertex   -1.748507e+002 2.303935e+002 0.000000e+000
    endloop
  endfacet
  facet normal 0.000000e+000 0.000000e+000 -1.000000e+000
    outer loop
      vertex   1.251493e+002 9.914349e+001 0.000000e+000
      vertex   1.813993e+002 1.789349e+001 0.000000e+000
      vertex   1.251493e+002 6.164349e+001 0.000000e+000
    endloop
  endfacet
  facet normal 1.000000e+000 0.000000e+000 0.000000e+000
    outer loop
      vertex   -1.061007e+002 -1.696065e+002 5.000000e+001
      vertex   -1.061007e+002 -2.696065e+002 0.000000e+000
      vertex   -1.061007e+002 -6.960651e+001 0.000000e+000
    endloop
  endfacet
  facet normal 0.000000e+000 0.000000e+000 -1.000000e+000
    outer loop
      vertex   2.514934e+001 1.678935e+002 0.000000e+000
      vertex   -1.061007e+002 1.678935e+002 0.000000e+000
      vertex   -1.748507e+002 2.303935e+002 0.000000e+000
    endloop
  endfacet
  facet normal 0.000000e+000 0.000000e+000 -1.000000e+000
    outer loop
      vertex   1.813993e+002 1.789349e+001 0.000000e+000
      vertex   1.563993e+002 -1.960651e+001 0.000000e+000
      vertex   1.251493e+002 6.164349e+001 0.000000e+000
    endloop
  endfacet
  facet normal 0.000000e+000 0.000000e+000 -1.000000e+000
    outer loop
      vertex   1.251493e+002 6.164349e+001 0.000000e+000
      vertex   1.563993e+002 -1.960651e+001 0.000000e+000
      vertex   1.126493e+002 3.039349e+001 0.000000e+000
    endloop
  endfacet
  facet normal 9.899495e-001 1.414213e-001 1.381068e-008
    outer loop
      vertex   1.845243e+002 1.210185e+002 5.000000e+001
      vertex   1.876493e+002 9.914349e+001 0.000000e+000
      vertex   1.813993e+002 1.428935e+002 0.000000e+000
    endloop
  endfacet
  facet normal 0.000000e+000 0.000000e+000 -1.000000e+000
    outer loop
      vertex   1.126493e+002 3.039349e+001 0.000000e+000
      vertex   1.563993e+002 -1.960651e+001 0.000000e+000
      vertex   9.389934e+001 1.164349e+001 0.000000e+000
    endloop
  endfacet
  facet normal 0.000000e+000 0.000000e+000 -1.000000e+000
    outer loop
      vertex   1.938993e+002 -2.196065e+002 0.000000e+000
      vertex   2.126493e+002 -2.696065e+002 0.000000e+000
      vertex   1.126493e+002 -1.758565e+002 0.000000e+000
    endloop
  endfacet
  facet normal 0.000000e+000 0.000000e+000 -1.000000e+000
    outer loop
      vertex   1.563993e+002 -1.960651e+001 0.000000e+000
      vertex   1.251493e+002 -3.835651e+001 0.000000e+000
      vertex   9.389934e+001 1.164349e+001 0.000000e+000
    endloop
  endfacet
  facet normal 9.899496e-001 1.414214e-001 6.905342e-009
    outer loop
      vertex   1.845243e+002 -1.164815e+002 5.000000e+001
      vertex   1.876493e+002 -1.383565e+002 0.000000e+000
      vertex   1.813993e+002 -9.460651e+001 0.000000e+000
    endloop
  endfacet
  facet normal 0.000000e+000 0.000000e+000 -1.000000e+000
    outer loop
      vertex   1.563993e+002 -5.710651e+001 0.000000e+000
      vertex   1.813993e+002 -9.460651e+001 0.000000e+000
      vertex   1.251493e+002 -3.835651e+001 0.000000e+000
    endloop
  endfacet
  facet normal 0.000000e+000 0.000000e+000 -1.000000e+000
    outer loop
      vertex   1.813993e+002 -9.460651e+001 0.000000e+000
      vertex   1.876493e+002 -1.383565e+002 0.000000e+000
      vertex   6.264933e+001 -8.565127e-001 0.000000e+000
    endloop
  endfacet
  facet normal 0.000000e+000 0.000000e+000 -1.000000e+000
    outer loop
      vertex   2.514934e+001 -7.106513e+000 0.000000e+000
      vertex   8.139934e+001 -8.835651e+001 0.000000e+000
      vertex   -1.061007e+002 -7.106513e+000 0.000000e+000
    endloop
  endfacet
  facet normal -1.643990e-001 -9.863939e-001 -8.027294e-009
    outer loop
      vertex   4.389933e+001 1.647685e+002 5.000000e+001
      vertex   2.514934e+001 1.678935e+002 0.000000e+000
      vertex   6.264933e+001 1.616435e+002 0.000000e+000
    endloop
  endfacet
  facet normal 0.000000e+000 0.000000e+000 -1.000000e+000
    outer loop
      vertex   4.389933e+001 2.303935e+002 0.000000e+000
      vertex   1.876493e+002 9.914349e+001 0.000000e+000
      vertex   9.389934e+001 1.491435e+002 0.000000e+000
    endloop
  endfacet
  facet normal 0.000000e+000 0.000000e+000 -1.000000e+000
    outer loop
      vertex   1.876493e+002 -1.383565e+002 0.000000e+000
      vertex   1.876493e+002 -1.758565e+002 0.000000e+000
      vertex   8.139934e+001 -8.835651e+001 0.000000e+000
    endloop
  endfacet
  facet normal 0.000000e+000 0.000000e+000 -1.000000e+000
    outer loop
      vertex   8.139934e+001 -8.835651e+001 0.000000e+000
      vertex   5.014933e+001 -7.585651e+001 0.000000e+000
      vertex   -1.061007e+002 -7.106513e+000 0.000000e+000
    endloop
  endfacet
  facet normal 1.000000e+000 0.000000e+000 0.000000e+000
    outer loop
      vertex   1.876493e+002 8.039349e+001 5.000000e+001
      vertex   1.876493e+002 6.164349e+001 0.000000e+000
      vertex   1.876493e+002 9.914349e+001 0.000000e+000
    endloop
  endfacet
  facet normal 0.000000e+000 0.000000e+000 -1.000000e+000
    outer loop
      vertex   1.001493e+002 -1.071065e+002 0.000000e+000
      vertex   1.938993e+002 -2.196065e+002 0.000000e+000
      vertex   1.126493e+002 -1.383565e+002 0.000000e+000
    endloop
  endfacet
  facet normal 0.000000e+000 0.000000e+000 -1.000000e+000
    outer loop
      vertex   1.563993e+002 1.803935e+002 0.000000e+000
      vertex   1.813993e+002 1.428935e+002 0.000000e+000
      vertex   9.389934e+001 2.241435e+002 0.000000e+000
    endloop
  endfacet
  facet normal 0.000000e+000 0.000000e+000 -1.000000e+000
    outer loop
      vertex   1.126493e+002 -1.383565e+002 0.000000e+000
      vertex   1.938993e+002 -2.196065e+002 0.000000e+000
      vertex   1.126493e+002 -1.758565e+002 0.000000e+000
    endloop
  endfacet
  facet normal -3.713906e-001 -9.284767e-001 -1.813431e-008
    outer loop
      vertex   6.577434e+001 -8.210651e+001 5.000000e+001
      vertex   8.139934e+001 -8.835651e+001 1.000000e+002
      vertex   5.014933e+001 -7.585651e+001 1.000000e+002
    endloop
  endfacet
  facet normal 8.320503e-001 5.547002e-001 0.000000e+000
    outer loop
      vertex   1.688993e+002 -7.585651e+001 5.000000e+001
      vertex   1.563993e+002 -5.710651e+001 1.000000e+002
      vertex   1.813993e+002 -9.460651e+001 1.000000e+002
    endloop
  endfacet
  facet normal 5.144957e-001 8.574929e-001 0.000000e+000
    outer loop
      vertex   1.407743e+002 -4.773151e+001 5.000000e+001
      vertex   1.251493e+002 -3.835651e+001 1.000000e+002
      vertex   1.563993e+002 -5.710651e+001 1.000000e+002
    endloop
  endfacet
  facet normal 5.144958e-001 -8.574929e-001 -1.674791e-008
    outer loop
      vertex   1.407743e+002 -2.898151e+001 5.000000e+001
      vertex   1.563993e+002 -1.960651e+001 1.000000e+002
      vertex   1.251493e+002 -3.835651e+001 1.000000e+002
    endloop
  endfacet
  facet normal -7.071068e-001 -7.071068e-001 0.000000e+000
    outer loop
      vertex   1.032743e+002 1.397685e+002 5.000000e+001
      vertex   1.126493e+002 1.303935e+002 1.000000e+002
      vertex   9.389934e+001 1.491435e+002 1.000000e+002
    endloop
  endfacet
  facet normal 1.000000e+000 0.000000e+000 0.000000e+000
    outer loop
      vertex   1.876493e+002 8.039349e+001 5.000000e+001
      vertex   1.876493e+002 9.914349e+001 1.000000e+002
      vertex   1.876493e+002 6.164349e+001 1.000000e+002
    endloop
  endfacet
  facet normal -1.000000e+000 0.000000e+000 0.000000e+000
    outer loop
      vertex   -1.748507e+002 -1.960651e+001 5.000000e+001
      vertex   -1.748507e+002 -2.696065e+002 1.000000e+002
      vertex   -1.748507e+002 2.303935e+002 1.000000e+002
    endloop
  endfacet
  facet normal 8.320505e-001 5.546999e-001 -1.760522e-007
    outer loop
      vertex   1.688993e+002 1.616435e+002 5.000000e+001
      vertex   1.563993e+002 1.803935e+002 1.000000e+002
      vertex   1.813993e+002 1.428935e+002 1.000000e+002
    endloop
  endfacet
  facet normal -1.643990e-001 -9.863939e-001 0.000000e+000
    outer loop
      vertex   4.389933e+001 1.647685e+002 5.000000e+001
      vertex   6.264933e+001 1.616435e+002 1.000000e+002
      vertex   2.514934e+001 1.678935e+002 1.000000e+002
    endloop
  endfacet
  facet normal -7.071068e-001 -7.071068e-001 0.000000e+000
    outer loop
      vertex   9.077434e+001 -9.773151e+001 5.000000e+001
      vertex   1.001493e+002 -1.071065e+002 1.000000e+002
      vertex   8.139934e+001 -8.835651e+001 1.000000e+002
    endloop
  endfacet
  facet normal -7.071068e-001 7.071068e-001 1.150890e-008
    outer loop
      vertex   1.032743e+002 2.101849e+001 5.000000e+001
      vertex   9.389934e+001 1.164349e+001 1.000000e+002
      vertex   1.126493e+002 3.039349e+001 1.000000e+002
    endloop
  endfacet
  facet normal -0.000000e+000 1.000000e+000 0.000000e+000
    outer loop
      vertex   -4.047567e+001 -7.106513e+000 5.000000e+001
      vertex   -1.061007e+002 -7.106513e+000 1.000000e+002
      vertex   2.514934e+001 -7.106513e+000 1.000000e+002
    endloop
  endfacet
  facet normal 9.899496e-001 1.414214e-001 -1.381068e-008
    outer loop
      vertex   1.845243e+002 -1.164815e+002 5.000000e+001
      vertex   1.813993e+002 -9.460651e+001 1.000000e+002
      vertex   1.876493e+002 -1.383565e+002 1.000000e+002
    endloop
  endfacet
  facet normal 9.899496e-001 -1.414214e-001 0.000000e+000
    outer loop
      vertex   1.845243e+002 3.976849e+001 5.000000e+001
      vertex   1.876493e+002 6.164349e+001 1.000000e+002
      vertex   1.813993e+002 1.789349e+001 1.000000e+002
    endloop
  endfacet
  facet normal 4.472136e-001 8.944272e-001 0.000000e+000
    outer loop
      vertex   1.126493e+002 2.147685e+002 5.000000e+001
      vertex   9.389934e+001 2.241435e+002 1.000000e+002
      vertex   1.313993e+002 2.053935e+002 1.000000e+002
    endloop
  endfacet
  facet normal -9.284767e-001 3.713907e-001 -9.067156e-009
    outer loop
      vertex   1.188993e+002 4.601849e+001 5.000000e+001
      vertex   1.126493e+002 3.039349e+001 1.000000e+002
      vertex   1.251493e+002 6.164349e+001 1.000000e+002
    endloop
  endfacet
  facet normal 1.240347e-001 9.922779e-001 6.056383e-009
    outer loop
      vertex   6.889934e+001 2.272685e+002 5.000000e+001
      vertex   4.389933e+001 2.303935e+002 1.000000e+002
      vertex   9.389934e+001 2.241435e+002 1.000000e+002
    endloop
  endfacet
  facet normal 1.000000e+000 0.000000e+000 0.000000e+000
    outer loop
      vertex   1.876493e+002 -1.571065e+002 5.000000e+001
      vertex   1.876493e+002 -1.383565e+002 1.000000e+002
      vertex   1.876493e+002 -1.758565e+002 1.000000e+002
    endloop
  endfacet
  facet normal 9.899495e-001 1.414213e-001 -6.905338e-009
    outer loop
      vertex   1.845243e+002 1.210185e+002 5.000000e+001
      vertex   1.813993e+002 1.428935e+002 1.000000e+002
      vertex   1.876493e+002 9.914349e+001 1.000000e+002
    endloop
  endfacet
  facet normal -1.643990e-001 -9.863939e-001 -8.027294e-009
    outer loop
      vertex   3.139934e+001 -7.273151e+001 5.000000e+001
      vertex   5.014933e+001 -7.585651e+001 1.000000e+002
      vertex   1.264933e+001 -6.960651e+001 1.000000e+002
    endloop
  endfacet
  facet normal 1.000000e+000 0.000000e+000 0.000000e+000
    outer loop
      vertex   -1.061007e+002 8.039349e+001 5.000000e+001
      vertex   -1.061007e+002 1.678935e+002 1.000000e+002
      vertex   -1.061007e+002 -7.106513e+000 1.000000e+002
    endloop
  endfacet
  facet normal 8.320503e-001 -5.547002e-001 0.000000e+000
    outer loop
      vertex   1.688993e+002 -8.565127e-001 5.000000e+001
      vertex   1.813993e+002 1.789349e+001 1.000000e+002
      vertex   1.563993e+002 -1.960651e+001 1.000000e+002
    endloop
  endfacet
  facet normal -9.284767e-001 -3.713908e-001 2.720147e-008
    outer loop
      vertex   1.063993e+002 -1.227315e+002 5.000000e+001
      vertex   1.126493e+002 -1.383565e+002 1.000000e+002
      vertex   1.001493e+002 -1.071065e+002 1.000000e+002
    endloop
  endfacet
  facet normal 1.000000e+000 0.000000e+000 0.000000e+000
    outer loop
      vertex   -1.061007e+002 -1.696065e+002 5.000000e+001
      vertex   -1.061007e+002 -6.960651e+001 1.000000e+002
      vertex   -1.061007e+002 -2.696065e+002 1.000000e+002
    endloop
  endfacet
  facet normal -0.000000e+000 -1.000000e+000 0.000000e+000
    outer loop
      vertex   1.720243e+002 -2.696065e+002 5.000000e+001
      vertex   2.126493e+002 -2.696065e+002 1.000000e+002
      vertex   1.313993e+002 -2.696065e+002 1.000000e+002
    endloop
  endfacet
  facet normal -3.713906e-001 9.284767e-001 -9.067154e-009
    outer loop
      vertex   7.827434e+001 5.393487e+000 5.000000e+001
      vertex   6.264933e+001 -8.565127e-001 1.000000e+002
      vertex   9.389934e+001 1.164349e+001 1.000000e+002
    endloop
  endfacet
  facet normal 7.071068e-001 7.071068e-001 0.000000e+000
    outer loop
      vertex   1.438993e+002 1.928935e+002 5.000000e+001
      vertex   1.313993e+002 2.053935e+002 1.000000e+002
      vertex   1.563993e+002 1.803935e+002 1.000000e+002
    endloop
  endfacet
  facet normal 9.363292e-001 3.511234e-001 0.000000e+000
    outer loop
      vertex   2.032743e+002 -2.446065e+002 5.000000e+001
      vertex   1.938993e+002 -2.196065e+002 1.000000e+002
      vertex   2.126493e+002 -2.696065e+002 1.000000e+002
    endloop
  endfacet
  facet normal -9.284767e-001 -3.713906e-001 2.720146e-008
    outer loop
      vertex   1.188993e+002 1.147685e+002 5.000000e+001
      vertex   1.251493e+002 9.914349e+001 1.000000e+002
      vertex   1.126493e+002 1.303935e+002 1.000000e+002
    endloop
  endfacet
  facet normal -1.000000e+000 0.000000e+000 0.000000e+000
    outer loop
      vertex   1.251493e+002 8.039349e+001 5.000000e+001
      vertex   1.251493e+002 6.164349e+001 1.000000e+002
      vertex   1.251493e+002 9.914349e+001 1.000000e+002
    endloop
  endfacet
  facet normal -9.922779e-001 -1.240347e-001 0.000000e+000
    outer loop
      vertex   1.157743e+002 -2.008565e+002 5.000000e+001
      vertex   1.188993e+002 -2.258565e+002 1.000000e+002
      vertex   1.126493e+002 -1.758565e+002 1.000000e+002
    endloop
  endfacet
  facet normal -1.643990e-001 9.863939e-001 4.013647e-009
    outer loop
      vertex   4.389933e+001 -3.981513e+000 5.000000e+001
      vertex   2.514934e+001 -7.106513e+000 1.000000e+002
      vertex   6.264933e+001 -8.565127e-001 1.000000e+002
    endloop
  endfacet
  facet normal -9.615240e-001 -2.747211e-001 0.000000e+000
    outer loop
      vertex   1.251493e+002 -2.477315e+002 5.000000e+001
      vertex   1.313993e+002 -2.696065e+002 1.000000e+002
      vertex   1.188993e+002 -2.258565e+002 1.000000e+002
    endloop
  endfacet
  facet normal -0.000000e+000 -1.000000e+000 0.000000e+000
    outer loop
      vertex   -4.672567e+001 -6.960651e+001 5.000000e+001
      vertex   1.264933e+001 -6.960651e+001 1.000000e+002
      vertex   -1.061007e+002 -6.960651e+001 1.000000e+002
    endloop
  endfacet
  facet normal -0.000000e+000 -1.000000e+000 0.000000e+000
    outer loop
      vertex   -1.404757e+002 -2.696065e+002 5.000000e+001
      vertex   -1.061007e+002 -2.696065e+002 1.000000e+002
      vertex   -1.748507e+002 -2.696065e+002 1.000000e+002
    endloop
  endfacet
  facet normal -0.000000e+000 -1.000000e+000 0.000000e+000
    outer loop
      vertex   -4.047567e+001 1.678935e+002 5.000000e+001
      vertex   2.514934e+001 1.678935e+002 1.000000e+002
      vertex   -1.061007e+002 1.678935e+002 1.000000e+002
    endloop
  endfacet
  facet normal 9.899496e-001 1.414214e-001 0.000000e+000
    outer loop
      vertex   1.907743e+002 -1.977315e+002 5.000000e+001
      vertex   1.876493e+002 -1.758565e+002 1.000000e+002
      vertex   1.938993e+002 -2.196065e+002 1.000000e+002
    endloop
  endfacet
  facet normal -1.000000e+000 0.000000e+000 0.000000e+000
    outer loop
      vertex   1.126493e+002 -1.571065e+002 5.000000e+001
      vertex   1.126493e+002 -1.758565e+002 1.000000e+002
      vertex   1.126493e+002 -1.383565e+002 1.000000e+002
    endloop
  endfacet
  facet normal -0.000000e+000 1.000000e+000 0.000000e+000
    outer loop
      vertex   -6.547567e+001 2.303935e+002 5.000000e+001
      vertex   -1.748507e+002 2.303935e+002 1.000000e+002
      vertex   4.389933e+001 2.303935e+002 1.000000e+002
    endloop
  endfacet
  facet normal -3.713906e-001 -9.284767e-001 -1.813431e-008
    outer loop
      vertex   7.827434e+001 1.553935e+002 5.000000e+001
      vertex   9.389934e+001 1.491435e+002 1.000000e+002
      vertex   6.264933e+001 1.616435e+002 1.000000e+002
    endloop
  endfacet
  facet normal -0.000000e+000 0.000000e+000 1.000000e+000
    outer loop
      vertex   9.389934e+001 1.164349e+001 1.000000e+002
      vertex   6.264933e+001 -8.565127e-001 1.000000e+002
      vertex   1.251493e+002 -3.835651e+001 1.000000e+002
    endloop
  endfacet
  facet normal 0.000000e+000 0.000000e+000 1.000000e+000
    outer loop
      vertex   2.126493e+002 -2.696065e+002 1.000000e+002
      vertex   1.188993e+002 -2.258565e+002 1.000000e+002
      vertex   1.313993e+002 -2.696065e+002 1.000000e+002
    endloop
  endfacet
  facet normal 0.000000e+000 0.000000e+000 1.000000e+000
    outer loop
      vertex   -1.061007e+002 -7.106513e+000 1.000000e+002
      vertex   -1.748507e+002 -2.696065e+002 1.000000e+002
      vertex   -1.061007e+002 -6.960651e+001 1.000000e+002
    endloop
  endfacet
  facet normal -0.000000e+000 -0.000000e+000 1.000000e+000
    outer loop
      vertex   1.126493e+002 -1.758565e+002 1.000000e+002
      vertex   1.188993e+002 -2.258565e+002 1.000000e+002
      vertex   2.126493e+002 -2.696065e+002 1.000000e+002
    endloop
  endfacet
  facet normal 0.000000e+000 0.000000e+000 1.000000e+000
    outer loop
      vertex   1.938993e+002 -2.196065e+002 1.000000e+002
      vertex   1.126493e+002 -1.758565e+002 1.000000e+002
      vertex   2.126493e+002 -2.696065e+002 1.000000e+002
    endloop
  endfacet
  facet normal 0.000000e+000 0.000000e+000 1.000000e+000
    outer loop
      vertex   1.264933e+001 -6.960651e+001 1.000000e+002
      vertex   -1.061007e+002 -7.106513e+000 1.000000e+002
      vertex   -1.061007e+002 -6.960651e+001 1.000000e+002
    endloop
  endfacet
  facet normal -0.000000e+000 0.000000e+000 1.000000e+000
    outer loop
      vertex   1.126493e+002 -1.383565e+002 1.000000e+002
      vertex   1.126493e+002 -1.758565e+002 1.000000e+002
      vertex   1.938993e+002 -2.196065e+002 1.000000e+002
    endloop
  endfacet
  facet normal 0.000000e+000 0.000000e+000 1.000000e+000
    outer loop
      vertex   5.014933e+001 -7.585651e+001 1.000000e+002
      vertex   -1.061007e+002 -7.106513e+000 1.000000e+002
      vertex   1.264933e+001 -6.960651e+001 1.000000e+002
    endloop
  endfacet
  facet normal -0.000000e+000 -0.000000e+000 1.000000e+000
    outer loop
      vertex   1.001493e+002 -1.071065e+002 1.000000e+002
      vertex   1.126493e+002 -1.383565e+002 1.000000e+002
      vertex   1.938993e+002 -2.196065e+002 1.000000e+002
    endloop
  endfacet
  facet normal 0.000000e+000 0.000000e+000 1.000000e+000
    outer loop
      vertex   1.876493e+002 -1.758565e+002 1.000000e+002
      vertex   1.001493e+002 -1.071065e+002 1.000000e+002
      vertex   1.938993e+002 -2.196065e+002 1.000000e+002
    endloop
  endfacet
  facet normal -0.000000e+000 -0.000000e+000 1.000000e+000
    outer loop
      vertex   8.139934e+001 -8.835651e+001 1.000000e+002
      vertex   1.001493e+002 -1.071065e+002 1.000000e+002
      vertex   1.876493e+002 -1.758565e+002 1.000000e+002
    endloop
  endfacet
  facet normal 0.000000e+000 0.000000e+000 1.000000e+000
    outer loop
      vertex   8.139934e+001 -8.835651e+001 1.000000e+002
      vertex   -1.061007e+002 -7.106513e+000 1.000000e+002
      vertex   5.014933e+001 -7.585651e+001 1.000000e+002
    endloop
  endfacet
  facet normal 0.000000e+000 0.000000e+000 1.000000e+000
    outer loop
      vertex   1.876493e+002 -1.383565e+002 1.000000e+002
      vertex   8.139934e+001 -8.835651e+001 1.000000e+002
      vertex   1.876493e+002 -1.758565e+002 1.000000e+002
    endloop
  endfacet
  facet normal -0.000000e+000 -0.000000e+000 1.000000e+000
    outer loop
      vertex   2.514934e+001 -7.106513e+000 1.000000e+002
      vertex   8.139934e+001 -8.835651e+001 1.000000e+002
      vertex   1.876493e+002 -1.383565e+002 1.000000e+002
    endloop
  endfacet
  facet normal -0.000000e+000 0.000000e+000 1.000000e+000
    outer loop
      vertex   2.514934e+001 -7.106513e+000 1.000000e+002
      vertex   -1.061007e+002 -7.106513e+000 1.000000e+002
      vertex   8.139934e+001 -8.835651e+001 1.000000e+002
    endloop
  endfacet
  facet normal -0.000000e+000 0.000000e+000 1.000000e+000
    outer loop
      vertex   6.264933e+001 -8.565127e-001 1.000000e+002
      vertex   2.514934e+001 -7.106513e+000 1.000000e+002
      vertex   1.876493e+002 -1.383565e+002 1.000000e+002
    endloop
  endfacet
  facet normal 0.000000e+000 0.000000e+000 1.000000e+000
    outer loop
      vertex   1.813993e+002 -9.460651e+001 1.000000e+002
      vertex   6.264933e+001 -8.565127e-001 1.000000e+002
      vertex   1.876493e+002 -1.383565e+002 1.000000e+002
    endloop
  endfacet
  facet normal 0.000000e+000 0.000000e+000 1.000000e+000
    outer loop
      vertex   1.251493e+002 -3.835651e+001 1.000000e+002
      vertex   6.264933e+001 -8.565127e-001 1.000000e+002
      vertex   1.813993e+002 -9.460651e+001 1.000000e+002
    endloop
  endfacet
  facet normal 0.000000e+000 0.000000e+000 1.000000e+000
    outer loop
      vertex   1.563993e+002 -5.710651e+001 1.000000e+002
      vertex   1.251493e+002 -3.835651e+001 1.000000e+002
      vertex   1.813993e+002 -9.460651e+001 1.000000e+002
    endloop
  endfacet
  facet normal 0.000000e+000 0.000000e+000 1.000000e+000
    outer loop
      vertex   -1.061007e+002 1.678935e+002 1.000000e+002
      vertex   -1.748507e+002 -2.696065e+002 1.000000e+002
      vertex   -1.061007e+002 -7.106513e+000 1.000000e+002
    endloop
  endfacet
  facet normal 0.000000e+000 0.000000e+000 1.000000e+000
    outer loop
      vertex   -1.061007e+002 -6.960651e+001 1.000000e+002
      vertex   -1.748507e+002 -2.696065e+002 1.000000e+002
      vertex   -1.061007e+002 -2.696065e+002 1.000000e+002
    endloop
  endfacet
  facet normal 0.000000e+000 0.000000e+000 1.000000e+000
    outer loop
      vertex   -1.748507e+002 2.303935e+002 1.000000e+002
      vertex   -1.748507e+002 -2.696065e+002 1.000000e+002
      vertex   -1.061007e+002 1.678935e+002 1.000000e+002
    endloop
  endfacet
  facet normal 0.000000e+000 0.000000e+000 1.000000e+000
    outer loop
      vertex   1.563993e+002 -1.960651e+001 1.000000e+002
      vertex   9.389934e+001 1.164349e+001 1.000000e+002
      vertex   1.251493e+002 -3.835651e+001 1.000000e+002
    endloop
  endfacet
  facet normal -0.000000e+000 0.000000e+000 1.000000e+000
    outer loop
      vertex   1.126493e+002 3.039349e+001 1.000000e+002
      vertex   9.389934e+001 1.164349e+001 1.000000e+002
      vertex   1.563993e+002 -1.960651e+001 1.000000e+002
    endloop
  endfacet
  facet normal -0.000000e+000 0.000000e+000 1.000000e+000
    outer loop
      vertex   1.251493e+002 6.164349e+001 1.000000e+002
      vertex   1.126493e+002 3.039349e+001 1.000000e+002
      vertex   1.563993e+002 -1.960651e+001 1.000000e+002
    endloop
  endfacet
  facet normal 0.000000e+000 0.000000e+000 1.000000e+000
    outer loop
      vertex   1.813993e+002 1.789349e+001 1.000000e+002
      vertex   1.251493e+002 6.164349e+001 1.000000e+002
      vertex   1.563993e+002 -1.960651e+001 1.000000e+002
    endloop
  endfacet
  facet normal 0.000000e+000 0.000000e+000 1.000000e+000
    outer loop
      vertex   2.514934e+001 1.678935e+002 1.000000e+002
      vertex   -1.748507e+002 2.303935e+002 1.000000e+002
      vertex   -1.061007e+002 1.678935e+002 1.000000e+002
    endloop
  endfacet
  facet normal -0.000000e+000 0.000000e+000 1.000000e+000
    outer loop
      vertex   1.251493e+002 9.914349e+001 1.000000e+002
      vertex   1.251493e+002 6.164349e+001 1.000000e+002
      vertex   1.813993e+002 1.789349e+001 1.000000e+002
    endloop
  endfacet
  facet normal 0.000000e+000 0.000000e+000 1.000000e+000
    outer loop
      vertex   6.264933e+001 1.616435e+002 1.000000e+002
      vertex   -1.748507e+002 2.303935e+002 1.000000e+002
      vertex   2.514934e+001 1.678935e+002 1.000000e+002
    endloop
  endfacet
  facet normal 0.000000e+000 0.000000e+000 1.000000e+000
    outer loop
      vertex   1.876493e+002 6.164349e+001 1.000000e+002
      vertex   1.251493e+002 9.914349e+001 1.000000e+002
      vertex   1.813993e+002 1.789349e+001 1.000000e+002
    endloop
  endfacet
  facet normal -0.000000e+000 -0.000000e+000 1.000000e+000
    outer loop
      vertex   1.126493e+002 1.303935e+002 1.000000e+002
      vertex   1.251493e+002 9.914349e+001 1.000000e+002
      vertex   1.876493e+002 6.164349e+001 1.000000e+002
    endloop
  endfacet
  facet normal -0.000000e+000 -0.000000e+000 1.000000e+000
    outer loop
      vertex   9.389934e+001 1.491435e+002 1.000000e+002
      vertex   1.126493e+002 1.303935e+002 1.000000e+002
      vertex   1.876493e+002 6.164349e+001 1.000000e+002
    endloop
  endfacet
  facet normal 0.000000e+000 0.000000e+000 1.000000e+000
    outer loop
      vertex   1.876493e+002 9.914349e+001 1.000000e+002
      vertex   9.389934e+001 1.491435e+002 1.000000e+002
      vertex   1.876493e+002 6.164349e+001 1.000000e+002
    endloop
  endfacet
  facet normal -0.000000e+000 -0.000000e+000 1.000000e+000
    outer loop
      vertex   4.389933e+001 2.303935e+002 1.000000e+002
      vertex   9.389934e+001 1.491435e+002 1.000000e+002
      vertex   1.876493e+002 9.914349e+001 1.000000e+002
    endloop
  endfacet
  facet normal -0.000000e+000 -0.000000e+000 1.000000e+000
    outer loop
      vertex   4.389933e+001 2.303935e+002 1.000000e+002
      vertex   6.264933e+001 1.616435e+002 1.000000e+002
      vertex   9.389934e+001 1.491435e+002 1.000000e+002
    endloop
  endfacet
  facet normal -0.000000e+000 0.000000e+000 1.000000e+000
    outer loop
      vertex   4.389933e+001 2.303935e+002 1.000000e+002
      vertex   -1.748507e+002 2.303935e+002 1.000000e+002
      vertex   6.264933e+001 1.616435e+002 1.000000e+002
    endloop
  endfacet
  facet normal 0.000000e+000 0.000000e+000 1.000000e+000
    outer loop
      vertex   1.813993e+002 1.428935e+002 1.000000e+002
      vertex   4.389933e+001 2.303935e+002 1.000000e+002
      vertex   1.876493e+002 9.914349e+001 1.000000e+002
    endloop
  endfacet
  facet normal 0.000000e+000 0.000000e+000 1.000000e+000
    outer loop
      vertex   9.389934e+001 2.241435e+002 1.000000e+002
      vertex   4.389933e+001 2.303935e+002 1.000000e+002
      vertex   1.813993e+002 1.428935e+002 1.000000e+002
    endloop
  endfacet
  facet normal 0.000000e+000 0.000000e+000 1.000000e+000
    outer loop
      vertex   1.563993e+002 1.803935e+002 1.000000e+002
      vertex   9.389934e+001 2.241435e+002 1.000000e+002
      vertex   1.813993e+002 1.428935e+002 1.000000e+002
    endloop
  endfacet
  facet normal 0.000000e+000 0.000000e+000 1.000000e+000
    outer loop
      vertex   1.313993e+002 2.053935e+002 1.000000e+002
      vertex   9.389934e+001 2.241435e+002 1.000000e+002
      vertex   1.563993e+002 1.803935e+002 1.000000e+002
    endloop
  endfacet
endsolid
