solid ascii
  facet normal 0.000000e+000 0.000000e+000 -1.000000e+000
    outer loop
      vertex   1.906250e+002 1.707428e+002 0.000000e+000
      vertex   1.906250e+002 1.082428e+002 0.000000e+000
      vertex   -1.906250e+002 1.707428e+002 0.000000e+000
    endloop
  endfacet
  facet normal 1.000000e+000 0.000000e+000 -0.000000e+000
    outer loop
      vertex   3.437500e+001 -1.105072e+002 5.000000e+001
      vertex   3.437500e+001 1.082428e+002 0.000000e+000
      vertex   3.437500e+001 1.082428e+002 1.000000e+002
    endloop
  endfacet
  facet normal 1.000000e+000 0.000000e+000 0.000000e+000
    outer loop
      vertex   1.906250e+002 1.394928e+002 5.000000e+001
      vertex   1.906250e+002 1.082428e+002 1.000000e+002
      vertex   1.906250e+002 1.082428e+002 0.000000e+000
    endloop
  endfacet
  facet normal 1.000000e+000 0.000000e+000 0.000000e+000
    outer loop
      vertex   3.437500e+001 -1.105072e+002 5.000000e+001
      vertex   3.437500e+001 -3.292572e+002 1.000000e+002
      vertex   3.437500e+001 -3.292572e+002 0.000000e+000
    endloop
  endfacet
  facet normal 0.000000e+000 1.000000e+000 0.000000e+000
    outer loop
      vertex   -2.983266e-007 1.707428e+002 5.000000e+001
      vertex   1.906250e+002 1.707428e+002 0.000000e+000
      vertex   -1.906250e+002 1.707428e+002 0.000000e+000
    endloop
  endfacet
  facet normal 0.000000e+000 1.000000e+000 0.000000e+000
    outer loop
      vertex   -2.983266e-007 1.707428e+002 5.000000e+001
      vertex   -1.906250e+002 1.707428e+002 0.000000e+000
      vertex   -1.906250e+002 1.707428e+002 1.000000e+002
    endloop
  endfacet
  facet normal 0.000000e+000 -1.000000e+000 0.000000e+000
    outer loop
      vertex   -1.125000e+002 1.082428e+002 5.000000e+001
      vertex   -3.437500e+001 1.082428e+002 0.000000e+000
      vertex   -3.437500e+001 1.082428e+002 1.000000e+002
    endloop
  endfacet
  facet normal 0.000000e+000 1.000000e+000 0.000000e+000
    outer loop
      vertex   -2.983266e-007 1.707428e+002 5.000000e+001
      vertex   1.906250e+002 1.707428e+002 1.000000e+002
      vertex   1.906250e+002 1.707428e+002 0.000000e+000
    endloop
  endfacet
  facet normal -1.000000e+000 0.000000e+000 0.000000e+000
    outer loop
      vertex   -3.437500e+001 -1.105072e+002 5.000000e+001
      vertex   -3.437500e+001 1.082428e+002 0.000000e+000
      vertex   -3.437500e+001 -3.292572e+002 0.000000e+000
    endloop
  endfacet
  facet normal -1.000000e+000 0.000000e+000 0.000000e+000
    outer loop
      vertex   -3.437500e+001 -1.105072e+002 5.000000e+001
      vertex   -3.437500e+001 -3.292572e+002 0.000000e+000
      vertex   -3.437500e+001 -3.292572e+002 1.000000e+002
    endloop
  endfacet
  facet normal 0.000000e+000 -1.000000e+000 0.000000e+000
    outer loop
      vertex   -1.125000e+002 1.082428e+002 5.000000e+001
      vertex   -1.906250e+002 1.082428e+002 1.000000e+002
      vertex   -1.906250e+002 1.082428e+002 0.000000e+000
    endloop
  endfacet
  facet normal -1.000000e+000 0.000000e+000 -0.000000e+000
    outer loop
      vertex   -3.437500e+001 -1.105072e+002 5.000000e+001
      vertex   -3.437500e+001 1.082428e+002 1.000000e+002
      vertex   -3.437500e+001 1.082428e+002 0.000000e+000
    endloop
  endfacet
  facet normal 0.000000e+000 -1.000000e+000 0.000000e+000
    outer loop
      vertex   -2.983266e-007 -3.292572e+002 5.000000e+001
      vertex   -3.437500e+001 -3.292572e+002 0.000000e+000
      vertex   3.437500e+001 -3.292572e+002 0.000000e+000
    endloop
  endfacet
  facet normal 0.000000e+000 -1.000000e+000 0.000000e+000
    outer loop
      vertex   -2.983266e-007 -3.292572e+002 5.000000e+001
      vertex   3.437500e+001 -3.292572e+002 0.000000e+000
      vertex   3.437500e+001 -3.292572e+002 1.000000e+002
    endloop
  endfacet
  facet normal -1.000000e+000 0.000000e+000 0.000000e+000
    outer loop
      vertex   -1.906250e+002 1.394928e+002 5.000000e+001
      vertex   -1.906250e+002 1.082428e+002 0.000000e+000
      vertex   -1.906250e+002 1.082428e+002 1.000000e+002
    endloop
  endfacet
  facet normal 0.000000e+000 -1.000000e+000 0.000000e+000
    outer loop
      vertex   -2.983266e-007 -3.292572e+002 5.000000e+001
      vertex   -3.437500e+001 -3.292572e+002 1.000000e+002
      vertex   -3.437500e+001 -3.292572e+002 0.000000e+000
    endloop
  endfacet
  facet normal 1.000000e+000 0.000000e+000 0.000000e+000
    outer loop
      vertex   1.906250e+002 1.394928e+002 5.000000e+001
      vertex   1.906250e+002 1.082428e+002 0.000000e+000
      vertex   1.906250e+002 1.707428e+002 0.000000e+000
    endloop
  endfacet
  facet normal 1.000000e+000 0.000000e+000 -0.000000e+000
    outer loop
      vertex   1.906250e+002 1.394928e+002 5.000000e+001
      vertex   1.906250e+002 1.707428e+002 0.000000e+000
      vertex   1.906250e+002 1.707428e+002 1.000000e+002
    endloop
  endfacet
  facet normal 0.000000e+000 0.000000e+000 -1.000000e+000
    outer loop
      vertex   1.906250e+002 1.082428e+002 0.000000e+000
      vertex   3.437500e+001 1.082428e+002 0.000000e+000
      vertex   -1.906250e+002 1.707428e+002 0.000000e+000
    endloop
  endfacet
  facet normal -1.000000e+000 0.000000e+000 -0.000000e+000
    outer loop
      vertex   -1.906250e+002 1.394928e+002 5.000000e+001
      vertex   -1.906250e+002 1.707428e+002 1.000000e+002
      vertex   -1.906250e+002 1.707428e+002 0.000000e+000
    endloop
  endfacet
  facet normal 0.000000e+000 -1.000000e+000 0.000000e+000
    outer loop
      vertex   -1.125000e+002 1.082428e+002 5.000000e+001
      vertex   -1.906250e+002 1.082428e+002 0.000000e+000
      vertex   -3.437500e+001 1.082428e+002 0.000000e+000
    endloop
  endfacet
  facet normal 0.000000e+000 -1.000000e+000 0.000000e+000
    outer loop
      vertex   1.125000e+002 1.082428e+002 5.000000e+001
      vertex   3.437500e+001 1.082428e+002 0.000000e+000
      vertex   1.906250e+002 1.082428e+002 0.000000e+000
    endloop
  endfacet
  facet normal 1.000000e+000 0.000000e+000 0.000000e+000
    outer loop
      vertex   3.437500e+001 -1.105072e+002 5.000000e+001
      vertex   3.437500e+001 -3.292572e+002 0.000000e+000
      vertex   3.437500e+001 1.082428e+002 0.000000e+000
    endloop
  endfacet
  facet normal 0.000000e+000 -1.000000e+000 0.000000e+000
    outer loop
      vertex   1.125000e+002 1.082428e+002 5.000000e+001
      vertex   1.906250e+002 1.082428e+002 0.000000e+000
      vertex   1.906250e+002 1.082428e+002 1.000000e+002
    endloop
  endfacet
  facet normal -1.000000e+000 0.000000e+000 0.000000e+000
    outer loop
      vertex   -1.906250e+002 1.394928e+002 5.000000e+001
      vertex   -1.906250e+002 1.707428e+002 0.000000e+000
      vertex   -1.906250e+002 1.082428e+002 0.000000e+000
    endloop
  endfacet
  facet normal 0.000000e+000 0.000000e+000 -1.000000e+000
    outer loop
      vertex   -3.437500e+001 1.082428e+002 0.000000e+000
      vertex   -1.906250e+002 1.082428e+002 0.000000e+000
      vertex   -1.906250e+002 1.707428e+002 0.000000e+000
    endloop
  endfacet
  facet normal 0.000000e+000 -1.000000e+000 0.000000e+000
    outer loop
      vertex   1.125000e+002 1.082428e+002 5.000000e+001
      vertex   3.437500e+001 1.082428e+002 1.000000e+002
      vertex   3.437500e+001 1.082428e+002 0.000000e+000
    endloop
  endfacet
  facet normal 0.000000e+000 0.000000e+000 -1.000000e+000
    outer loop
      vertex   3.437500e+001 1.082428e+002 0.000000e+000
      vertex   3.437500e+001 -3.292572e+002 0.000000e+000
      vertex   -3.437500e+001 1.082428e+002 0.000000e+000
    endloop
  endfacet
  facet normal 0.000000e+000 0.000000e+000 -1.000000e+000
    outer loop
      vertex   3.437500e+001 1.082428e+002 0.000000e+000
      vertex   -3.437500e+001 1.082428e+002 0.000000e+000
      vertex   -1.906250e+002 1.707428e+002 0.000000e+000
    endloop
  endfacet
  facet normal 0.000000e+000 0.000000e+000 -1.000000e+000
    outer loop
      vertex   -3.437500e+001 1.082428e+002 0.000000e+000
      vertex   3.437500e+001 -3.292572e+002 0.000000e+000
      vertex   -3.437500e+001 -3.292572e+002 0.000000e+000
    endloop
  endfacet
  facet normal -0.000000e+000 1.000000e+000 0.000000e+000
    outer loop
      vertex   -2.983266e-007 1.707428e+002 5.000000e+001
      vertex   -1.906250e+002 1.707428e+002 1.000000e+002
      vertex   1.906250e+002 1.707428e+002 1.000000e+002
    endloop
  endfacet
  facet normal 1.000000e+000 0.000000e+000 0.000000e+000
    outer loop
      vertex   3.437500e+001 -1.105072e+002 5.000000e+001
      vertex   3.437500e+001 1.082428e+002 1.000000e+002
      vertex   3.437500e+001 -3.292572e+002 1.000000e+002
    endloop
  endfacet
  facet normal -1.000000e+000 0.000000e+000 0.000000e+000
    outer loop
      vertex   -1.906250e+002 1.394928e+002 5.000000e+001
      vertex   -1.906250e+002 1.082428e+002 1.000000e+002
      vertex   -1.906250e+002 1.707428e+002 1.000000e+002
    endloop
  endfacet
  facet normal -1.000000e+000 0.000000e+000 0.000000e+000
    outer loop
      vertex   -3.437500e+001 -1.105072e+002 5.000000e+001
      vertex   -3.437500e+001 -3.292572e+002 1.000000e+002
      vertex   -3.437500e+001 1.082428e+002 1.000000e+002
    endloop
  endfacet
  facet normal -0.000000e+000 -1.000000e+000 0.000000e+000
    outer loop
      vertex   -2.983266e-007 -3.292572e+002 5.000000e+001
      vertex   3.437500e+001 -3.292572e+002 1.000000e+002
      vertex   -3.437500e+001 -3.292572e+002 1.000000e+002
    endloop
  endfacet
  facet normal -0.000000e+000 -1.000000e+000 0.000000e+000
    outer loop
      vertex   1.125000e+002 1.082428e+002 5.000000e+001
      vertex   1.906250e+002 1.082428e+002 1.000000e+002
      vertex   3.437500e+001 1.082428e+002 1.000000e+002
    endloop
  endfacet
  facet normal 1.000000e+000 0.000000e+000 0.000000e+000
    outer loop
      vertex   1.906250e+002 1.394928e+002 5.000000e+001
      vertex   1.906250e+002 1.707428e+002 1.000000e+002
      vertex   1.906250e+002 1.082428e+002 1.000000e+002
    endloop
  endfacet
  facet normal -0.000000e+000 -1.000000e+000 0.000000e+000
    outer loop
      vertex   -1.125000e+002 1.082428e+002 5.000000e+001
      vertex   -3.437500e+001 1.082428e+002 1.000000e+002
      vertex   -1.906250e+002 1.082428e+002 1.000000e+002
    endloop
  endfacet
  facet normal 0.000000e+000 0.000000e+000 1.000000e+000
    outer loop
      vertex   -3.437500e+001 1.082428e+002 1.000000e+002
      vertex   -1.906250e+002 1.707428e+002 1.000000e+002
      vertex   -1.906250e+002 1.082428e+002 1.000000e+002
    endloop
  endfacet
  facet normal 0.000000e+000 0.000000e+000 1.000000e+000
    outer loop
      vertex   3.437500e+001 1.082428e+002 1.000000e+002
      vertex   -1.906250e+002 1.707428e+002 1.000000e+002
      vertex   -3.437500e+001 1.082428e+002 1.000000e+002
    endloop
  endfacet
  facet normal -0.000000e+000 0.000000e+000 1.000000e+000
    outer loop
      vertex   3.437500e+001 1.082428e+002 1.000000e+002
      vertex   -3.437500e+001 1.082428e+002 1.000000e+002
      vertex   3.437500e+001 -3.292572e+002 1.000000e+002
    endloop
  endfacet
  facet normal 0.000000e+000 0.000000e+000 1.000000e+000
    outer loop
      vertex   1.906250e+002 1.082428e+002 1.000000e+002
      vertex   -1.906250e+002 1.707428e+002 1.000000e+002
      vertex   3.437500e+001 1.082428e+002 1.000000e+002
    endloop
  endfacet
  facet normal -0.000000e+000 0.000000e+000 1.000000e+000
    outer loop
      vertex   1.906250e+002 1.707428e+002 1.000000e+002
      vertex   -1.906250e+002 1.707428e+002 1.000000e+002
      vertex   1.906250e+002 1.082428e+002 1.000000e+002
    endloop
  endfacet
  facet normal 0.000000e+000 0.000000e+000 1.000000e+000
    outer loop
      vertex   -3.437500e+001 1.082428e+002 1.000000e+002
      vertex   -3.437500e+001 -3.292572e+002 1.000000e+002
      vertex   3.437500e+001 -3.292572e+002 1.000000e+002
    endloop
  endfacet
endsolid
