solid ascii
  facet normal 1.414213e-001 -9.899495e-001 2.762135e-008
    outer loop
      vertex   4.687500e+001 -2.305650e+002 5.000000e+001
      vertex   2.500000e+001 -2.336900e+002 0.000000e+000
      vertex   6.875002e+001 -2.274400e+002 0.000000e+000
    endloop
  endfacet
  facet normal -9.899496e-001 1.414214e-001 0.000000e+000
    outer loop
      vertex   1.218750e+002 -6.806498e+001 5.000000e+001
      vertex   1.187500e+002 -8.993998e+001 0.000000e+000
      vertex   1.187500e+002 -8.993998e+001 1.000000e+002
    endloop
  endfacet
  facet normal 1.414212e-001 -9.899495e-001 0.000000e+000
    outer loop
      vertex   4.687500e+001 -2.305650e+002 5.000000e+001
      vertex   6.875002e+001 -2.274400e+002 0.000000e+000
      vertex   6.875002e+001 -2.274400e+002 1.000000e+002
    endloop
  endfacet
  facet normal -9.899495e-001 1.414214e-001 0.000000e+000
    outer loop
      vertex   1.218750e+002 -6.806498e+001 5.000000e+001
      vertex   1.250000e+002 -4.618999e+001 1.000000e+002
      vertex   1.250000e+002 -4.618999e+001 0.000000e+000
    endloop
  endfacet
  facet normal -4.472136e-001 -8.944272e-001 0.000000e+000
    outer loop
      vertex   -8.750000e+001 -2.180650e+002 5.000000e+001
      vertex   -1.062500e+002 -2.086900e+002 0.000000e+000
      vertex   -6.875000e+001 -2.274400e+002 0.000000e+000
    endloop
  endfacet
  facet normal -4.472136e-001 -8.944272e-001 0.000000e+000
    outer loop
      vertex   -8.750000e+001 -2.180650e+002 5.000000e+001
      vertex   -6.875000e+001 -2.274400e+002 0.000000e+000
      vertex   -6.875000e+001 -2.274400e+002 1.000000e+002
    endloop
  endfacet
  facet normal 1.414214e-001 -9.899496e-001 0.000000e+000
    outer loop
      vertex   4.687500e+001 -2.305650e+002 5.000000e+001
      vertex   2.500000e+001 -2.336900e+002 1.000000e+002
      vertex   2.500000e+001 -2.336900e+002 0.000000e+000
    endloop
  endfacet
  facet normal -4.472136e-001 -8.944272e-001 -0.000000e+000
    outer loop
      vertex   -8.750000e+001 -2.180650e+002 5.000000e+001
      vertex   -1.062500e+002 -2.086900e+002 1.000000e+002
      vertex   -1.062500e+002 -2.086900e+002 0.000000e+000
    endloop
  endfacet
  facet normal 7.999999e-001 6.000001e-001 -4.882813e-008
    outer loop
      vertex   -9.687500e+001 -1.336900e+002 5.000000e+001
      vertex   -8.750000e+001 -1.461900e+002 0.000000e+000
      vertex   -1.062500e+002 -1.211900e+002 0.000000e+000
    endloop
  endfacet
  facet normal 7.999998e-001 6.000003e-001 -0.000000e+000
    outer loop
      vertex   -9.687500e+001 -1.336900e+002 5.000000e+001
      vertex   -1.062500e+002 -1.211900e+002 0.000000e+000
      vertex   -1.062500e+002 -1.211900e+002 1.000000e+002
    endloop
  endfacet
  facet normal 1.961161e-001 9.805807e-001 -0.000000e+000
    outer loop
      vertex   -4.687500e+001 -1.680650e+002 5.000000e+001
      vertex   -6.250000e+001 -1.649400e+002 0.000000e+000
      vertex   -6.250000e+001 -1.649400e+002 1.000000e+002
    endloop
  endfacet
  facet normal 8.000000e-001 6.000000e-001 0.000000e+000
    outer loop
      vertex   -9.687500e+001 -1.336900e+002 5.000000e+001
      vertex   -8.750000e+001 -1.461900e+002 1.000000e+002
      vertex   -8.750000e+001 -1.461900e+002 0.000000e+000
    endloop
  endfacet
  facet normal 6.507913e-001 -7.592566e-001 0.000000e+000
    outer loop
      vertex   1.281250e+002 -1.899400e+002 5.000000e+001
      vertex   1.062500e+002 -2.086900e+002 0.000000e+000
      vertex   1.500000e+002 -1.711900e+002 0.000000e+000
    endloop
  endfacet
  facet normal 6.507913e-001 -7.592566e-001 0.000000e+000
    outer loop
      vertex   1.281250e+002 -1.899400e+002 5.000000e+001
      vertex   1.500000e+002 -1.711900e+002 0.000000e+000
      vertex   1.500000e+002 -1.711900e+002 1.000000e+002
    endloop
  endfacet
  facet normal 1.961161e-001 9.805807e-001 0.000000e+000
    outer loop
      vertex   -4.687500e+001 -1.680650e+002 5.000000e+001
      vertex   -3.125000e+001 -1.711900e+002 1.000000e+002
      vertex   -3.125000e+001 -1.711900e+002 0.000000e+000
    endloop
  endfacet
  facet normal 6.507913e-001 -7.592566e-001 0.000000e+000
    outer loop
      vertex   1.281250e+002 -1.899400e+002 5.000000e+001
      vertex   1.062500e+002 -2.086900e+002 1.000000e+002
      vertex   1.062500e+002 -2.086900e+002 0.000000e+000
    endloop
  endfacet
  facet normal -8.682431e-001 -4.961390e-001 2.422554e-008
    outer loop
      vertex   -1.625000e+002 -1.493150e+002 5.000000e+001
      vertex   -1.750000e+002 -1.274400e+002 0.000000e+000
      vertex   -1.500000e+002 -1.711900e+002 0.000000e+000
    endloop
  endfacet
  facet normal -8.682432e-001 -4.961389e-001 0.000000e+000
    outer loop
      vertex   -1.625000e+002 -1.493150e+002 5.000000e+001
      vertex   -1.500000e+002 -1.711900e+002 0.000000e+000
      vertex   -1.500000e+002 -1.711900e+002 1.000000e+002
    endloop
  endfacet
  facet normal -1.961161e-001 9.805807e-001 0.000000e+000
    outer loop
      vertex   4.687500e+001 -1.680650e+002 5.000000e+001
      vertex   3.125000e+001 -1.711900e+002 0.000000e+000
      vertex   3.125000e+001 -1.711900e+002 1.000000e+002
    endloop
  endfacet
  facet normal -8.682431e-001 -4.961391e-001 -0.000000e+000
    outer loop
      vertex   -1.625000e+002 -1.493150e+002 5.000000e+001
      vertex   -1.750000e+002 -1.274400e+002 1.000000e+002
      vertex   -1.750000e+002 -1.274400e+002 0.000000e+000
    endloop
  endfacet
  facet normal 0.000000e+000 1.000000e+000 0.000000e+000
    outer loop
      vertex   -1.593750e+002 2.663100e+002 5.000000e+001
      vertex   -1.250000e+002 2.663100e+002 0.000000e+000
      vertex   -1.937500e+002 2.663100e+002 0.000000e+000
    endloop
  endfacet
  facet normal 0.000000e+000 1.000000e+000 0.000000e+000
    outer loop
      vertex   -1.593750e+002 2.663100e+002 5.000000e+001
      vertex   -1.937500e+002 2.663100e+002 0.000000e+000
      vertex   -1.937500e+002 2.663100e+002 1.000000e+002
    endloop
  endfacet
  facet normal -1.961161e-001 9.805807e-001 0.000000e+000
    outer loop
      vertex   4.687500e+001 -1.680650e+002 5.000000e+001
      vertex   6.250000e+001 -1.649400e+002 1.000000e+002
      vertex   6.250000e+001 -1.649400e+002 0.000000e+000
    endloop
  endfacet
  facet normal 0.000000e+000 1.000000e+000 0.000000e+000
    outer loop
      vertex   -1.593750e+002 2.663100e+002 5.000000e+001
      vertex   -1.250000e+002 2.663100e+002 1.000000e+002
      vertex   -1.250000e+002 2.663100e+002 0.000000e+000
    endloop
  endfacet
  facet normal 0.000000e+000 1.000000e+000 0.000000e+000
    outer loop
      vertex   -3.524220e-006 -1.711900e+002 5.000000e+001
      vertex   3.125000e+001 -1.711900e+002 0.000000e+000
      vertex   -3.125000e+001 -1.711900e+002 0.000000e+000
    endloop
  endfacet
  facet normal 0.000000e+000 1.000000e+000 0.000000e+000
    outer loop
      vertex   -3.524220e-006 -1.711900e+002 5.000000e+001
      vertex   -3.125000e+001 -1.711900e+002 0.000000e+000
      vertex   -3.125000e+001 -1.711900e+002 1.000000e+002
    endloop
  endfacet
  facet normal 0.000000e+000 -1.000000e+000 0.000000e+000
    outer loop
      vertex   -3.524220e-006 -2.336900e+002 5.000000e+001
      vertex   2.500000e+001 -2.336900e+002 0.000000e+000
      vertex   2.500000e+001 -2.336900e+002 1.000000e+002
    endloop
  endfacet
  facet normal 0.000000e+000 1.000000e+000 0.000000e+000
    outer loop
      vertex   -3.524220e-006 -1.711900e+002 5.000000e+001
      vertex   3.125000e+001 -1.711900e+002 1.000000e+002
      vertex   3.125000e+001 -1.711900e+002 0.000000e+000
    endloop
  endfacet
  facet normal 0.000000e+000 1.000000e+000 0.000000e+000
    outer loop
      vertex   1.593750e+002 2.663100e+002 5.000000e+001
      vertex   1.937500e+002 2.663100e+002 0.000000e+000
      vertex   1.250000e+002 2.663100e+002 0.000000e+000
    endloop
  endfacet
  facet normal 0.000000e+000 1.000000e+000 0.000000e+000
    outer loop
      vertex   1.593750e+002 2.663100e+002 5.000000e+001
      vertex   1.250000e+002 2.663100e+002 0.000000e+000
      vertex   1.250000e+002 2.663100e+002 1.000000e+002
    endloop
  endfacet
  facet normal 0.000000e+000 -1.000000e+000 0.000000e+000
    outer loop
      vertex   -3.524220e-006 -2.336900e+002 5.000000e+001
      vertex   -2.500000e+001 -2.336900e+002 1.000000e+002
      vertex   -2.500000e+001 -2.336900e+002 0.000000e+000
    endloop
  endfacet
  facet normal 0.000000e+000 1.000000e+000 0.000000e+000
    outer loop
      vertex   1.593750e+002 2.663100e+002 5.000000e+001
      vertex   1.937500e+002 2.663100e+002 1.000000e+002
      vertex   1.937500e+002 2.663100e+002 0.000000e+000
    endloop
  endfacet
  facet normal -5.999997e-001 8.000002e-001 1.171874e-007
    outer loop
      vertex   7.500002e+001 -1.555650e+002 5.000000e+001
      vertex   8.750002e+001 -1.461900e+002 0.000000e+000
      vertex   6.250000e+001 -1.649400e+002 0.000000e+000
    endloop
  endfacet
  facet normal -5.999994e-001 8.000005e-001 0.000000e+000
    outer loop
      vertex   7.500002e+001 -1.555650e+002 5.000000e+001
      vertex   6.250000e+001 -1.649400e+002 0.000000e+000
      vertex   6.250000e+001 -1.649400e+002 1.000000e+002
    endloop
  endfacet
  facet normal -6.507913e-001 -7.592566e-001 0.000000e+000
    outer loop
      vertex   -1.281250e+002 -1.899400e+002 5.000000e+001
      vertex   -1.062500e+002 -2.086900e+002 0.000000e+000
      vertex   -1.062500e+002 -2.086900e+002 1.000000e+002
    endloop
  endfacet
  facet normal -6.000000e-001 8.000000e-001 0.000000e+000
    outer loop
      vertex   7.500002e+001 -1.555650e+002 5.000000e+001
      vertex   8.750002e+001 -1.461900e+002 1.000000e+002
      vertex   8.750002e+001 -1.461900e+002 0.000000e+000
    endloop
  endfacet
  facet normal 1.000000e+000 0.000000e+000 0.000000e+000
    outer loop
      vertex   1.937500e+002 1.131850e+002 5.000000e+001
      vertex   1.937500e+002 -3.993999e+001 0.000000e+000
      vertex   1.937500e+002 2.663100e+002 0.000000e+000
    endloop
  endfacet
  facet normal 1.000000e+000 0.000000e+000 -0.000000e+000
    outer loop
      vertex   1.937500e+002 1.131850e+002 5.000000e+001
      vertex   1.937500e+002 2.663100e+002 0.000000e+000
      vertex   1.937500e+002 2.663100e+002 1.000000e+002
    endloop
  endfacet
  facet normal -6.507913e-001 -7.592566e-001 -0.000000e+000
    outer loop
      vertex   -1.281250e+002 -1.899400e+002 5.000000e+001
      vertex   -1.500000e+002 -1.711900e+002 1.000000e+002
      vertex   -1.500000e+002 -1.711900e+002 0.000000e+000
    endloop
  endfacet
  facet normal 1.000000e+000 0.000000e+000 0.000000e+000
    outer loop
      vertex   1.937500e+002 1.131850e+002 5.000000e+001
      vertex   1.937500e+002 -3.993999e+001 1.000000e+002
      vertex   1.937500e+002 -3.993999e+001 0.000000e+000
    endloop
  endfacet
  facet normal -1.000000e+000 0.000000e+000 0.000000e+000
    outer loop
      vertex   1.250000e+002 1.100600e+002 5.000000e+001
      vertex   1.250000e+002 2.663100e+002 0.000000e+000
      vertex   1.250000e+002 -4.618999e+001 0.000000e+000
    endloop
  endfacet
  facet normal -1.000000e+000 0.000000e+000 0.000000e+000
    outer loop
      vertex   1.250000e+002 1.100600e+002 5.000000e+001
      vertex   1.250000e+002 -4.618999e+001 0.000000e+000
      vertex   1.250000e+002 -4.618999e+001 1.000000e+002
    endloop
  endfacet
  facet normal -8.000000e-001 6.000000e-001 0.000000e+000
    outer loop
      vertex   9.687502e+001 -1.336900e+002 5.000000e+001
      vertex   8.750002e+001 -1.461900e+002 0.000000e+000
      vertex   8.750002e+001 -1.461900e+002 1.000000e+002
    endloop
  endfacet
  facet normal -1.000000e+000 0.000000e+000 -0.000000e+000
    outer loop
      vertex   1.250000e+002 1.100600e+002 5.000000e+001
      vertex   1.250000e+002 2.663100e+002 1.000000e+002
      vertex   1.250000e+002 2.663100e+002 0.000000e+000
    endloop
  endfacet
  facet normal 9.899496e-001 -1.414214e-001 -2.071603e-008
    outer loop
      vertex   1.906250e+002 -6.181499e+001 5.000000e+001
      vertex   1.875000e+002 -8.368998e+001 0.000000e+000
      vertex   1.937500e+002 -3.993999e+001 0.000000e+000
    endloop
  endfacet
  facet normal 9.899496e-001 -1.414214e-001 0.000000e+000
    outer loop
      vertex   1.906250e+002 -6.181499e+001 5.000000e+001
      vertex   1.937500e+002 -3.993999e+001 0.000000e+000
      vertex   1.937500e+002 -3.993999e+001 1.000000e+002
    endloop
  endfacet
  facet normal -7.999998e-001 6.000003e-001 0.000000e+000
    outer loop
      vertex   9.687502e+001 -1.336900e+002 5.000000e+001
      vertex   1.062500e+002 -1.211900e+002 1.000000e+002
      vertex   1.062500e+002 -1.211900e+002 0.000000e+000
    endloop
  endfacet
  facet normal 9.899495e-001 -1.414214e-001 0.000000e+000
    outer loop
      vertex   1.906250e+002 -6.181499e+001 5.000000e+001
      vertex   1.875000e+002 -8.368998e+001 1.000000e+002
      vertex   1.875000e+002 -8.368998e+001 0.000000e+000
    endloop
  endfacet
  facet normal -1.000000e+000 0.000000e+000 0.000000e+000
    outer loop
      vertex   -1.937500e+002 1.131850e+002 5.000000e+001
      vertex   -1.937500e+002 2.663100e+002 0.000000e+000
      vertex   -1.937500e+002 -3.993999e+001 0.000000e+000
    endloop
  endfacet
  facet normal -1.000000e+000 0.000000e+000 0.000000e+000
    outer loop
      vertex   -1.937500e+002 1.131850e+002 5.000000e+001
      vertex   -1.937500e+002 -3.993999e+001 0.000000e+000
      vertex   -1.937500e+002 -3.993999e+001 1.000000e+002
    endloop
  endfacet
  facet normal 8.682431e-001 -4.961391e-001 0.000000e+000
    outer loop
      vertex   1.625000e+002 -1.493150e+002 5.000000e+001
      vertex   1.750000e+002 -1.274400e+002 0.000000e+000
      vertex   1.750000e+002 -1.274400e+002 1.000000e+002
    endloop
  endfacet
  facet normal -1.000000e+000 0.000000e+000 -0.000000e+000
    outer loop
      vertex   -1.937500e+002 1.131850e+002 5.000000e+001
      vertex   -1.937500e+002 2.663100e+002 1.000000e+002
      vertex   -1.937500e+002 2.663100e+002 0.000000e+000
    endloop
  endfacet
  facet normal -9.899496e-001 -1.414214e-001 -1.381068e-008
    outer loop
      vertex   -1.906250e+002 -6.181499e+001 5.000000e+001
      vertex   -1.937500e+002 -3.993999e+001 0.000000e+000
      vertex   -1.875000e+002 -8.368998e+001 0.000000e+000
    endloop
  endfacet
  facet normal -9.899495e-001 -1.414214e-001 0.000000e+000
    outer loop
      vertex   -1.906250e+002 -6.181499e+001 5.000000e+001
      vertex   -1.875000e+002 -8.368998e+001 0.000000e+000
      vertex   -1.875000e+002 -8.368998e+001 1.000000e+002
    endloop
  endfacet
  facet normal 8.682432e-001 -4.961389e-001 0.000000e+000
    outer loop
      vertex   1.625000e+002 -1.493150e+002 5.000000e+001
      vertex   1.500000e+002 -1.711900e+002 1.000000e+002
      vertex   1.500000e+002 -1.711900e+002 0.000000e+000
    endloop
  endfacet
  facet normal -9.899496e-001 -1.414214e-001 -0.000000e+000
    outer loop
      vertex   -1.906250e+002 -6.181499e+001 5.000000e+001
      vertex   -1.937500e+002 -3.993999e+001 1.000000e+002
      vertex   -1.937500e+002 -3.993999e+001 0.000000e+000
    endloop
  endfacet
  facet normal 9.284767e-001 3.713907e-001 0.000000e+000
    outer loop
      vertex   -1.125000e+002 -1.055650e+002 5.000000e+001
      vertex   -1.062500e+002 -1.211900e+002 0.000000e+000
      vertex   -1.187500e+002 -8.993998e+001 0.000000e+000
    endloop
  endfacet
  facet normal 9.284767e-001 3.713907e-001 -0.000000e+000
    outer loop
      vertex   -1.125000e+002 -1.055650e+002 5.000000e+001
      vertex   -1.187500e+002 -8.993998e+001 0.000000e+000
      vertex   -1.187500e+002 -8.993998e+001 1.000000e+002
    endloop
  endfacet
  facet normal 9.615240e-001 -2.747211e-001 0.000000e+000
    outer loop
      vertex   1.812500e+002 -1.055650e+002 5.000000e+001
      vertex   1.875000e+002 -8.368998e+001 0.000000e+000
      vertex   1.875000e+002 -8.368998e+001 1.000000e+002
    endloop
  endfacet
  facet normal 9.284767e-001 3.713907e-001 0.000000e+000
    outer loop
      vertex   -1.125000e+002 -1.055650e+002 5.000000e+001
      vertex   -1.062500e+002 -1.211900e+002 1.000000e+002
      vertex   -1.062500e+002 -1.211900e+002 0.000000e+000
    endloop
  endfacet
  facet normal -1.414214e-001 -9.899496e-001 -6.905341e-009
    outer loop
      vertex   -4.687500e+001 -2.305650e+002 5.000000e+001
      vertex   -6.875000e+001 -2.274400e+002 0.000000e+000
      vertex   -2.500000e+001 -2.336900e+002 0.000000e+000
    endloop
  endfacet
  facet normal -1.414214e-001 -9.899496e-001 0.000000e+000
    outer loop
      vertex   -4.687500e+001 -2.305650e+002 5.000000e+001
      vertex   -2.500000e+001 -2.336900e+002 0.000000e+000
      vertex   -2.500000e+001 -2.336900e+002 1.000000e+002
    endloop
  endfacet
  facet normal 9.615240e-001 -2.747211e-001 0.000000e+000
    outer loop
      vertex   1.812500e+002 -1.055650e+002 5.000000e+001
      vertex   1.750000e+002 -1.274400e+002 1.000000e+002
      vertex   1.750000e+002 -1.274400e+002 0.000000e+000
    endloop
  endfacet
  facet normal -1.414214e-001 -9.899496e-001 -0.000000e+000
    outer loop
      vertex   -4.687500e+001 -2.305650e+002 5.000000e+001
      vertex   -6.875000e+001 -2.274400e+002 1.000000e+002
      vertex   -6.875000e+001 -2.274400e+002 0.000000e+000
    endloop
  endfacet
  facet normal 1.000000e+000 0.000000e+000 0.000000e+000
    outer loop
      vertex   -1.250000e+002 1.100600e+002 5.000000e+001
      vertex   -1.250000e+002 -4.618999e+001 0.000000e+000
      vertex   -1.250000e+002 2.663100e+002 0.000000e+000
    endloop
  endfacet
  facet normal 1.000000e+000 0.000000e+000 -0.000000e+000
    outer loop
      vertex   -1.250000e+002 1.100600e+002 5.000000e+001
      vertex   -1.250000e+002 2.663100e+002 0.000000e+000
      vertex   -1.250000e+002 2.663100e+002 1.000000e+002
    endloop
  endfacet
  facet normal 0.000000e+000 0.000000e+000 -1.000000e+000
    outer loop
      vertex   1.937500e+002 2.663100e+002 0.000000e+000
      vertex   1.937500e+002 -3.993999e+001 0.000000e+000
      vertex   1.250000e+002 2.663100e+002 0.000000e+000
    endloop
  endfacet
  facet normal 1.000000e+000 0.000000e+000 0.000000e+000
    outer loop
      vertex   -1.250000e+002 1.100600e+002 5.000000e+001
      vertex   -1.250000e+002 -4.618999e+001 1.000000e+002
      vertex   -1.250000e+002 -4.618999e+001 0.000000e+000
    endloop
  endfacet
  facet normal 4.472136e-001 -8.944272e-001 0.000000e+000
    outer loop
      vertex   8.750002e+001 -2.180650e+002 5.000000e+001
      vertex   6.875002e+001 -2.274400e+002 0.000000e+000
      vertex   1.062500e+002 -2.086900e+002 0.000000e+000
    endloop
  endfacet
  facet normal 4.472136e-001 -8.944272e-001 0.000000e+000
    outer loop
      vertex   8.750002e+001 -2.180650e+002 5.000000e+001
      vertex   1.062500e+002 -2.086900e+002 0.000000e+000
      vertex   1.062500e+002 -2.086900e+002 1.000000e+002
    endloop
  endfacet
  facet normal -7.999999e-001 6.000001e-001 -3.906251e-008
    outer loop
      vertex   9.687502e+001 -1.336900e+002 5.000000e+001
      vertex   1.062500e+002 -1.211900e+002 0.000000e+000
      vertex   8.750002e+001 -1.461900e+002 0.000000e+000
    endloop
  endfacet
  facet normal 4.472136e-001 -8.944272e-001 0.000000e+000
    outer loop
      vertex   8.750002e+001 -2.180650e+002 5.000000e+001
      vertex   6.875002e+001 -2.274400e+002 1.000000e+002
      vertex   6.875002e+001 -2.274400e+002 0.000000e+000
    endloop
  endfacet
  facet normal 9.899496e-001 1.414214e-001 -1.381068e-008
    outer loop
      vertex   -1.218750e+002 -6.806498e+001 5.000000e+001
      vertex   -1.187500e+002 -8.993998e+001 0.000000e+000
      vertex   -1.250000e+002 -4.618999e+001 0.000000e+000
    endloop
  endfacet
  facet normal 9.899495e-001 1.414214e-001 -0.000000e+000
    outer loop
      vertex   -1.218750e+002 -6.806498e+001 5.000000e+001
      vertex   -1.250000e+002 -4.618999e+001 0.000000e+000
      vertex   -1.250000e+002 -4.618999e+001 1.000000e+002
    endloop
  endfacet
  facet normal 0.000000e+000 0.000000e+000 -1.000000e+000
    outer loop
      vertex   -1.875000e+002 -8.368998e+001 0.000000e+000
      vertex   -6.875000e+001 -2.274400e+002 0.000000e+000
      vertex   -1.750000e+002 -1.274400e+002 0.000000e+000
    endloop
  endfacet
  facet normal 9.899496e-001 1.414214e-001 0.000000e+000
    outer loop
      vertex   -1.218750e+002 -6.806498e+001 5.000000e+001
      vertex   -1.187500e+002 -8.993998e+001 1.000000e+002
      vertex   -1.187500e+002 -8.993998e+001 0.000000e+000
    endloop
  endfacet
  facet normal -9.615240e-001 -2.747211e-001 0.000000e+000
    outer loop
      vertex   -1.812500e+002 -1.055650e+002 5.000000e+001
      vertex   -1.875000e+002 -8.368998e+001 0.000000e+000
      vertex   -1.750000e+002 -1.274400e+002 0.000000e+000
    endloop
  endfacet
  facet normal -9.615240e-001 -2.747211e-001 0.000000e+000
    outer loop
      vertex   -1.812500e+002 -1.055650e+002 5.000000e+001
      vertex   -1.750000e+002 -1.274400e+002 0.000000e+000
      vertex   -1.750000e+002 -1.274400e+002 1.000000e+002
    endloop
  endfacet
  facet normal 0.000000e+000 0.000000e+000 -1.000000e+000
    outer loop
      vertex   -1.750000e+002 -1.274400e+002 0.000000e+000
      vertex   -6.875000e+001 -2.274400e+002 0.000000e+000
      vertex   -1.500000e+002 -1.711900e+002 0.000000e+000
    endloop
  endfacet
  facet normal -9.615240e-001 -2.747211e-001 -0.000000e+000
    outer loop
      vertex   -1.812500e+002 -1.055650e+002 5.000000e+001
      vertex   -1.875000e+002 -8.368998e+001 1.000000e+002
      vertex   -1.875000e+002 -8.368998e+001 0.000000e+000
    endloop
  endfacet
  facet normal 6.000001e-001 8.000000e-001 -2.929688e-008
    outer loop
      vertex   -7.500000e+001 -1.555650e+002 5.000000e+001
      vertex   -6.250000e+001 -1.649400e+002 0.000000e+000
      vertex   -8.750000e+001 -1.461900e+002 0.000000e+000
    endloop
  endfacet
  facet normal 6.000000e-001 8.000000e-001 -0.000000e+000
    outer loop
      vertex   -7.500000e+001 -1.555650e+002 5.000000e+001
      vertex   -8.750000e+001 -1.461900e+002 0.000000e+000
      vertex   -8.750000e+001 -1.461900e+002 1.000000e+002
    endloop
  endfacet
  facet normal 8.682431e-001 -4.961390e-001 4.845108e-008
    outer loop
      vertex   1.625000e+002 -1.493150e+002 5.000000e+001
      vertex   1.500000e+002 -1.711900e+002 0.000000e+000
      vertex   1.750000e+002 -1.274400e+002 0.000000e+000
    endloop
  endfacet
  facet normal 6.000001e-001 7.999999e-001 0.000000e+000
    outer loop
      vertex   -7.500000e+001 -1.555650e+002 5.000000e+001
      vertex   -6.250000e+001 -1.649400e+002 1.000000e+002
      vertex   -6.250000e+001 -1.649400e+002 0.000000e+000
    endloop
  endfacet
  facet normal -9.284767e-001 3.713907e-001 0.000000e+000
    outer loop
      vertex   1.125000e+002 -1.055650e+002 5.000000e+001
      vertex   1.187500e+002 -8.993998e+001 0.000000e+000
      vertex   1.062500e+002 -1.211900e+002 0.000000e+000
    endloop
  endfacet
  facet normal -9.284767e-001 3.713907e-001 0.000000e+000
    outer loop
      vertex   1.125000e+002 -1.055650e+002 5.000000e+001
      vertex   1.062500e+002 -1.211900e+002 0.000000e+000
      vertex   1.062500e+002 -1.211900e+002 1.000000e+002
    endloop
  endfacet
  facet normal 0.000000e+000 0.000000e+000 -1.000000e+000
    outer loop
      vertex   -1.937500e+002 -3.993999e+001 0.000000e+000
      vertex   -8.750000e+001 -1.461900e+002 0.000000e+000
      vertex   -1.875000e+002 -8.368998e+001 0.000000e+000
    endloop
  endfacet
  facet normal -9.284767e-001 3.713907e-001 0.000000e+000
    outer loop
      vertex   1.125000e+002 -1.055650e+002 5.000000e+001
      vertex   1.187500e+002 -8.993998e+001 1.000000e+002
      vertex   1.187500e+002 -8.993998e+001 0.000000e+000
    endloop
  endfacet
  facet normal -9.899496e-001 1.414214e-001 -2.071603e-008
    outer loop
      vertex   1.218750e+002 -6.806498e+001 5.000000e+001
      vertex   1.250000e+002 -4.618999e+001 0.000000e+000
      vertex   1.187500e+002 -8.993998e+001 0.000000e+000
    endloop
  endfacet
  facet normal 0.000000e+000 0.000000e+000 -1.000000e+000
    outer loop
      vertex   -6.250000e+001 -1.649400e+002 0.000000e+000
      vertex   -2.500000e+001 -2.336900e+002 0.000000e+000
      vertex   -8.750000e+001 -1.461900e+002 0.000000e+000
    endloop
  endfacet
  facet normal 0.000000e+000 0.000000e+000 -1.000000e+000
    outer loop
      vertex   2.500000e+001 -2.336900e+002 0.000000e+000
      vertex   -2.500000e+001 -2.336900e+002 0.000000e+000
      vertex   -6.250000e+001 -1.649400e+002 0.000000e+000
    endloop
  endfacet
  facet normal 0.000000e+000 0.000000e+000 -1.000000e+000
    outer loop
      vertex   -1.187500e+002 -8.993998e+001 0.000000e+000
      vertex   -1.062500e+002 -1.211900e+002 0.000000e+000
      vertex   -1.937500e+002 -3.993999e+001 0.000000e+000
    endloop
  endfacet
  facet normal 1.961161e-001 9.805807e-001 0.000000e+000
    outer loop
      vertex   -4.687500e+001 -1.680650e+002 5.000000e+001
      vertex   -3.125000e+001 -1.711900e+002 0.000000e+000
      vertex   -6.250000e+001 -1.649400e+002 0.000000e+000
    endloop
  endfacet
  facet normal 0.000000e+000 0.000000e+000 -1.000000e+000
    outer loop
      vertex   6.875002e+001 -2.274400e+002 0.000000e+000
      vertex   2.500000e+001 -2.336900e+002 0.000000e+000
      vertex   -3.125000e+001 -1.711900e+002 0.000000e+000
    endloop
  endfacet
  facet normal 0.000000e+000 0.000000e+000 -1.000000e+000
    outer loop
      vertex   -1.250000e+002 -4.618999e+001 0.000000e+000
      vertex   -1.187500e+002 -8.993998e+001 0.000000e+000
      vertex   -1.937500e+002 -3.993999e+001 0.000000e+000
    endloop
  endfacet
  facet normal 0.000000e+000 0.000000e+000 -1.000000e+000
    outer loop
      vertex   -3.125000e+001 -1.711900e+002 0.000000e+000
      vertex   2.500000e+001 -2.336900e+002 0.000000e+000
      vertex   -6.250000e+001 -1.649400e+002 0.000000e+000
    endloop
  endfacet
  facet normal -1.961161e-001 9.805807e-001 0.000000e+000
    outer loop
      vertex   4.687500e+001 -1.680650e+002 5.000000e+001
      vertex   6.250000e+001 -1.649400e+002 0.000000e+000
      vertex   3.125000e+001 -1.711900e+002 0.000000e+000
    endloop
  endfacet
  facet normal 9.615240e-001 -2.747211e-001 0.000000e+000
    outer loop
      vertex   1.812500e+002 -1.055650e+002 5.000000e+001
      vertex   1.750000e+002 -1.274400e+002 0.000000e+000
      vertex   1.875000e+002 -8.368998e+001 0.000000e+000
    endloop
  endfacet
  facet normal 0.000000e+000 0.000000e+000 -1.000000e+000
    outer loop
      vertex   1.062500e+002 -2.086900e+002 0.000000e+000
      vertex   6.875002e+001 -2.274400e+002 0.000000e+000
      vertex   3.125000e+001 -1.711900e+002 0.000000e+000
    endloop
  endfacet
  facet normal 0.000000e+000 0.000000e+000 -1.000000e+000
    outer loop
      vertex   6.250000e+001 -1.649400e+002 0.000000e+000
      vertex   1.062500e+002 -2.086900e+002 0.000000e+000
      vertex   3.125000e+001 -1.711900e+002 0.000000e+000
    endloop
  endfacet
  facet normal 0.000000e+000 -1.000000e+000 0.000000e+000
    outer loop
      vertex   -3.524220e-006 -2.336900e+002 5.000000e+001
      vertex   -2.500000e+001 -2.336900e+002 0.000000e+000
      vertex   2.500000e+001 -2.336900e+002 0.000000e+000
    endloop
  endfacet
  facet normal 0.000000e+000 0.000000e+000 -1.000000e+000
    outer loop
      vertex   3.125000e+001 -1.711900e+002 0.000000e+000
      vertex   6.875002e+001 -2.274400e+002 0.000000e+000
      vertex   -3.125000e+001 -1.711900e+002 0.000000e+000
    endloop
  endfacet
  facet normal 0.000000e+000 0.000000e+000 -1.000000e+000
    outer loop
      vertex   8.750002e+001 -1.461900e+002 0.000000e+000
      vertex   1.062500e+002 -2.086900e+002 0.000000e+000
      vertex   6.250000e+001 -1.649400e+002 0.000000e+000
    endloop
  endfacet
  facet normal 0.000000e+000 0.000000e+000 -1.000000e+000
    outer loop
      vertex   1.500000e+002 -1.711900e+002 0.000000e+000
      vertex   1.062500e+002 -2.086900e+002 0.000000e+000
      vertex   8.750002e+001 -1.461900e+002 0.000000e+000
    endloop
  endfacet
  facet normal -6.507913e-001 -7.592566e-001 0.000000e+000
    outer loop
      vertex   -1.281250e+002 -1.899400e+002 5.000000e+001
      vertex   -1.500000e+002 -1.711900e+002 0.000000e+000
      vertex   -1.062500e+002 -2.086900e+002 0.000000e+000
    endloop
  endfacet
  facet normal 0.000000e+000 0.000000e+000 -1.000000e+000
    outer loop
      vertex   1.187500e+002 -8.993998e+001 0.000000e+000
      vertex   1.500000e+002 -1.711900e+002 0.000000e+000
      vertex   1.062500e+002 -1.211900e+002 0.000000e+000
    endloop
  endfacet
  facet normal 0.000000e+000 0.000000e+000 -1.000000e+000
    outer loop
      vertex   1.750000e+002 -1.274400e+002 0.000000e+000
      vertex   1.500000e+002 -1.711900e+002 0.000000e+000
      vertex   1.187500e+002 -8.993998e+001 0.000000e+000
    endloop
  endfacet
  facet normal 0.000000e+000 0.000000e+000 -1.000000e+000
    outer loop
      vertex   1.062500e+002 -1.211900e+002 0.000000e+000
      vertex   1.500000e+002 -1.711900e+002 0.000000e+000
      vertex   8.750002e+001 -1.461900e+002 0.000000e+000
    endloop
  endfacet
  facet normal 0.000000e+000 0.000000e+000 -1.000000e+000
    outer loop
      vertex   -6.875000e+001 -2.274400e+002 0.000000e+000
      vertex   -1.062500e+002 -2.086900e+002 0.000000e+000
      vertex   -1.500000e+002 -1.711900e+002 0.000000e+000
    endloop
  endfacet
  facet normal 0.000000e+000 0.000000e+000 -1.000000e+000
    outer loop
      vertex   -2.500000e+001 -2.336900e+002 0.000000e+000
      vertex   -6.875000e+001 -2.274400e+002 0.000000e+000
      vertex   -1.875000e+002 -8.368998e+001 0.000000e+000
    endloop
  endfacet
  facet normal 0.000000e+000 0.000000e+000 -1.000000e+000
    outer loop
      vertex   -8.750000e+001 -1.461900e+002 0.000000e+000
      vertex   -2.500000e+001 -2.336900e+002 0.000000e+000
      vertex   -1.875000e+002 -8.368998e+001 0.000000e+000
    endloop
  endfacet
  facet normal 0.000000e+000 0.000000e+000 -1.000000e+000
    outer loop
      vertex   1.250000e+002 -4.618999e+001 0.000000e+000
      vertex   1.750000e+002 -1.274400e+002 0.000000e+000
      vertex   1.187500e+002 -8.993998e+001 0.000000e+000
    endloop
  endfacet
  facet normal 0.000000e+000 0.000000e+000 -1.000000e+000
    outer loop
      vertex   -1.937500e+002 2.663100e+002 0.000000e+000
      vertex   -1.250000e+002 -4.618999e+001 0.000000e+000
      vertex   -1.937500e+002 -3.993999e+001 0.000000e+000
    endloop
  endfacet
  facet normal 0.000000e+000 0.000000e+000 -1.000000e+000
    outer loop
      vertex   -1.062500e+002 -1.211900e+002 0.000000e+000
      vertex   -8.750000e+001 -1.461900e+002 0.000000e+000
      vertex   -1.937500e+002 -3.993999e+001 0.000000e+000
    endloop
  endfacet
  facet normal -0.000000e+000 0.000000e+000 -1.000000e+000
    outer loop
      vertex   1.250000e+002 2.663100e+002 0.000000e+000
      vertex   1.937500e+002 -3.993999e+001 0.000000e+000
      vertex   1.250000e+002 -4.618999e+001 0.000000e+000
    endloop
  endfacet
  facet normal 0.000000e+000 0.000000e+000 -1.000000e+000
    outer loop
      vertex   1.875000e+002 -8.368998e+001 0.000000e+000
      vertex   1.750000e+002 -1.274400e+002 0.000000e+000
      vertex   1.250000e+002 -4.618999e+001 0.000000e+000
    endloop
  endfacet
  facet normal 0.000000e+000 0.000000e+000 -1.000000e+000
    outer loop
      vertex   1.937500e+002 -3.993999e+001 0.000000e+000
      vertex   1.875000e+002 -8.368998e+001 0.000000e+000
      vertex   1.250000e+002 -4.618999e+001 0.000000e+000
    endloop
  endfacet
  facet normal 0.000000e+000 0.000000e+000 -1.000000e+000
    outer loop
      vertex   -1.250000e+002 2.663100e+002 0.000000e+000
      vertex   -1.250000e+002 -4.618999e+001 0.000000e+000
      vertex   -1.937500e+002 2.663100e+002 0.000000e+000
    endloop
  endfacet
  facet normal 1.000000e+000 0.000000e+000 0.000000e+000
    outer loop
      vertex   1.937500e+002 1.131850e+002 5.000000e+001
      vertex   1.937500e+002 2.663100e+002 1.000000e+002
      vertex   1.937500e+002 -3.993999e+001 1.000000e+002
    endloop
  endfacet
  facet normal -6.507913e-001 -7.592566e-001 0.000000e+000
    outer loop
      vertex   -1.281250e+002 -1.899400e+002 5.000000e+001
      vertex   -1.062500e+002 -2.086900e+002 1.000000e+002
      vertex   -1.500000e+002 -1.711900e+002 1.000000e+002
    endloop
  endfacet
  facet normal -0.000000e+000 1.000000e+000 0.000000e+000
    outer loop
      vertex   -1.593750e+002 2.663100e+002 5.000000e+001
      vertex   -1.937500e+002 2.663100e+002 1.000000e+002
      vertex   -1.250000e+002 2.663100e+002 1.000000e+002
    endloop
  endfacet
  facet normal 6.000001e-001 8.000000e-001 1.953125e-008
    outer loop
      vertex   -7.500000e+001 -1.555650e+002 5.000000e+001
      vertex   -8.750000e+001 -1.461900e+002 1.000000e+002
      vertex   -6.250000e+001 -1.649400e+002 1.000000e+002
    endloop
  endfacet
  facet normal 4.472136e-001 -8.944272e-001 0.000000e+000
    outer loop
      vertex   8.750002e+001 -2.180650e+002 5.000000e+001
      vertex   1.062500e+002 -2.086900e+002 1.000000e+002
      vertex   6.875002e+001 -2.274400e+002 1.000000e+002
    endloop
  endfacet
  facet normal 1.961161e-001 9.805807e-001 0.000000e+000
    outer loop
      vertex   -4.687500e+001 -1.680650e+002 5.000000e+001
      vertex   -6.250000e+001 -1.649400e+002 1.000000e+002
      vertex   -3.125000e+001 -1.711900e+002 1.000000e+002
    endloop
  endfacet
  facet normal -9.615240e-001 -2.747211e-001 0.000000e+000
    outer loop
      vertex   -1.812500e+002 -1.055650e+002 5.000000e+001
      vertex   -1.750000e+002 -1.274400e+002 1.000000e+002
      vertex   -1.875000e+002 -8.368998e+001 1.000000e+002
    endloop
  endfacet
  facet normal 9.615240e-001 -2.747211e-001 0.000000e+000
    outer loop
      vertex   1.812500e+002 -1.055650e+002 5.000000e+001
      vertex   1.875000e+002 -8.368998e+001 1.000000e+002
      vertex   1.750000e+002 -1.274400e+002 1.000000e+002
    endloop
  endfacet
  facet normal -1.414214e-001 -9.899496e-001 6.905341e-009
    outer loop
      vertex   -4.687500e+001 -2.305650e+002 5.000000e+001
      vertex   -2.500000e+001 -2.336900e+002 1.000000e+002
      vertex   -6.875000e+001 -2.274400e+002 1.000000e+002
    endloop
  endfacet
  facet normal -0.000000e+000 1.000000e+000 0.000000e+000
    outer loop
      vertex   1.593750e+002 2.663100e+002 5.000000e+001
      vertex   1.250000e+002 2.663100e+002 1.000000e+002
      vertex   1.937500e+002 2.663100e+002 1.000000e+002
    endloop
  endfacet
  facet normal -5.999997e-001 8.000002e-001 -1.074218e-007
    outer loop
      vertex   7.500002e+001 -1.555650e+002 5.000000e+001
      vertex   6.250000e+001 -1.649400e+002 1.000000e+002
      vertex   8.750002e+001 -1.461900e+002 1.000000e+002
    endloop
  endfacet
  facet normal -0.000000e+000 -1.000000e+000 0.000000e+000
    outer loop
      vertex   -3.524220e-006 -2.336900e+002 5.000000e+001
      vertex   2.500000e+001 -2.336900e+002 1.000000e+002
      vertex   -2.500000e+001 -2.336900e+002 1.000000e+002
    endloop
  endfacet
  facet normal -0.000000e+000 1.000000e+000 0.000000e+000
    outer loop
      vertex   -3.524220e-006 -1.711900e+002 5.000000e+001
      vertex   -3.125000e+001 -1.711900e+002 1.000000e+002
      vertex   3.125000e+001 -1.711900e+002 1.000000e+002
    endloop
  endfacet
  facet normal 9.284767e-001 3.713907e-001 0.000000e+000
    outer loop
      vertex   -1.125000e+002 -1.055650e+002 5.000000e+001
      vertex   -1.187500e+002 -8.993998e+001 1.000000e+002
      vertex   -1.062500e+002 -1.211900e+002 1.000000e+002
    endloop
  endfacet
  facet normal 6.507913e-001 -7.592566e-001 0.000000e+000
    outer loop
      vertex   1.281250e+002 -1.899400e+002 5.000000e+001
      vertex   1.500000e+002 -1.711900e+002 1.000000e+002
      vertex   1.062500e+002 -2.086900e+002 1.000000e+002
    endloop
  endfacet
  facet normal -1.961161e-001 9.805807e-001 0.000000e+000
    outer loop
      vertex   4.687500e+001 -1.680650e+002 5.000000e+001
      vertex   3.125000e+001 -1.711900e+002 1.000000e+002
      vertex   6.250000e+001 -1.649400e+002 1.000000e+002
    endloop
  endfacet
  facet normal -8.682431e-001 -4.961390e-001 -4.845108e-008
    outer loop
      vertex   -1.625000e+002 -1.493150e+002 5.000000e+001
      vertex   -1.500000e+002 -1.711900e+002 1.000000e+002
      vertex   -1.750000e+002 -1.274400e+002 1.000000e+002
    endloop
  endfacet
  facet normal -4.472136e-001 -8.944272e-001 0.000000e+000
    outer loop
      vertex   -8.750000e+001 -2.180650e+002 5.000000e+001
      vertex   -6.875000e+001 -2.274400e+002 1.000000e+002
      vertex   -1.062500e+002 -2.086900e+002 1.000000e+002
    endloop
  endfacet
  facet normal 7.999999e-001 6.000001e-001 3.906251e-008
    outer loop
      vertex   -9.687500e+001 -1.336900e+002 5.000000e+001
      vertex   -1.062500e+002 -1.211900e+002 1.000000e+002
      vertex   -8.750000e+001 -1.461900e+002 1.000000e+002
    endloop
  endfacet
  facet normal 1.414213e-001 -9.899495e-001 -2.762135e-008
    outer loop
      vertex   4.687500e+001 -2.305650e+002 5.000000e+001
      vertex   6.875002e+001 -2.274400e+002 1.000000e+002
      vertex   2.500000e+001 -2.336900e+002 1.000000e+002
    endloop
  endfacet
  facet normal -9.899496e-001 1.414214e-001 1.381068e-008
    outer loop
      vertex   1.218750e+002 -6.806498e+001 5.000000e+001
      vertex   1.187500e+002 -8.993998e+001 1.000000e+002
      vertex   1.250000e+002 -4.618999e+001 1.000000e+002
    endloop
  endfacet
  facet normal -9.899496e-001 -1.414214e-001 2.071603e-008
    outer loop
      vertex   -1.906250e+002 -6.181499e+001 5.000000e+001
      vertex   -1.875000e+002 -8.368998e+001 1.000000e+002
      vertex   -1.937500e+002 -3.993999e+001 1.000000e+002
    endloop
  endfacet
  facet normal -1.000000e+000 0.000000e+000 0.000000e+000
    outer loop
      vertex   -1.937500e+002 1.131850e+002 5.000000e+001
      vertex   -1.937500e+002 -3.993999e+001 1.000000e+002
      vertex   -1.937500e+002 2.663100e+002 1.000000e+002
    endloop
  endfacet
  facet normal -9.284767e-001 3.713907e-001 0.000000e+000
    outer loop
      vertex   1.125000e+002 -1.055650e+002 5.000000e+001
      vertex   1.062500e+002 -1.211900e+002 1.000000e+002
      vertex   1.187500e+002 -8.993998e+001 1.000000e+002
    endloop
  endfacet
  facet normal 8.682431e-001 -4.961390e-001 -2.422554e-008
    outer loop
      vertex   1.625000e+002 -1.493150e+002 5.000000e+001
      vertex   1.750000e+002 -1.274400e+002 1.000000e+002
      vertex   1.500000e+002 -1.711900e+002 1.000000e+002
    endloop
  endfacet
  facet normal 9.899496e-001 -1.414214e-001 1.381068e-008
    outer loop
      vertex   1.906250e+002 -6.181499e+001 5.000000e+001
      vertex   1.937500e+002 -3.993999e+001 1.000000e+002
      vertex   1.875000e+002 -8.368998e+001 1.000000e+002
    endloop
  endfacet
  facet normal -1.000000e+000 0.000000e+000 0.000000e+000
    outer loop
      vertex   1.250000e+002 1.100600e+002 5.000000e+001
      vertex   1.250000e+002 -4.618999e+001 1.000000e+002
      vertex   1.250000e+002 2.663100e+002 1.000000e+002
    endloop
  endfacet
  facet normal 9.899496e-001 1.414214e-001 2.071603e-008
    outer loop
      vertex   -1.218750e+002 -6.806498e+001 5.000000e+001
      vertex   -1.250000e+002 -4.618999e+001 1.000000e+002
      vertex   -1.187500e+002 -8.993998e+001 1.000000e+002
    endloop
  endfacet
  facet normal -7.999999e-001 6.000001e-001 4.882813e-008
    outer loop
      vertex   9.687502e+001 -1.336900e+002 5.000000e+001
      vertex   8.750002e+001 -1.461900e+002 1.000000e+002
      vertex   1.062500e+002 -1.211900e+002 1.000000e+002
    endloop
  endfacet
  facet normal 1.000000e+000 0.000000e+000 0.000000e+000
    outer loop
      vertex   -1.250000e+002 1.100600e+002 5.000000e+001
      vertex   -1.250000e+002 2.663100e+002 1.000000e+002
      vertex   -1.250000e+002 -4.618999e+001 1.000000e+002
    endloop
  endfacet
  facet normal -0.000000e+000 0.000000e+000 1.000000e+000
    outer loop
      vertex   6.250000e+001 -1.649400e+002 1.000000e+002
      vertex   3.125000e+001 -1.711900e+002 1.000000e+002
      vertex   1.062500e+002 -2.086900e+002 1.000000e+002
    endloop
  endfacet
  facet normal 0.000000e+000 0.000000e+000 1.000000e+000
    outer loop
      vertex   1.250000e+002 2.663100e+002 1.000000e+002
      vertex   1.250000e+002 -4.618999e+001 1.000000e+002
      vertex   1.937500e+002 -3.993999e+001 1.000000e+002
    endloop
  endfacet
  facet normal -0.000000e+000 0.000000e+000 1.000000e+000
    outer loop
      vertex   -1.250000e+002 2.663100e+002 1.000000e+002
      vertex   -1.937500e+002 2.663100e+002 1.000000e+002
      vertex   -1.250000e+002 -4.618999e+001 1.000000e+002
    endloop
  endfacet
  facet normal -0.000000e+000 0.000000e+000 1.000000e+000
    outer loop
      vertex   1.937500e+002 -3.993999e+001 1.000000e+002
      vertex   1.250000e+002 -4.618999e+001 1.000000e+002
      vertex   1.875000e+002 -8.368998e+001 1.000000e+002
    endloop
  endfacet
  facet normal 0.000000e+000 0.000000e+000 1.000000e+000
    outer loop
      vertex   1.875000e+002 -8.368998e+001 1.000000e+002
      vertex   1.250000e+002 -4.618999e+001 1.000000e+002
      vertex   1.750000e+002 -1.274400e+002 1.000000e+002
    endloop
  endfacet
  facet normal -0.000000e+000 0.000000e+000 1.000000e+000
    outer loop
      vertex   -1.937500e+002 2.663100e+002 1.000000e+002
      vertex   -1.937500e+002 -3.993999e+001 1.000000e+002
      vertex   -1.250000e+002 -4.618999e+001 1.000000e+002
    endloop
  endfacet
  facet normal -0.000000e+000 0.000000e+000 1.000000e+000
    outer loop
      vertex   1.250000e+002 -4.618999e+001 1.000000e+002
      vertex   1.187500e+002 -8.993998e+001 1.000000e+002
      vertex   1.750000e+002 -1.274400e+002 1.000000e+002
    endloop
  endfacet
  facet normal 0.000000e+000 0.000000e+000 1.000000e+000
    outer loop
      vertex   1.750000e+002 -1.274400e+002 1.000000e+002
      vertex   1.187500e+002 -8.993998e+001 1.000000e+002
      vertex   1.500000e+002 -1.711900e+002 1.000000e+002
    endloop
  endfacet
  facet normal -0.000000e+000 0.000000e+000 1.000000e+000
    outer loop
      vertex   1.187500e+002 -8.993998e+001 1.000000e+002
      vertex   1.062500e+002 -1.211900e+002 1.000000e+002
      vertex   1.500000e+002 -1.711900e+002 1.000000e+002
    endloop
  endfacet
  facet normal -0.000000e+000 0.000000e+000 1.000000e+000
    outer loop
      vertex   1.062500e+002 -1.211900e+002 1.000000e+002
      vertex   8.750002e+001 -1.461900e+002 1.000000e+002
      vertex   1.500000e+002 -1.711900e+002 1.000000e+002
    endloop
  endfacet
  facet normal 0.000000e+000 0.000000e+000 1.000000e+000
    outer loop
      vertex   1.500000e+002 -1.711900e+002 1.000000e+002
      vertex   8.750002e+001 -1.461900e+002 1.000000e+002
      vertex   1.062500e+002 -2.086900e+002 1.000000e+002
    endloop
  endfacet
  facet normal -0.000000e+000 0.000000e+000 1.000000e+000
    outer loop
      vertex   8.750002e+001 -1.461900e+002 1.000000e+002
      vertex   6.250000e+001 -1.649400e+002 1.000000e+002
      vertex   1.062500e+002 -2.086900e+002 1.000000e+002
    endloop
  endfacet
  facet normal -0.000000e+000 0.000000e+000 1.000000e+000
    outer loop
      vertex   1.937500e+002 2.663100e+002 1.000000e+002
      vertex   1.250000e+002 2.663100e+002 1.000000e+002
      vertex   1.937500e+002 -3.993999e+001 1.000000e+002
    endloop
  endfacet
  facet normal 0.000000e+000 0.000000e+000 1.000000e+000
    outer loop
      vertex   1.062500e+002 -2.086900e+002 1.000000e+002
      vertex   3.125000e+001 -1.711900e+002 1.000000e+002
      vertex   6.875002e+001 -2.274400e+002 1.000000e+002
    endloop
  endfacet
  facet normal -0.000000e+000 0.000000e+000 1.000000e+000
    outer loop
      vertex   3.125000e+001 -1.711900e+002 1.000000e+002
      vertex   -3.125000e+001 -1.711900e+002 1.000000e+002
      vertex   6.875002e+001 -2.274400e+002 1.000000e+002
    endloop
  endfacet
  facet normal 0.000000e+000 0.000000e+000 1.000000e+000
    outer loop
      vertex   -1.250000e+002 -4.618999e+001 1.000000e+002
      vertex   -1.937500e+002 -3.993999e+001 1.000000e+002
      vertex   -1.187500e+002 -8.993998e+001 1.000000e+002
    endloop
  endfacet
  facet normal 0.000000e+000 0.000000e+000 1.000000e+000
    outer loop
      vertex   6.875002e+001 -2.274400e+002 1.000000e+002
      vertex   -3.125000e+001 -1.711900e+002 1.000000e+002
      vertex   2.500000e+001 -2.336900e+002 1.000000e+002
    endloop
  endfacet
  facet normal 0.000000e+000 0.000000e+000 1.000000e+000
    outer loop
      vertex   -3.125000e+001 -1.711900e+002 1.000000e+002
      vertex   -6.250000e+001 -1.649400e+002 1.000000e+002
      vertex   2.500000e+001 -2.336900e+002 1.000000e+002
    endloop
  endfacet
  facet normal 0.000000e+000 0.000000e+000 1.000000e+000
    outer loop
      vertex   -1.187500e+002 -8.993998e+001 1.000000e+002
      vertex   -1.937500e+002 -3.993999e+001 1.000000e+002
      vertex   -1.062500e+002 -1.211900e+002 1.000000e+002
    endloop
  endfacet
  facet normal 0.000000e+000 0.000000e+000 1.000000e+000
    outer loop
      vertex   2.500000e+001 -2.336900e+002 1.000000e+002
      vertex   -6.250000e+001 -1.649400e+002 1.000000e+002
      vertex   -2.500000e+001 -2.336900e+002 1.000000e+002
    endloop
  endfacet
  facet normal 0.000000e+000 0.000000e+000 1.000000e+000
    outer loop
      vertex   -1.062500e+002 -1.211900e+002 1.000000e+002
      vertex   -1.937500e+002 -3.993999e+001 1.000000e+002
      vertex   -8.750000e+001 -1.461900e+002 1.000000e+002
    endloop
  endfacet
  facet normal -0.000000e+000 -0.000000e+000 1.000000e+000
    outer loop
      vertex   -1.937500e+002 -3.993999e+001 1.000000e+002
      vertex   -1.875000e+002 -8.368998e+001 1.000000e+002
      vertex   -8.750000e+001 -1.461900e+002 1.000000e+002
    endloop
  endfacet
  facet normal 0.000000e+000 0.000000e+000 1.000000e+000
    outer loop
      vertex   -6.250000e+001 -1.649400e+002 1.000000e+002
      vertex   -8.750000e+001 -1.461900e+002 1.000000e+002
      vertex   -2.500000e+001 -2.336900e+002 1.000000e+002
    endloop
  endfacet
  facet normal 0.000000e+000 0.000000e+000 1.000000e+000
    outer loop
      vertex   -8.750000e+001 -1.461900e+002 1.000000e+002
      vertex   -1.875000e+002 -8.368998e+001 1.000000e+002
      vertex   -2.500000e+001 -2.336900e+002 1.000000e+002
    endloop
  endfacet
  facet normal 0.000000e+000 0.000000e+000 1.000000e+000
    outer loop
      vertex   -2.500000e+001 -2.336900e+002 1.000000e+002
      vertex   -1.875000e+002 -8.368998e+001 1.000000e+002
      vertex   -6.875000e+001 -2.274400e+002 1.000000e+002
    endloop
  endfacet
  facet normal -0.000000e+000 -0.000000e+000 1.000000e+000
    outer loop
      vertex   -1.875000e+002 -8.368998e+001 1.000000e+002
      vertex   -1.750000e+002 -1.274400e+002 1.000000e+002
      vertex   -6.875000e+001 -2.274400e+002 1.000000e+002
    endloop
  endfacet
  facet normal 0.000000e+000 0.000000e+000 1.000000e+000
    outer loop
      vertex   -6.875000e+001 -2.274400e+002 1.000000e+002
      vertex   -1.500000e+002 -1.711900e+002 1.000000e+002
      vertex   -1.062500e+002 -2.086900e+002 1.000000e+002
    endloop
  endfacet
  facet normal -0.000000e+000 -0.000000e+000 1.000000e+000
    outer loop
      vertex   -1.750000e+002 -1.274400e+002 1.000000e+002
      vertex   -1.500000e+002 -1.711900e+002 1.000000e+002
      vertex   -6.875000e+001 -2.274400e+002 1.000000e+002
    endloop
  endfacet
endsolid
