solid ascii
  facet normal 9.438583e-001 -3.303505e-001 0.000000e+000
    outer loop
      vertex   1.250000e+002 -9.011492e+000 5.000000e+001
      vertex   3.750000e+001 -2.590115e+002 1.000000e+002
      vertex   3.750000e+001 -2.590115e+002 0.000000e+000
    endloop
  endfacet
  facet normal 9.427223e-001 3.335786e-001 -0.000000e+000
    outer loop
      vertex   -7.187500e+001 3.786351e+001 5.000000e+001
      vertex   -1.437500e+002 2.409885e+002 0.000000e+000
      vertex   -1.437500e+002 2.409885e+002 1.000000e+002
    endloop
  endfacet
  facet normal 0.000000e+000 1.000000e+000 0.000000e+000
    outer loop
      vertex   -1.781250e+002 2.409885e+002 5.000000e+001
      vertex   -1.437500e+002 2.409885e+002 0.000000e+000
      vertex   -2.125000e+002 2.409885e+002 0.000000e+000
    endloop
  endfacet
  facet normal 9.427223e-001 3.335786e-001 0.000000e+000
    outer loop
      vertex   -7.187500e+001 3.786351e+001 5.000000e+001
      vertex   -5.340908e-006 -1.652615e+002 1.000000e+002
      vertex   -5.340908e-006 -1.652615e+002 0.000000e+000
    endloop
  endfacet
  facet normal -9.438583e-001 -3.303504e-001 -1.474779e-007
    outer loop
      vertex   -1.250000e+002 -9.011492e+000 5.000000e+001
      vertex   -2.125000e+002 2.409885e+002 0.000000e+000
      vertex   -3.750000e+001 -2.590115e+002 0.000000e+000
    endloop
  endfacet
  facet normal -9.438583e-001 -3.303505e-001 0.000000e+000
    outer loop
      vertex   -1.250000e+002 -9.011492e+000 5.000000e+001
      vertex   -3.750000e+001 -2.590115e+002 0.000000e+000
      vertex   -3.750000e+001 -2.590115e+002 1.000000e+002
    endloop
  endfacet
  facet normal 9.427223e-001 3.335786e-001 0.000000e+000
    outer loop
      vertex   -7.187500e+001 3.786351e+001 5.000000e+001
      vertex   -5.340908e-006 -1.652615e+002 0.000000e+000
      vertex   -1.437500e+002 2.409885e+002 0.000000e+000
    endloop
  endfacet
  facet normal -9.438583e-001 -3.303504e-001 -0.000000e+000
    outer loop
      vertex   -1.250000e+002 -9.011492e+000 5.000000e+001
      vertex   -2.125000e+002 2.409885e+002 1.000000e+002
      vertex   -2.125000e+002 2.409885e+002 0.000000e+000
    endloop
  endfacet
  facet normal -9.427223e-001 3.335787e-001 9.064637e-008
    outer loop
      vertex   7.187501e+001 3.786351e+001 5.000000e+001
      vertex   1.437500e+002 2.409885e+002 0.000000e+000
      vertex   -5.340908e-006 -1.652615e+002 0.000000e+000
    endloop
  endfacet
  facet normal -9.427222e-001 3.335787e-001 0.000000e+000
    outer loop
      vertex   7.187501e+001 3.786351e+001 5.000000e+001
      vertex   -5.340908e-006 -1.652615e+002 0.000000e+000
      vertex   -5.340908e-006 -1.652615e+002 1.000000e+002
    endloop
  endfacet
  facet normal 0.000000e+000 1.000000e+000 0.000000e+000
    outer loop
      vertex   -1.781250e+002 2.409885e+002 5.000000e+001
      vertex   -2.125000e+002 2.409885e+002 0.000000e+000
      vertex   -2.125000e+002 2.409885e+002 1.000000e+002
    endloop
  endfacet
  facet normal -9.427223e-001 3.335786e-001 0.000000e+000
    outer loop
      vertex   7.187501e+001 3.786351e+001 5.000000e+001
      vertex   1.437500e+002 2.409885e+002 1.000000e+002
      vertex   1.437500e+002 2.409885e+002 0.000000e+000
    endloop
  endfacet
  facet normal 0.000000e+000 1.000000e+000 0.000000e+000
    outer loop
      vertex   1.781250e+002 2.409885e+002 5.000000e+001
      vertex   2.125000e+002 2.409885e+002 0.000000e+000
      vertex   1.437500e+002 2.409885e+002 0.000000e+000
    endloop
  endfacet
  facet normal 0.000000e+000 1.000000e+000 0.000000e+000
    outer loop
      vertex   1.781250e+002 2.409885e+002 5.000000e+001
      vertex   1.437500e+002 2.409885e+002 0.000000e+000
      vertex   1.437500e+002 2.409885e+002 1.000000e+002
    endloop
  endfacet
  facet normal 0.000000e+000 1.000000e+000 0.000000e+000
    outer loop
      vertex   -1.781250e+002 2.409885e+002 5.000000e+001
      vertex   -1.437500e+002 2.409885e+002 1.000000e+002
      vertex   -1.437500e+002 2.409885e+002 0.000000e+000
    endloop
  endfacet
  facet normal 0.000000e+000 1.000000e+000 0.000000e+000
    outer loop
      vertex   1.781250e+002 2.409885e+002 5.000000e+001
      vertex   2.125000e+002 2.409885e+002 1.000000e+002
      vertex   2.125000e+002 2.409885e+002 0.000000e+000
    endloop
  endfacet
  facet normal 9.438583e-001 -3.303505e-001 -2.949557e-007
    outer loop
      vertex   1.250000e+002 -9.011492e+000 5.000000e+001
      vertex   3.750000e+001 -2.590115e+002 0.000000e+000
      vertex   2.125000e+002 2.409885e+002 0.000000e+000
    endloop
  endfacet
  facet normal 9.438583e-001 -3.303504e-001 0.000000e+000
    outer loop
      vertex   1.250000e+002 -9.011492e+000 5.000000e+001
      vertex   2.125000e+002 2.409885e+002 0.000000e+000
      vertex   2.125000e+002 2.409885e+002 1.000000e+002
    endloop
  endfacet
  facet normal 0.000000e+000 -1.000000e+000 0.000000e+000
    outer loop
      vertex   -5.340908e-006 -2.590115e+002 5.000000e+001
      vertex   3.750000e+001 -2.590115e+002 0.000000e+000
      vertex   3.750000e+001 -2.590115e+002 1.000000e+002
    endloop
  endfacet
  facet normal 0.000000e+000 0.000000e+000 -1.000000e+000
    outer loop
      vertex   2.125000e+002 2.409885e+002 0.000000e+000
      vertex   3.750000e+001 -2.590115e+002 0.000000e+000
      vertex   1.437500e+002 2.409885e+002 0.000000e+000
    endloop
  endfacet
  facet normal 0.000000e+000 0.000000e+000 -1.000000e+000
    outer loop
      vertex   1.437500e+002 2.409885e+002 0.000000e+000
      vertex   3.750000e+001 -2.590115e+002 0.000000e+000
      vertex   -5.340908e-006 -1.652615e+002 0.000000e+000
    endloop
  endfacet
  facet normal 0.000000e+000 0.000000e+000 -1.000000e+000
    outer loop
      vertex   -1.437500e+002 2.409885e+002 0.000000e+000
      vertex   -5.340908e-006 -1.652615e+002 0.000000e+000
      vertex   -2.125000e+002 2.409885e+002 0.000000e+000
    endloop
  endfacet
  facet normal 0.000000e+000 0.000000e+000 -1.000000e+000
    outer loop
      vertex   -5.340908e-006 -1.652615e+002 0.000000e+000
      vertex   3.750000e+001 -2.590115e+002 0.000000e+000
      vertex   -3.750000e+001 -2.590115e+002 0.000000e+000
    endloop
  endfacet
  facet normal 0.000000e+000 -1.000000e+000 0.000000e+000
    outer loop
      vertex   -5.340908e-006 -2.590115e+002 5.000000e+001
      vertex   -3.750000e+001 -2.590115e+002 0.000000e+000
      vertex   3.750000e+001 -2.590115e+002 0.000000e+000
    endloop
  endfacet
  facet normal 0.000000e+000 -1.000000e+000 0.000000e+000
    outer loop
      vertex   -5.340908e-006 -2.590115e+002 5.000000e+001
      vertex   -3.750000e+001 -2.590115e+002 1.000000e+002
      vertex   -3.750000e+001 -2.590115e+002 0.000000e+000
    endloop
  endfacet
  facet normal -0.000000e+000 0.000000e+000 -1.000000e+000
    outer loop
      vertex   -2.125000e+002 2.409885e+002 0.000000e+000
      vertex   -5.340908e-006 -1.652615e+002 0.000000e+000
      vertex   -3.750000e+001 -2.590115e+002 0.000000e+000
    endloop
  endfacet
  facet normal 9.427223e-001 3.335786e-001 -9.064637e-008
    outer loop
      vertex   -7.187500e+001 3.786351e+001 5.000000e+001
      vertex   -1.437500e+002 2.409885e+002 1.000000e+002
      vertex   -5.340908e-006 -1.652615e+002 1.000000e+002
    endloop
  endfacet
  facet normal -9.427223e-001 3.335787e-001 -1.812927e-007
    outer loop
      vertex   7.187501e+001 3.786351e+001 5.000000e+001
      vertex   -5.340908e-006 -1.652615e+002 1.000000e+002
      vertex   1.437500e+002 2.409885e+002 1.000000e+002
    endloop
  endfacet
  facet normal -0.000000e+000 1.000000e+000 0.000000e+000
    outer loop
      vertex   1.781250e+002 2.409885e+002 5.000000e+001
      vertex   1.437500e+002 2.409885e+002 1.000000e+002
      vertex   2.125000e+002 2.409885e+002 1.000000e+002
    endloop
  endfacet
  facet normal -9.438583e-001 -3.303504e-001 1.474779e-007
    outer loop
      vertex   -1.250000e+002 -9.011492e+000 5.000000e+001
      vertex   -3.750000e+001 -2.590115e+002 1.000000e+002
      vertex   -2.125000e+002 2.409885e+002 1.000000e+002
    endloop
  endfacet
  facet normal 9.438583e-001 -3.303505e-001 1.474779e-007
    outer loop
      vertex   1.250000e+002 -9.011492e+000 5.000000e+001
      vertex   2.125000e+002 2.409885e+002 1.000000e+002
      vertex   3.750000e+001 -2.590115e+002 1.000000e+002
    endloop
  endfacet
  facet normal -0.000000e+000 -1.000000e+000 0.000000e+000
    outer loop
      vertex   -5.340908e-006 -2.590115e+002 5.000000e+001
      vertex   3.750000e+001 -2.590115e+002 1.000000e+002
      vertex   -3.750000e+001 -2.590115e+002 1.000000e+002
    endloop
  endfacet
  facet normal -0.000000e+000 1.000000e+000 0.000000e+000
    outer loop
      vertex   -1.781250e+002 2.409885e+002 5.000000e+001
      vertex   -2.125000e+002 2.409885e+002 1.000000e+002
      vertex   -1.437500e+002 2.409885e+002 1.000000e+002
    endloop
  endfacet
  facet normal 0.000000e+000 -0.000000e+000 1.000000e+000
    outer loop
      vertex   -2.125000e+002 2.409885e+002 1.000000e+002
      vertex   -3.750000e+001 -2.590115e+002 1.000000e+002
      vertex   -5.340908e-006 -1.652615e+002 1.000000e+002
    endloop
  endfacet
  facet normal -0.000000e+000 0.000000e+000 1.000000e+000
    outer loop
      vertex   -1.437500e+002 2.409885e+002 1.000000e+002
      vertex   -2.125000e+002 2.409885e+002 1.000000e+002
      vertex   -5.340908e-006 -1.652615e+002 1.000000e+002
    endloop
  endfacet
  facet normal -0.000000e+000 0.000000e+000 1.000000e+000
    outer loop
      vertex   1.437500e+002 2.409885e+002 1.000000e+002
      vertex   -5.340908e-006 -1.652615e+002 1.000000e+002
      vertex   3.750000e+001 -2.590115e+002 1.000000e+002
    endloop
  endfacet
  facet normal -0.000000e+000 0.000000e+000 1.000000e+000
    outer loop
      vertex   2.125000e+002 2.409885e+002 1.000000e+002
      vertex   1.437500e+002 2.409885e+002 1.000000e+002
      vertex   3.750000e+001 -2.590115e+002 1.000000e+002
    endloop
  endfacet
  facet normal 0.000000e+000 0.000000e+000 1.000000e+000
    outer loop
      vertex   -5.340908e-006 -1.652615e+002 1.000000e+002
      vertex   -3.750000e+001 -2.590115e+002 1.000000e+002
      vertex   3.750000e+001 -2.590115e+002 1.000000e+002
    endloop
  endfacet
endsolid
