solid ascii
  facet normal 0.000000e+000 1.000000e+000 0.000000e+000
    outer loop
      vertex   -7.268625e-006 2.416745e+002 5.000000e+001
      vertex   -4.375001e+001 2.416745e+002 0.000000e+000
      vertex   -4.375001e+001 2.416745e+002 1.000000e+002
    endloop
  endfacet
  facet normal 9.682773e-001 2.498781e-001 -0.000000e+000
    outer loop
      vertex   9.374999e+001 4.792457e+001 5.000000e+001
      vertex   4.374999e+001 2.416745e+002 0.000000e+000
      vertex   4.374999e+001 2.416745e+002 1.000000e+002
    endloop
  endfacet
  facet normal -9.701425e-001 -2.425356e-001 0.000000e+000
    outer loop
      vertex   5.312499e+001 -4.582543e+001 5.000000e+001
      vertex   -7.268625e-006 1.666746e+002 0.000000e+000
      vertex   1.062500e+002 -2.583254e+002 0.000000e+000
    endloop
  endfacet
  facet normal 9.682773e-001 2.498781e-001 0.000000e+000
    outer loop
      vertex   9.374999e+001 4.792457e+001 5.000000e+001
      vertex   1.437500e+002 -1.458254e+002 1.000000e+002
      vertex   1.437500e+002 -1.458254e+002 0.000000e+000
    endloop
  endfacet
  facet normal -9.701425e-001 -2.425356e-001 1.515848e-007
    outer loop
      vertex   -2.437500e+002 -8.325426e+000 5.000000e+001
      vertex   -3.062500e+002 2.416745e+002 0.000000e+000
      vertex   -1.812500e+002 -2.583254e+002 0.000000e+000
    endloop
  endfacet
  facet normal -9.701424e-001 -2.425356e-001 0.000000e+000
    outer loop
      vertex   -2.437500e+002 -8.325426e+000 5.000000e+001
      vertex   -1.812500e+002 -2.583254e+002 0.000000e+000
      vertex   -1.812500e+002 -2.583254e+002 1.000000e+002
    endloop
  endfacet
  facet normal -9.701425e-001 -2.425356e-001 0.000000e+000
    outer loop
      vertex   5.312499e+001 -4.582543e+001 5.000000e+001
      vertex   1.062500e+002 -2.583254e+002 0.000000e+000
      vertex   1.062500e+002 -2.583254e+002 1.000000e+002
    endloop
  endfacet
  facet normal -9.701425e-001 -2.425357e-001 -0.000000e+000
    outer loop
      vertex   -2.437500e+002 -8.325426e+000 5.000000e+001
      vertex   -3.062500e+002 2.416745e+002 1.000000e+002
      vertex   -3.062500e+002 2.416745e+002 0.000000e+000
    endloop
  endfacet
  facet normal 9.719588e-001 2.351514e-001 -9.797973e-008
    outer loop
      vertex   -1.906250e+002 4.792457e+001 5.000000e+001
      vertex   -1.437500e+002 -1.458254e+002 0.000000e+000
      vertex   -2.375000e+002 2.416745e+002 0.000000e+000
    endloop
  endfacet
  facet normal 9.719588e-001 2.351514e-001 -0.000000e+000
    outer loop
      vertex   -1.906250e+002 4.792457e+001 5.000000e+001
      vertex   -2.375000e+002 2.416745e+002 0.000000e+000
      vertex   -2.375000e+002 2.416745e+002 1.000000e+002
    endloop
  endfacet
  facet normal -9.701425e-001 -2.425356e-001 -0.000000e+000
    outer loop
      vertex   5.312499e+001 -4.582543e+001 5.000000e+001
      vertex   -7.268625e-006 1.666746e+002 1.000000e+002
      vertex   -7.268625e-006 1.666746e+002 0.000000e+000
    endloop
  endfacet
  facet normal 9.719588e-001 2.351513e-001 0.000000e+000
    outer loop
      vertex   -1.906250e+002 4.792457e+001 5.000000e+001
      vertex   -1.437500e+002 -1.458254e+002 1.000000e+002
      vertex   -1.437500e+002 -1.458254e+002 0.000000e+000
    endloop
  endfacet
  facet normal 0.000000e+000 1.000000e+000 0.000000e+000
    outer loop
      vertex   2.718750e+002 2.416745e+002 5.000000e+001
      vertex   3.062500e+002 2.416745e+002 0.000000e+000
      vertex   2.375000e+002 2.416745e+002 0.000000e+000
    endloop
  endfacet
  facet normal 0.000000e+000 1.000000e+000 0.000000e+000
    outer loop
      vertex   2.718750e+002 2.416745e+002 5.000000e+001
      vertex   2.375000e+002 2.416745e+002 0.000000e+000
      vertex   2.375000e+002 2.416745e+002 1.000000e+002
    endloop
  endfacet
  facet normal 9.682773e-001 2.498781e-001 0.000000e+000
    outer loop
      vertex   9.374999e+001 4.792457e+001 5.000000e+001
      vertex   1.437500e+002 -1.458254e+002 0.000000e+000
      vertex   4.374999e+001 2.416745e+002 0.000000e+000
    endloop
  endfacet
  facet normal 0.000000e+000 1.000000e+000 0.000000e+000
    outer loop
      vertex   2.718750e+002 2.416745e+002 5.000000e+001
      vertex   3.062500e+002 2.416745e+002 1.000000e+002
      vertex   3.062500e+002 2.416745e+002 0.000000e+000
    endloop
  endfacet
  facet normal 9.701425e-001 -2.425356e-001 7.579239e-008
    outer loop
      vertex   2.437500e+002 -8.325426e+000 5.000000e+001
      vertex   1.812500e+002 -2.583254e+002 0.000000e+000
      vertex   3.062500e+002 2.416745e+002 0.000000e+000
    endloop
  endfacet
  facet normal 9.701425e-001 -2.425357e-001 0.000000e+000
    outer loop
      vertex   2.437500e+002 -8.325426e+000 5.000000e+001
      vertex   3.062500e+002 2.416745e+002 0.000000e+000
      vertex   3.062500e+002 2.416745e+002 1.000000e+002
    endloop
  endfacet
  facet normal 0.000000e+000 1.000000e+000 0.000000e+000
    outer loop
      vertex   -7.268625e-006 2.416745e+002 5.000000e+001
      vertex   4.374999e+001 2.416745e+002 1.000000e+002
      vertex   4.374999e+001 2.416745e+002 0.000000e+000
    endloop
  endfacet
  facet normal 9.701424e-001 -2.425356e-001 0.000000e+000
    outer loop
      vertex   2.437500e+002 -8.325426e+000 5.000000e+001
      vertex   1.812500e+002 -2.583254e+002 1.000000e+002
      vertex   1.812500e+002 -2.583254e+002 0.000000e+000
    endloop
  endfacet
  facet normal -9.719588e-001 2.351514e-001 0.000000e+000
    outer loop
      vertex   1.906250e+002 4.792457e+001 5.000000e+001
      vertex   2.375000e+002 2.416745e+002 0.000000e+000
      vertex   1.437500e+002 -1.458254e+002 0.000000e+000
    endloop
  endfacet
  facet normal -9.719588e-001 2.351513e-001 0.000000e+000
    outer loop
      vertex   1.906250e+002 4.792457e+001 5.000000e+001
      vertex   1.437500e+002 -1.458254e+002 0.000000e+000
      vertex   1.437500e+002 -1.458254e+002 1.000000e+002
    endloop
  endfacet
  facet normal 0.000000e+000 -1.000000e+000 0.000000e+000
    outer loop
      vertex   1.437500e+002 -2.583254e+002 5.000000e+001
      vertex   1.812500e+002 -2.583254e+002 0.000000e+000
      vertex   1.812500e+002 -2.583254e+002 1.000000e+002
    endloop
  endfacet
  facet normal -9.719588e-001 2.351514e-001 0.000000e+000
    outer loop
      vertex   1.906250e+002 4.792457e+001 5.000000e+001
      vertex   2.375000e+002 2.416745e+002 1.000000e+002
      vertex   2.375000e+002 2.416745e+002 0.000000e+000
    endloop
  endfacet
  facet normal 9.701425e-001 -2.425356e-001 1.783350e-007
    outer loop
      vertex   -5.312501e+001 -4.582543e+001 5.000000e+001
      vertex   -1.062500e+002 -2.583254e+002 0.000000e+000
      vertex   -7.268625e-006 1.666746e+002 0.000000e+000
    endloop
  endfacet
  facet normal 9.701425e-001 -2.425356e-001 0.000000e+000
    outer loop
      vertex   -5.312501e+001 -4.582543e+001 5.000000e+001
      vertex   -7.268625e-006 1.666746e+002 0.000000e+000
      vertex   -7.268625e-006 1.666746e+002 1.000000e+002
    endloop
  endfacet
  facet normal 0.000000e+000 -1.000000e+000 0.000000e+000
    outer loop
      vertex   1.437500e+002 -2.583254e+002 5.000000e+001
      vertex   1.062500e+002 -2.583254e+002 1.000000e+002
      vertex   1.062500e+002 -2.583254e+002 0.000000e+000
    endloop
  endfacet
  facet normal 9.701425e-001 -2.425356e-001 0.000000e+000
    outer loop
      vertex   -5.312501e+001 -4.582543e+001 5.000000e+001
      vertex   -1.062500e+002 -2.583254e+002 1.000000e+002
      vertex   -1.062500e+002 -2.583254e+002 0.000000e+000
    endloop
  endfacet
  facet normal -9.682773e-001 2.498780e-001 -9.760861e-008
    outer loop
      vertex   -9.375001e+001 4.792457e+001 5.000000e+001
      vertex   -4.375001e+001 2.416745e+002 0.000000e+000
      vertex   -1.437500e+002 -1.458254e+002 0.000000e+000
    endloop
  endfacet
  facet normal -9.682773e-001 2.498780e-001 0.000000e+000
    outer loop
      vertex   -9.375001e+001 4.792457e+001 5.000000e+001
      vertex   -1.437500e+002 -1.458254e+002 0.000000e+000
      vertex   -1.437500e+002 -1.458254e+002 1.000000e+002
    endloop
  endfacet
  facet normal 0.000000e+000 -1.000000e+000 0.000000e+000
    outer loop
      vertex   -1.437500e+002 -2.583254e+002 5.000000e+001
      vertex   -1.062500e+002 -2.583254e+002 0.000000e+000
      vertex   -1.062500e+002 -2.583254e+002 1.000000e+002
    endloop
  endfacet
  facet normal -9.682773e-001 2.498781e-001 0.000000e+000
    outer loop
      vertex   -9.375001e+001 4.792457e+001 5.000000e+001
      vertex   -4.375001e+001 2.416745e+002 1.000000e+002
      vertex   -4.375001e+001 2.416745e+002 0.000000e+000
    endloop
  endfacet
  facet normal 0.000000e+000 0.000000e+000 -1.000000e+000
    outer loop
      vertex   3.062500e+002 2.416745e+002 0.000000e+000
      vertex   1.812500e+002 -2.583254e+002 0.000000e+000
      vertex   2.375000e+002 2.416745e+002 0.000000e+000
    endloop
  endfacet
  facet normal 0.000000e+000 0.000000e+000 -1.000000e+000
    outer loop
      vertex   2.375000e+002 2.416745e+002 0.000000e+000
      vertex   1.812500e+002 -2.583254e+002 0.000000e+000
      vertex   1.437500e+002 -1.458254e+002 0.000000e+000
    endloop
  endfacet
  facet normal 0.000000e+000 -1.000000e+000 0.000000e+000
    outer loop
      vertex   -1.437500e+002 -2.583254e+002 5.000000e+001
      vertex   -1.812500e+002 -2.583254e+002 1.000000e+002
      vertex   -1.812500e+002 -2.583254e+002 0.000000e+000
    endloop
  endfacet
  facet normal 0.000000e+000 1.000000e+000 0.000000e+000
    outer loop
      vertex   -2.718750e+002 2.416745e+002 5.000000e+001
      vertex   -2.375000e+002 2.416745e+002 0.000000e+000
      vertex   -3.062500e+002 2.416745e+002 0.000000e+000
    endloop
  endfacet
  facet normal 0.000000e+000 1.000000e+000 0.000000e+000
    outer loop
      vertex   -7.268625e-006 2.416745e+002 5.000000e+001
      vertex   4.374999e+001 2.416745e+002 0.000000e+000
      vertex   -4.375001e+001 2.416745e+002 0.000000e+000
    endloop
  endfacet
  facet normal 0.000000e+000 1.000000e+000 0.000000e+000
    outer loop
      vertex   -2.718750e+002 2.416745e+002 5.000000e+001
      vertex   -3.062500e+002 2.416745e+002 0.000000e+000
      vertex   -3.062500e+002 2.416745e+002 1.000000e+002
    endloop
  endfacet
  facet normal 0.000000e+000 0.000000e+000 -1.000000e+000
    outer loop
      vertex   4.374999e+001 2.416745e+002 0.000000e+000
      vertex   -7.268625e-006 1.666746e+002 0.000000e+000
      vertex   -4.375001e+001 2.416745e+002 0.000000e+000
    endloop
  endfacet
  facet normal -0.000000e+000 0.000000e+000 -1.000000e+000
    outer loop
      vertex   -4.375001e+001 2.416745e+002 0.000000e+000
      vertex   -7.268625e-006 1.666746e+002 0.000000e+000
      vertex   -1.437500e+002 -1.458254e+002 0.000000e+000
    endloop
  endfacet
  facet normal 0.000000e+000 -1.000000e+000 0.000000e+000
    outer loop
      vertex   1.437500e+002 -2.583254e+002 5.000000e+001
      vertex   1.062500e+002 -2.583254e+002 0.000000e+000
      vertex   1.812500e+002 -2.583254e+002 0.000000e+000
    endloop
  endfacet
  facet normal 0.000000e+000 0.000000e+000 -1.000000e+000
    outer loop
      vertex   4.374999e+001 2.416745e+002 0.000000e+000
      vertex   1.437500e+002 -1.458254e+002 0.000000e+000
      vertex   -7.268625e-006 1.666746e+002 0.000000e+000
    endloop
  endfacet
  facet normal -0.000000e+000 0.000000e+000 -1.000000e+000
    outer loop
      vertex   -7.268625e-006 1.666746e+002 0.000000e+000
      vertex   1.437500e+002 -1.458254e+002 0.000000e+000
      vertex   1.062500e+002 -2.583254e+002 0.000000e+000
    endloop
  endfacet
  facet normal 0.000000e+000 0.000000e+000 -1.000000e+000
    outer loop
      vertex   -7.268625e-006 1.666746e+002 0.000000e+000
      vertex   -1.062500e+002 -2.583254e+002 0.000000e+000
      vertex   -1.437500e+002 -1.458254e+002 0.000000e+000
    endloop
  endfacet
  facet normal 0.000000e+000 -1.000000e+000 0.000000e+000
    outer loop
      vertex   -1.437500e+002 -2.583254e+002 5.000000e+001
      vertex   -1.812500e+002 -2.583254e+002 0.000000e+000
      vertex   -1.062500e+002 -2.583254e+002 0.000000e+000
    endloop
  endfacet
  facet normal 0.000000e+000 0.000000e+000 -1.000000e+000
    outer loop
      vertex   -1.437500e+002 -1.458254e+002 0.000000e+000
      vertex   -1.062500e+002 -2.583254e+002 0.000000e+000
      vertex   -1.812500e+002 -2.583254e+002 0.000000e+000
    endloop
  endfacet
  facet normal 0.000000e+000 1.000000e+000 0.000000e+000
    outer loop
      vertex   -2.718750e+002 2.416745e+002 5.000000e+001
      vertex   -2.375000e+002 2.416745e+002 1.000000e+002
      vertex   -2.375000e+002 2.416745e+002 0.000000e+000
    endloop
  endfacet
  facet normal 0.000000e+000 0.000000e+000 -1.000000e+000
    outer loop
      vertex   -2.375000e+002 2.416745e+002 0.000000e+000
      vertex   -1.437500e+002 -1.458254e+002 0.000000e+000
      vertex   -3.062500e+002 2.416745e+002 0.000000e+000
    endloop
  endfacet
  facet normal -0.000000e+000 0.000000e+000 -1.000000e+000
    outer loop
      vertex   -3.062500e+002 2.416745e+002 0.000000e+000
      vertex   -1.437500e+002 -1.458254e+002 0.000000e+000
      vertex   -1.812500e+002 -2.583254e+002 0.000000e+000
    endloop
  endfacet
  facet normal 0.000000e+000 0.000000e+000 -1.000000e+000
    outer loop
      vertex   1.437500e+002 -1.458254e+002 0.000000e+000
      vertex   1.812500e+002 -2.583254e+002 0.000000e+000
      vertex   1.062500e+002 -2.583254e+002 0.000000e+000
    endloop
  endfacet
  facet normal 9.701425e-001 -2.425356e-001 -1.515848e-007
    outer loop
      vertex   2.437500e+002 -8.325426e+000 5.000000e+001
      vertex   3.062500e+002 2.416745e+002 1.000000e+002
      vertex   1.812500e+002 -2.583254e+002 1.000000e+002
    endloop
  endfacet
  facet normal -9.701425e-001 -2.425356e-001 -7.579239e-008
    outer loop
      vertex   -2.437500e+002 -8.325426e+000 5.000000e+001
      vertex   -1.812500e+002 -2.583254e+002 1.000000e+002
      vertex   -3.062500e+002 2.416745e+002 1.000000e+002
    endloop
  endfacet
  facet normal -0.000000e+000 -1.000000e+000 0.000000e+000
    outer loop
      vertex   -1.437500e+002 -2.583254e+002 5.000000e+001
      vertex   -1.062500e+002 -2.583254e+002 1.000000e+002
      vertex   -1.812500e+002 -2.583254e+002 1.000000e+002
    endloop
  endfacet
  facet normal 9.701425e-001 -2.425356e-001 -8.916751e-008
    outer loop
      vertex   -5.312501e+001 -4.582543e+001 5.000000e+001
      vertex   -7.268625e-006 1.666746e+002 1.000000e+002
      vertex   -1.062500e+002 -2.583254e+002 1.000000e+002
    endloop
  endfacet
  facet normal -9.682773e-001 2.498780e-001 9.760861e-008
    outer loop
      vertex   -9.375001e+001 4.792457e+001 5.000000e+001
      vertex   -1.437500e+002 -1.458254e+002 1.000000e+002
      vertex   -4.375001e+001 2.416745e+002 1.000000e+002
    endloop
  endfacet
  facet normal -0.000000e+000 -1.000000e+000 0.000000e+000
    outer loop
      vertex   1.437500e+002 -2.583254e+002 5.000000e+001
      vertex   1.812500e+002 -2.583254e+002 1.000000e+002
      vertex   1.062500e+002 -2.583254e+002 1.000000e+002
    endloop
  endfacet
  facet normal -9.719588e-001 2.351514e-001 9.797973e-008
    outer loop
      vertex   1.906250e+002 4.792457e+001 5.000000e+001
      vertex   1.437500e+002 -1.458254e+002 1.000000e+002
      vertex   2.375000e+002 2.416745e+002 1.000000e+002
    endloop
  endfacet
  facet normal -0.000000e+000 1.000000e+000 0.000000e+000
    outer loop
      vertex   -2.718750e+002 2.416745e+002 5.000000e+001
      vertex   -3.062500e+002 2.416745e+002 1.000000e+002
      vertex   -2.375000e+002 2.416745e+002 1.000000e+002
    endloop
  endfacet
  facet normal 9.719588e-001 2.351514e-001 0.000000e+000
    outer loop
      vertex   -1.906250e+002 4.792457e+001 5.000000e+001
      vertex   -2.375000e+002 2.416745e+002 1.000000e+002
      vertex   -1.437500e+002 -1.458254e+002 1.000000e+002
    endloop
  endfacet
  facet normal 9.682773e-001 2.498781e-001 0.000000e+000
    outer loop
      vertex   9.374999e+001 4.792457e+001 5.000000e+001
      vertex   4.374999e+001 2.416745e+002 1.000000e+002
      vertex   1.437500e+002 -1.458254e+002 1.000000e+002
    endloop
  endfacet
  facet normal -0.000000e+000 1.000000e+000 0.000000e+000
    outer loop
      vertex   2.718750e+002 2.416745e+002 5.000000e+001
      vertex   2.375000e+002 2.416745e+002 1.000000e+002
      vertex   3.062500e+002 2.416745e+002 1.000000e+002
    endloop
  endfacet
  facet normal -9.701425e-001 -2.425356e-001 -8.916751e-008
    outer loop
      vertex   5.312499e+001 -4.582543e+001 5.000000e+001
      vertex   1.062500e+002 -2.583254e+002 1.000000e+002
      vertex   -7.268625e-006 1.666746e+002 1.000000e+002
    endloop
  endfacet
  facet normal -0.000000e+000 1.000000e+000 0.000000e+000
    outer loop
      vertex   -7.268625e-006 2.416745e+002 5.000000e+001
      vertex   -4.375001e+001 2.416745e+002 1.000000e+002
      vertex   4.374999e+001 2.416745e+002 1.000000e+002
    endloop
  endfacet
  facet normal -0.000000e+000 0.000000e+000 1.000000e+000
    outer loop
      vertex   -7.268625e-006 1.666746e+002 1.000000e+002
      vertex   -1.437500e+002 -1.458254e+002 1.000000e+002
      vertex   -1.062500e+002 -2.583254e+002 1.000000e+002
    endloop
  endfacet
  facet normal 0.000000e+000 0.000000e+000 1.000000e+000
    outer loop
      vertex   1.437500e+002 -1.458254e+002 1.000000e+002
      vertex   1.062500e+002 -2.583254e+002 1.000000e+002
      vertex   1.812500e+002 -2.583254e+002 1.000000e+002
    endloop
  endfacet
  facet normal 0.000000e+000 -0.000000e+000 1.000000e+000
    outer loop
      vertex   -3.062500e+002 2.416745e+002 1.000000e+002
      vertex   -1.812500e+002 -2.583254e+002 1.000000e+002
      vertex   -1.437500e+002 -1.458254e+002 1.000000e+002
    endloop
  endfacet
  facet normal -0.000000e+000 0.000000e+000 1.000000e+000
    outer loop
      vertex   -2.375000e+002 2.416745e+002 1.000000e+002
      vertex   -3.062500e+002 2.416745e+002 1.000000e+002
      vertex   -1.437500e+002 -1.458254e+002 1.000000e+002
    endloop
  endfacet
  facet normal 0.000000e+000 -0.000000e+000 1.000000e+000
    outer loop
      vertex   -7.268625e-006 1.666746e+002 1.000000e+002
      vertex   1.062500e+002 -2.583254e+002 1.000000e+002
      vertex   1.437500e+002 -1.458254e+002 1.000000e+002
    endloop
  endfacet
  facet normal 0.000000e+000 0.000000e+000 1.000000e+000
    outer loop
      vertex   -1.437500e+002 -1.458254e+002 1.000000e+002
      vertex   -1.812500e+002 -2.583254e+002 1.000000e+002
      vertex   -1.062500e+002 -2.583254e+002 1.000000e+002
    endloop
  endfacet
  facet normal 0.000000e+000 0.000000e+000 1.000000e+000
    outer loop
      vertex   -4.375001e+001 2.416745e+002 1.000000e+002
      vertex   -1.437500e+002 -1.458254e+002 1.000000e+002
      vertex   -7.268625e-006 1.666746e+002 1.000000e+002
    endloop
  endfacet
  facet normal -0.000000e+000 0.000000e+000 1.000000e+000
    outer loop
      vertex   4.374999e+001 2.416745e+002 1.000000e+002
      vertex   -4.375001e+001 2.416745e+002 1.000000e+002
      vertex   -7.268625e-006 1.666746e+002 1.000000e+002
    endloop
  endfacet
  facet normal -0.000000e+000 0.000000e+000 1.000000e+000
    outer loop
      vertex   4.374999e+001 2.416745e+002 1.000000e+002
      vertex   -7.268625e-006 1.666746e+002 1.000000e+002
      vertex   1.437500e+002 -1.458254e+002 1.000000e+002
    endloop
  endfacet
  facet normal -0.000000e+000 0.000000e+000 1.000000e+000
    outer loop
      vertex   2.375000e+002 2.416745e+002 1.000000e+002
      vertex   1.437500e+002 -1.458254e+002 1.000000e+002
      vertex   1.812500e+002 -2.583254e+002 1.000000e+002
    endloop
  endfacet
  facet normal -0.000000e+000 0.000000e+000 1.000000e+000
    outer loop
      vertex   3.062500e+002 2.416745e+002 1.000000e+002
      vertex   2.375000e+002 2.416745e+002 1.000000e+002
      vertex   1.812500e+002 -2.583254e+002 1.000000e+002
    endloop
  endfacet
endsolid
