solid ascii
  facet normal 0.000000e+000 1.000000e+000 0.000000e+000
    outer loop
      vertex   1.656250e+002 2.515925e+002 5.000000e+001
      vertex   2.062500e+002 2.515925e+002 0.000000e+000
      vertex   1.250000e+002 2.515925e+002 0.000000e+000
    endloop
  endfacet
  facet normal -8.258010e-001 5.639616e-001 0.000000e+000
    outer loop
      vertex   -1.250000e+002 -1.202825e+002 5.000000e+001
      vertex   -2.125000e+002 -2.484075e+002 0.000000e+000
      vertex   -2.125000e+002 -2.484075e+002 1.000000e+002
    endloop
  endfacet
  facet normal 0.000000e+000 1.000000e+000 0.000000e+000
    outer loop
      vertex   1.656250e+002 2.515925e+002 5.000000e+001
      vertex   1.250000e+002 2.515925e+002 0.000000e+000
      vertex   1.250000e+002 2.515925e+002 1.000000e+002
    endloop
  endfacet
  facet normal -8.258010e-001 5.639616e-001 0.000000e+000
    outer loop
      vertex   -1.250000e+002 -1.202825e+002 5.000000e+001
      vertex   -3.750000e+001 7.842494e+000 1.000000e+002
      vertex   -3.750000e+001 7.842494e+000 0.000000e+000
    endloop
  endfacet
  facet normal -8.320504e-001 5.547001e-001 -8.667191e-008
    outer loop
      vertex   6.249998e+001 1.578425e+002 5.000000e+001
      vertex   1.250000e+002 2.515925e+002 0.000000e+000
      vertex   5.721719e-008 6.409249e+001 0.000000e+000
    endloop
  endfacet
  facet normal -8.320504e-001 5.547001e-001 0.000000e+000
    outer loop
      vertex   6.249998e+001 1.578425e+002 5.000000e+001
      vertex   5.721719e-008 6.409249e+001 0.000000e+000
      vertex   5.721719e-008 6.409249e+001 1.000000e+002
    endloop
  endfacet
  facet normal 0.000000e+000 1.000000e+000 0.000000e+000
    outer loop
      vertex   1.656250e+002 2.515925e+002 5.000000e+001
      vertex   2.062500e+002 2.515925e+002 1.000000e+002
      vertex   2.062500e+002 2.515925e+002 0.000000e+000
    endloop
  endfacet
  facet normal -8.320503e-001 5.547002e-001 0.000000e+000
    outer loop
      vertex   6.249998e+001 1.578425e+002 5.000000e+001
      vertex   1.250000e+002 2.515925e+002 1.000000e+002
      vertex   1.250000e+002 2.515925e+002 0.000000e+000
    endloop
  endfacet
  facet normal 0.000000e+000 -1.000000e+000 0.000000e+000
    outer loop
      vertex   -1.718750e+002 -2.484075e+002 5.000000e+001
      vertex   -2.125000e+002 -2.484075e+002 0.000000e+000
      vertex   -1.312500e+002 -2.484075e+002 0.000000e+000
    endloop
  endfacet
  facet normal 0.000000e+000 -1.000000e+000 0.000000e+000
    outer loop
      vertex   -1.718750e+002 -2.484075e+002 5.000000e+001
      vertex   -1.312500e+002 -2.484075e+002 0.000000e+000
      vertex   -1.312500e+002 -2.484075e+002 1.000000e+002
    endloop
  endfacet
  facet normal 0.000000e+000 -1.000000e+000 0.000000e+000
    outer loop
      vertex   1.718750e+002 -2.484075e+002 5.000000e+001
      vertex   2.125000e+002 -2.484075e+002 0.000000e+000
      vertex   2.125000e+002 -2.484075e+002 1.000000e+002
    endloop
  endfacet
  facet normal 0.000000e+000 -1.000000e+000 0.000000e+000
    outer loop
      vertex   -1.718750e+002 -2.484075e+002 5.000000e+001
      vertex   -2.125000e+002 -2.484075e+002 1.000000e+002
      vertex   -2.125000e+002 -2.484075e+002 0.000000e+000
    endloop
  endfacet
  facet normal -8.221922e-001 -5.692100e-001 0.000000e+000
    outer loop
      vertex   -1.218750e+002 1.297175e+002 5.000000e+001
      vertex   -2.062500e+002 2.515925e+002 0.000000e+000
      vertex   -3.750000e+001 7.842494e+000 0.000000e+000
    endloop
  endfacet
  facet normal -8.221922e-001 -5.692099e-001 0.000000e+000
    outer loop
      vertex   -1.218750e+002 1.297175e+002 5.000000e+001
      vertex   -3.750000e+001 7.842494e+000 0.000000e+000
      vertex   -3.750000e+001 7.842494e+000 1.000000e+002
    endloop
  endfacet
  facet normal 0.000000e+000 -1.000000e+000 0.000000e+000
    outer loop
      vertex   1.718750e+002 -2.484075e+002 5.000000e+001
      vertex   1.312500e+002 -2.484075e+002 1.000000e+002
      vertex   1.312500e+002 -2.484075e+002 0.000000e+000
    endloop
  endfacet
  facet normal -8.221922e-001 -5.692100e-001 -0.000000e+000
    outer loop
      vertex   -1.218750e+002 1.297175e+002 5.000000e+001
      vertex   -2.062500e+002 2.515925e+002 1.000000e+002
      vertex   -2.062500e+002 2.515925e+002 0.000000e+000
    endloop
  endfacet
  facet normal 8.221923e-001 -5.692099e-001 2.635232e-007
    outer loop
      vertex   1.218750e+002 1.297175e+002 5.000000e+001
      vertex   3.750000e+001 7.842494e+000 0.000000e+000
      vertex   2.062500e+002 2.515925e+002 0.000000e+000
    endloop
  endfacet
  facet normal 8.221922e-001 -5.692100e-001 0.000000e+000
    outer loop
      vertex   1.218750e+002 1.297175e+002 5.000000e+001
      vertex   2.062500e+002 2.515925e+002 0.000000e+000
      vertex   2.062500e+002 2.515925e+002 1.000000e+002
    endloop
  endfacet
  facet normal 8.279187e-001 -5.608481e-001 0.000000e+000
    outer loop
      vertex   -6.562500e+001 -1.515325e+002 5.000000e+001
      vertex   5.721719e-008 -5.465751e+001 0.000000e+000
      vertex   5.721719e-008 -5.465751e+001 1.000000e+002
    endloop
  endfacet
  facet normal 8.221923e-001 -5.692098e-001 0.000000e+000
    outer loop
      vertex   1.218750e+002 1.297175e+002 5.000000e+001
      vertex   3.750000e+001 7.842494e+000 1.000000e+002
      vertex   3.750000e+001 7.842494e+000 0.000000e+000
    endloop
  endfacet
  facet normal 8.258010e-001 5.639616e-001 1.258843e-007
    outer loop
      vertex   1.250000e+002 -1.202825e+002 5.000000e+001
      vertex   2.125000e+002 -2.484075e+002 0.000000e+000
      vertex   3.750000e+001 7.842494e+000 0.000000e+000
    endloop
  endfacet
  facet normal 8.258011e-001 5.639616e-001 -0.000000e+000
    outer loop
      vertex   1.250000e+002 -1.202825e+002 5.000000e+001
      vertex   3.750000e+001 7.842494e+000 0.000000e+000
      vertex   3.750000e+001 7.842494e+000 1.000000e+002
    endloop
  endfacet
  facet normal 8.279187e-001 -5.608481e-001 0.000000e+000
    outer loop
      vertex   -6.562500e+001 -1.515325e+002 5.000000e+001
      vertex   -1.312500e+002 -2.484075e+002 1.000000e+002
      vertex   -1.312500e+002 -2.484075e+002 0.000000e+000
    endloop
  endfacet
  facet normal 8.258010e-001 5.639616e-001 0.000000e+000
    outer loop
      vertex   1.250000e+002 -1.202825e+002 5.000000e+001
      vertex   2.125000e+002 -2.484075e+002 1.000000e+002
      vertex   2.125000e+002 -2.484075e+002 0.000000e+000
    endloop
  endfacet
  facet normal 0.000000e+000 1.000000e+000 0.000000e+000
    outer loop
      vertex   -1.656250e+002 2.515925e+002 5.000000e+001
      vertex   -1.250000e+002 2.515925e+002 0.000000e+000
      vertex   -2.062500e+002 2.515925e+002 0.000000e+000
    endloop
  endfacet
  facet normal 0.000000e+000 1.000000e+000 0.000000e+000
    outer loop
      vertex   -1.656250e+002 2.515925e+002 5.000000e+001
      vertex   -2.062500e+002 2.515925e+002 0.000000e+000
      vertex   -2.062500e+002 2.515925e+002 1.000000e+002
    endloop
  endfacet
  facet normal 8.320503e-001 5.547002e-001 -0.000000e+000
    outer loop
      vertex   -6.250000e+001 1.578425e+002 5.000000e+001
      vertex   -1.250000e+002 2.515925e+002 0.000000e+000
      vertex   -1.250000e+002 2.515925e+002 1.000000e+002
    endloop
  endfacet
  facet normal 0.000000e+000 1.000000e+000 0.000000e+000
    outer loop
      vertex   -1.656250e+002 2.515925e+002 5.000000e+001
      vertex   -1.250000e+002 2.515925e+002 1.000000e+002
      vertex   -1.250000e+002 2.515925e+002 0.000000e+000
    endloop
  endfacet
  facet normal 0.000000e+000 0.000000e+000 -1.000000e+000
    outer loop
      vertex   5.721719e-008 -5.465751e+001 0.000000e+000
      vertex   -1.312500e+002 -2.484075e+002 0.000000e+000
      vertex   -2.125000e+002 -2.484075e+002 0.000000e+000
    endloop
  endfacet
  facet normal 8.320503e-001 5.547001e-001 0.000000e+000
    outer loop
      vertex   -6.250000e+001 1.578425e+002 5.000000e+001
      vertex   5.721719e-008 6.409249e+001 1.000000e+002
      vertex   5.721719e-008 6.409249e+001 0.000000e+000
    endloop
  endfacet
  facet normal -0.000000e+000 0.000000e+000 -1.000000e+000
    outer loop
      vertex   -3.750000e+001 7.842494e+000 0.000000e+000
      vertex   5.721719e-008 -5.465751e+001 0.000000e+000
      vertex   -2.125000e+002 -2.484075e+002 0.000000e+000
    endloop
  endfacet
  facet normal 0.000000e+000 0.000000e+000 -1.000000e+000
    outer loop
      vertex   2.125000e+002 -2.484075e+002 0.000000e+000
      vertex   -3.750000e+001 7.842494e+000 0.000000e+000
      vertex   -2.062500e+002 2.515925e+002 0.000000e+000
    endloop
  endfacet
  facet normal 0.000000e+000 -1.000000e+000 0.000000e+000
    outer loop
      vertex   1.718750e+002 -2.484075e+002 5.000000e+001
      vertex   1.312500e+002 -2.484075e+002 0.000000e+000
      vertex   2.125000e+002 -2.484075e+002 0.000000e+000
    endloop
  endfacet
  facet normal 0.000000e+000 0.000000e+000 -1.000000e+000
    outer loop
      vertex   -3.750000e+001 7.842494e+000 0.000000e+000
      vertex   1.312500e+002 -2.484075e+002 0.000000e+000
      vertex   5.721719e-008 -5.465751e+001 0.000000e+000
    endloop
  endfacet
  facet normal -8.258010e-001 5.639616e-001 0.000000e+000
    outer loop
      vertex   -1.250000e+002 -1.202825e+002 5.000000e+001
      vertex   -3.750000e+001 7.842494e+000 0.000000e+000
      vertex   -2.125000e+002 -2.484075e+002 0.000000e+000
    endloop
  endfacet
  facet normal -8.279188e-001 -5.608481e-001 -8.345955e-008
    outer loop
      vertex   6.562498e+001 -1.515325e+002 5.000000e+001
      vertex   5.721719e-008 -5.465751e+001 0.000000e+000
      vertex   1.312500e+002 -2.484075e+002 0.000000e+000
    endloop
  endfacet
  facet normal 8.279187e-001 -5.608481e-001 0.000000e+000
    outer loop
      vertex   -6.562500e+001 -1.515325e+002 5.000000e+001
      vertex   -1.312500e+002 -2.484075e+002 0.000000e+000
      vertex   5.721719e-008 -5.465751e+001 0.000000e+000
    endloop
  endfacet
  facet normal -8.279187e-001 -5.608481e-001 0.000000e+000
    outer loop
      vertex   6.562498e+001 -1.515325e+002 5.000000e+001
      vertex   1.312500e+002 -2.484075e+002 0.000000e+000
      vertex   1.312500e+002 -2.484075e+002 1.000000e+002
    endloop
  endfacet
  facet normal 0.000000e+000 0.000000e+000 -1.000000e+000
    outer loop
      vertex   2.125000e+002 -2.484075e+002 0.000000e+000
      vertex   1.312500e+002 -2.484075e+002 0.000000e+000
      vertex   -3.750000e+001 7.842494e+000 0.000000e+000
    endloop
  endfacet
  facet normal 0.000000e+000 0.000000e+000 -1.000000e+000
    outer loop
      vertex   3.750000e+001 7.842494e+000 0.000000e+000
      vertex   2.125000e+002 -2.484075e+002 0.000000e+000
      vertex   -2.062500e+002 2.515925e+002 0.000000e+000
    endloop
  endfacet
  facet normal 8.320503e-001 5.547002e-001 -8.667190e-008
    outer loop
      vertex   -6.250000e+001 1.578425e+002 5.000000e+001
      vertex   5.721719e-008 6.409249e+001 0.000000e+000
      vertex   -1.250000e+002 2.515925e+002 0.000000e+000
    endloop
  endfacet
  facet normal 0.000000e+000 0.000000e+000 -1.000000e+000
    outer loop
      vertex   2.062500e+002 2.515925e+002 0.000000e+000
      vertex   3.750000e+001 7.842494e+000 0.000000e+000
      vertex   1.250000e+002 2.515925e+002 0.000000e+000
    endloop
  endfacet
  facet normal -8.279188e-001 -5.608481e-001 -0.000000e+000
    outer loop
      vertex   6.562498e+001 -1.515325e+002 5.000000e+001
      vertex   5.721719e-008 -5.465751e+001 1.000000e+002
      vertex   5.721719e-008 -5.465751e+001 0.000000e+000
    endloop
  endfacet
  facet normal 0.000000e+000 0.000000e+000 -1.000000e+000
    outer loop
      vertex   5.721719e-008 6.409249e+001 0.000000e+000
      vertex   3.750000e+001 7.842494e+000 0.000000e+000
      vertex   -2.062500e+002 2.515925e+002 0.000000e+000
    endloop
  endfacet
  facet normal 0.000000e+000 0.000000e+000 -1.000000e+000
    outer loop
      vertex   -1.250000e+002 2.515925e+002 0.000000e+000
      vertex   5.721719e-008 6.409249e+001 0.000000e+000
      vertex   -2.062500e+002 2.515925e+002 0.000000e+000
    endloop
  endfacet
  facet normal 0.000000e+000 0.000000e+000 -1.000000e+000
    outer loop
      vertex   1.250000e+002 2.515925e+002 0.000000e+000
      vertex   3.750000e+001 7.842494e+000 0.000000e+000
      vertex   5.721719e-008 6.409249e+001 0.000000e+000
    endloop
  endfacet
  facet normal -8.221922e-001 -5.692100e-001 -1.317616e-007
    outer loop
      vertex   -1.218750e+002 1.297175e+002 5.000000e+001
      vertex   -3.750000e+001 7.842494e+000 1.000000e+002
      vertex   -2.062500e+002 2.515925e+002 1.000000e+002
    endloop
  endfacet
  facet normal -0.000000e+000 -1.000000e+000 0.000000e+000
    outer loop
      vertex   -1.718750e+002 -2.484075e+002 5.000000e+001
      vertex   -1.312500e+002 -2.484075e+002 1.000000e+002
      vertex   -2.125000e+002 -2.484075e+002 1.000000e+002
    endloop
  endfacet
  facet normal -8.320504e-001 5.547001e-001 2.600158e-007
    outer loop
      vertex   6.249998e+001 1.578425e+002 5.000000e+001
      vertex   5.721719e-008 6.409249e+001 1.000000e+002
      vertex   1.250000e+002 2.515925e+002 1.000000e+002
    endloop
  endfacet
  facet normal 8.258010e-001 5.639616e-001 -1.258843e-007
    outer loop
      vertex   1.250000e+002 -1.202825e+002 5.000000e+001
      vertex   3.750000e+001 7.842494e+000 1.000000e+002
      vertex   2.125000e+002 -2.484075e+002 1.000000e+002
    endloop
  endfacet
  facet normal -0.000000e+000 1.000000e+000 0.000000e+000
    outer loop
      vertex   -1.656250e+002 2.515925e+002 5.000000e+001
      vertex   -2.062500e+002 2.515925e+002 1.000000e+002
      vertex   -1.250000e+002 2.515925e+002 1.000000e+002
    endloop
  endfacet
  facet normal 8.279187e-001 -5.608481e-001 0.000000e+000
    outer loop
      vertex   -6.562500e+001 -1.515325e+002 5.000000e+001
      vertex   5.721719e-008 -5.465751e+001 1.000000e+002
      vertex   -1.312500e+002 -2.484075e+002 1.000000e+002
    endloop
  endfacet
  facet normal 8.221923e-001 -5.692099e-001 -1.317616e-007
    outer loop
      vertex   1.218750e+002 1.297175e+002 5.000000e+001
      vertex   2.062500e+002 2.515925e+002 1.000000e+002
      vertex   3.750000e+001 7.842494e+000 1.000000e+002
    endloop
  endfacet
  facet normal -8.279188e-001 -5.608481e-001 1.669191e-007
    outer loop
      vertex   6.562498e+001 -1.515325e+002 5.000000e+001
      vertex   1.312500e+002 -2.484075e+002 1.000000e+002
      vertex   5.721719e-008 -5.465751e+001 1.000000e+002
    endloop
  endfacet
  facet normal 8.320503e-001 5.547002e-001 0.000000e+000
    outer loop
      vertex   -6.250000e+001 1.578425e+002 5.000000e+001
      vertex   -1.250000e+002 2.515925e+002 1.000000e+002
      vertex   5.721719e-008 6.409249e+001 1.000000e+002
    endloop
  endfacet
  facet normal -0.000000e+000 1.000000e+000 0.000000e+000
    outer loop
      vertex   1.656250e+002 2.515925e+002 5.000000e+001
      vertex   1.250000e+002 2.515925e+002 1.000000e+002
      vertex   2.062500e+002 2.515925e+002 1.000000e+002
    endloop
  endfacet
  facet normal -8.258010e-001 5.639616e-001 0.000000e+000
    outer loop
      vertex   -1.250000e+002 -1.202825e+002 5.000000e+001
      vertex   -2.125000e+002 -2.484075e+002 1.000000e+002
      vertex   -3.750000e+001 7.842494e+000 1.000000e+002
    endloop
  endfacet
  facet normal -0.000000e+000 -1.000000e+000 0.000000e+000
    outer loop
      vertex   1.718750e+002 -2.484075e+002 5.000000e+001
      vertex   2.125000e+002 -2.484075e+002 1.000000e+002
      vertex   1.312500e+002 -2.484075e+002 1.000000e+002
    endloop
  endfacet
  facet normal 0.000000e+000 0.000000e+000 1.000000e+000
    outer loop
      vertex   2.125000e+002 -2.484075e+002 1.000000e+002
      vertex   -3.750000e+001 7.842494e+000 1.000000e+002
      vertex   1.312500e+002 -2.484075e+002 1.000000e+002
    endloop
  endfacet
  facet normal -0.000000e+000 0.000000e+000 1.000000e+000
    outer loop
      vertex   1.250000e+002 2.515925e+002 1.000000e+002
      vertex   5.721719e-008 6.409249e+001 1.000000e+002
      vertex   3.750000e+001 7.842494e+000 1.000000e+002
    endloop
  endfacet
  facet normal -0.000000e+000 0.000000e+000 1.000000e+000
    outer loop
      vertex   -1.250000e+002 2.515925e+002 1.000000e+002
      vertex   -2.062500e+002 2.515925e+002 1.000000e+002
      vertex   5.721719e-008 6.409249e+001 1.000000e+002
    endloop
  endfacet
  facet normal 0.000000e+000 0.000000e+000 1.000000e+000
    outer loop
      vertex   5.721719e-008 6.409249e+001 1.000000e+002
      vertex   -2.062500e+002 2.515925e+002 1.000000e+002
      vertex   3.750000e+001 7.842494e+000 1.000000e+002
    endloop
  endfacet
  facet normal 0.000000e+000 0.000000e+000 1.000000e+000
    outer loop
      vertex   3.750000e+001 7.842494e+000 1.000000e+002
      vertex   -2.062500e+002 2.515925e+002 1.000000e+002
      vertex   2.125000e+002 -2.484075e+002 1.000000e+002
    endloop
  endfacet
  facet normal -0.000000e+000 0.000000e+000 1.000000e+000
    outer loop
      vertex   2.062500e+002 2.515925e+002 1.000000e+002
      vertex   1.250000e+002 2.515925e+002 1.000000e+002
      vertex   3.750000e+001 7.842494e+000 1.000000e+002
    endloop
  endfacet
  facet normal 0.000000e+000 0.000000e+000 1.000000e+000
    outer loop
      vertex   2.125000e+002 -2.484075e+002 1.000000e+002
      vertex   -2.062500e+002 2.515925e+002 1.000000e+002
      vertex   -3.750000e+001 7.842494e+000 1.000000e+002
    endloop
  endfacet
  facet normal 0.000000e+000 0.000000e+000 1.000000e+000
    outer loop
      vertex   -3.750000e+001 7.842494e+000 1.000000e+002
      vertex   -2.125000e+002 -2.484075e+002 1.000000e+002
      vertex   5.721719e-008 -5.465751e+001 1.000000e+002
    endloop
  endfacet
  facet normal -0.000000e+000 -0.000000e+000 1.000000e+000
    outer loop
      vertex   -3.750000e+001 7.842494e+000 1.000000e+002
      vertex   5.721719e-008 -5.465751e+001 1.000000e+002
      vertex   1.312500e+002 -2.484075e+002 1.000000e+002
    endloop
  endfacet
  facet normal 0.000000e+000 0.000000e+000 1.000000e+000
    outer loop
      vertex   5.721719e-008 -5.465751e+001 1.000000e+002
      vertex   -2.125000e+002 -2.484075e+002 1.000000e+002
      vertex   -1.312500e+002 -2.484075e+002 1.000000e+002
    endloop
  endfacet
endsolid
