solid ascii
  facet normal 0.000000e+000 1.000000e+000 0.000000e+000
    outer loop
      vertex   -1.781250e+002 2.045248e+002 5.000000e+001
      vertex   -2.187500e+002 2.045248e+002 0.000000e+000
      vertex   -2.187500e+002 2.045248e+002 1.000000e+002
    endloop
  endfacet
  facet normal 8.466365e-001 5.321715e-001 -0.000000e+000
    outer loop
      vertex   -6.875000e+001 9.514983e+001 5.000000e+001
      vertex   -1.375000e+002 2.045248e+002 0.000000e+000
      vertex   -1.375000e+002 2.045248e+002 1.000000e+002
    endloop
  endfacet
  facet normal -8.459256e-001 -5.333009e-001 0.000000e+000
    outer loop
      vertex   -1.281250e+002 6.077482e+001 5.000000e+001
      vertex   -3.750000e+001 -8.297517e+001 0.000000e+000
      vertex   -3.750000e+001 -8.297517e+001 1.000000e+002
    endloop
  endfacet
  facet normal 8.466365e-001 5.321715e-001 0.000000e+000
    outer loop
      vertex   -6.875000e+001 9.514983e+001 5.000000e+001
      vertex   -2.342673e-006 -1.422518e+001 1.000000e+002
      vertex   -2.342673e-006 -1.422518e+001 0.000000e+000
    endloop
  endfacet
  facet normal 1.000000e+000 0.000000e+000 0.000000e+000
    outer loop
      vertex   3.750000e+001 -1.892252e+002 5.000000e+001
      vertex   3.750000e+001 -2.954752e+002 0.000000e+000
      vertex   3.750000e+001 -8.297517e+001 0.000000e+000
    endloop
  endfacet
  facet normal 1.000000e+000 0.000000e+000 -0.000000e+000
    outer loop
      vertex   3.750000e+001 -1.892252e+002 5.000000e+001
      vertex   3.750000e+001 -8.297517e+001 0.000000e+000
      vertex   3.750000e+001 -8.297517e+001 1.000000e+002
    endloop
  endfacet
  facet normal -8.459256e-001 -5.333009e-001 -0.000000e+000
    outer loop
      vertex   -1.281250e+002 6.077482e+001 5.000000e+001
      vertex   -2.187500e+002 2.045248e+002 1.000000e+002
      vertex   -2.187500e+002 2.045248e+002 0.000000e+000
    endloop
  endfacet
  facet normal 1.000000e+000 0.000000e+000 0.000000e+000
    outer loop
      vertex   3.750000e+001 -1.892252e+002 5.000000e+001
      vertex   3.750000e+001 -2.954752e+002 1.000000e+002
      vertex   3.750000e+001 -2.954752e+002 0.000000e+000
    endloop
  endfacet
  facet normal -1.000000e+000 0.000000e+000 0.000000e+000
    outer loop
      vertex   -3.750000e+001 -1.892252e+002 5.000000e+001
      vertex   -3.750000e+001 -8.297517e+001 0.000000e+000
      vertex   -3.750000e+001 -2.954752e+002 0.000000e+000
    endloop
  endfacet
  facet normal -1.000000e+000 0.000000e+000 0.000000e+000
    outer loop
      vertex   -3.750000e+001 -1.892252e+002 5.000000e+001
      vertex   -3.750000e+001 -2.954752e+002 0.000000e+000
      vertex   -3.750000e+001 -2.954752e+002 1.000000e+002
    endloop
  endfacet
  facet normal 8.466365e-001 5.321715e-001 0.000000e+000
    outer loop
      vertex   -6.875000e+001 9.514983e+001 5.000000e+001
      vertex   -2.342673e-006 -1.422518e+001 0.000000e+000
      vertex   -1.375000e+002 2.045248e+002 0.000000e+000
    endloop
  endfacet
  facet normal -1.000000e+000 0.000000e+000 -0.000000e+000
    outer loop
      vertex   -3.750000e+001 -1.892252e+002 5.000000e+001
      vertex   -3.750000e+001 -8.297517e+001 1.000000e+002
      vertex   -3.750000e+001 -8.297517e+001 0.000000e+000
    endloop
  endfacet
  facet normal -8.466365e-001 5.321716e-001 1.511851e-007
    outer loop
      vertex   6.875002e+001 9.514983e+001 5.000000e+001
      vertex   1.375000e+002 2.045248e+002 0.000000e+000
      vertex   -2.342673e-006 -1.422518e+001 0.000000e+000
    endloop
  endfacet
  facet normal -8.466365e-001 5.321716e-001 0.000000e+000
    outer loop
      vertex   6.875002e+001 9.514983e+001 5.000000e+001
      vertex   -2.342673e-006 -1.422518e+001 0.000000e+000
      vertex   -2.342673e-006 -1.422518e+001 1.000000e+002
    endloop
  endfacet
  facet normal 0.000000e+000 1.000000e+000 0.000000e+000
    outer loop
      vertex   -1.781250e+002 2.045248e+002 5.000000e+001
      vertex   -1.375000e+002 2.045248e+002 1.000000e+002
      vertex   -1.375000e+002 2.045248e+002 0.000000e+000
    endloop
  endfacet
  facet normal -8.466365e-001 5.321715e-001 0.000000e+000
    outer loop
      vertex   6.875002e+001 9.514983e+001 5.000000e+001
      vertex   1.375000e+002 2.045248e+002 1.000000e+002
      vertex   1.375000e+002 2.045248e+002 0.000000e+000
    endloop
  endfacet
  facet normal 0.000000e+000 1.000000e+000 0.000000e+000
    outer loop
      vertex   1.781250e+002 2.045248e+002 5.000000e+001
      vertex   2.187500e+002 2.045248e+002 0.000000e+000
      vertex   1.375000e+002 2.045248e+002 0.000000e+000
    endloop
  endfacet
  facet normal 0.000000e+000 1.000000e+000 0.000000e+000
    outer loop
      vertex   1.781250e+002 2.045248e+002 5.000000e+001
      vertex   1.375000e+002 2.045248e+002 0.000000e+000
      vertex   1.375000e+002 2.045248e+002 1.000000e+002
    endloop
  endfacet
  facet normal 8.459256e-001 -5.333009e-001 0.000000e+000
    outer loop
      vertex   1.281250e+002 6.077482e+001 5.000000e+001
      vertex   2.187500e+002 2.045248e+002 0.000000e+000
      vertex   2.187500e+002 2.045248e+002 1.000000e+002
    endloop
  endfacet
  facet normal 0.000000e+000 1.000000e+000 0.000000e+000
    outer loop
      vertex   1.781250e+002 2.045248e+002 5.000000e+001
      vertex   2.187500e+002 2.045248e+002 1.000000e+002
      vertex   2.187500e+002 2.045248e+002 0.000000e+000
    endloop
  endfacet
  facet normal -8.459256e-001 -5.333009e-001 0.000000e+000
    outer loop
      vertex   -1.281250e+002 6.077482e+001 5.000000e+001
      vertex   -2.187500e+002 2.045248e+002 0.000000e+000
      vertex   -3.750000e+001 -8.297517e+001 0.000000e+000
    endloop
  endfacet
  facet normal 0.000000e+000 0.000000e+000 -1.000000e+000
    outer loop
      vertex   1.375000e+002 2.045248e+002 0.000000e+000
      vertex   3.750000e+001 -8.297517e+001 0.000000e+000
      vertex   -2.342673e-006 -1.422518e+001 0.000000e+000
    endloop
  endfacet
  facet normal 0.000000e+000 0.000000e+000 -1.000000e+000
    outer loop
      vertex   2.187500e+002 2.045248e+002 0.000000e+000
      vertex   3.750000e+001 -8.297517e+001 0.000000e+000
      vertex   1.375000e+002 2.045248e+002 0.000000e+000
    endloop
  endfacet
  facet normal 0.000000e+000 -1.000000e+000 0.000000e+000
    outer loop
      vertex   -2.342673e-006 -2.954752e+002 5.000000e+001
      vertex   -3.750000e+001 -2.954752e+002 0.000000e+000
      vertex   3.750000e+001 -2.954752e+002 0.000000e+000
    endloop
  endfacet
  facet normal 0.000000e+000 1.000000e+000 0.000000e+000
    outer loop
      vertex   -1.781250e+002 2.045248e+002 5.000000e+001
      vertex   -1.375000e+002 2.045248e+002 0.000000e+000
      vertex   -2.187500e+002 2.045248e+002 0.000000e+000
    endloop
  endfacet
  facet normal 0.000000e+000 -1.000000e+000 0.000000e+000
    outer loop
      vertex   -2.342673e-006 -2.954752e+002 5.000000e+001
      vertex   3.750000e+001 -2.954752e+002 0.000000e+000
      vertex   3.750000e+001 -2.954752e+002 1.000000e+002
    endloop
  endfacet
  facet normal -0.000000e+000 0.000000e+000 -1.000000e+000
    outer loop
      vertex   -2.187500e+002 2.045248e+002 0.000000e+000
      vertex   -2.342673e-006 -1.422518e+001 0.000000e+000
      vertex   -3.750000e+001 -8.297517e+001 0.000000e+000
    endloop
  endfacet
  facet normal 0.000000e+000 0.000000e+000 -1.000000e+000
    outer loop
      vertex   -2.342673e-006 -1.422518e+001 0.000000e+000
      vertex   3.750000e+001 -8.297517e+001 0.000000e+000
      vertex   -3.750000e+001 -8.297517e+001 0.000000e+000
    endloop
  endfacet
  facet normal 8.459256e-001 -5.333009e-001 -1.149355e-007
    outer loop
      vertex   1.281250e+002 6.077482e+001 5.000000e+001
      vertex   3.750000e+001 -8.297517e+001 0.000000e+000
      vertex   2.187500e+002 2.045248e+002 0.000000e+000
    endloop
  endfacet
  facet normal 0.000000e+000 0.000000e+000 -1.000000e+000
    outer loop
      vertex   -1.375000e+002 2.045248e+002 0.000000e+000
      vertex   -2.342673e-006 -1.422518e+001 0.000000e+000
      vertex   -2.187500e+002 2.045248e+002 0.000000e+000
    endloop
  endfacet
  facet normal 8.459256e-001 -5.333010e-001 0.000000e+000
    outer loop
      vertex   1.281250e+002 6.077482e+001 5.000000e+001
      vertex   3.750000e+001 -8.297517e+001 1.000000e+002
      vertex   3.750000e+001 -8.297517e+001 0.000000e+000
    endloop
  endfacet
  facet normal 0.000000e+000 0.000000e+000 -1.000000e+000
    outer loop
      vertex   -3.750000e+001 -8.297517e+001 0.000000e+000
      vertex   3.750000e+001 -2.954752e+002 0.000000e+000
      vertex   -3.750000e+001 -2.954752e+002 0.000000e+000
    endloop
  endfacet
  facet normal 0.000000e+000 -1.000000e+000 0.000000e+000
    outer loop
      vertex   -2.342673e-006 -2.954752e+002 5.000000e+001
      vertex   -3.750000e+001 -2.954752e+002 1.000000e+002
      vertex   -3.750000e+001 -2.954752e+002 0.000000e+000
    endloop
  endfacet
  facet normal 0.000000e+000 0.000000e+000 -1.000000e+000
    outer loop
      vertex   3.750000e+001 -8.297517e+001 0.000000e+000
      vertex   3.750000e+001 -2.954752e+002 0.000000e+000
      vertex   -3.750000e+001 -8.297517e+001 0.000000e+000
    endloop
  endfacet
  facet normal -0.000000e+000 -1.000000e+000 0.000000e+000
    outer loop
      vertex   -2.342673e-006 -2.954752e+002 5.000000e+001
      vertex   3.750000e+001 -2.954752e+002 1.000000e+002
      vertex   -3.750000e+001 -2.954752e+002 1.000000e+002
    endloop
  endfacet
  facet normal -0.000000e+000 1.000000e+000 0.000000e+000
    outer loop
      vertex   1.781250e+002 2.045248e+002 5.000000e+001
      vertex   1.375000e+002 2.045248e+002 1.000000e+002
      vertex   2.187500e+002 2.045248e+002 1.000000e+002
    endloop
  endfacet
  facet normal -8.466365e-001 5.321716e-001 -7.559255e-008
    outer loop
      vertex   6.875002e+001 9.514983e+001 5.000000e+001
      vertex   -2.342673e-006 -1.422518e+001 1.000000e+002
      vertex   1.375000e+002 2.045248e+002 1.000000e+002
    endloop
  endfacet
  facet normal 8.459256e-001 -5.333009e-001 1.149355e-007
    outer loop
      vertex   1.281250e+002 6.077482e+001 5.000000e+001
      vertex   2.187500e+002 2.045248e+002 1.000000e+002
      vertex   3.750000e+001 -8.297517e+001 1.000000e+002
    endloop
  endfacet
  facet normal 1.000000e+000 0.000000e+000 0.000000e+000
    outer loop
      vertex   3.750000e+001 -1.892252e+002 5.000000e+001
      vertex   3.750000e+001 -8.297517e+001 1.000000e+002
      vertex   3.750000e+001 -2.954752e+002 1.000000e+002
    endloop
  endfacet
  facet normal 8.466365e-001 5.321715e-001 0.000000e+000
    outer loop
      vertex   -6.875000e+001 9.514983e+001 5.000000e+001
      vertex   -1.375000e+002 2.045248e+002 1.000000e+002
      vertex   -2.342673e-006 -1.422518e+001 1.000000e+002
    endloop
  endfacet
  facet normal -1.000000e+000 0.000000e+000 0.000000e+000
    outer loop
      vertex   -3.750000e+001 -1.892252e+002 5.000000e+001
      vertex   -3.750000e+001 -2.954752e+002 1.000000e+002
      vertex   -3.750000e+001 -8.297517e+001 1.000000e+002
    endloop
  endfacet
  facet normal -8.459256e-001 -5.333009e-001 0.000000e+000
    outer loop
      vertex   -1.281250e+002 6.077482e+001 5.000000e+001
      vertex   -3.750000e+001 -8.297517e+001 1.000000e+002
      vertex   -2.187500e+002 2.045248e+002 1.000000e+002
    endloop
  endfacet
  facet normal -0.000000e+000 1.000000e+000 0.000000e+000
    outer loop
      vertex   -1.781250e+002 2.045248e+002 5.000000e+001
      vertex   -2.187500e+002 2.045248e+002 1.000000e+002
      vertex   -1.375000e+002 2.045248e+002 1.000000e+002
    endloop
  endfacet
  facet normal -0.000000e+000 0.000000e+000 1.000000e+000
    outer loop
      vertex   3.750000e+001 -8.297517e+001 1.000000e+002
      vertex   -3.750000e+001 -8.297517e+001 1.000000e+002
      vertex   3.750000e+001 -2.954752e+002 1.000000e+002
    endloop
  endfacet
  facet normal 0.000000e+000 0.000000e+000 1.000000e+000
    outer loop
      vertex   -2.342673e-006 -1.422518e+001 1.000000e+002
      vertex   -3.750000e+001 -8.297517e+001 1.000000e+002
      vertex   3.750000e+001 -8.297517e+001 1.000000e+002
    endloop
  endfacet
  facet normal 0.000000e+000 -0.000000e+000 1.000000e+000
    outer loop
      vertex   -2.187500e+002 2.045248e+002 1.000000e+002
      vertex   -3.750000e+001 -8.297517e+001 1.000000e+002
      vertex   -2.342673e-006 -1.422518e+001 1.000000e+002
    endloop
  endfacet
  facet normal -0.000000e+000 0.000000e+000 1.000000e+000
    outer loop
      vertex   -1.375000e+002 2.045248e+002 1.000000e+002
      vertex   -2.187500e+002 2.045248e+002 1.000000e+002
      vertex   -2.342673e-006 -1.422518e+001 1.000000e+002
    endloop
  endfacet
  facet normal -0.000000e+000 0.000000e+000 1.000000e+000
    outer loop
      vertex   1.375000e+002 2.045248e+002 1.000000e+002
      vertex   -2.342673e-006 -1.422518e+001 1.000000e+002
      vertex   3.750000e+001 -8.297517e+001 1.000000e+002
    endloop
  endfacet
  facet normal -0.000000e+000 0.000000e+000 1.000000e+000
    outer loop
      vertex   2.187500e+002 2.045248e+002 1.000000e+002
      vertex   1.375000e+002 2.045248e+002 1.000000e+002
      vertex   3.750000e+001 -8.297517e+001 1.000000e+002
    endloop
  endfacet
  facet normal 0.000000e+000 0.000000e+000 1.000000e+000
    outer loop
      vertex   -3.750000e+001 -8.297517e+001 1.000000e+002
      vertex   -3.750000e+001 -2.954752e+002 1.000000e+002
      vertex   3.750000e+001 -2.954752e+002 1.000000e+002
    endloop
  endfacet
endsolid
