solid ascii
  facet normal -7.886319e-001 6.148656e-001 -3.341661e-007
    outer loop
      vertex   -4.918027e+001 1.045426e+001 5.000000e+001
      vertex   9.456975e+001 1.948293e+002 0.000000e+000
      vertex   -1.929303e+002 -1.739207e+002 0.000000e+000
    endloop
  endfacet
  facet normal 1.000000e+000 0.000000e+000 -0.000000e+000
    outer loop
      vertex   2.008197e+002 -2.114207e+002 5.000000e+001
      vertex   2.008197e+002 -1.801707e+002 0.000000e+000
      vertex   2.008197e+002 -1.801707e+002 1.000000e+002
    endloop
  endfacet
  facet normal -7.886320e-001 6.148655e-001 0.000000e+000
    outer loop
      vertex   -4.918027e+001 1.045426e+001 5.000000e+001
      vertex   -1.929303e+002 -1.739207e+002 0.000000e+000
      vertex   -1.929303e+002 -1.739207e+002 1.000000e+002
    endloop
  endfacet
  facet normal 1.000000e+000 0.000000e+000 0.000000e+000
    outer loop
      vertex   2.008197e+002 -2.114207e+002 5.000000e+001
      vertex   2.008197e+002 -2.426707e+002 1.000000e+002
      vertex   2.008197e+002 -2.426707e+002 0.000000e+000
    endloop
  endfacet
  facet normal -1.000000e+000 0.000000e+000 0.000000e+000
    outer loop
      vertex   -1.929303e+002 -2.082957e+002 5.000000e+001
      vertex   -1.929303e+002 -1.739207e+002 0.000000e+000
      vertex   -1.929303e+002 -2.426707e+002 0.000000e+000
    endloop
  endfacet
  facet normal -1.000000e+000 0.000000e+000 0.000000e+000
    outer loop
      vertex   -1.929303e+002 -2.082957e+002 5.000000e+001
      vertex   -1.929303e+002 -2.426707e+002 0.000000e+000
      vertex   -1.929303e+002 -2.426707e+002 1.000000e+002
    endloop
  endfacet
  facet normal -7.886319e-001 6.148657e-001 0.000000e+000
    outer loop
      vertex   -4.918027e+001 1.045426e+001 5.000000e+001
      vertex   9.456975e+001 1.948293e+002 1.000000e+002
      vertex   9.456975e+001 1.948293e+002 0.000000e+000
    endloop
  endfacet
  facet normal -1.000000e+000 0.000000e+000 -0.000000e+000
    outer loop
      vertex   -1.929303e+002 -2.082957e+002 5.000000e+001
      vertex   -1.929303e+002 -1.739207e+002 1.000000e+002
      vertex   -1.929303e+002 -1.739207e+002 0.000000e+000
    endloop
  endfacet
  facet normal 0.000000e+000 -1.000000e+000 0.000000e+000
    outer loop
      vertex   -3.668027e+001 1.948293e+002 5.000000e+001
      vertex   -1.679303e+002 1.948293e+002 0.000000e+000
      vertex   9.456975e+001 1.948293e+002 0.000000e+000
    endloop
  endfacet
  facet normal 0.000000e+000 -1.000000e+000 0.000000e+000
    outer loop
      vertex   -3.668027e+001 1.948293e+002 5.000000e+001
      vertex   9.456975e+001 1.948293e+002 0.000000e+000
      vertex   9.456975e+001 1.948293e+002 1.000000e+002
    endloop
  endfacet
  facet normal 0.000000e+000 -1.000000e+000 0.000000e+000
    outer loop
      vertex   3.944732e+000 -2.426707e+002 5.000000e+001
      vertex   2.008197e+002 -2.426707e+002 0.000000e+000
      vertex   2.008197e+002 -2.426707e+002 1.000000e+002
    endloop
  endfacet
  facet normal 0.000000e+000 -1.000000e+000 0.000000e+000
    outer loop
      vertex   -3.668027e+001 1.948293e+002 5.000000e+001
      vertex   -1.679303e+002 1.948293e+002 1.000000e+002
      vertex   -1.679303e+002 1.948293e+002 0.000000e+000
    endloop
  endfacet
  facet normal -1.000000e+000 0.000000e+000 0.000000e+000
    outer loop
      vertex   -1.679303e+002 2.260793e+002 5.000000e+001
      vertex   -1.679303e+002 2.573293e+002 0.000000e+000
      vertex   -1.679303e+002 1.948293e+002 0.000000e+000
    endloop
  endfacet
  facet normal -1.000000e+000 0.000000e+000 0.000000e+000
    outer loop
      vertex   -1.679303e+002 2.260793e+002 5.000000e+001
      vertex   -1.679303e+002 1.948293e+002 0.000000e+000
      vertex   -1.679303e+002 1.948293e+002 1.000000e+002
    endloop
  endfacet
  facet normal 0.000000e+000 -1.000000e+000 0.000000e+000
    outer loop
      vertex   3.944732e+000 -2.426707e+002 5.000000e+001
      vertex   -1.929303e+002 -2.426707e+002 1.000000e+002
      vertex   -1.929303e+002 -2.426707e+002 0.000000e+000
    endloop
  endfacet
  facet normal -1.000000e+000 0.000000e+000 -0.000000e+000
    outer loop
      vertex   -1.679303e+002 2.260793e+002 5.000000e+001
      vertex   -1.679303e+002 2.573293e+002 1.000000e+002
      vertex   -1.679303e+002 2.573293e+002 0.000000e+000
    endloop
  endfacet
  facet normal 1.000000e+000 0.000000e+000 0.000000e+000
    outer loop
      vertex   1.820697e+002 2.260793e+002 5.000000e+001
      vertex   1.820697e+002 1.948293e+002 0.000000e+000
      vertex   1.820697e+002 2.573293e+002 0.000000e+000
    endloop
  endfacet
  facet normal 1.000000e+000 0.000000e+000 -0.000000e+000
    outer loop
      vertex   1.820697e+002 2.260793e+002 5.000000e+001
      vertex   1.820697e+002 2.573293e+002 0.000000e+000
      vertex   1.820697e+002 2.573293e+002 1.000000e+002
    endloop
  endfacet
  facet normal 0.000000e+000 1.000000e+000 0.000000e+000
    outer loop
      vertex   7.069732e+000 2.573293e+002 5.000000e+001
      vertex   -1.679303e+002 2.573293e+002 0.000000e+000
      vertex   -1.679303e+002 2.573293e+002 1.000000e+002
    endloop
  endfacet
  facet normal 1.000000e+000 0.000000e+000 0.000000e+000
    outer loop
      vertex   1.820697e+002 2.260793e+002 5.000000e+001
      vertex   1.820697e+002 1.948293e+002 1.000000e+002
      vertex   1.820697e+002 1.948293e+002 0.000000e+000
    endloop
  endfacet
  facet normal 7.872280e-001 -6.166620e-001 1.640059e-007
    outer loop
      vertex   3.519473e+001 7.329262e+000 5.000000e+001
      vertex   -1.116803e+002 -1.801707e+002 0.000000e+000
      vertex   1.820697e+002 1.948293e+002 0.000000e+000
    endloop
  endfacet
  facet normal 7.872280e-001 -6.166621e-001 0.000000e+000
    outer loop
      vertex   3.519473e+001 7.329262e+000 5.000000e+001
      vertex   1.820697e+002 1.948293e+002 0.000000e+000
      vertex   1.820697e+002 1.948293e+002 1.000000e+002
    endloop
  endfacet
  facet normal 0.000000e+000 1.000000e+000 0.000000e+000
    outer loop
      vertex   7.069732e+000 2.573293e+002 5.000000e+001
      vertex   1.820697e+002 2.573293e+002 1.000000e+002
      vertex   1.820697e+002 2.573293e+002 0.000000e+000
    endloop
  endfacet
  facet normal 7.872281e-001 -6.166620e-001 0.000000e+000
    outer loop
      vertex   3.519473e+001 7.329262e+000 5.000000e+001
      vertex   -1.116803e+002 -1.801707e+002 1.000000e+002
      vertex   -1.116803e+002 -1.801707e+002 0.000000e+000
    endloop
  endfacet
  facet normal 0.000000e+000 1.000000e+000 0.000000e+000
    outer loop
      vertex   4.456973e+001 -1.801707e+002 5.000000e+001
      vertex   2.008197e+002 -1.801707e+002 0.000000e+000
      vertex   -1.116803e+002 -1.801707e+002 0.000000e+000
    endloop
  endfacet
  facet normal 0.000000e+000 1.000000e+000 0.000000e+000
    outer loop
      vertex   4.456973e+001 -1.801707e+002 5.000000e+001
      vertex   -1.116803e+002 -1.801707e+002 0.000000e+000
      vertex   -1.116803e+002 -1.801707e+002 1.000000e+002
    endloop
  endfacet
  facet normal 0.000000e+000 0.000000e+000 -1.000000e+000
    outer loop
      vertex   2.008197e+002 -2.426707e+002 0.000000e+000
      vertex   -1.929303e+002 -2.426707e+002 0.000000e+000
      vertex   -1.116803e+002 -1.801707e+002 0.000000e+000
    endloop
  endfacet
  facet normal 0.000000e+000 1.000000e+000 0.000000e+000
    outer loop
      vertex   4.456973e+001 -1.801707e+002 5.000000e+001
      vertex   2.008197e+002 -1.801707e+002 1.000000e+002
      vertex   2.008197e+002 -1.801707e+002 0.000000e+000
    endloop
  endfacet
  facet normal 1.000000e+000 0.000000e+000 0.000000e+000
    outer loop
      vertex   2.008197e+002 -2.114207e+002 5.000000e+001
      vertex   2.008197e+002 -2.426707e+002 0.000000e+000
      vertex   2.008197e+002 -1.801707e+002 0.000000e+000
    endloop
  endfacet
  facet normal 0.000000e+000 0.000000e+000 -1.000000e+000
    outer loop
      vertex   2.008197e+002 -1.801707e+002 0.000000e+000
      vertex   2.008197e+002 -2.426707e+002 0.000000e+000
      vertex   -1.116803e+002 -1.801707e+002 0.000000e+000
    endloop
  endfacet
  facet normal 0.000000e+000 0.000000e+000 -1.000000e+000
    outer loop
      vertex   9.456975e+001 1.948293e+002 0.000000e+000
      vertex   -1.679303e+002 1.948293e+002 0.000000e+000
      vertex   -1.679303e+002 2.573293e+002 0.000000e+000
    endloop
  endfacet
  facet normal 0.000000e+000 0.000000e+000 -1.000000e+000
    outer loop
      vertex   1.820697e+002 1.948293e+002 0.000000e+000
      vertex   -1.116803e+002 -1.801707e+002 0.000000e+000
      vertex   9.456975e+001 1.948293e+002 0.000000e+000
    endloop
  endfacet
  facet normal 0.000000e+000 -1.000000e+000 0.000000e+000
    outer loop
      vertex   3.944732e+000 -2.426707e+002 5.000000e+001
      vertex   -1.929303e+002 -2.426707e+002 0.000000e+000
      vertex   2.008197e+002 -2.426707e+002 0.000000e+000
    endloop
  endfacet
  facet normal 0.000000e+000 0.000000e+000 -1.000000e+000
    outer loop
      vertex   1.820697e+002 2.573293e+002 0.000000e+000
      vertex   1.820697e+002 1.948293e+002 0.000000e+000
      vertex   -1.679303e+002 2.573293e+002 0.000000e+000
    endloop
  endfacet
  facet normal 0.000000e+000 0.000000e+000 -1.000000e+000
    outer loop
      vertex   9.456975e+001 1.948293e+002 0.000000e+000
      vertex   -1.116803e+002 -1.801707e+002 0.000000e+000
      vertex   -1.929303e+002 -1.739207e+002 0.000000e+000
    endloop
  endfacet
  facet normal 0.000000e+000 1.000000e+000 0.000000e+000
    outer loop
      vertex   7.069732e+000 2.573293e+002 5.000000e+001
      vertex   1.820697e+002 2.573293e+002 0.000000e+000
      vertex   -1.679303e+002 2.573293e+002 0.000000e+000
    endloop
  endfacet
  facet normal 0.000000e+000 0.000000e+000 -1.000000e+000
    outer loop
      vertex   1.820697e+002 1.948293e+002 0.000000e+000
      vertex   9.456975e+001 1.948293e+002 0.000000e+000
      vertex   -1.679303e+002 2.573293e+002 0.000000e+000
    endloop
  endfacet
  facet normal 0.000000e+000 0.000000e+000 -1.000000e+000
    outer loop
      vertex   -1.116803e+002 -1.801707e+002 0.000000e+000
      vertex   -1.929303e+002 -2.426707e+002 0.000000e+000
      vertex   -1.929303e+002 -1.739207e+002 0.000000e+000
    endloop
  endfacet
  facet normal 1.000000e+000 0.000000e+000 0.000000e+000
    outer loop
      vertex   1.820697e+002 2.260793e+002 5.000000e+001
      vertex   1.820697e+002 2.573293e+002 1.000000e+002
      vertex   1.820697e+002 1.948293e+002 1.000000e+002
    endloop
  endfacet
  facet normal -1.000000e+000 0.000000e+000 0.000000e+000
    outer loop
      vertex   -1.679303e+002 2.260793e+002 5.000000e+001
      vertex   -1.679303e+002 1.948293e+002 1.000000e+002
      vertex   -1.679303e+002 2.573293e+002 1.000000e+002
    endloop
  endfacet
  facet normal -0.000000e+000 -1.000000e+000 0.000000e+000
    outer loop
      vertex   3.944732e+000 -2.426707e+002 5.000000e+001
      vertex   2.008197e+002 -2.426707e+002 1.000000e+002
      vertex   -1.929303e+002 -2.426707e+002 1.000000e+002
    endloop
  endfacet
  facet normal -0.000000e+000 1.000000e+000 0.000000e+000
    outer loop
      vertex   4.456973e+001 -1.801707e+002 5.000000e+001
      vertex   -1.116803e+002 -1.801707e+002 1.000000e+002
      vertex   2.008197e+002 -1.801707e+002 1.000000e+002
    endloop
  endfacet
  facet normal 1.000000e+000 0.000000e+000 0.000000e+000
    outer loop
      vertex   2.008197e+002 -2.114207e+002 5.000000e+001
      vertex   2.008197e+002 -1.801707e+002 1.000000e+002
      vertex   2.008197e+002 -2.426707e+002 1.000000e+002
    endloop
  endfacet
  facet normal -1.000000e+000 0.000000e+000 0.000000e+000
    outer loop
      vertex   -1.929303e+002 -2.082957e+002 5.000000e+001
      vertex   -1.929303e+002 -2.426707e+002 1.000000e+002
      vertex   -1.929303e+002 -1.739207e+002 1.000000e+002
    endloop
  endfacet
  facet normal -0.000000e+000 -1.000000e+000 0.000000e+000
    outer loop
      vertex   -3.668027e+001 1.948293e+002 5.000000e+001
      vertex   9.456975e+001 1.948293e+002 1.000000e+002
      vertex   -1.679303e+002 1.948293e+002 1.000000e+002
    endloop
  endfacet
  facet normal -0.000000e+000 1.000000e+000 0.000000e+000
    outer loop
      vertex   7.069732e+000 2.573293e+002 5.000000e+001
      vertex   -1.679303e+002 2.573293e+002 1.000000e+002
      vertex   1.820697e+002 2.573293e+002 1.000000e+002
    endloop
  endfacet
  facet normal 7.872280e-001 -6.166620e-001 -3.280117e-007
    outer loop
      vertex   3.519473e+001 7.329262e+000 5.000000e+001
      vertex   1.820697e+002 1.948293e+002 1.000000e+002
      vertex   -1.116803e+002 -1.801707e+002 1.000000e+002
    endloop
  endfacet
  facet normal -7.886319e-001 6.148656e-001 1.670830e-007
    outer loop
      vertex   -4.918027e+001 1.045426e+001 5.000000e+001
      vertex   -1.929303e+002 -1.739207e+002 1.000000e+002
      vertex   9.456975e+001 1.948293e+002 1.000000e+002
    endloop
  endfacet
  facet normal 0.000000e+000 0.000000e+000 1.000000e+000
    outer loop
      vertex   2.008197e+002 -2.426707e+002 1.000000e+002
      vertex   -1.116803e+002 -1.801707e+002 1.000000e+002
      vertex   -1.929303e+002 -2.426707e+002 1.000000e+002
    endloop
  endfacet
  facet normal -0.000000e+000 0.000000e+000 1.000000e+000
    outer loop
      vertex   2.008197e+002 -1.801707e+002 1.000000e+002
      vertex   -1.116803e+002 -1.801707e+002 1.000000e+002
      vertex   2.008197e+002 -2.426707e+002 1.000000e+002
    endloop
  endfacet
  facet normal -0.000000e+000 0.000000e+000 1.000000e+000
    outer loop
      vertex   9.456975e+001 1.948293e+002 1.000000e+002
      vertex   -1.929303e+002 -1.739207e+002 1.000000e+002
      vertex   -1.116803e+002 -1.801707e+002 1.000000e+002
    endloop
  endfacet
  facet normal 0.000000e+000 0.000000e+000 1.000000e+000
    outer loop
      vertex   9.456975e+001 1.948293e+002 1.000000e+002
      vertex   -1.679303e+002 2.573293e+002 1.000000e+002
      vertex   -1.679303e+002 1.948293e+002 1.000000e+002
    endloop
  endfacet
  facet normal 0.000000e+000 0.000000e+000 1.000000e+000
    outer loop
      vertex   1.820697e+002 1.948293e+002 1.000000e+002
      vertex   -1.679303e+002 2.573293e+002 1.000000e+002
      vertex   9.456975e+001 1.948293e+002 1.000000e+002
    endloop
  endfacet
  facet normal -0.000000e+000 0.000000e+000 1.000000e+000
    outer loop
      vertex   1.820697e+002 1.948293e+002 1.000000e+002
      vertex   9.456975e+001 1.948293e+002 1.000000e+002
      vertex   -1.116803e+002 -1.801707e+002 1.000000e+002
    endloop
  endfacet
  facet normal -0.000000e+000 0.000000e+000 1.000000e+000
    outer loop
      vertex   1.820697e+002 2.573293e+002 1.000000e+002
      vertex   -1.679303e+002 2.573293e+002 1.000000e+002
      vertex   1.820697e+002 1.948293e+002 1.000000e+002
    endloop
  endfacet
  facet normal 0.000000e+000 0.000000e+000 1.000000e+000
    outer loop
      vertex   -1.116803e+002 -1.801707e+002 1.000000e+002
      vertex   -1.929303e+002 -1.739207e+002 1.000000e+002
      vertex   -1.929303e+002 -2.426707e+002 1.000000e+002
    endloop
  endfacet
endsolid
