solid ascii
  facet normal 9.363292e-001 -3.511234e-001 0.000000e+000
    outer loop
      vertex   -3.707133e+001 8.091565e+001 5.000000e+001
      vertex   4.286641e-001 1.809156e+002 0.000000e+000
      vertex   4.286641e-001 1.809156e+002 1.000000e+002
    endloop
  endfacet
  facet normal 0.000000e+000 -1.000000e+000 0.000000e+000
    outer loop
      vertex   4.286641e-001 -8.158437e+001 5.000000e+001
      vertex   9.417867e+001 -8.158437e+001 0.000000e+000
      vertex   9.417867e+001 -8.158437e+001 1.000000e+002
    endloop
  endfacet
  facet normal 9.401361e-001 3.407993e-001 -1.468963e-007
    outer loop
      vertex   1.285537e+002 1.841565e+001 5.000000e+001
      vertex   2.191787e+002 -2.315844e+002 0.000000e+000
      vertex   3.792867e+001 2.684156e+002 0.000000e+000
    endloop
  endfacet
  facet normal 0.000000e+000 -1.000000e+000 0.000000e+000
    outer loop
      vertex   4.286641e-001 -8.158437e+001 5.000000e+001
      vertex   -9.332133e+001 -8.158437e+001 1.000000e+002
      vertex   -9.332133e+001 -8.158437e+001 0.000000e+000
    endloop
  endfacet
  facet normal -9.401361e-001 3.407993e-001 0.000000e+000
    outer loop
      vertex   -1.276963e+002 1.841565e+001 5.000000e+001
      vertex   -3.707133e+001 2.684156e+002 0.000000e+000
      vertex   -2.183213e+002 -2.315844e+002 0.000000e+000
    endloop
  endfacet
  facet normal -9.401360e-001 3.407993e-001 0.000000e+000
    outer loop
      vertex   -1.276963e+002 1.841565e+001 5.000000e+001
      vertex   -2.183213e+002 -2.315844e+002 0.000000e+000
      vertex   -2.183213e+002 -2.315844e+002 1.000000e+002
    endloop
  endfacet
  facet normal 9.401360e-001 3.407994e-001 -0.000000e+000
    outer loop
      vertex   1.285537e+002 1.841565e+001 5.000000e+001
      vertex   3.792867e+001 2.684156e+002 0.000000e+000
      vertex   3.792867e+001 2.684156e+002 1.000000e+002
    endloop
  endfacet
  facet normal -9.401360e-001 3.407993e-001 0.000000e+000
    outer loop
      vertex   -1.276963e+002 1.841565e+001 5.000000e+001
      vertex   -3.707133e+001 2.684156e+002 1.000000e+002
      vertex   -3.707133e+001 2.684156e+002 0.000000e+000
    endloop
  endfacet
  facet normal -9.264666e-001 -3.763770e-001 0.000000e+000
    outer loop
      vertex   4.105367e+001 8.091565e+001 5.000000e+001
      vertex   4.286641e-001 1.809156e+002 0.000000e+000
      vertex   8.167867e+001 -1.908435e+001 0.000000e+000
    endloop
  endfacet
  facet normal -9.264666e-001 -3.763770e-001 0.000000e+000
    outer loop
      vertex   4.105367e+001 8.091565e+001 5.000000e+001
      vertex   8.167867e+001 -1.908435e+001 0.000000e+000
      vertex   8.167867e+001 -1.908435e+001 1.000000e+002
    endloop
  endfacet
  facet normal 9.401360e-001 3.407993e-001 0.000000e+000
    outer loop
      vertex   1.285537e+002 1.841565e+001 5.000000e+001
      vertex   2.191787e+002 -2.315844e+002 1.000000e+002
      vertex   2.191787e+002 -2.315844e+002 0.000000e+000
    endloop
  endfacet
  facet normal -9.264666e-001 -3.763770e-001 -0.000000e+000
    outer loop
      vertex   4.105367e+001 8.091565e+001 5.000000e+001
      vertex   4.286641e-001 1.809156e+002 1.000000e+002
      vertex   4.286641e-001 1.809156e+002 0.000000e+000
    endloop
  endfacet
  facet normal 0.000000e+000 -1.000000e+000 0.000000e+000
    outer loop
      vertex   1.848037e+002 -2.315844e+002 5.000000e+001
      vertex   1.504287e+002 -2.315844e+002 0.000000e+000
      vertex   2.191787e+002 -2.315844e+002 0.000000e+000
    endloop
  endfacet
  facet normal 0.000000e+000 -1.000000e+000 0.000000e+000
    outer loop
      vertex   1.848037e+002 -2.315844e+002 5.000000e+001
      vertex   2.191787e+002 -2.315844e+002 0.000000e+000
      vertex   2.191787e+002 -2.315844e+002 1.000000e+002
    endloop
  endfacet
  facet normal 0.000000e+000 -1.000000e+000 0.000000e+000
    outer loop
      vertex   4.286641e-001 -8.158437e+001 5.000000e+001
      vertex   -9.332133e+001 -8.158437e+001 0.000000e+000
      vertex   9.417867e+001 -8.158437e+001 0.000000e+000
    endloop
  endfacet
  facet normal 0.000000e+000 -1.000000e+000 0.000000e+000
    outer loop
      vertex   1.848037e+002 -2.315844e+002 5.000000e+001
      vertex   1.504287e+002 -2.315844e+002 1.000000e+002
      vertex   1.504287e+002 -2.315844e+002 0.000000e+000
    endloop
  endfacet
  facet normal -9.363292e-001 -3.511235e-001 0.000000e+000
    outer loop
      vertex   1.223037e+002 -1.565844e+002 5.000000e+001
      vertex   9.417867e+001 -8.158437e+001 0.000000e+000
      vertex   1.504287e+002 -2.315844e+002 0.000000e+000
    endloop
  endfacet
  facet normal -9.363292e-001 -3.511235e-001 0.000000e+000
    outer loop
      vertex   1.223037e+002 -1.565844e+002 5.000000e+001
      vertex   1.504287e+002 -2.315844e+002 0.000000e+000
      vertex   1.504287e+002 -2.315844e+002 1.000000e+002
    endloop
  endfacet
  facet normal 9.363292e-001 -3.511234e-001 0.000000e+000
    outer loop
      vertex   -3.707133e+001 8.091565e+001 5.000000e+001
      vertex   -7.457133e+001 -1.908435e+001 1.000000e+002
      vertex   -7.457133e+001 -1.908435e+001 0.000000e+000
    endloop
  endfacet
  facet normal -9.363292e-001 -3.511235e-001 -0.000000e+000
    outer loop
      vertex   1.223037e+002 -1.565844e+002 5.000000e+001
      vertex   9.417867e+001 -8.158437e+001 1.000000e+002
      vertex   9.417867e+001 -8.158437e+001 0.000000e+000
    endloop
  endfacet
  facet normal 0.000000e+000 1.000000e+000 0.000000e+000
    outer loop
      vertex   3.553664e+000 -1.908435e+001 5.000000e+001
      vertex   8.167867e+001 -1.908435e+001 0.000000e+000
      vertex   -7.457133e+001 -1.908435e+001 0.000000e+000
    endloop
  endfacet
  facet normal 0.000000e+000 1.000000e+000 0.000000e+000
    outer loop
      vertex   3.553664e+000 -1.908435e+001 5.000000e+001
      vertex   -7.457133e+001 -1.908435e+001 0.000000e+000
      vertex   -7.457133e+001 -1.908435e+001 1.000000e+002
    endloop
  endfacet
  facet normal 9.363292e-001 -3.511234e-001 0.000000e+000
    outer loop
      vertex   -1.214463e+002 -1.565844e+002 5.000000e+001
      vertex   -9.332133e+001 -8.158437e+001 0.000000e+000
      vertex   -9.332133e+001 -8.158437e+001 1.000000e+002
    endloop
  endfacet
  facet normal 0.000000e+000 1.000000e+000 0.000000e+000
    outer loop
      vertex   3.553664e+000 -1.908435e+001 5.000000e+001
      vertex   8.167867e+001 -1.908435e+001 1.000000e+002
      vertex   8.167867e+001 -1.908435e+001 0.000000e+000
    endloop
  endfacet
  facet normal 0.000000e+000 1.000000e+000 0.000000e+000
    outer loop
      vertex   4.286641e-001 2.684156e+002 5.000000e+001
      vertex   3.792867e+001 2.684156e+002 0.000000e+000
      vertex   -3.707133e+001 2.684156e+002 0.000000e+000
    endloop
  endfacet
  facet normal 0.000000e+000 1.000000e+000 0.000000e+000
    outer loop
      vertex   4.286641e-001 2.684156e+002 5.000000e+001
      vertex   -3.707133e+001 2.684156e+002 0.000000e+000
      vertex   -3.707133e+001 2.684156e+002 1.000000e+002
    endloop
  endfacet
  facet normal 9.363291e-001 -3.511235e-001 0.000000e+000
    outer loop
      vertex   -1.214463e+002 -1.565844e+002 5.000000e+001
      vertex   -1.495713e+002 -2.315844e+002 1.000000e+002
      vertex   -1.495713e+002 -2.315844e+002 0.000000e+000
    endloop
  endfacet
  facet normal 0.000000e+000 1.000000e+000 0.000000e+000
    outer loop
      vertex   4.286641e-001 2.684156e+002 5.000000e+001
      vertex   3.792867e+001 2.684156e+002 1.000000e+002
      vertex   3.792867e+001 2.684156e+002 0.000000e+000
    endloop
  endfacet
  facet normal 0.000000e+000 0.000000e+000 -1.000000e+000
    outer loop
      vertex   3.792867e+001 2.684156e+002 0.000000e+000
      vertex   2.191787e+002 -2.315844e+002 0.000000e+000
      vertex   -3.707133e+001 2.684156e+002 0.000000e+000
    endloop
  endfacet
  facet normal -0.000000e+000 0.000000e+000 -1.000000e+000
    outer loop
      vertex   -3.707133e+001 2.684156e+002 0.000000e+000
      vertex   4.286641e-001 1.809156e+002 0.000000e+000
      vertex   -2.183213e+002 -2.315844e+002 0.000000e+000
    endloop
  endfacet
  facet normal 0.000000e+000 -1.000000e+000 0.000000e+000
    outer loop
      vertex   -1.839463e+002 -2.315844e+002 5.000000e+001
      vertex   -1.495713e+002 -2.315844e+002 0.000000e+000
      vertex   -1.495713e+002 -2.315844e+002 1.000000e+002
    endloop
  endfacet
  facet normal 0.000000e+000 0.000000e+000 -1.000000e+000
    outer loop
      vertex   -3.707133e+001 2.684156e+002 0.000000e+000
      vertex   2.191787e+002 -2.315844e+002 0.000000e+000
      vertex   4.286641e-001 1.809156e+002 0.000000e+000
    endloop
  endfacet
  facet normal 9.363292e-001 -3.511234e-001 0.000000e+000
    outer loop
      vertex   -3.707133e+001 8.091565e+001 5.000000e+001
      vertex   -7.457133e+001 -1.908435e+001 0.000000e+000
      vertex   4.286641e-001 1.809156e+002 0.000000e+000
    endloop
  endfacet
  facet normal 0.000000e+000 0.000000e+000 -1.000000e+000
    outer loop
      vertex   4.286641e-001 1.809156e+002 0.000000e+000
      vertex   2.191787e+002 -2.315844e+002 0.000000e+000
      vertex   8.167867e+001 -1.908435e+001 0.000000e+000
    endloop
  endfacet
  facet normal -0.000000e+000 0.000000e+000 -1.000000e+000
    outer loop
      vertex   4.286641e-001 1.809156e+002 0.000000e+000
      vertex   -7.457133e+001 -1.908435e+001 0.000000e+000
      vertex   -2.183213e+002 -2.315844e+002 0.000000e+000
    endloop
  endfacet
  facet normal 0.000000e+000 0.000000e+000 -1.000000e+000
    outer loop
      vertex   2.191787e+002 -2.315844e+002 0.000000e+000
      vertex   1.504287e+002 -2.315844e+002 0.000000e+000
      vertex   8.167867e+001 -1.908435e+001 0.000000e+000
    endloop
  endfacet
  facet normal 9.363292e-001 -3.511235e-001 -1.219179e-007
    outer loop
      vertex   -1.214463e+002 -1.565844e+002 5.000000e+001
      vertex   -1.495713e+002 -2.315844e+002 0.000000e+000
      vertex   -9.332133e+001 -8.158437e+001 0.000000e+000
    endloop
  endfacet
  facet normal 0.000000e+000 0.000000e+000 -1.000000e+000
    outer loop
      vertex   8.167867e+001 -1.908435e+001 0.000000e+000
      vertex   9.417867e+001 -8.158437e+001 0.000000e+000
      vertex   -7.457133e+001 -1.908435e+001 0.000000e+000
    endloop
  endfacet
  facet normal 0.000000e+000 0.000000e+000 -1.000000e+000
    outer loop
      vertex   -9.332133e+001 -8.158437e+001 0.000000e+000
      vertex   -1.495713e+002 -2.315844e+002 0.000000e+000
      vertex   -2.183213e+002 -2.315844e+002 0.000000e+000
    endloop
  endfacet
  facet normal 0.000000e+000 -1.000000e+000 0.000000e+000
    outer loop
      vertex   -1.839463e+002 -2.315844e+002 5.000000e+001
      vertex   -2.183213e+002 -2.315844e+002 0.000000e+000
      vertex   -1.495713e+002 -2.315844e+002 0.000000e+000
    endloop
  endfacet
  facet normal 0.000000e+000 0.000000e+000 -1.000000e+000
    outer loop
      vertex   9.417867e+001 -8.158437e+001 0.000000e+000
      vertex   -9.332133e+001 -8.158437e+001 0.000000e+000
      vertex   -7.457133e+001 -1.908435e+001 0.000000e+000
    endloop
  endfacet
  facet normal 0.000000e+000 0.000000e+000 -1.000000e+000
    outer loop
      vertex   8.167867e+001 -1.908435e+001 0.000000e+000
      vertex   1.504287e+002 -2.315844e+002 0.000000e+000
      vertex   9.417867e+001 -8.158437e+001 0.000000e+000
    endloop
  endfacet
  facet normal 0.000000e+000 -1.000000e+000 0.000000e+000
    outer loop
      vertex   -1.839463e+002 -2.315844e+002 5.000000e+001
      vertex   -2.183213e+002 -2.315844e+002 1.000000e+002
      vertex   -2.183213e+002 -2.315844e+002 0.000000e+000
    endloop
  endfacet
  facet normal -0.000000e+000 0.000000e+000 -1.000000e+000
    outer loop
      vertex   -7.457133e+001 -1.908435e+001 0.000000e+000
      vertex   -9.332133e+001 -8.158437e+001 0.000000e+000
      vertex   -2.183213e+002 -2.315844e+002 0.000000e+000
    endloop
  endfacet
  facet normal -0.000000e+000 1.000000e+000 0.000000e+000
    outer loop
      vertex   4.286641e-001 2.684156e+002 5.000000e+001
      vertex   -3.707133e+001 2.684156e+002 1.000000e+002
      vertex   3.792867e+001 2.684156e+002 1.000000e+002
    endloop
  endfacet
  facet normal 9.363292e-001 -3.511235e-001 1.219179e-007
    outer loop
      vertex   -1.214463e+002 -1.565844e+002 5.000000e+001
      vertex   -9.332133e+001 -8.158437e+001 1.000000e+002
      vertex   -1.495713e+002 -2.315844e+002 1.000000e+002
    endloop
  endfacet
  facet normal -0.000000e+000 1.000000e+000 0.000000e+000
    outer loop
      vertex   3.553664e+000 -1.908435e+001 5.000000e+001
      vertex   -7.457133e+001 -1.908435e+001 1.000000e+002
      vertex   8.167867e+001 -1.908435e+001 1.000000e+002
    endloop
  endfacet
  facet normal -9.363292e-001 -3.511235e-001 0.000000e+000
    outer loop
      vertex   1.223037e+002 -1.565844e+002 5.000000e+001
      vertex   1.504287e+002 -2.315844e+002 1.000000e+002
      vertex   9.417867e+001 -8.158437e+001 1.000000e+002
    endloop
  endfacet
  facet normal -0.000000e+000 -1.000000e+000 0.000000e+000
    outer loop
      vertex   4.286641e-001 -8.158437e+001 5.000000e+001
      vertex   9.417867e+001 -8.158437e+001 1.000000e+002
      vertex   -9.332133e+001 -8.158437e+001 1.000000e+002
    endloop
  endfacet
  facet normal -0.000000e+000 -1.000000e+000 0.000000e+000
    outer loop
      vertex   1.848037e+002 -2.315844e+002 5.000000e+001
      vertex   2.191787e+002 -2.315844e+002 1.000000e+002
      vertex   1.504287e+002 -2.315844e+002 1.000000e+002
    endloop
  endfacet
  facet normal -9.264666e-001 -3.763770e-001 0.000000e+000
    outer loop
      vertex   4.105367e+001 8.091565e+001 5.000000e+001
      vertex   8.167867e+001 -1.908435e+001 1.000000e+002
      vertex   4.286641e-001 1.809156e+002 1.000000e+002
    endloop
  endfacet
  facet normal -9.401361e-001 3.407993e-001 0.000000e+000
    outer loop
      vertex   -1.276963e+002 1.841565e+001 5.000000e+001
      vertex   -2.183213e+002 -2.315844e+002 1.000000e+002
      vertex   -3.707133e+001 2.684156e+002 1.000000e+002
    endloop
  endfacet
  facet normal -0.000000e+000 -1.000000e+000 0.000000e+000
    outer loop
      vertex   -1.839463e+002 -2.315844e+002 5.000000e+001
      vertex   -1.495713e+002 -2.315844e+002 1.000000e+002
      vertex   -2.183213e+002 -2.315844e+002 1.000000e+002
    endloop
  endfacet
  facet normal 9.401361e-001 3.407993e-001 1.468963e-007
    outer loop
      vertex   1.285537e+002 1.841565e+001 5.000000e+001
      vertex   3.792867e+001 2.684156e+002 1.000000e+002
      vertex   2.191787e+002 -2.315844e+002 1.000000e+002
    endloop
  endfacet
  facet normal 9.363292e-001 -3.511234e-001 0.000000e+000
    outer loop
      vertex   -3.707133e+001 8.091565e+001 5.000000e+001
      vertex   4.286641e-001 1.809156e+002 1.000000e+002
      vertex   -7.457133e+001 -1.908435e+001 1.000000e+002
    endloop
  endfacet
  facet normal 0.000000e+000 0.000000e+000 1.000000e+000
    outer loop
      vertex   2.191787e+002 -2.315844e+002 1.000000e+002
      vertex   8.167867e+001 -1.908435e+001 1.000000e+002
      vertex   1.504287e+002 -2.315844e+002 1.000000e+002
    endloop
  endfacet
  facet normal 0.000000e+000 0.000000e+000 1.000000e+000
    outer loop
      vertex   -7.457133e+001 -1.908435e+001 1.000000e+002
      vertex   -2.183213e+002 -2.315844e+002 1.000000e+002
      vertex   -9.332133e+001 -8.158437e+001 1.000000e+002
    endloop
  endfacet
  facet normal 0.000000e+000 0.000000e+000 1.000000e+000
    outer loop
      vertex   9.417867e+001 -8.158437e+001 1.000000e+002
      vertex   -7.457133e+001 -1.908435e+001 1.000000e+002
      vertex   -9.332133e+001 -8.158437e+001 1.000000e+002
    endloop
  endfacet
  facet normal -0.000000e+000 -0.000000e+000 1.000000e+000
    outer loop
      vertex   8.167867e+001 -1.908435e+001 1.000000e+002
      vertex   9.417867e+001 -8.158437e+001 1.000000e+002
      vertex   1.504287e+002 -2.315844e+002 1.000000e+002
    endloop
  endfacet
  facet normal -0.000000e+000 0.000000e+000 1.000000e+000
    outer loop
      vertex   8.167867e+001 -1.908435e+001 1.000000e+002
      vertex   -7.457133e+001 -1.908435e+001 1.000000e+002
      vertex   9.417867e+001 -8.158437e+001 1.000000e+002
    endloop
  endfacet
  facet normal 0.000000e+000 0.000000e+000 1.000000e+000
    outer loop
      vertex   -9.332133e+001 -8.158437e+001 1.000000e+002
      vertex   -2.183213e+002 -2.315844e+002 1.000000e+002
      vertex   -1.495713e+002 -2.315844e+002 1.000000e+002
    endloop
  endfacet
  facet normal -0.000000e+000 -0.000000e+000 1.000000e+000
    outer loop
      vertex   4.286641e-001 1.809156e+002 1.000000e+002
      vertex   8.167867e+001 -1.908435e+001 1.000000e+002
      vertex   2.191787e+002 -2.315844e+002 1.000000e+002
    endloop
  endfacet
  facet normal 0.000000e+000 0.000000e+000 1.000000e+000
    outer loop
      vertex   4.286641e-001 1.809156e+002 1.000000e+002
      vertex   -2.183213e+002 -2.315844e+002 1.000000e+002
      vertex   -7.457133e+001 -1.908435e+001 1.000000e+002
    endloop
  endfacet
  facet normal -0.000000e+000 -0.000000e+000 1.000000e+000
    outer loop
      vertex   -3.707133e+001 2.684156e+002 1.000000e+002
      vertex   4.286641e-001 1.809156e+002 1.000000e+002
      vertex   2.191787e+002 -2.315844e+002 1.000000e+002
    endloop
  endfacet
  facet normal 0.000000e+000 0.000000e+000 1.000000e+000
    outer loop
      vertex   -3.707133e+001 2.684156e+002 1.000000e+002
      vertex   -2.183213e+002 -2.315844e+002 1.000000e+002
      vertex   4.286641e-001 1.809156e+002 1.000000e+002
    endloop
  endfacet
  facet normal -0.000000e+000 0.000000e+000 1.000000e+000
    outer loop
      vertex   3.792867e+001 2.684156e+002 1.000000e+002
      vertex   -3.707133e+001 2.684156e+002 1.000000e+002
      vertex   2.191787e+002 -2.315844e+002 1.000000e+002
    endloop
  endfacet
endsolid
